<svg width="16" height="16" viewBox="0 0 16 16" fill="none" xmlns="http://www.w3.org/2000/svg">
<path d="M14 8C14 4.68629 11.3137 2 8 2C4.68629 2 2 4.68629 2 8C2 11.3137 4.68629 14 8 14C11.3137 14 14 11.3137 14 8ZM10.293 5.29297C10.6835 4.90244 11.3175 4.90244 11.708 5.29297C12.0985 5.68349 12.0985 6.31748 11.708 6.70801L7.37402 11.041C7.1865 11.2285 6.93213 11.334 6.66699 11.334C6.40183 11.3339 6.14746 11.2285 5.95996 11.041L4.29297 9.37402C3.90282 8.98353 3.90272 8.35039 4.29297 7.95996C4.68349 7.56944 5.31748 7.56944 5.70801 7.95996L6.66699 8.91895L10.293 5.29297ZM16 8C16 12.4183 12.4183 16 8 16C3.58172 16 0 12.4183 0 8C0 3.58172 3.58172 0 8 0C12.4183 0 16 3.58172 16 8Z" fill="#327A34"/>
</svg>
