<svg width="24" height="24" viewBox="0 0 24 24" fill="none" xmlns="http://www.w3.org/2000/svg">
<path fill-rule="evenodd" clip-rule="evenodd" d="M22 12C22 17.5228 17.5228 22 12 22C6.47715 22 2 17.5228 2 12C2 6.47715 6.47715 2 12 2C17.5228 2 22 6.47715 22 12ZM13.5 7.5C13.5 8.32843 12.8284 9 12 9C11.1716 9 10.5 8.32843 10.5 7.5C10.5 6.67157 11.1716 6 12 6C12.8284 6 13.5 6.67157 13.5 7.5ZM8.77432 9.53837C8.2435 9.38712 7.69015 9.69449 7.53849 10.2253C7.38677 10.7563 7.69426 11.3098 8.22529 11.4615L8.50001 10.5C8.22529 11.4615 8.22529 11.4615 8.22529 11.4615L8.22857 11.4625L8.2344 11.4641L8.2536 11.4695C8.26968 11.4739 8.29228 11.4801 8.32096 11.4877C8.37832 11.503 8.46013 11.5243 8.56293 11.5494C8.76826 11.5997 9.05882 11.6661 9.40665 11.7324C9.79618 11.8065 10.2666 11.8824 10.7756 11.9343C10.7255 12.1371 10.6669 12.3629 10.599 12.6074C10.2976 13.6926 9.81812 15.1277 9.10559 16.5528C8.8586 17.0468 9.05882 17.6475 9.5528 17.8944C10.0468 18.1414 10.6475 17.9412 10.8944 17.4472C11.3465 16.5431 11.7106 15.6422 12 14.8185C12.2894 15.6422 12.6535 16.5431 13.1056 17.4472C13.3526 17.9412 13.9532 18.1414 14.4472 17.8944C14.9412 17.6475 15.1414 17.0468 14.8944 16.5528C14.1819 15.1277 13.7025 13.6926 13.401 12.6074C13.3331 12.3629 13.2745 12.1371 13.2245 11.9343C13.7334 11.8824 14.2038 11.8065 14.5934 11.7324C14.9412 11.6661 15.2318 11.5997 15.4371 11.5494C15.5399 11.5243 15.6217 11.503 15.6791 11.4877C15.6951 11.4835 15.7092 11.4796 15.7214 11.4763C15.731 11.4737 15.7393 11.4714 15.7464 11.4695L15.7656 11.4641L15.7715 11.4625L15.7745 11.4616C15.7745 11.4616 15.7747 11.4615 15.5 10.5L15.7745 11.4616C16.3055 11.3099 16.6133 10.7563 16.4615 10.2253C16.3098 9.69433 15.7565 9.38685 15.2255 9.53842L15.2243 9.53878L15.2134 9.54179L15.1637 9.55526C15.1186 9.56731 15.05 9.58514 14.9614 9.60684C14.7839 9.65031 14.5276 9.70893 14.2192 9.76767C13.6007 9.88548 12.8007 9.99831 12.0177 9.99999L12 9.99986L11.9823 9.99999C11.1993 9.99831 10.3994 9.88548 9.78088 9.76767C9.47246 9.70893 9.21614 9.65031 9.03866 9.60684C8.95006 9.58514 8.88148 9.56731 8.83629 9.55526L8.78659 9.54179L8.77577 9.53878L8.77432 9.53837Z" fill="#191919"/>
</svg>
