<svg width="24" height="24" viewBox="0 0 24 24" fill="none" xmlns="http://www.w3.org/2000/svg">
<path d="M21 12C21 7.02944 16.9706 3 12 3C7.02944 3 3 7.02944 3 12C3 16.9706 7.02944 21 12 21C16.9706 21 21 16.9706 21 12ZM10.999 15.999V12.999H7.99902C7.44685 12.9989 6.99902 12.5512 6.99902 11.999C6.99916 11.4469 7.44693 10.9992 7.99902 10.999H10.999V7.99902C10.9992 7.44693 11.4469 6.99916 11.999 6.99902C12.5512 6.99902 12.9989 7.44685 12.999 7.99902V10.999H15.999C16.5512 10.999 16.9989 11.4469 16.999 11.999C16.999 12.5513 16.5513 12.999 15.999 12.999H12.999V15.999C12.999 16.5513 12.5513 16.999 11.999 16.999C11.4469 16.9989 10.999 16.5512 10.999 15.999ZM23 12C23 18.0751 18.0751 23 12 23C5.92487 23 1 18.0751 1 12C1 5.92487 5.92487 1 12 1C18.0751 1 23 5.92487 23 12Z" fill="#191919"/>
</svg>
