<svg width="24" height="24" viewBox="0 0 24 24" fill="none" xmlns="http://www.w3.org/2000/svg">
<path d="M5 8V20H9V8H5ZM15 8V16H19V8H15ZM22 2C22.5523 2 23 2.44772 23 3C23 3.55228 22.5523 4 22 4H2C1.44772 4 1 3.55228 1 3C1 2.44772 1.44772 2 2 2H22ZM11 20C11 21.1046 10.1046 22 9 22H5C3.89543 22 3 21.1046 3 20V8C3.00012 6.89554 3.89551 6 5 6H9C10.1045 6 10.9999 6.89554 11 8V20ZM21 16C21 17.1046 20.1046 18 19 18H15C13.8954 18 13 17.1046 13 16V8C13.0001 6.89554 13.8955 6 15 6H19C20.1045 6 20.9999 6.89554 21 8V16Z" fill="#191919"/>
</svg>
