<svg width="24" height="24" viewBox="0 0 24 24" fill="none" xmlns="http://www.w3.org/2000/svg">
<path d="M19 10C19 9.44772 18.5523 9 18 9H15V18H19V10ZM10 12C10.5523 12 11 12.4477 11 13C11 13.5523 10.5523 14 10 14H8C7.44772 14 7 13.5523 7 13C7 12.4477 7.44772 12 8 12H10ZM10 8C10.5523 8 11 8.44772 11 9C11 9.55228 10.5523 10 10 10H8C7.44772 10 7 9.55228 7 9C7 8.44772 7.44772 8 8 8H10ZM13 6C13 5.44772 12.5523 5 12 5H6C5.44772 5 5 5.44772 5 6V18H13V6ZM15 7H18C19.6569 7 21 8.34315 21 10V18H22C22.5523 18 23 18.4477 23 19C23 19.5523 22.5523 20 22 20H2C1.44772 20 1 19.5523 1 19C1 18.4477 1.44772 18 2 18H3V6C3 4.34315 4.34315 3 6 3H12C13.6569 3 15 4.34315 15 6V7Z" fill="#191919"/>
</svg>
