<svg width="24" height="24" viewBox="0 0 24 24" fill="none" xmlns="http://www.w3.org/2000/svg">
<path d="M11.3693 2.22466C11.762 1.90435 12.341 1.92692 12.7071 2.29302L14.7071 4.29302C14.9929 4.57902 15.0787 5.0093 14.9239 5.38286C14.7691 5.75632 14.4044 5.99994 14.0001 6.00005H13.0001V11H18.0001V10C18.0001 9.59563 18.2437 9.23103 18.6173 9.07622C18.9909 8.92151 19.4212 9.00705 19.7071 9.29302L21.7071 11.293L21.7755 11.3692C22.0956 11.762 22.0732 12.3411 21.7071 12.7071L19.7071 14.7071C19.4212 14.993 18.9909 15.0785 18.6173 14.9239C18.2438 14.7691 18.0002 14.4044 18.0001 14V13H13.0001V18H14.0001C14.4044 18.0002 14.7692 18.2437 14.9239 18.6172C15.0785 18.9908 14.9931 19.4212 14.7071 19.7071L12.7071 21.7071C12.3411 22.0731 11.762 22.0955 11.3693 21.7754L11.2931 21.7071L9.29308 19.7071C9.00711 19.4211 8.92157 18.9909 9.07628 18.6172C9.23109 18.2436 9.59569 18 10.0001 18H11.0001V13H6.00011V14C6 14.4043 5.75638 14.7691 5.38292 14.9239C5.00936 15.0786 4.57908 14.9929 4.29308 14.7071L2.29308 12.7071C1.92698 12.341 1.90441 11.762 2.22472 11.3692L2.29308 11.293L4.29308 9.29302C4.57908 9.00702 5.00925 8.92144 5.38292 9.07622C5.75636 9.2311 6.00011 9.59574 6.00011 10V11H11.0001V6.00005H10.0001C9.5958 6.00005 9.23116 5.7563 9.07628 5.38286C8.9215 5.00919 9.00708 4.57902 9.29308 4.29302L11.2931 2.29302L11.3693 2.22466Z" fill="#191919"/>
</svg>
