<svg width="24" height="24" viewBox="0 0 24 24" fill="none" xmlns="http://www.w3.org/2000/svg">
<path d="M2 13.9999C2 10.6862 4.68629 7.99992 8 7.99992H19.5859L15.793 4.20696C15.4024 3.81643 15.4024 3.18342 15.793 2.79289C16.1835 2.40237 16.8165 2.40237 17.207 2.79289L22 7.58586C22.7809 8.36689 22.7809 9.63296 22 10.414L17.207 15.207C16.8165 15.5975 16.1835 15.5975 15.793 15.207C15.4024 14.8164 15.4024 14.1834 15.793 13.7929L19.5859 9.99992H8C5.79086 9.99992 4 11.7908 4 13.9999C4 16.2091 5.79086 17.9999 8 17.9999H11C11.5523 17.9999 12 18.4476 12 18.9999C12 19.5522 11.5523 19.9999 11 19.9999H8C4.68629 19.9999 2 17.3136 2 13.9999Z" fill="#191919"/>
</svg>
