<svg width="24" height="24" viewBox="0 0 24 24" fill="none" xmlns="http://www.w3.org/2000/svg">
<path d="M4 19.9999V12.9999C4 10.2385 6.23858 7.99992 9 7.99992H19.5859L15.793 4.20696C15.4024 3.81643 15.4024 3.18342 15.793 2.79289C16.1835 2.40237 16.8165 2.40237 17.207 2.79289L22 7.58586C22.7809 8.36689 22.7809 9.63296 22 10.414L17.207 15.207C16.8165 15.5975 16.1835 15.5975 15.793 15.207C15.4024 14.8164 15.4024 14.1834 15.793 13.7929L19.5859 9.99992H9C7.34315 9.99992 6 11.3431 6 12.9999V19.9999C6 20.5522 5.55228 20.9999 5 20.9999C4.44772 20.9999 4 20.5522 4 19.9999Z" fill="#191919"/>
</svg>
