<svg width="24" height="24" viewBox="0 0 24 24" fill="none" xmlns="http://www.w3.org/2000/svg">
<path d="M19.9958 13.9999C19.9958 11.7908 18.2049 9.99997 15.9958 9.99989H4.40988L8.20285 13.7929C8.59327 14.1834 8.59327 14.8164 8.20285 15.2069C7.81235 15.5974 7.17932 15.5974 6.78879 15.2069L1.99582 10.4139C1.21477 9.6329 1.21477 8.36687 1.99582 7.58582L6.78879 2.79286C7.17932 2.40241 7.81235 2.40236 8.20285 2.79286C8.59328 3.18336 8.59328 3.81641 8.20285 4.20692L4.40988 7.99989H15.9958C19.3095 7.99997 21.9958 10.6862 21.9958 13.9999C21.9958 17.3135 19.3095 19.9998 15.9958 19.9999H12.9958C12.4435 19.9999 11.9958 19.5522 11.9958 18.9999C11.9958 18.4476 12.4435 17.9999 12.9958 17.9999H15.9958C18.2049 17.9998 19.9958 16.209 19.9958 13.9999Z" fill="#191919"/>
</svg>
