<svg width="24" height="24" viewBox="0 0 24 24" fill="none" xmlns="http://www.w3.org/2000/svg">
<path d="M20.9999 15V8.41406L13.914 15.5C13.133 16.281 11.8669 16.281 11.0859 15.5L8.49992 12.9141L2.70695 18.707C2.31642 19.0976 1.68341 19.0976 1.29289 18.707C0.902376 18.3165 0.902367 17.6835 1.29289 17.293L7.08586 11.5C7.86688 10.7191 9.13295 10.7191 9.91398 11.5L12.4999 14.0859L19.5859 7H12.9999C12.4476 7 11.9999 6.55228 11.9999 6C11.9999 5.44772 12.4476 5 12.9999 5H20.9999L21.204 5.01074C22.2127 5.11301 22.9999 5.96435 22.9999 7V15C22.9999 15.5523 22.5522 16 21.9999 16C21.4476 16 20.9999 15.5523 20.9999 15Z" fill="#191919"/>
</svg>
