<svg width="24" height="24" viewBox="0 0 24 24" fill="none" xmlns="http://www.w3.org/2000/svg">
<path d="M17.9958 19.9999V12.9999C17.9958 11.3431 16.6526 9.99997 14.9958 9.99989H4.40985L8.20282 13.7929C8.59324 14.1834 8.59324 14.8164 8.20282 15.2069C7.81232 15.5974 7.17929 15.5974 6.78876 15.2069L1.99579 10.4139C1.21474 9.6329 1.21474 8.36687 1.99579 7.58582L6.78876 2.79286C7.17929 2.40241 7.81232 2.40236 8.20282 2.79286C8.59324 3.18336 8.59324 3.81641 8.20282 4.20692L4.40985 7.99989H14.9958C17.7571 7.99997 19.9958 10.2385 19.9958 12.9999V19.9999C19.9958 20.5521 19.548 20.9998 18.9958 20.9999C18.4435 20.9999 17.9958 20.5522 17.9958 19.9999Z" fill="#191919"/>
</svg>
