<svg width="24" height="24" viewBox="0 0 24 24" fill="none" xmlns="http://www.w3.org/2000/svg">
<path fill-rule="evenodd" clip-rule="evenodd" d="M15.5 10.5C16.8807 10.5 18 11.6193 18 13V19.5C18 20.8807 16.8807 22 15.5 22H8.5C7.11929 22 6 20.8807 6 19.5V13C6 11.6193 7.11929 10.5 8.5 10.5H15.5ZM13.5 17C12.9477 17 12.5 17.4477 12.5 18C12.5 18.5523 12.9477 19 13.5 19H15.5L15.6025 18.9951C16.1067 18.9438 16.5 18.5177 16.5 18C16.5 17.4823 16.1067 17.0562 15.6025 17.0049L15.5 17H13.5ZM13.5 13C12.9477 13 12.5 13.4477 12.5 14C12.5 14.5523 12.9477 15 13.5 15H15.5L15.6025 14.9951C16.1067 14.9438 16.5 14.5177 16.5 14C16.5 13.4823 16.1067 13.0562 15.6025 13.0049L15.5 13H13.5Z" fill="#191919"/>
<path d="M12 1C12.9665 1 13.75 1.7835 13.75 2.75V3.20801C13.75 3.37881 13.8679 3.52729 14.0342 3.56641L16.0723 4.04688C17.2016 4.31259 18 5.32034 18 6.48047V7C18.5523 7 19 7.44772 19 8C19 8.55228 18.5523 9 18 9H6C5.44772 9 5 8.55228 5 8C5 7.44772 5.44772 7 6 7V6.48047C6 5.32034 6.79845 4.31259 7.92773 4.04688L9.96582 3.56641C10.1321 3.52729 10.25 3.37881 10.25 3.20801V2.75C10.25 1.7835 11.0335 1 12 1Z" fill="#191919"/>
</svg>
