<svg width="24" height="24" viewBox="0 0 24 24" fill="none" xmlns="http://www.w3.org/2000/svg">
<path d="M16.869 13.7836C16.5696 13.8576 16.2681 13.9108 15.9667 13.9399C14.5299 14.0784 13.0037 14.1398 11.8612 15.0219C11.3267 15.4346 10.7491 15.9192 10.2333 16.435C9.34251 17.3258 7.44447 19.5431 6.06532 21.1782C5.19519 22.2097 3.62709 22.2817 2.67274 21.3276C1.71819 20.3731 1.79016 18.8042 2.82216 17.934C4.45312 16.5589 6.66359 14.6667 7.56434 13.766C8.08638 13.244 8.57294 12.6646 8.98524 12.1303C9.86336 10.9923 9.92254 9.47337 10.0585 8.04241C10.0874 7.73775 10.1408 7.43295 10.2157 7.1303L16.869 13.7836Z" fill="#191919"/>
<path d="M20.5165 11.4311C20.3622 11.6221 20.1976 11.8086 20.0194 11.9867C19.6543 12.3518 19.2588 12.6663 18.8446 12.9311L11.0673 5.15374C11.3321 4.73975 11.6477 4.34581 12.0126 3.98089C12.1909 3.8026 12.3771 3.63729 12.5682 3.48284L20.5165 11.4311Z" fill="#191919"/>
<path d="M14.3534 2.43987C16.4863 1.60452 18.8791 1.95194 20.4638 3.53655C22.0481 5.121 22.3935 7.51241 21.5585 9.64495L14.3534 2.43987Z" fill="#191919"/>
</svg>
