<svg width="24" height="24" viewBox="0 0 24 24" fill="none" xmlns="http://www.w3.org/2000/svg">
<path fill-rule="evenodd" clip-rule="evenodd" d="M11.5 2C10.1193 2 9 3.11929 9 4.5V5.08296C6.16229 5.55904 4 8.027 4 11C4 12.1046 4.89543 13 6 13H18C19.1046 13 20 12.1046 20 11C20 8.027 17.8377 5.55904 15 5.08296V4.5C15 3.11929 13.8807 2 12.5 2H11.5ZM13 5V4.5C13 4.22386 12.7761 4 12.5 4H11.5C11.2239 4 11 4.22386 11 4.5V5H13ZM10 9C9.44772 9 9 9.44772 9 10C9 10.5523 9.44772 11 10 11H14C14.5523 11 15 10.5523 15 10C15 9.44772 14.5523 9 14 9H10Z" fill="#191919"/>
<path d="M13 16V15H6C5.27143 15 4.58835 14.8052 4 14.4649V19.5C4 20.8807 5.11929 22 6.5 22H17.5C18.8807 22 20 20.8807 20 19.5V14.4649C19.4117 14.8052 18.7286 15 18 15H15V16C15 16.5523 14.5523 17 14 17C13.4477 17 13 16.5523 13 16Z" fill="#191919"/>
</svg>
