<svg width="24" height="24" viewBox="0 0 24 24" fill="none" xmlns="http://www.w3.org/2000/svg">
<path d="M16.2904 8.29297C16.681 7.90251 17.314 7.90247 17.7045 8.29297C18.0949 8.68348 18.0949 9.31653 17.7045 9.70703L15.4115 12L17.7045 14.293C18.0949 14.6835 18.0949 15.3165 17.7045 15.707C17.314 16.0975 16.681 16.0975 16.2904 15.707L13.9975 13.4141L11.7045 15.707C11.314 16.0975 10.681 16.0975 10.2904 15.707C9.89991 15.3165 9.89991 14.6835 10.2904 14.293L12.5834 12L10.2904 9.70703C9.89991 9.31651 9.89991 8.68349 10.2904 8.29297C10.681 7.9025 11.314 7.90246 11.7045 8.29297L13.9975 10.5859L16.2904 8.29297Z" fill="#191919"/>
<path fill-rule="evenodd" clip-rule="evenodd" d="M18.9975 3C21.2066 3 22.9975 4.79086 22.9975 7V17C22.9975 19.2091 21.2066 21 18.9975 21H9.76797C8.68514 21 7.64836 20.5609 6.89493 19.7832L0.703522 13.3916C-0.0478213 12.616 -0.047821 11.384 0.703522 10.6084L6.89493 4.2168C7.64836 3.43906 8.68514 3.00004 9.76797 3H18.9975ZM9.76797 5C9.22658 5.00004 8.70815 5.21955 8.33145 5.6084L2.14005 12L8.33145 18.3916C8.70815 18.7805 9.22658 19 9.76797 19H18.9975C20.102 19 20.9975 18.1046 20.9975 17V7C20.9975 5.89543 20.102 5 18.9975 5H9.76797Z" fill="#191919"/>
</svg>
