<svg width="24" height="24" viewBox="0 0 24 24" fill="none" xmlns="http://www.w3.org/2000/svg">
<path fill-rule="evenodd" clip-rule="evenodd" d="M11.4497 3C9.85845 3 8.33233 3.63214 7.20711 4.75736L1.73223 10.2322C0.755924 11.2085 0.755921 12.7915 1.73223 13.7678L7.20711 19.2426C8.33233 20.3679 9.85845 21 11.4497 21H19.8787C22.0878 21 23.8787 19.2091 23.8787 17V7C23.8787 4.79086 22.0878 3 19.8787 3H11.4497ZM18.5858 8.29289C18.9763 8.68342 18.9763 9.31658 18.5858 9.70711L16.2929 12L18.5858 14.2929C18.9763 14.6834 18.9763 15.3166 18.5858 15.7071C18.1953 16.0976 17.5621 16.0976 17.1716 15.7071L14.8787 13.4142L12.5858 15.7071C12.1953 16.0976 11.5621 16.0976 11.1716 15.7071C10.781 15.3166 10.781 14.6834 11.1716 14.2929L13.4645 12L11.1716 9.70711C10.781 9.31658 10.781 8.68342 11.1716 8.29289C11.5621 7.90237 12.1953 7.90237 12.5858 8.29289L14.8787 10.5858L17.1716 8.29289C17.5621 7.90237 18.1953 7.90237 18.5858 8.29289Z" fill="#191919"/>
</svg>
