<svg width="24" height="24" viewBox="0 0 24 24" fill="none" xmlns="http://www.w3.org/2000/svg">
<path d="M14.5659 2.96428C14.2884 2.38156 13.7295 1.91414 13.1038 2.07265C12.894 2.12581 12.6834 2.20837 12.4753 2.32345C12.0599 2.55313 11.5783 2.84475 11.0372 3.21286L16.4953 11.2181C16.9908 10.8192 17.4821 10.443 17.9597 10.0915L14.5659 2.96428Z" fill="#191919"/>
<path d="M19.6195 8.92509L17.0405 3.50918L20.2799 4.37304C22.0615 4.84813 22.2825 7.22636 20.8217 8.14421C20.4523 8.37629 20.0484 8.63724 19.6195 8.92509Z" fill="#191919"/>
<path d="M7.96736 3.53265C8.37475 3.36635 8.83332 3.53068 9.08119 3.89425L14.9621 12.5198C14.5376 12.9008 14.1173 13.297 13.7071 13.7071C13.297 14.1173 12.9008 14.5376 12.5198 14.9621L3.89421 9.08117C3.53063 8.83328 3.3663 8.37468 3.53263 7.96728C3.86637 7.14979 4.40926 6.17647 5.29286 5.29287C6.17651 4.40922 7.14987 3.86635 7.96736 3.53265Z" fill="#191919"/>
<path d="M3.21283 11.0372C2.84475 11.5782 2.55316 12.0598 2.32349 12.4751C2.20835 12.6833 2.12576 12.894 2.0726 13.1039C1.91415 13.7295 2.38155 14.2884 2.96423 14.5658L10.0915 17.9598C10.443 17.4821 10.8193 16.9908 11.2181 16.4953L3.21283 11.0372Z" fill="#191919"/>
<path d="M3.50926 17.0406L8.92513 19.6195C8.63732 20.0484 8.3764 20.4522 8.14435 20.8216C7.22651 22.2824 4.84827 22.0614 4.37316 20.2799L3.50926 17.0406Z" fill="#191919"/>
</svg>
