<svg width="24" height="24" viewBox="0 0 24 24" fill="none" xmlns="http://www.w3.org/2000/svg">
<path d="M3 9C3 5.21769 5.83002 2 9.5 2C13.17 2 16 5.21769 16 9C16 11.8784 14.3783 14.4013 11.9913 15.4676C11.9301 16.0754 11.5498 16.589 11.0205 16.8383C11.3556 17.7453 11.1382 18.7761 10.4427 19.4716L9.97171 19.9426C9.81953 20.0948 9.7818 20.3273 9.87805 20.5198L9.89455 20.5528C10.1415 21.0467 9.94132 21.6474 9.44734 21.8944C8.95336 22.1414 8.35269 21.9412 8.1057 21.4472L8.0892 21.4142C7.60796 20.4517 7.7966 19.2893 8.5575 18.5284L9.02854 18.0573C9.18072 17.9052 9.21844 17.6727 9.1222 17.4802L8.8821 17H8.70534C7.82188 17 7.09533 16.3282 7.00866 15.4676C4.62168 14.4013 3 11.8784 3 9Z" fill="#191919"/>
<path d="M17.2206 17.9999H17.2364C18.1728 17.9999 18.9388 17.2702 18.9967 16.3484C20.8107 15.3402 22.0002 13.2971 22.0002 10.9999C22.0002 7.8076 19.6632 5.03409 16.5577 5.00024C17.1614 6.20207 17.5002 7.5681 17.5002 8.99993C17.5002 11.9831 16.0293 14.6806 13.7573 16.2027C13.8381 16.2534 13.9203 16.302 14.0037 16.3484C14.0491 17.0699 14.5282 17.6737 15.1833 17.9021C15.0902 18.513 15.2263 19.1426 15.5747 19.6651L15.6849 19.8304C15.7844 19.9797 15.7963 20.1709 15.7161 20.3314L15.6054 20.5528C15.3584 21.0468 15.5586 21.6475 16.0526 21.8945C16.5465 22.1414 17.1472 21.9412 17.3942 21.4472L17.5049 21.2258C17.9061 20.4234 17.8466 19.4675 17.349 18.721L17.2388 18.5557C17.1532 18.4274 17.1317 18.2667 17.1805 18.1203L17.2206 17.9999Z" fill="#191919"/>
</svg>
