<svg width="24" height="24" viewBox="0 0 24 24" fill="none" xmlns="http://www.w3.org/2000/svg">
<path fill-rule="evenodd" clip-rule="evenodd" d="M2.25584 9.74263C3.11188 6.03253 6.03228 3.11205 9.74234 2.25591C9.90974 2.80783 9.99976 3.3934 9.99976 4C9.99976 7.31371 7.31347 10 3.99976 10C3.39322 10 2.80771 9.91 2.25584 9.74263ZM11.9998 4C11.9998 3.31052 11.9125 2.64141 11.7485 2.0031C11.8321 2.00104 11.9159 2 12 2C17.5228 2 22 6.47715 22 12C22 12.084 21.999 12.1677 21.9969 12.2512C21.3586 12.0872 20.6895 12 20 12C15.5817 12 12 15.5817 12 20C12 20.6895 12.0872 21.3586 12.2512 21.9969C12.1677 21.999 12.084 22 12 22C6.47715 22 2 17.5228 2 12C2 11.916 2.00104 11.8323 2.00309 11.7488C2.64133 11.9128 3.31036 12 3.99976 12C8.41804 12 11.9998 8.41828 11.9998 4ZM21.7442 14.2574C20.8881 17.9676 17.9676 20.8881 14.2574 21.7442C14.09 21.1922 14 20.6066 14 20C14 16.6862 16.6862 14 20 14C20.6066 14 21.1922 14.09 21.7442 14.2574Z" fill="#191919"/>
</svg>
