<svg width="24" height="24" viewBox="0 0 24 24" fill="none" xmlns="http://www.w3.org/2000/svg">
<path d="M18.3281 19.7422C16.7581 21.027 14.7905 21.842 12.6377 21.9775C12.548 21.4987 12.5 21.0049 12.5 20.5C12.5 18.6513 13.1286 16.9504 14.1816 15.5957L18.3281 19.7422Z" fill="#191919"/>
<path d="M12.7568 14.1709C11.3461 15.8948 10.5 18.0987 10.5 20.5C10.5 20.975 10.5344 21.4421 10.5986 21.8994C6.19714 21.282 2.71657 17.802 2.09961 13.4004C2.55724 13.4649 3.02459 13.5 3.5 13.5C5.90127 13.5 8.10425 12.6529 9.82812 11.2422L12.7568 14.1709Z" fill="#191919"/>
<path d="M20.5 12.5C21.0049 12.5 21.4987 12.548 21.9775 12.6377C21.842 14.7905 21.027 16.7581 19.7422 18.3281L15.5957 14.1816C16.9504 13.1286 18.6513 12.5 20.5 12.5Z" fill="#191919"/>
<path d="M13.4004 2.09961C17.802 2.71657 21.282 6.19714 21.8994 10.5986C21.4421 10.5344 20.975 10.5 20.5 10.5C18.0987 10.5 15.8948 11.3461 14.1709 12.7568L11.2422 9.82812C12.6529 8.10425 13.5 5.90127 13.5 3.5C13.5 3.02459 13.4649 2.55724 13.4004 2.09961Z" fill="#191919"/>
<path d="M8.40332 9.81738C7.04868 10.8703 5.3486 11.5 3.5 11.5C2.9946 11.5 2.50074 11.4504 2.02148 11.3604C2.15736 9.2082 2.97234 7.24051 4.25684 5.6709L8.40332 9.81738Z" fill="#191919"/>
<path d="M11.3604 2.02246C11.4503 2.50142 11.5 2.99494 11.5 3.5C11.5 5.3486 10.8703 7.04868 9.81738 8.40332L5.6709 4.25684C7.2405 2.97235 9.20822 2.15835 11.3604 2.02246Z" fill="#191919"/>
</svg>
