<svg width="24" height="24" viewBox="0 0 24 24" fill="none" xmlns="http://www.w3.org/2000/svg">
<path fill-rule="evenodd" clip-rule="evenodd" d="M21.657 1.06049C22.0973 0.900036 22.5904 1.06684 22.8426 1.46185C23.0947 1.85723 23.0383 2.3753 22.7068 2.70697L15.3367 10.0771L20.1736 14.914C20.4149 15.1555 20.5168 15.5035 20.4431 15.8369C20.3694 16.1701 20.1299 16.4433 19.8094 16.5605L2.34256 22.9394C1.9022 23.1001 1.40932 22.9331 1.15702 22.538C0.904756 22.1425 0.96106 21.6246 1.29276 21.2929L8.66288 13.9228L3.82596 9.08588C3.58448 8.84438 3.48269 8.49649 3.55643 8.16303C3.63025 7.8297 3.86952 7.55652 4.19022 7.43939L21.657 1.06049ZM6.34842 8.78021L11.491 13.9228L5.90409 19.5087L17.6502 15.2187L12.5086 10.0771L18.0945 4.49018L6.34842 8.78021Z" fill="#191919"/>
</svg>
