<svg width="24" height="24" viewBox="0 0 24 24" fill="none" xmlns="http://www.w3.org/2000/svg">
<path d="M17.7947 4.88051C16.0098 3.09564 13.0382 3.38989 11.6381 5.49013C11.2537 6.0667 10.9059 6.64397 10.2073 6.87684L5.21877 8.53967C3.80831 9.00982 3.38571 10.7999 4.43702 11.8512L7.58579 15L3.29289 19.2929C2.90237 19.6834 2.90237 20.3166 3.29289 20.7071C3.68342 21.0977 4.31658 21.0977 4.70711 20.7071L9 16.4142L12.1488 19.563C13.2001 20.6143 14.9902 20.1917 15.4604 18.7812L17.1232 13.7927C17.356 13.0942 17.9333 12.7463 18.5099 12.3619C20.6101 10.9618 20.9044 7.99018 19.1195 6.20532L17.7947 4.88051Z" fill="#191919"/>
</svg>
