<svg width="24" height="24" viewBox="0 0 24 24" fill="none" xmlns="http://www.w3.org/2000/svg">
<path d="M16.3805 6.29472C15.4881 5.40229 14.0023 5.54941 13.3022 6.59953L12.903 7.19827C12.4096 7.93838 11.6836 8.49292 10.8397 8.7742L5.85123 10.437L13.563 18.1488L15.2258 13.1603C15.5071 12.3164 16.0616 11.5904 16.8017 11.097L17.4005 10.6978C18.4506 9.99776 18.5977 8.51196 17.7053 7.61953L16.3805 6.29472ZM11.6381 5.49013C13.0382 3.38989 16.0098 3.09564 17.7947 4.88051L19.1195 6.20532C20.9044 7.99018 20.6101 10.9618 18.5099 12.3619L17.9111 12.7611C17.5411 13.0078 17.2638 13.3708 17.1232 13.7927L15.4604 18.7812C14.9902 20.1917 13.2001 20.6143 12.1488 19.563L9 16.4142L4.70711 20.7071C4.31658 21.0977 3.68342 21.0977 3.29289 20.7071C2.90237 20.3166 2.90237 19.6834 3.29289 19.2929L7.58579 15L4.43702 11.8512C3.38571 10.7999 3.80831 9.00982 5.21877 8.53967L10.2073 6.87684C10.6292 6.73619 10.9922 6.45893 11.2389 6.08887L11.6381 5.49013Z" fill="#191919"/>
</svg>
