<svg width="24" height="24" viewBox="0 0 24 24" fill="none" xmlns="http://www.w3.org/2000/svg">
<path d="M7 5H8V11C8 11.3688 8.20298 11.7077 8.52814 11.8817C8.8533 12.0557 9.24784 12.0366 9.5547 11.8321L12 10.2019L14.4453 11.8321C14.7522 12.0366 15.1467 12.0557 15.4719 11.8817C15.797 11.7077 16 11.3688 16 11V5H17C18.1046 5 19 5.89543 19 7V17C19 18.1046 18.1046 19 17 19H7C5.89543 19 5 18.1046 5 17V7C5 5.89543 5.89543 5 7 5ZM7 3C4.79086 3 3 4.79086 3 7V17C3 19.2091 4.79086 21 7 21H17C19.2091 21 21 19.2091 21 17V7C21 4.79086 19.2091 3 17 3H7ZM10 5H14V9.13148L12.5547 8.16795C12.2188 7.94402 11.7812 7.94402 11.4453 8.16795L10 9.13148V5ZM12 16C12 15.4477 12.4477 15 13 15H16C16.5523 15 17 15.4477 17 16C17 16.5523 16.5523 17 16 17H13C12.4477 17 12 16.5523 12 16Z" fill="#191919"/>
</svg>
