<svg width="24" height="24" viewBox="0 0 24 24" fill="none" xmlns="http://www.w3.org/2000/svg">
<path d="M17 5V6H18C20.2091 6 22 7.79086 22 10V17C22 19.2091 20.2091 21 18 21H6C3.79086 21 2 19.2091 2 17V10C2 7.79086 3.79086 6 6 6H7V5C7 3.34315 8.34315 2 10 2H14C15.6569 2 17 3.34315 17 5ZM9 5V6H15V5C15 4.44772 14.5523 4 14 4H10C9.44772 4 9 4.44772 9 5ZM4 12V17C4 18.1046 4.89543 19 6 19H18C19.1046 19 20 18.1046 20 17V12H13V13C13 13.5523 12.5523 14 12 14C11.4477 14 11 13.5523 11 13V12H4ZM20 10C20 8.89543 19.1046 8 18 8H6C4.89543 8 4 8.89543 4 10H20Z" fill="#191919"/>
</svg>
