<svg width="24" height="24" viewBox="0 0 24 24" fill="none" xmlns="http://www.w3.org/2000/svg">
<path d="M6.00001 2C6.00001 1.44772 6.44773 1 7.00001 1C7.5523 1 8.00001 1.44772 8.00001 2V3L16 3V2C16 1.44772 16.4477 1 17 1C17.5523 1 18 1.44772 18 2V3C18 3.04741 17.9967 3.09404 17.9903 3.13969C18.2575 3.20097 18.5363 3.29346 18.816 3.43597C19.5686 3.81947 20.1805 4.43139 20.564 5.18404C20.7967 5.64075 20.8961 6.09506 20.944 6.5H3.05607C3.10397 6.09506 3.20328 5.64075 3.43598 5.18404C3.81948 4.43139 4.4314 3.81947 5.18405 3.43597C5.46376 3.29346 5.74257 3.20097 6.00969 3.13969C6.00331 3.09404 6.00001 3.04741 6.00001 3V2Z" fill="#181818"/>
<path fill-rule="evenodd" clip-rule="evenodd" d="M3.00001 8.5H21L21 15.8638C21.0001 16.3685 21.0001 16.8601 20.9661 17.2765C20.9288 17.7336 20.8406 18.2731 20.564 18.816C20.1805 19.5686 19.5686 20.1805 18.816 20.564C18.2731 20.8406 17.7337 20.9288 17.2765 20.9661C16.8601 21.0001 16.3685 21.0001 15.8638 21H8.13625C7.63147 21.0001 7.13988 21.0001 6.72355 20.9661C6.26636 20.9288 5.7269 20.8406 5.18405 20.564C4.4314 20.1805 3.81948 19.5686 3.43598 18.816C3.15939 18.2731 3.07125 17.7336 3.0339 17.2765C2.99989 16.8602 2.99995 16.3686 3.00001 15.8638L3.00001 8.5ZM13 11.5C13 10.9477 12.5523 10.5 12 10.5C11.4477 10.5 11 10.9477 11 11.5V13.5H9C8.44772 13.5 8 13.9477 8 14.5C8 15.0523 8.44772 15.5 9 15.5H11V17.5C11 18.0523 11.4477 18.5 12 18.5C12.5523 18.5 13 18.0523 13 17.5V15.5H15C15.5523 15.5 16 15.0523 16 14.5C16 13.9477 15.5523 13.5 15 13.5H13V11.5Z" fill="#181818"/>
</svg>
