<svg width="24" height="24" viewBox="0 0 24 24" fill="none" xmlns="http://www.w3.org/2000/svg">
<path d="M12 9C9.79086 9 8 10.7909 8 13C8 15.2091 9.79086 17 12 17C14.2091 17 16 15.2091 16 13C16 10.7909 14.2091 9 12 9ZM10 13C10 11.8954 10.8954 11 12 11C13.1046 11 14 11.8954 14 13C14 14.1046 13.1046 15 12 15C10.8954 15 10 14.1046 10 13Z" fill="#191919"/>
<path d="M11.2426 3C10.1818 3 9.16436 3.42143 8.41421 4.17157L7.12132 5.46447C6.77842 5.80736 6.31336 6 5.82843 6C3.71405 6 2 7.71405 2 9.82843V17C2 19.2091 3.79086 21 6 21H18C20.2091 21 22 19.2091 22 17V9.82843C22 7.71405 20.286 6 18.1716 6C17.6866 6 17.2216 5.80736 16.8787 5.46447L15.5858 4.17157C14.8356 3.42143 13.8182 3 12.7574 3H11.2426ZM9.82843 5.58579C10.2035 5.21071 10.7122 5 11.2426 5H12.7574C13.2878 5 13.7965 5.21071 14.1716 5.58579L15.4645 6.87868C16.1824 7.59665 17.1562 8 18.1716 8C19.1814 8 20 8.81861 20 9.82843V17C20 18.1046 19.1046 19 18 19H6C4.89543 19 4 18.1046 4 17V9.82843C4 8.81861 4.81861 8 5.82843 8C6.84379 8 7.81756 7.59665 8.53553 6.87868L9.82843 5.58579Z" fill="#191919"/>
</svg>
