<svg width="24" height="24" viewBox="0 0 24 24" fill="none" xmlns="http://www.w3.org/2000/svg">
<path d="M11.5645 21.9998L11.7823 17.7169C11.7854 17.6464 11.7731 17.5762 11.7463 17.5113C11.7195 17.4463 11.6788 17.3884 11.6273 17.3417C11.5758 17.2951 11.5147 17.2609 11.4485 17.2416C11.3824 17.2224 11.3129 17.2186 11.2452 17.2305L7.08871 17.9799L7.65 16.3918C7.67277 16.3286 7.67569 16.2597 7.65833 16.1947C7.64097 16.1298 7.60422 16.072 7.55323 16.0295L3 12.2479L4.02581 11.7566C4.09509 11.723 4.15003 11.6646 4.18033 11.5924C4.21062 11.5203 4.21417 11.4392 4.19032 11.3645L3.29032 8.52581L5.9129 9.09653C5.98395 9.11172 6.05794 9.10125 6.12232 9.06687C6.1867 9.0325 6.23751 8.97635 6.26613 8.90794L6.77419 7.68214L8.82097 9.93524C8.86777 9.98587 8.92931 10.0196 8.99636 10.0313C9.06342 10.043 9.13237 10.0321 9.19288 10.0003C9.25339 9.96839 9.3022 9.91726 9.33198 9.85453C9.36176 9.79181 9.37091 9.72087 9.35806 9.65236L8.37097 4.43152L9.95323 5.36948C9.99037 5.39181 10.0316 5.40608 10.0743 5.41141C10.1171 5.41673 10.1604 5.413 10.2017 5.40043C10.243 5.38787 10.2813 5.36675 10.3143 5.33838C10.3473 5.31 10.3743 5.27498 10.3935 5.23549L12 1.99976L13.6065 5.23549C13.6257 5.27498 13.6527 5.31 13.6857 5.33838C13.7187 5.36675 13.757 5.38787 13.7983 5.40043C13.8396 5.413 13.8829 5.41673 13.9257 5.41141C13.9684 5.40608 14.0096 5.39181 14.0468 5.36948L15.629 4.43152L14.6419 9.65236C14.6291 9.72087 14.6382 9.79181 14.668 9.85453C14.6978 9.91726 14.7466 9.96839 14.8071 10.0003C14.8676 10.0321 14.9366 10.043 15.0036 10.0313C15.0707 10.0196 15.1322 9.98587 15.179 9.93524L17.2258 7.68214L17.7339 8.90794C17.7625 8.97635 17.8133 9.0325 17.8777 9.06687C17.9421 9.10125 18.016 9.11172 18.0871 9.09653L20.7097 8.52581L19.8097 11.3645C19.7858 11.4392 19.7894 11.5203 19.8197 11.5924C19.85 11.6646 19.9049 11.723 19.9742 11.7566L21 12.2479L16.4468 16.0295C16.3958 16.072 16.359 16.1298 16.3417 16.1947C16.3243 16.2597 16.3272 16.3286 16.35 16.3918L16.9113 17.9799L12.7548 17.2305C12.6871 17.2186 12.6176 17.2224 12.5514 17.2416C12.4853 17.2609 12.4242 17.2951 12.3727 17.3417C12.3212 17.3884 12.2805 17.4463 12.2537 17.5113C12.2269 17.5762 12.2146 17.6464 12.2177 17.7169L12.4355 21.9998H11.5645Z" fill="#EF3340"/>
</svg>
