<svg width="24" height="24" viewBox="0 0 24 24" fill="none" xmlns="http://www.w3.org/2000/svg">
<path fill-rule="evenodd" clip-rule="evenodd" d="M6.64935 5.47427C6.83156 5.17945 7.15342 5 7.5 5H18.5C18.8466 5 19.1684 5.17945 19.3507 5.47427C19.5329 5.76909 19.5494 6.13723 19.3944 6.44721L17.8944 9.44721C17.725 9.786 17.3788 10 17 10H9C8.62123 10 8.27497 9.786 8.10557 9.44721L6.60557 6.44721C6.45058 6.13723 6.46714 5.76909 6.64935 5.47427ZM6.64935 11.4743C6.83156 11.1795 7.15342 11 7.5 11H18.5C18.8466 11 19.1684 11.1795 19.3507 11.4743C19.5329 11.7691 19.5494 12.1372 19.3944 12.4472L17.8944 15.4472C17.725 15.786 17.3788 16 17 16H9C8.62123 16 8.27497 15.786 8.10557 15.4472L6.60557 12.4472C6.45058 12.1372 6.46714 11.7691 6.64935 11.4743ZM4 7C4 6.44772 3.55228 6 3 6C2.44772 6 2 6.44772 2 7V15C2 16.8652 3.27667 18.4323 5.00385 18.875C5.0013 18.9163 5 18.958 5 19C5 20.1046 5.89543 21 7 21C8.10457 21 9 20.1046 9 19H16C16 20.1046 16.8954 21 18 21C19.1046 21 20 20.1046 20 19H21C21.5523 19 22 18.5523 22 18C22 17.4477 21.5523 17 21 17H18H7H6C4.89543 17 4 16.1046 4 15V7Z" fill="#191919"/>
</svg>
