<svg width="24" height="24" viewBox="0 0 24 24" fill="none" xmlns="http://www.w3.org/2000/svg">
<path d="M16.2073 10.7071C16.5978 10.3166 16.5978 9.68339 16.2073 9.29286C15.8168 8.90234 15.1836 8.90234 14.7931 9.29286L11.0002 13.0858L9.70733 11.7929C9.3168 11.4024 8.68363 11.4024 8.2931 11.7929C7.90258 12.1834 7.90258 12.8166 8.2931 13.2071L10.2931 15.2071C10.6836 15.5976 11.3168 15.5976 11.7073 15.2071L16.2073 10.7071Z" fill="#191919"/>
<path d="M13.946 2.71934C12.8248 1.7638 11.1756 1.7638 10.0543 2.71934L8.89769 3.70504C8.73752 3.84153 8.53838 3.92402 8.32862 3.94076L6.81374 4.06165C5.34521 4.17884 4.17908 5.34497 4.06189 6.8135L3.941 8.32838C3.92426 8.53814 3.84177 8.73728 3.70528 8.89745L2.71958 10.0541C1.76404 11.1754 1.76404 12.8246 2.71958 13.9458L3.70528 15.1025C3.84177 15.2627 3.92426 15.4618 3.941 15.6716L4.06189 17.1865C4.17908 18.655 5.34521 19.8211 6.81374 19.9383L8.32862 20.0592C8.53838 20.0759 8.73752 20.1584 8.89769 20.2949L10.0543 21.2806C11.1756 22.2362 12.8248 22.2361 13.946 21.2806L15.1027 20.2949C15.2629 20.1584 15.462 20.0759 15.6718 20.0592L17.1867 19.9383C18.6552 19.8211 19.8213 18.655 19.9385 17.1865L20.0594 15.6716C20.0761 15.4618 20.1586 15.2627 20.2951 15.1025L21.2808 13.9458C22.2364 12.8246 22.2363 11.1754 21.2808 10.0541L20.2951 8.89745C20.1586 8.73728 20.0761 8.53814 20.0594 8.32838L19.9385 6.8135C19.8213 5.34497 18.6552 4.17884 17.1867 4.06165L15.6718 3.94076C15.462 3.92402 15.2629 3.84153 15.1027 3.70504L13.946 2.71934ZM11.3516 4.24157C11.7253 3.92306 12.2751 3.92306 12.6488 4.24157L13.8055 5.22727C14.286 5.63674 14.8834 5.8842 15.5127 5.93442L17.0276 6.05531C17.5171 6.09437 17.9058 6.48308 17.9448 6.97259L18.0657 8.48747C18.1159 9.11677 18.3634 9.71419 18.7729 10.1947L19.7586 11.3514C20.0771 11.7251 20.0771 12.2749 19.7586 12.6486L18.7729 13.8053C18.3634 14.2858 18.1159 14.8832 18.0657 15.5125L17.9448 17.0274C17.9058 17.5169 17.5171 17.9056 17.0276 17.9446L15.5127 18.0655C14.8834 18.1157 14.286 18.3632 13.8055 18.7727L12.6488 19.7584C12.2751 20.0769 11.7253 20.0769 11.3516 19.7584L10.1949 18.7727C9.71443 18.3632 9.11701 18.1157 8.48771 18.0655L6.97283 17.9446C6.48332 17.9056 6.09461 17.5169 6.05555 17.0274L5.93466 15.5125C5.88444 14.8832 5.63699 14.2858 5.22751 13.8053L4.24181 12.6486C3.9233 12.2749 3.9233 11.7251 4.24181 11.3514L5.22751 10.1947C5.63699 9.71419 5.88444 9.11677 5.93466 8.48747L6.05555 6.97259C6.09461 6.48308 6.48332 6.09437 6.97283 6.05531L8.48771 5.93442C9.11701 5.8842 9.71443 5.63674 10.1949 5.22727L11.3516 4.24157Z" fill="#191919"/>
</svg>
