<svg width="24" height="24" viewBox="0 0 24 24" fill="none" xmlns="http://www.w3.org/2000/svg">
<path d="M2 12.0001C2.0001 6.4773 6.47722 2.00006 12 2.00006C12.5522 2.00006 12.9999 2.44786 13 3.00006C13 3.55235 12.5523 4.00006 12 4.00006C7.58179 4.00006 4.0001 7.58187 4 12.0001C4 16.4183 7.58172 20.0001 12 20.0001C16.4183 20.0001 20 16.4183 20 12.0001C20.0001 11.4479 20.4478 11.0001 21 11.0001C21.5522 11.0001 21.9999 11.4479 22 12.0001C22 17.5229 17.5228 22.0001 12 22.0001C6.47715 22.0001 2 17.5229 2 12.0001ZM6 12.0001C6 9.31199 7.76687 7.03877 10.2002 6.27447C10.727 6.10901 11.2885 6.40205 11.4541 6.92877C11.6196 7.45562 11.3266 8.01711 10.7998 8.18268C9.17606 8.69267 8 10.2105 8 12.0001C8.0001 14.2091 9.79093 16.0001 12 16.0001C13.7896 16.0001 15.3074 14.824 15.8174 13.2003C15.9828 12.6734 16.5435 12.3807 17.0703 12.546C17.5971 12.7114 17.8908 13.2721 17.7256 13.7989C16.9614 16.2324 14.6882 18.0001 12 18.0001C8.68636 18.0001 6.0001 15.3137 6 12.0001ZM16.6348 1.96686C17.2559 1.49128 18.1688 1.70718 18.5117 2.41022L18.5762 2.56744L19.29 4.70904L21.4326 5.42389L21.5908 5.48834C22.2934 5.83149 22.5086 6.74436 22.0332 7.36529L21.9209 7.49322L19.5859 9.82916C18.8359 10.5791 17.8184 10.9999 16.7578 11.0001H14.4141L12.707 12.7071C12.3165 13.0976 11.6835 13.0976 11.293 12.7071C10.9025 12.3166 10.9025 11.6835 11.293 11.293L13 9.586V7.24322C13 6.18236 13.4217 5.16427 14.1719 4.41412L16.5068 2.07916L16.6348 1.96686ZM15 9.00006H16.7578C17.2881 8.99994 17.7969 8.78909 18.1719 8.41412L19.6484 6.93756L18.1836 6.44928C17.8851 6.34975 17.6513 6.115 17.5518 5.81647L17.0625 4.35065L15.5859 5.82916C15.211 6.20422 15 6.71287 15 7.24322V9.00006Z" fill="#191919"/>
</svg>
