<svg width="24" height="24" viewBox="0 0 24 24" fill="none" xmlns="http://www.w3.org/2000/svg">
<path fill-rule="evenodd" clip-rule="evenodd" d="M8.13622 3.00001C7.63146 2.99995 7.13986 2.99989 6.72355 3.0339C6.26636 3.07125 5.7269 3.15939 5.18405 3.43598C4.4314 3.81948 3.81948 4.4314 3.43598 5.18405C3.15939 5.7269 3.07125 6.26636 3.0339 6.72355C2.99989 7.13986 2.99995 7.63143 3.00001 8.13619L3.00001 15.8638C2.99995 16.3686 2.99989 16.8602 3.0339 17.2765C3.07125 17.7337 3.15939 18.2731 3.43598 18.816C3.81948 19.5686 4.4314 20.1805 5.18405 20.564C5.7269 20.8406 6.26636 20.9288 6.72355 20.9661C7.13986 21.0001 7.63143 21.0001 8.13618 21H15.8638C16.3685 21.0001 16.8602 21.0001 17.2765 20.9661C17.7337 20.9288 18.2731 20.8406 18.816 20.564C19.5686 20.1805 20.1805 19.5686 20.564 18.816C20.8406 18.2731 20.9288 17.7337 20.9661 17.2765C21.0001 16.8602 21.0001 16.3686 21 15.8638V8.13625C21.0001 7.6315 21.0001 7.13986 20.9661 6.72355C20.9288 6.26636 20.8406 5.7269 20.564 5.18405C20.1805 4.4314 19.5686 3.81948 18.816 3.43598C18.2731 3.15939 17.7337 3.07125 17.2765 3.0339C16.8602 2.99989 16.3686 2.99995 15.8638 3.00001L8.13622 3.00001ZM16.5 10.4142C16.8905 10.0237 16.8905 9.39052 16.5 9C16.1095 8.60948 15.4763 8.60948 15.0858 9L10.5 13.5858L8.91421 12C8.52369 11.6095 7.89052 11.6095 7.5 12C7.10948 12.3905 7.10948 13.0237 7.5 13.4142L9.79289 15.7071C10.1834 16.0976 10.8166 16.0976 11.2071 15.7071L16.5 10.4142Z" fill="#191919"/>
</svg>
