<svg width="24" height="24" viewBox="0 0 24 24" fill="none" xmlns="http://www.w3.org/2000/svg">
<path d="M9.11013 3H14.8899C15.858 2.99998 16.6568 2.99997 17.303 3.06312C17.9757 3.12888 18.5884 3.27056 19.1433 3.62269C19.6405 3.93819 20.0618 4.35955 20.3773 4.85669C20.7294 5.41155 20.8711 6.02427 20.9369 6.69705C21 7.34317 21 8.14201 21 9.11011V14.8899C21 15.858 21 16.6568 20.9369 17.303C20.8711 17.9757 20.7294 18.5884 20.3773 19.1433C20.0618 19.6405 19.6405 20.0618 19.1433 20.3773C18.5884 20.7294 17.9757 20.8711 17.303 20.9369C16.6568 21 15.858 21 14.8899 21H9.11011C8.14201 21 7.34317 21 6.69705 20.9369C6.02427 20.8711 5.41156 20.7294 4.85669 20.3773C4.35955 20.0618 3.93819 19.6405 3.62269 19.1433C3.27056 18.5884 3.12888 17.9757 3.06312 17.303C2.99997 16.6568 2.99998 15.858 3 14.8899V9.11013C2.99998 8.14202 2.99997 7.34317 3.06312 6.69705C3.12888 6.02427 3.27056 5.41155 3.62269 4.85669C3.93819 4.35955 4.35955 3.93819 4.85669 3.62269C5.41156 3.27056 6.02427 3.12888 6.69705 3.06312C7.34317 2.99997 8.14202 2.99998 9.11013 3ZM6.89161 5.05363C6.36989 5.10463 6.10939 5.19645 5.92835 5.31134C5.67978 5.46909 5.46909 5.67977 5.31135 5.92835C5.19646 6.10938 5.10463 6.36989 5.05364 6.89161C5.00112 7.42892 5 8.12953 5 9.16V14.84C5 15.8705 5.00112 16.5711 5.05364 17.1084C5.10463 17.6301 5.19646 17.8906 5.31135 18.0717C5.46909 18.3202 5.67978 18.5309 5.92835 18.6887C6.10939 18.8035 6.36989 18.8954 6.89161 18.9464C7.42892 18.9989 8.12953 19 9.16 19H14.84C15.8705 19 16.5711 18.9989 17.1084 18.9464C17.6301 18.8954 17.8906 18.8035 18.0717 18.6887C18.3202 18.5309 18.5309 18.3202 18.6887 18.0717C18.8035 17.8906 18.8954 17.6301 18.9464 17.1084C18.9989 16.5711 19 15.8705 19 14.84V9.16C19 8.12953 18.9989 7.42892 18.9464 6.89161C18.8954 6.36989 18.8035 6.10938 18.6887 5.92835C18.5309 5.67977 18.3202 5.46909 18.0717 5.31134C17.8906 5.19645 17.6301 5.10463 17.1084 5.05363C16.5711 5.00112 15.8705 5 14.84 5H9.16C8.12953 5 7.42892 5.00112 6.89161 5.05363Z" fill="#191919"/>
</svg>
