<svg width="24" height="24" viewBox="0 0 24 24" fill="none" xmlns="http://www.w3.org/2000/svg">
<path fill-rule="evenodd" clip-rule="evenodd" d="M12 22C17.5228 22 22 17.5228 22 12C22 6.47715 17.5228 2 12 2C6.47715 2 2 6.47715 2 12C2 17.5228 6.47715 22 12 22ZM16.5 10.4142C16.8905 10.0237 16.8905 9.39052 16.5 9C16.1095 8.60948 15.4763 8.60948 15.0858 9L10.5 13.5858L8.91421 12C8.52369 11.6095 7.89052 11.6095 7.5 12C7.10948 12.3905 7.10948 13.0237 7.5 13.4142L9.79289 15.7071C10.1834 16.0976 10.8166 16.0976 11.2071 15.7071L16.5 10.4142Z" fill="#00832D"/>
</svg>
