<svg width="24" height="24" viewBox="0 0 24 24" fill="none" xmlns="http://www.w3.org/2000/svg">
<path d="M15.774 10.1332C16.1237 9.70579 16.0607 9.07577 15.6332 8.72604C15.2058 8.37631 14.5758 8.43932 14.226 8.86676L10.4258 13.5115L9.20711 12.2929C8.81658 11.9024 8.18342 11.9024 7.79289 12.2929C7.40237 12.6834 7.40237 13.3166 7.79289 13.7071L9.79289 15.7071C9.99267 15.9069 10.2676 16.0128 10.5498 15.9988C10.832 15.9847 11.095 15.8519 11.274 15.6332L15.774 10.1332Z" fill="#191919"/>
<path d="M22 12C22 17.5228 17.5228 22 12 22C6.47715 22 2 17.5228 2 12C2 6.47715 6.47715 2 12 2C17.5228 2 22 6.47715 22 12ZM20 12C20 7.58172 16.4183 4 12 4C7.58172 4 4 7.58172 4 12C4 16.4183 7.58172 20 12 20C16.4183 20 20 16.4183 20 12Z" fill="#191919"/>
</svg>
