<svg width="24" height="24" viewBox="0 0 24 24" fill="none" xmlns="http://www.w3.org/2000/svg">
<path fill-rule="evenodd" clip-rule="evenodd" d="M13.3777 7.09413C13.4564 6.91195 13.5 6.71106 13.5 6.5C13.5 5.67157 12.8284 5 12 5C11.1716 5 10.5 5.67157 10.5 6.5C10.5 6.71106 10.5436 6.91195 10.6223 7.09413C5.75137 7.76534 2 11.9446 2 17H1C0.447715 17 0 17.4477 0 18C0 18.5523 0.447715 19 1 19H23C23.5523 19 24 18.5523 24 18C24 17.4477 23.5523 17 23 17H22C22 11.9446 18.2486 7.76534 13.3777 7.09413ZM10.9645 10.4408C11.1022 10.9756 10.7802 11.5208 10.2453 11.6584C8.77921 12.0358 7.57033 13.0641 6.94889 14.4181C6.71851 14.9201 6.12485 15.1402 5.62291 14.9098C5.12097 14.6795 4.90082 14.0858 5.13119 13.5839C6.00023 11.6904 7.68893 10.2512 9.74685 9.72156C10.2817 9.58391 10.8269 9.9059 10.9645 10.4408Z" fill="#191919"/>
</svg>
