<svg width="24" height="24" viewBox="0 0 24 24" fill="none" xmlns="http://www.w3.org/2000/svg">
<path d="M18.793 3.79295C19.1835 3.40243 19.8165 3.40243 20.207 3.79295C20.5975 4.18348 20.5975 4.81649 20.207 5.20702L13.414 12L19.707 18.293C20.0975 18.6835 20.0975 19.3165 19.707 19.707C19.3165 20.0975 18.6835 20.0975 18.293 19.707L12 13.414L5.20702 20.207C4.81649 20.5975 4.18348 20.5975 3.79295 20.207C3.40243 19.8165 3.40243 19.1835 3.79295 18.793L10.5859 12L3.79295 5.20702C3.40243 4.81649 3.40243 4.18348 3.79295 3.79295C4.18348 3.40243 4.81649 3.40243 5.20702 3.79295L12 10.5859L18.793 3.79295Z" fill="#191919"/>
</svg>
