<svg width="24" height="24" viewBox="0 0 24 24" fill="none" xmlns="http://www.w3.org/2000/svg">
<path d="M10.0321 3.7649C9.91969 3.30625 9.50176 2.98874 9.02976 3.00342C7.77436 3.04245 6.55109 3.41865 5.48919 4.09441L1.46324 6.65637C1.04977 6.91949 0.887917 7.44349 1.08097 7.89396L2.58097 11.394C2.77432 11.8451 3.26649 12.0892 3.74265 11.9702L6.00012 11.4058V18.75C6.00012 19.9927 7.00748 21 8.25012 21H15.7501C16.9928 21 18.0001 19.9927 18.0001 18.75V11.4058L20.2576 11.9702C20.7337 12.0892 21.2259 11.8451 21.4193 11.394L22.9193 7.89396C23.1123 7.44349 22.9505 6.91949 22.537 6.65637L18.511 4.09441C17.4491 3.41865 16.2259 3.04245 14.9705 3.00342C14.4985 2.98874 14.0805 3.30625 13.9681 3.7649C13.8227 4.35834 13.0999 5.00003 12.0001 5.00003C10.9003 5.00003 10.1775 4.35834 10.0321 3.7649Z" fill="#191919"/>
</svg>
