<svg width="24" height="24" viewBox="0 0 24 24" fill="none" xmlns="http://www.w3.org/2000/svg">
<path fill-rule="evenodd" clip-rule="evenodd" d="M4.25855 4.82899C4.44813 4.61951 4.71748 4.5 5 4.5H19C20.6569 4.5 22 5.84315 22 7.5V8.5C22 10.1569 20.6569 11.5 19 11.5H17.405L17.3552 11.9975C17.0996 14.5535 14.9488 16.5 12.3801 16.5H9.61995C7.0512 16.5 4.90037 14.5535 4.64477 11.9975L4.00497 5.5995C3.97685 5.31838 4.06897 5.03848 4.25855 4.82899ZM17.605 9.5H19C19.5523 9.5 20 9.05228 20 8.5V7.5C20 6.94772 19.5523 6.5 19 6.5L17.905 6.5L17.605 9.5Z" fill="#191919"/>
<path d="M5 18C4.44772 18 4 18.4477 4 19C4 19.5523 4.44772 20 5 20H17C17.5523 20 18 19.5523 18 19C18 18.4477 17.5523 18 17 18H5Z" fill="#191919"/>
</svg>
