<svg width="24" height="24" viewBox="0 0 24 24" fill="none" xmlns="http://www.w3.org/2000/svg">
<path d="M6.8028 8.71138C6.58775 8.64193 6.37963 8.55784 6.1778 8.45693C5.34405 8.04005 4.72513 7.39045 4.16796 6.5547C3.86161 6.09517 3.98579 5.4743 4.44531 5.16795C4.90484 4.8616 5.52571 4.98577 5.83207 5.4453C6.2749 6.10954 6.65598 6.45995 7.07223 6.66807C7.32714 6.79553 7.63368 6.88894 8.03586 6.94363L7.06367 4.35112C6.90049 3.91597 7.05861 3.42574 7.4453 3.16795L7.44662 3.16707C7.48293 3.14298 7.52011 3.12023 7.55753 3.09793C7.61871 3.06148 7.70349 3.01319 7.81087 2.95717C8.02549 2.84519 8.33145 2.70177 8.72076 2.56021C9.4995 2.27703 10.6155 2 12 2C13.3845 2 14.5005 2.27703 15.2792 2.56021C15.6685 2.70177 15.9745 2.84519 16.1891 2.95717C16.2965 3.01319 16.4425 3.09793 16.4425 3.09793L16.5547 3.16795C16.9414 3.42574 17.0995 3.91597 16.9363 4.35112L15.7238 7.58456C15.7896 7.62878 15.8589 7.67609 15.9312 7.72648C16.4819 8.11034 17.2179 8.67869 17.9571 9.41789C19.4182 10.879 21 13.1194 21 16C21 17.178 20.7058 18.1904 20.1488 19.0302C19.5957 19.8642 18.8228 20.469 17.9544 20.9025C16.2468 21.7548 14.0585 22 12 22C9.94146 22 7.75317 21.7548 6.04565 20.9025C5.17717 20.469 4.40435 19.8642 3.85123 19.0302C3.29425 18.1904 3.00001 17.178 3 16C2.99998 13.1194 4.5818 10.879 6.04288 9.41789C6.2991 9.16167 6.55493 8.92598 6.8028 8.71138ZM9.40424 4.43979C9.35197 4.4588 9.30194 4.47775 9.25418 4.49649L10.193 7H13.807L14.7458 4.49649C14.6981 4.47775 14.648 4.4588 14.5958 4.43979C13.9995 4.22297 13.1155 4 12 4C10.8845 4 10.0005 4.22297 9.40424 4.43979ZM9.77196 9C9.63725 9.08254 9.44439 9.20559 9.21241 9.36727C8.73192 9.70216 8.09289 10.1963 7.45709 10.8321C6.16816 12.121 4.99998 13.8806 5 16C5.00001 16.8323 5.20318 17.4501 5.51797 17.9248C5.83662 18.4052 6.30992 18.7991 6.93885 19.113C8.22615 19.7556 10.0378 20 12 20C13.9622 20 15.7739 19.7556 17.0612 19.113C17.6901 18.7991 18.1634 18.4052 18.482 17.9248C18.7968 17.4501 19 16.8323 19 16C19 13.8806 17.8318 12.121 16.5429 10.8321C15.9071 10.1963 15.2681 9.70216 14.7876 9.36727C14.5556 9.20559 14.3627 9.08254 14.228 9H9.77196Z" fill="#202125"/>
</svg>
