<svg width="24" height="24" viewBox="0 0 24 24" fill="none" xmlns="http://www.w3.org/2000/svg">
<path fill-rule="evenodd" clip-rule="evenodd" d="M8 10C9.65679 10 10.9999 11.3432 11 13H12C13.1045 13 13.9999 13.8955 14 15V19C14 21.2091 12.2091 23 10 23H6C3.79086 23 2 21.2091 2 19V15C2.0001 13.8955 2.89549 13 4 13H5C5.0001 11.3432 6.34321 10 8 10ZM4 19C4 20.1046 4.89543 21 6 21H10C11.1046 21 12 20.1046 12 19V15H4V19ZM8 12C7.44778 12 7.0001 12.4478 7 13H9L8.99512 12.8975C8.9437 12.3934 8.51761 12 8 12Z" fill="#191919"/>
<path d="M20 1C21.1045 1 21.9999 1.89551 22 3V21C22 22.1046 21.1046 23 20 23H16.25C15.6977 23 15.25 22.5523 15.25 22C15.2501 21.4478 15.6978 21 16.25 21H20V3H9V7.00098C9 7.55326 8.55228 8.00098 8 8.00098C7.44772 8.00098 7 7.55326 7 7.00098V3C7.0001 1.89551 7.89549 1 9 1H20Z" fill="#191919"/>
<path d="M17.5 10.001C18.3284 10.001 19 10.6725 19 11.501C19 12.3294 18.3284 13.001 17.5 13.001C16.6716 13.001 16 12.3294 16 11.501C16 10.6725 16.6716 10.001 17.5 10.001Z" fill="#191919"/>
</svg>
