<svg width="24" height="24" viewBox="0 0 24 24" fill="none" xmlns="http://www.w3.org/2000/svg">
<path fill-rule="evenodd" clip-rule="evenodd" d="M3.73698 2.35363C3.92698 2.12933 4.20605 2 4.5 2H19.5C19.794 2 20.073 2.12933 20.263 2.35363C20.453 2.57792 20.5347 2.87445 20.4864 3.1644L20.0687 5.67047C20.436 6.62024 21 8.62783 21 12C21 15.3722 20.436 17.3798 20.0687 18.3295L20.4864 20.8356C20.5347 21.1256 20.453 21.4221 20.263 21.6464C20.073 21.8707 19.794 22 19.5 22H4.5C4.20605 22 3.92698 21.8707 3.73698 21.6464C3.54698 21.4221 3.46528 21.1256 3.51361 20.8356L3.93128 18.3295C3.56403 17.3798 3 15.3722 3 12C3 8.62783 3.56403 6.62024 3.93128 5.67047L3.51361 3.1644C3.46528 2.87445 3.54698 2.57792 3.73698 2.35363ZM5.84713 5H18.1529L18.3195 4H5.68046L5.84713 5ZM5.84713 19L5.68046 20H18.3195L18.1529 19H5.84713ZM13.0316 9.07163C13.4393 9.18246 13.7919 9.41195 14.0929 9.71294C15.3024 10.9224 15.3024 12.8834 14.0929 14.0929C12.8834 15.3024 10.9224 15.3024 9.71294 14.0929C9.41195 13.7919 9.18246 13.4393 9.07163 13.0316C8.95962 12.6196 8.98787 12.2213 9.09488 11.8635C9.29428 11.1968 9.77954 10.6348 10.2072 10.2072C10.6348 9.77954 11.1968 9.29428 11.8635 9.09488C12.2213 8.98787 12.6196 8.95962 13.0316 9.07163Z" fill="#191919"/>
</svg>
