<svg width="24" height="24" viewBox="0 0 24 24" fill="none" xmlns="http://www.w3.org/2000/svg">
<path d="M10.9472 6.34162C9.95924 5.84764 9.55879 4.64629 10.0528 3.65833L10.6056 2.55276C10.8525 2.05878 11.4532 1.85856 11.9472 2.10555C12.4412 2.35254 12.6414 2.95321 12.3944 3.44719L11.8416 4.55276L12.0528 4.65833C13.0407 5.15231 13.4412 6.35366 12.9472 7.34162L12.3944 8.44719C12.1474 8.94117 11.5467 9.14139 11.0528 8.8944C10.5588 8.64741 10.3586 8.04674 10.6056 7.55276L11.1583 6.44719L10.9472 6.34162Z" fill="#191919"/>
<path d="M20.9643 10.6606C21.6053 10.4042 21.917 9.6767 21.6606 9.03572C21.4042 8.39475 20.6768 8.08299 20.0358 8.33939L15.8845 10H8.61801L8.9472 9.34162C9.44118 8.35366 9.04073 7.15231 8.05277 6.65833L7.84162 6.55276L8.39441 5.44719C8.6414 4.95321 8.44118 4.35254 7.9472 4.10555C7.45322 3.85856 6.85255 4.05878 6.60556 4.55276L6.05277 5.65833C5.55879 6.64629 5.95924 7.84764 6.9472 8.34162L7.15834 8.44719L6.60556 9.55276C6.53365 9.69658 6.49964 9.84945 6.49977 10H3.00001C2.70042 10 2.41661 10.1343 2.22667 10.366C2.03673 10.5977 1.96067 10.9023 2.01943 11.1961L2.5371 13.7845C2.91104 15.6542 4.5527 17 6.45942 17H12.5406C14.4473 17 16.089 15.6542 16.4629 13.7845L16.7506 12.3461L20.9643 10.6606Z" fill="#191919"/>
<path d="M4 18C3.44772 18 3 18.4477 3 19C3 19.5523 3.44772 20 4 20H15C15.5523 20 16 19.5523 16 19C16 18.4477 15.5523 18 15 18H4Z" fill="#191919"/>
</svg>
