<svg width="24" height="24" viewBox="0 0 24 24" fill="none" xmlns="http://www.w3.org/2000/svg">
<path fill-rule="evenodd" clip-rule="evenodd" d="M21.9865 4.30874C22.0003 4.47762 22.0001 4.66072 22 4.77232L22 15.2277C22.0001 15.3393 22.0003 15.5224 21.9865 15.6913C21.9696 15.8983 21.9224 16.2526 21.7275 16.635C21.4878 17.1054 21.1054 17.4878 20.635 17.7275C20.2526 17.9224 19.8983 17.9696 19.6913 17.9865C19.5224 18.0003 19.3393 18.0001 19.2277 18H8.77232C8.66072 18.0001 8.47762 18.0003 8.30874 17.9865C8.10168 17.9696 7.74744 17.9224 7.36502 17.7275C6.89462 17.4878 6.51217 17.1054 6.27248 16.635C6.07763 16.2526 6.03037 15.8983 6.01346 15.6913C5.99966 15.5224 5.99986 15.3393 5.99998 15.2277L5.99998 4.77227C5.99986 4.66067 5.99966 4.4776 6.01346 4.30874C6.03037 4.10168 6.07764 3.74744 6.27249 3.36502C6.51217 2.89462 6.89462 2.51217 7.36503 2.27248C7.74744 2.07763 8.10168 2.03037 8.30874 2.01345C8.47762 1.99966 8.66072 1.99986 8.77232 1.99998L19.2277 1.99998C19.3393 1.99986 19.5224 1.99966 19.6913 2.01345C19.8983 2.03037 20.2526 2.07763 20.635 2.27248C21.1054 2.51217 21.4878 2.89462 21.7275 3.36502C21.9224 3.74744 21.9696 4.10168 21.9865 4.30874Z" fill="#191919"/>
<path d="M17 20C17.5523 20 18 20.4477 18 21C18 21.5522 17.5523 22 17 22L6.16146 22C5.63432 22 5.17954 22 4.80497 21.9694C4.40963 21.9371 4.01641 21.8658 3.63803 21.673C3.07354 21.3854 2.6146 20.9264 2.32698 20.3619C2.13419 19.9835 2.06287 19.5903 2.03057 19.195C1.99997 18.8204 1.99998 18.3656 2 17.8385L2 6.99995C2 6.44767 2.44772 5.99995 3 5.99995C3.55229 5.99995 4 6.44767 4 6.99995L4 17.8C4 18.3765 4.00078 18.7488 4.02393 19.0321C4.04612 19.3038 4.0838 19.4045 4.10899 19.4539C4.20487 19.6421 4.35785 19.7951 4.54601 19.891C4.59545 19.9162 4.69617 19.9538 4.96784 19.976C5.25117 19.9992 5.62345 20 6.2 20H17Z" fill="#191919"/>
</svg>
