<svg width="24" height="24" viewBox="0 0 24 24" fill="none" xmlns="http://www.w3.org/2000/svg">
<path d="M1 19V7C1 6.44772 1.44772 6 2 6C2.55228 6 3 6.44772 3 7V19C3 20.1046 3.89543 21 5 21H17C17.5523 21 18 21.4477 18 22C18 22.5523 17.5523 23 17 23H5C2.79086 23 1 21.2091 1 19ZM21 5C21 3.89543 20.1046 3 19 3H9C7.89543 3 7 3.89543 7 5V15C7 16.1046 7.89543 17 9 17H19C20.1046 17 21 16.1046 21 15V5ZM23 15C23 17.2091 21.2091 19 19 19H9C6.79086 19 5 17.2091 5 15V5C5 2.79086 6.79086 1 9 1H19C21.2091 1 23 2.79086 23 5V15Z" fill="#191919"/>
</svg>
