<svg width="24" height="24" viewBox="0 0 24 24" fill="none" xmlns="http://www.w3.org/2000/svg">
<g clip-path="url(#clip0_37956_203)">
<path d="M6 6V18H18V6H6ZM20 18H23C23.5523 18 24 18.4477 24 19C24 19.5523 23.5523 20 23 20H20V23C20 23.5523 19.5523 24 19 24C18.4477 24 18 23.5523 18 23V20H6C4.89543 20 4 19.1046 4 18V6H1C0.447715 6 0 5.55228 0 5C0 4.44772 0.447715 4 1 4H4V1C4 0.447715 4.44772 0 5 0C5.55228 1.28852e-07 6 0.447715 6 1V4H18C19.1046 4 20 4.89543 20 6V18Z" fill="#191919"/>
</g>
<defs>
<clipPath id="clip0_37956_203">
<rect width="24" height="24" fill="white"/>
</clipPath>
</defs>
</svg>
