<svg width="24" height="24" viewBox="0 0 24 24" fill="none" xmlns="http://www.w3.org/2000/svg">
<path d="M9.5 2.5C10.0523 2.5 10.5 2.05228 10.5 1.5C10.5 1.22386 10.7239 1 11 1C11.2761 1 11.5 1.22386 11.5 1.5C11.5 2.05228 11.9477 2.5 12.5 2.5C12.7761 2.5 13 2.72386 13 3C13 3.27614 12.7761 3.5 12.5 3.5C11.9477 3.5 11.5 3.94772 11.5 4.5C11.5 4.77614 11.2761 5 11 5C10.7239 5 10.5 4.77614 10.5 4.5C10.5 3.94772 10.0523 3.5 9.5 3.5C9.22386 3.5 9 3.27614 9 3C9 2.72386 9.22386 2.5 9.5 2.5Z" fill="#191919"/>
<path d="M20.1213 3.70711C18.9497 2.53553 17.0503 2.53554 15.8787 3.70711L3.70711 15.8787C2.53553 17.0503 2.53554 18.9497 3.70711 20.1213L3.87868 20.2929C5.05025 21.4645 6.94975 21.4645 8.12132 20.2929L20.2929 8.12132C21.4645 6.94975 21.4645 5.05025 20.2929 3.87868L20.1213 3.70711ZM17.2929 5.12132C17.6834 4.7308 18.3166 4.7308 18.7071 5.12132L18.8787 5.29289C19.2692 5.68342 19.2692 6.31658 18.8787 6.70711L17.5 8.08579L15.9142 6.5L17.2929 5.12132ZM14.5 7.91421L16.0858 9.5L6.70711 18.8787C6.31658 19.2692 5.68342 19.2692 5.29289 18.8787L5.12132 18.7071C4.7308 18.3166 4.7308 17.6834 5.12132 17.2929L14.5 7.91421Z" fill="#191919"/>
<path d="M2.5 7H2.6C3.92548 7 5 8.07452 5 9.4V9.5C5 9.77614 5.22386 10 5.5 10C5.77614 10 6 9.77614 6 9.5V9.4C6 8.07452 7.07452 7 8.4 7H8.5C8.77614 7 9 6.77614 9 6.5C9 6.22386 8.77614 6 8.5 6H8.4C7.07452 6 6 4.92548 6 3.6V3.5C6 3.22386 5.77614 3 5.5 3C5.22386 3 5 3.22386 5 3.5V3.6C5 4.92548 3.92548 6 2.6 6H2.5C2.22386 6 2 6.22386 2 6.5C2 6.77614 2.22386 7 2.5 7Z" fill="#191919"/>
<path d="M19.5 12.5C19.5 13.0523 19.0523 13.5 18.5 13.5C18.2239 13.5 18 13.7239 18 14C18 14.2761 18.2239 14.5 18.5 14.5C19.0523 14.5 19.5 14.9477 19.5 15.5C19.5 15.7761 19.7239 16 20 16C20.2761 16 20.5 15.7761 20.5 15.5C20.5 14.9477 20.9477 14.5 21.5 14.5C21.7761 14.5 22 14.2761 22 14C22 13.7239 21.7761 13.5 21.5 13.5C20.9477 13.5 20.5 13.0523 20.5 12.5C20.5 12.2239 20.2761 12 20 12C19.7239 12 19.5 12.2239 19.5 12.5Z" fill="#191919"/>
</svg>
