<svg width="24" height="24" viewBox="0 0 24 24" fill="none" xmlns="http://www.w3.org/2000/svg">
<path fill-rule="evenodd" clip-rule="evenodd" d="M6.41614 3.00004H17.5839C17.9646 2.99974 18.2924 2.99948 18.5853 3.05773C19.7754 3.29445 20.7057 4.22474 20.9424 5.41482C21.0006 5.70766 21.0004 6.03549 21.0001 6.41618L21 6.50009L21.0001 6.58396C21.0001 6.63861 21.0002 6.6922 21 6.74473V16.8387C21 17.3658 21.0001 17.8205 20.9695 18.1951C20.9372 18.5905 20.8658 18.9837 20.673 19.3621C20.3854 19.9265 19.9265 20.3855 19.362 20.6731C18.9836 20.8659 18.5904 20.9372 18.1951 20.9695C17.8205 21.0001 17.3658 21.0001 16.8388 21.0001H7.1615C6.63443 21.0001 6.17952 21.0001 5.805 20.9695C5.40965 20.9372 5.01643 20.8659 4.63805 20.6731C4.07357 20.3855 3.61463 19.9265 3.32701 19.3621C3.13421 18.9837 3.0629 18.5905 3.0306 18.1951C2.99999 17.8205 3.00001 17.3658 3.00003 16.8386L3.00003 6.7444C2.9999 6.69282 2.99994 6.64024 2.99998 6.58661L3.00003 6.50009L2.99998 6.4162C2.99968 6.03551 2.99942 5.70767 3.05767 5.41482C3.29439 4.22474 4.22468 3.29445 5.41476 3.05773C5.70761 2.99948 6.03545 2.99974 6.41614 3.00004ZM15 5.00009H13V8.00009H15V5.00009ZM17 8.00009V5.00009H17.5C18.0126 5.00009 18.1229 5.00493 18.1951 5.0193C18.5918 5.09821 18.9019 5.40831 18.9808 5.805C18.9952 5.87725 19 5.9875 19 6.50009C19 7.01267 18.9952 7.12293 18.9808 7.19518C18.9019 7.59187 18.5918 7.90197 18.1951 7.98087C18.1229 7.99524 18.0126 8.00009 17.5 8.00009H17ZM9.00003 5.00009H11V8.00009H9.00003V5.00009ZM7.00003 5.00009H6.50003C5.98744 5.00009 5.87718 5.00493 5.80494 5.0193C5.40825 5.09821 5.09815 5.40831 5.01924 5.805C5.00487 5.87725 5.00003 5.9875 5.00003 6.50009C5.00003 7.01267 5.00487 7.12293 5.01924 7.19518C5.09815 7.59187 5.40825 7.90197 5.80494 7.98087C5.87718 7.99524 5.98744 8.00009 6.50003 8.00009H7.00003V5.00009ZM16.4854 13.4231C16.0181 12.5417 15.1049 12.0001 14.1173 12.0001H6.58814C6.45009 12.0001 6.33328 12.1169 6.33328 12.2656C6.33328 12.3293 6.36514 12.393 6.40761 12.4461L8.04299 14.0921C8.19166 14.2408 8.38281 14.3258 8.58458 14.3151H13.8836C14.2659 14.3151 14.5739 14.6125 14.5739 14.9948C14.5739 15.3771 14.2765 15.685 13.8943 15.685H10.2518C10.1138 15.685 9.99695 15.8019 9.99695 15.9505C9.99695 16.0142 10.0288 16.078 10.0713 16.1311L11.7067 17.7771C11.8553 17.9258 12.0465 18.0001 12.2589 18.0001H13.9155C16.0606 18.0001 17.6854 15.7063 16.4854 13.4231Z" fill="#191919"/>
</svg>
