<svg width="24" height="24" viewBox="0 0 24 24" fill="none" xmlns="http://www.w3.org/2000/svg">
<path d="M13.66 6.00001C13.66 4.34315 15.0031 3 16.66 3H17.99C19.6468 3 20.99 4.34315 20.99 6V19H22C22.5523 19 23 19.4477 23 20C23 20.5523 22.5523 21 22 21H2C1.44772 21 1 20.5523 1 20C1 19.4477 1.44772 19 2 19H3V16C3 14.3431 4.34315 13 6 13H8.33001V11C8.33002 9.34314 9.67316 8 11.33 8H13.66V6.00001ZM15.66 19H18.99V6C18.99 5.44771 18.5423 5 17.99 5H16.66C16.1077 5 15.66 5.44772 15.66 6V8.99217C15.66 8.99478 15.66 8.99739 15.66 9V19ZM13.66 10H11.33C10.7777 10 10.33 10.4477 10.33 11V19H13.66V10ZM8.33 19L8.33001 15H6C5.44772 15 5 15.4477 5 16V19H8.33Z" fill="#191919"/>
</svg>
