<svg width="24" height="24" viewBox="0 0 24 24" fill="none" xmlns="http://www.w3.org/2000/svg">
<path fill-rule="evenodd" clip-rule="evenodd" d="M19 2H14.4142C13.6185 2 12.8555 2.31607 12.2929 2.87868L3.29286 11.8787C2.12129 13.0503 2.12129 14.9497 3.29286 16.1213L7.87865 20.7071C9.05022 21.8787 10.9497 21.8787 12.1213 20.7071L21.1213 11.7071C21.6839 11.1445 22 10.3814 22 9.58579V5C22 3.34315 20.6568 2 19 2ZM16.5 9.5C17.6046 9.5 18.5 8.60457 18.5 7.5C18.5 6.39543 17.6046 5.5 16.5 5.5C15.3954 5.5 14.5 6.39543 14.5 7.5C14.5 8.60457 15.3954 9.5 16.5 9.5Z" fill="#191919"/>
</svg>
