<svg width="24" height="24" viewBox="0 0 24 24" fill="none" xmlns="http://www.w3.org/2000/svg">
<path d="M15.8293 6C15.4175 4.83481 14.3062 4 13 4H6C3.79086 4 2 5.79086 2 8V14C2 15.3121 2.84237 16.4275 4.01581 16.8348C4.18436 18.6108 5.67994 20 7.5 20C9.26324 20 10.7219 18.6961 10.9646 17H13.0354C13.2781 18.6961 14.7368 20 16.5 20C18.3201 20 19.8156 18.6108 19.9842 16.8348C21.1576 16.4275 22 15.3121 22 14V10.9083C22 10.1186 21.7662 9.3466 21.3282 8.68953L20.7226 7.7812C19.9808 6.6684 18.7319 6 17.3944 6H15.8293ZM16 8H17.3944C18.0632 8 18.6876 8.3342 19.0585 8.8906L19.6641 9.79893C19.8831 10.1275 20 10.5135 20 10.9083V14C20 14.3398 19.8306 14.64 19.5716 14.8207C18.9771 13.7357 17.8245 13 16.5 13C16.3302 13 16.1633 13.0121 16 13.0354V8ZM14 14.0505C13.7296 14.3264 13.5045 14.647 13.3368 15H10.6632C10.1015 13.8175 8.8962 13 7.5 13C6.17555 13 5.02292 13.7357 4.42845 14.8207C4.16945 14.6399 4 14.3398 4 14V8C4 6.89543 4.89543 6 6 6H13C13.5523 6 14 6.44772 14 7V14.0505ZM16.5 15C17.3284 15 18 15.6716 18 16.5C18 17.3284 17.3284 18 16.5 18C15.6716 18 15 17.3284 15 16.5C15 15.6716 15.6716 15 16.5 15ZM7.5 15C8.32843 15 9 15.6716 9 16.5C9 17.3284 8.32843 18 7.5 18C6.67157 18 6 17.3284 6 16.5C6 15.6716 6.67157 15 7.5 15Z" fill="#191919"/>
</svg>
