<svg width="24" height="24" viewBox="0 0 24 24" fill="none" xmlns="http://www.w3.org/2000/svg">
<path d="M14 13C14.5523 13 15 13.4477 15 14C15 14.5523 14.5523 15 14 15C13.4477 15 13 14.5523 13 14C13 13.4477 13.4477 13 14 13Z" fill="#191919"/>
<path fill-rule="evenodd" clip-rule="evenodd" d="M15.0059 9C15.9076 9.00001 16.7725 9.35842 17.4102 9.99609L23.2832 15.8691C23.9075 16.494 23.9077 17.5071 23.2832 18.1318L18.1318 23.2832C17.507 23.9077 16.4929 23.9078 15.8682 23.2832L9.99609 17.4102C9.35864 16.7727 9.00013 15.9074 9 15.0059V12C9 10.3431 10.3431 9 12 9H15.0059ZM12 11C11.4477 11 11 11.4477 11 12V15.0059C11.0001 15.377 11.1477 15.7337 11.4102 15.9961L17 21.5859L21.585 17L15.9961 11.4102C15.7335 11.1476 15.3772 11 15.0059 11H12Z" fill="#191919"/>
<path fill-rule="evenodd" clip-rule="evenodd" d="M10.5 0C12.9853 6.44266e-08 15 2.01472 15 4.5V5H19C19.5523 5 20 5.44772 20 6C19.9999 6.55223 19.5522 7 19 7H3V17C3.00007 18.1045 3.89547 19 5 19H8.5C9.05228 19 9.5 19.4477 9.5 20C9.49993 20.5522 9.05224 21 8.5 21H5C2.7909 21 1.00007 19.2091 1 17V7C1 5.89543 1.89543 5 3 5H6V4.5C6 2.01472 8.01472 0 10.5 0ZM10.5 2C9.11929 2 8 3.11929 8 4.5V5H13V4.5C13 3.11929 11.8807 2 10.5 2Z" fill="#191919"/>
</svg>
