<svg width="24" height="24" viewBox="0 0 24 24" fill="none" xmlns="http://www.w3.org/2000/svg">
<path d="M11.4142 3H13.5858L11.2929 5.29289C10.9023 5.68342 10.9023 6.31658 11.2929 6.70711C11.6834 7.09763 12.3166 7.09763 12.7071 6.70711L16.4142 3H17C19.7614 3 22 5.23858 22 8V9C22 9.55228 21.5523 10 21 10H2.99998C2.44769 10 1.99997 9.55228 1.99997 9V8C1.99997 5.23858 4.23855 3 6.99997 3H8.58576L6.29287 5.29289C5.90234 5.68342 5.90234 6.31658 6.29287 6.70711C6.68339 7.09763 7.31656 7.09763 7.70708 6.70711L11.4142 3Z" fill="#191919"/>
<path d="M4.10555 11.8292C4.6686 11.5477 5.33135 11.5477 5.8944 11.8292L6.99997 12.382L8.10555 11.8292C8.6686 11.5477 9.33135 11.5477 9.8944 11.8292L11 12.382L12.1055 11.8292C12.6686 11.5477 13.3313 11.5477 13.8944 11.8292L15 12.382L16.1055 11.8292C16.6686 11.5477 17.3313 11.5477 17.8944 11.8292L19 12.382L20.1055 11.8292C20.6686 11.5477 21.3313 11.5477 21.8944 11.8292L22.4472 12.1056C22.9412 12.3526 23.1414 12.9532 22.8944 13.4472C22.6474 13.9412 22.0467 14.1414 21.5528 13.8944L21 13.618L19.8944 14.1708C19.3313 14.4523 18.6686 14.4523 18.1055 14.1708L17 13.618L15.8944 14.1708C15.3313 14.4523 14.6686 14.4523 14.1055 14.1708L13 13.618L11.8944 14.1708C11.3313 14.4523 10.6686 14.4523 10.1055 14.1708L8.99998 13.618L7.8944 14.1708C7.33135 14.4523 6.6686 14.4523 6.10555 14.1708L4.99997 13.618L3.8944 14.1708C3.33135 14.4523 2.6686 14.4523 2.10555 14.1708L1.55276 13.8944C1.05878 13.6474 0.858558 13.0468 1.10555 12.5528C1.35254 12.0588 1.95321 11.8586 2.44719 12.1056L2.99997 12.382L4.10555 11.8292Z" fill="#191919"/>
<path d="M1.99997 17C1.99997 16.4477 2.44769 16 2.99997 16H21C21.5523 16 22 16.4477 22 17V18C22 19.6569 20.6568 21 19 21H4.99997C3.34312 21 1.99997 19.6569 1.99997 18V17Z" fill="#191919"/>
</svg>
