<svg width="24" height="24" viewBox="0 0 24 24" fill="none" xmlns="http://www.w3.org/2000/svg">
<path fill-rule="evenodd" clip-rule="evenodd" d="M14 2C12.3431 2 11 3.34315 11 5C11 5.08766 11.0038 5.17445 11.0111 5.2602L3.46549 8.69004C2.57301 9.09571 2 9.98559 2 10.966V14.0858L3.04037 15.1262L3.92127 14.3431C4.67904 13.6696 5.82096 13.6696 6.57873 14.3431L7.5 15.162L8.42127 14.3431C9.17904 13.6696 10.321 13.6696 11.0787 14.3431L12 15.162L12.9213 14.3431C13.679 13.6696 14.821 13.6696 15.5787 14.3431L16.5 15.162L17.4213 14.3431C18.179 13.6696 19.321 13.6696 20.0787 14.3431L20.9596 15.1262L22 14.0858V10.0001C22 9.84484 21.9639 9.69172 21.8944 9.55287L21.8939 9.5519L21.8934 9.55075L21.8919 9.5479C21.8919 9.5479 21.8895 9.54308 21.8879 9.54C21.8831 9.53048 21.8754 9.51568 21.8754 9.51568C21.865 9.49574 21.8506 9.46846 21.8322 9.43445C21.7953 9.36646 21.7422 9.27142 21.6728 9.15434C21.5342 8.92048 21.3297 8.59695 21.0587 8.22441C20.5197 7.48321 19.7026 6.52704 18.6 5.70008C18.0525 5.28945 17.5048 4.97828 16.9891 4.74252C16.8585 3.2062 15.5701 2 14 2ZM16.0181 7.2198C16.1852 7.0678 16.335 6.8972 16.4644 6.71126C16.7693 6.86984 17.0846 7.06351 17.4 7.30008C18.2974 7.97313 18.9803 8.76695 19.4413 9.40075C19.607 9.62866 19.7421 9.83314 19.8463 10H5.41679L11.8389 7.08084C12.0719 7.32271 12.3451 7.52557 12.6477 7.67866C13.0538 7.88415 13.5132 8.00008 14 8.00008C14.7776 8.00008 15.4854 7.70456 16.0181 7.2198Z" fill="#191919"/>
<path d="M19.6309 16.621C20.3009 17.2165 21.2655 17.2826 22 16.8347V18.5C22 19.8807 20.8807 21 19.5 21H4.5C3.11929 21 2 19.8807 2 18.5V16.8347C2.73454 17.2826 3.69914 17.2165 4.3691 16.621L5.25 15.838L6.17127 16.6569C6.92904 17.3304 8.07096 17.3304 8.82873 16.6569L9.75 15.838L10.6713 16.6569C11.429 17.3304 12.571 17.3304 13.3287 16.6569L14.25 15.838L15.1713 16.6569C15.929 17.3304 17.071 17.3304 17.8287 16.6569L18.75 15.838L19.6309 16.621Z" fill="#191919"/>
</svg>
