<svg width="24" height="24" viewBox="0 0 24 24" fill="none" xmlns="http://www.w3.org/2000/svg">
<path d="M10 17C9.44772 17 9 17.4477 9 18C9 18.5523 9.44772 19 10 19H14C14.5523 19 15 18.5523 15 18C15 17.4477 14.5523 17 14 17H10Z" fill="#191919"/>
<path d="M9 1C6.79086 1 5 2.79086 5 5V19C5 21.2091 6.79086 23 9 23H15C17.2091 23 19 21.2091 19 19V5C19 2.79086 17.2091 1 15 1H9ZM7 5C7 3.89543 7.89543 3 9 3H15C16.1046 3 17 3.89543 17 5V19C17 20.1046 16.1046 21 15 21H9C7.89543 21 7 20.1046 7 19V5Z" fill="#191919"/>
</svg>
