<svg width="24" height="24" viewBox="0 0 24 24" fill="none" xmlns="http://www.w3.org/2000/svg">
<path d="M9.00015 15C9.00015 15.5523 9.44787 16 10.0001 16C10.5524 16 11.0001 15.5523 11.0001 15V13C11.0001 12.4473 11.4476 12 11.9995 12H13.0001V13C13.0001 13.4045 13.2438 13.7691 13.6174 13.9239C13.9911 14.0787 14.4212 13.9931 14.7072 13.7071L16.7072 11.7071C17.0978 11.3166 17.0978 10.6834 16.7072 10.2929L14.7072 8.29292C14.4212 8.00693 13.9911 7.92137 13.6174 8.07615C13.2438 8.23093 13.0001 8.59557 13.0001 9.00003V10H11.9995C10.3422 10 9.00015 11.3436 9.00015 13V15Z" fill="#191919"/>
<path d="M9.17172 3.1612C10.7338 1.5991 13.2665 1.5991 14.8286 3.1612L20.839 9.1716C22.4011 10.7337 22.4011 13.2663 20.839 14.8284L14.8286 20.8388C13.2665 22.4009 10.7338 22.4009 9.17172 20.8388L3.16132 14.8284C1.59922 13.2663 1.59922 10.7337 3.16132 9.1716L9.17172 3.1612ZM13.4143 4.57541C12.6333 3.79436 11.367 3.79436 10.5859 4.57541L4.57553 10.5858C3.79448 11.3668 3.79448 12.6332 4.57553 13.4142L10.5859 19.4246C11.367 20.2057 12.6333 20.2057 13.4143 19.4246L19.4248 13.4142C20.2058 12.6332 20.2058 11.3668 19.4248 10.5858L13.4143 4.57541Z" fill="#191919"/>
</svg>
