<svg width="24" height="24" viewBox="0 0 24 24" fill="none" xmlns="http://www.w3.org/2000/svg">
<path fill-rule="evenodd" clip-rule="evenodd" d="M18 2C20.2091 2 22 3.79086 22 6V18C22 20.2091 20.2091 22 18 22H6C3.79086 22 2 20.2091 2 18V6C2 3.79086 3.79086 2 6 2H18ZM12.4639 4C12.8044 4.58845 13 5.27125 13 6V18C13 18.7288 12.8044 19.4116 12.4639 20H18C19.1046 20 20 19.1046 20 18V6C20 4.89543 19.1046 4 18 4H12.4639ZM6 4C4.89543 4 4 4.89543 4 6V18C4 19.1046 4.89543 20 6 20H9C10.1046 20 11 19.1046 11 18V6C11 4.89543 10.1046 4 9 4H6Z" fill="#191919"/>
</svg>
