<svg width="24" height="24" viewBox="0 0 24 24" fill="none" xmlns="http://www.w3.org/2000/svg">
<path d="M8.13622 6.99997C7.63145 6.99991 7.13987 6.99986 6.72355 7.03387C6.26637 7.07122 5.7269 7.15936 5.18405 7.43595C4.4314 7.81945 3.81948 8.43137 3.43599 9.18402C3.15939 9.72686 3.07126 10.2663 3.0339 10.7235C2.99989 11.1398 2.99995 11.6314 3.00001 12.1361L3 15.8638C2.99995 16.3685 2.99989 16.8601 3.0339 17.2764C3.07125 17.7336 3.15939 18.2731 3.43598 18.8159C3.81948 19.5686 4.4314 20.1805 5.18405 20.564C5.72689 20.8406 6.26636 20.9287 6.72355 20.9661C7.13987 21.0001 7.63145 21 8.13622 21H15.8638C16.3685 21 16.8601 21.0001 17.2765 20.9661C17.7337 20.9287 18.2731 20.8406 18.816 20.564C19.5686 20.1805 20.1805 19.5686 20.564 18.8159C20.8406 18.2731 20.9288 17.7336 20.9661 17.2764C21.0001 16.8601 21.0001 16.3685 21 15.8638V12.1362C21.0001 11.6315 21.0001 11.1398 20.9661 10.7235C20.9288 10.2663 20.8406 9.72687 20.564 9.18402C20.1805 8.43137 19.5686 7.81945 18.816 7.43596C18.2731 7.15936 17.7337 7.07123 17.2765 7.03387C16.8602 6.99986 16.3686 6.99992 15.8638 6.99997L14.5 6.99998V9.20798C15.4148 8.80916 16.5194 8.98391 17.2678 9.73223C18.2441 10.7085 18.2441 12.2915 17.2678 13.2678L13.7678 16.7678C12.7915 17.7441 11.2085 17.7441 10.2322 16.7678L6.73223 13.2678C5.75592 12.2915 5.75592 10.7085 6.73223 9.73223C7.48055 8.98391 8.58524 8.80916 9.5 9.20798V6.99998L8.13622 6.99997Z" fill="#191919"/>
<path fill-rule="evenodd" clip-rule="evenodd" d="M12.7071 15.7071C12.3166 16.0976 11.6834 16.0976 11.2929 15.7071L7.79289 12.2071C7.40237 11.8166 7.40237 11.1834 7.79289 10.7929C8.18342 10.4024 8.81658 10.4024 9.20711 10.7929L11 12.5858L11 3C11 2.44771 11.4477 2 12 2C12.5523 2 13 2.44771 13 3L13 12.5858L14.7929 10.7929C15.1834 10.4024 15.8166 10.4024 16.2071 10.7929C16.5976 11.1834 16.5976 11.8166 16.2071 12.2071L12.7071 15.7071Z" fill="#191919"/>
</svg>
