<svg width="24" height="24" viewBox="0 0 24 24" fill="none" xmlns="http://www.w3.org/2000/svg">
<path d="M21 20C21.5522 20 21.9999 20.4478 22 21C22 21.5523 21.5523 22 21 22H3C2.44772 22 2 21.5523 2 21C2.00012 20.4478 2.44779 20 3 20H21ZM11 2C11 1.44772 11.4477 1 12 1C12.5521 1.00017 13 1.44782 13 2V14.5859L17.293 10.293C17.6835 9.90244 18.3165 9.90244 18.707 10.293C19.0976 10.6835 19.0976 11.3165 18.707 11.707L13.4141 17C12.633 17.7809 11.367 17.7809 10.5859 17L5.29297 11.707C4.90244 11.3165 4.90244 10.6835 5.29297 10.293C5.68349 9.90244 6.31651 9.90244 6.70703 10.293L11 14.5859V2Z" fill="#191919"/>
</svg>
