<svg width="24" height="24" viewBox="0 0 24 24" fill="none" xmlns="http://www.w3.org/2000/svg">
<path d="M14.4019 2C13.377 2 12.518 2.77475 12.4125 3.7942L12.0809 7H6C5.44772 7 5 7.44772 5 8C5 8.55228 5.44772 9 6 9H18C18.5523 9 19 8.55228 19 8C19 7.44772 18.5523 7 18 7H14.0915L14.4019 4L17.5 4C18.0523 4 18.5 3.55228 18.5 3C18.5 2.44772 18.0523 2 17.5 2H14.4019Z" fill="#191919"/>
<path d="M17.6108 10.5H6.38921L7.50549 21.1047C7.55906 21.6136 7.98824 22 8.49999 22H15.5C16.0118 22 16.4409 21.6136 16.4945 21.1047L17.6108 10.5Z" fill="#191919"/>
</svg>
