<svg width="24" height="24" viewBox="0 0 24 24" fill="none" xmlns="http://www.w3.org/2000/svg">
<path d="M1 5C1 4.44772 1.44772 4 2 4H8C8.55228 4 9 4.44772 9 5C9 5.55228 8.55228 6 8 6H6V6.3406L9.79417 7.96668C10.3423 7.3723 11.1277 7 12 7C12.8723 7 13.6577 7.3723 14.2058 7.96668L18 6.3406V6H16C15.4477 6 15 5.55228 15 5C15 4.44772 15.4477 4 16 4H22C22.5523 4 23 4.44772 23 5C23 5.55228 22.5523 6 22 6H20V6.3406C20 7.14066 19.5232 7.86374 18.7878 8.17889L14.9938 9.80493C14.9979 9.86942 15 9.93446 15 10C15 10.0655 14.9979 10.1306 14.9938 10.1951L17.5757 11.3016C19.0464 11.9319 20 13.3781 20 14.9782V17C20 17.5523 19.5523 18 19 18H18C17.4477 18 17 17.5523 17 17C17 16.4477 17.4477 16 18 16V14.9782C18 14.1781 17.5232 13.4551 16.7878 13.1399L14.2058 12.0333C13.6577 12.6277 12.8723 13 12 13C11.1277 13 10.3423 12.6277 9.79417 12.0333L7.21216 13.1399C6.47679 13.4551 6 14.1781 6 14.9782V16C6.55228 16 7 16.4477 7 17C7 17.5523 6.55228 18 6 18H5C4.44772 18 4 17.5523 4 17V14.9782C4 13.3781 4.95359 11.9319 6.42432 11.3016L9.00624 10.1951C9.0021 10.1306 9 10.0655 9 10C9 9.93446 9.0021 9.86942 9.00624 9.80493L5.21216 8.17889C4.47679 7.86374 4 7.14066 4 6.3406V6H2C1.44772 6 1 5.55228 1 5Z" fill="#191919"/>
<path d="M11 15H9.5C8.94772 15 8.5 15.4477 8.5 16V20C8.5 20.5523 8.94771 21 9.5 21H14.5C15.0523 21 15.5 20.5523 15.5 20V16C15.5 15.4477 15.0523 15 14.5 15H13V16C13 16.5523 12.5523 17 12 17C11.4477 17 11 16.5523 11 16V15Z" fill="#191919"/>
</svg>
