<svg width="24" height="24" viewBox="0 0 24 24" fill="none" xmlns="http://www.w3.org/2000/svg">
<path fill-rule="evenodd" clip-rule="evenodd" d="M18 8.5C18.5523 8.5 19 8.94772 19 9.5V19C19 20.6569 17.6569 22 16 22H8C6.34315 22 5 20.6569 5 19V9.5C5 8.94772 5.44772 8.5 6 8.5H18ZM7 17H17V12H7V17Z" fill="#191919"/>
<path d="M18.5 2C19.3284 2 20 2.67157 20 3.5V5.5C20 6.32843 19.3284 7 18.5 7H5.5C4.72334 7 4.08461 6.40972 4.00781 5.65332L4 5.5V3.5C4 2.67157 4.67157 2 5.5 2H18.5Z" fill="#191919"/>
</svg>
