<svg width="20" height="20" viewBox="0 0 20 20" fill="none" xmlns="http://www.w3.org/2000/svg">
<path d="M7.29892 3.33336H8.33333C8.79358 3.33336 9.16667 3.70646 9.16667 4.16669C9.16667 4.62693 8.79358 5.00003 8.33333 5.00003H7.33333C6.61952 5.00003 6.13428 5.00068 5.7592 5.03132C5.39385 5.06117 5.20702 5.11528 5.07668 5.18169C4.76308 5.34147 4.50811 5.59644 4.34833 5.91004C4.28192 6.04038 4.22781 6.22721 4.19796 6.59256C4.16732 6.96764 4.16667 7.45288 4.16667 8.16669V12.6667C4.16667 13.3805 4.16732 13.8658 4.19796 14.2409C4.22781 14.6062 4.28192 14.793 4.34833 14.9234C4.50811 15.2369 4.76308 15.4919 5.07668 15.6517C5.20702 15.7181 5.39385 15.7722 5.7592 15.802C6.13428 15.8327 6.61952 15.8334 7.33333 15.8334H11.8333C12.5472 15.8334 13.0324 15.8327 13.4075 15.802C13.7728 15.7722 13.9597 15.7181 14.09 15.6517C14.4036 15.4919 14.6586 15.2369 14.8183 14.9234C14.8848 14.793 14.9388 14.6062 14.9687 14.2409C14.9993 13.8658 15 13.3805 15 12.6667V11.6667C15 11.2064 15.3731 10.8334 15.8333 10.8334C16.2936 10.8334 16.6667 11.2064 16.6667 11.6667V12.7011C16.6667 13.3719 16.6667 13.9255 16.6298 14.3765C16.5916 14.8449 16.5094 15.2755 16.3033 15.68C15.9838 16.3072 15.4738 16.8171 14.8467 17.1367C14.4422 17.3428 14.0116 17.4249 13.5432 17.4632C13.0922 17.5 12.5386 17.5 11.8678 17.5H7.2989C6.6281 17.5 6.07447 17.5 5.62348 17.4632C5.15507 17.4249 4.72448 17.3428 4.32003 17.1367C3.69283 16.8171 3.18289 16.3072 2.86331 15.68C2.65723 15.2755 2.5751 14.8449 2.53683 14.3765C2.49998 13.9255 2.49999 13.3719 2.5 12.7011V8.13228C2.49999 7.46147 2.49998 6.90784 2.53683 6.45684C2.5751 5.98843 2.65723 5.55784 2.86331 5.15339C3.18289 4.52619 3.69283 4.01625 4.32003 3.69667C4.72448 3.49059 5.15507 3.40846 5.62348 3.37019C6.07448 3.33334 6.62811 3.33335 7.29892 3.33336Z" fill="#181818"/>
<path d="M13.1608 3.16077C14.1765 2.14498 15.8235 2.14498 16.8393 3.16077C17.8551 4.17656 17.8551 5.82349 16.8393 6.83928L12.1548 11.5237C11.5297 12.1489 10.6818 12.5 9.79783 12.5H8.33333C7.8731 12.5 7.5 12.1269 7.5 11.6667V10.2022C7.5 9.31819 7.85119 8.47036 8.47633 7.8452L13.1608 3.16077ZM15.6608 4.33929C15.2958 3.97436 14.7042 3.97436 14.3393 4.33929L9.65483 9.02369C9.34225 9.33628 9.16667 9.76019 9.16667 10.2022V10.8334H9.79783C10.2398 10.8334 10.6638 10.6578 10.9763 10.3452L15.6608 5.66077C16.0257 5.29585 16.0257 4.7042 15.6608 4.33929Z" fill="#181818"/>
</svg>
