<svg width="24" height="24" viewBox="0 0 24 24" fill="none" xmlns="http://www.w3.org/2000/svg">
<path fill-rule="evenodd" clip-rule="evenodd" d="M15.5858 3.49985C16.3668 2.7188 17.6332 2.7188 18.4142 3.49985L20.5 5.58564C21.281 6.36668 21.281 7.63301 20.5 8.41406L8.70711 20.207C8.51957 20.3945 8.26522 20.4998 8 20.4998H4.5C3.94772 20.4998 3.5 20.0521 3.5 19.4998V15.9998C3.5 15.7346 3.60536 15.4803 3.79289 15.2927L15.5858 3.49985ZM5.5 16.4141V18.4998H7.58579L9.04282 17.0428L6.95703 14.957L5.5 16.4141ZM19.0858 6.99985L17.0428 9.04282L14.957 6.95703L17 4.91406L19.0858 6.99985Z" fill="#191919"/>
<path d="M18.5 15C18.5 14.4477 18.0523 14 17.5 14C16.9477 14 16.5 14.4477 16.5 15V16.5H15C14.4477 16.5 14 16.9477 14 17.5C14 18.0523 14.4477 18.5 15 18.5H16.5V20C16.5 20.5523 16.9477 21 17.5 21C18.0523 21 18.5 20.5523 18.5 20V18.5H20C20.5523 18.5 21 18.0523 21 17.5C21 16.9477 20.5523 16.5 20 16.5H18.5V15Z" fill="#191919"/>
</svg>
