<svg width="24" height="24" viewBox="0 0 24 24" fill="none" xmlns="http://www.w3.org/2000/svg">
<path fill-rule="evenodd" clip-rule="evenodd" d="M18.4142 3.49997C17.6332 2.71892 16.3668 2.71892 15.5858 3.49997L3.79289 15.2929C3.60536 15.4804 3.5 15.7348 3.5 16V19.5C3.5 20.0523 3.94772 20.5 4.5 20.5H8C8.26522 20.5 8.51957 20.3946 8.70711 20.2071L20.5 8.41418C21.281 7.63314 21.281 6.36681 20.5 5.58576L18.4142 3.49997ZM5.5 18.5V16.4142L6.95709 14.9571L9.04288 17.0429L7.58579 18.5H5.5ZM17.0429 9.04288L19.0858 6.99997L17 4.91418L14.9571 6.95709L17.0429 9.04288Z" fill="#191919"/>
</svg>
