<svg width="24" height="24" viewBox="0 0 24 24" fill="none" xmlns="http://www.w3.org/2000/svg">
<path d="M15.293 3.29115C16.788 1.79626 19.212 1.79626 20.707 3.29115C22.2021 4.7862 22.202 7.21011 20.707 8.70521L7 22.4122C6.62496 22.7873 6.11631 22.9981 5.58594 22.9982H3C1.89543 22.9982 1 22.1028 1 20.9982V18.4122C1.00012 17.882 1.21097 17.3731 1.58594 16.9982L15.293 3.29115ZM18 21.9982V19.9982H16C15.4477 19.9982 15 19.5505 15 18.9982C15.0002 18.446 15.4478 17.9982 16 17.9982H18V15.9982C18.0002 15.446 18.4478 14.9982 19 14.9982C19.5522 14.9982 19.9998 15.446 20 15.9982V17.9982H22C22.5522 17.9982 22.9998 18.446 23 18.9982C23 19.5505 22.5523 19.9982 22 19.9982H20V21.9982C20 22.5505 19.5523 22.9982 19 22.9982C18.4477 22.9982 18 22.5505 18 21.9982ZM19.293 4.70521C18.579 3.99137 17.421 3.99137 16.707 4.70521L15.4141 5.99818L18 8.58412L19.293 7.29115C20.0069 6.5771 20.007 5.41921 19.293 4.70521ZM3 20.9982H5.58594L16.5859 9.99818L14 7.41225L3 18.4122V20.9982Z" fill="#191919"/>
</svg>
