<svg width="24" height="24" viewBox="0 0 24 24" fill="none" xmlns="http://www.w3.org/2000/svg">
<path d="M16.2413 4H7.7587C6.95374 3.99999 6.28937 3.99998 5.74818 4.04419C5.18608 4.09012 4.66937 4.18868 4.18404 4.43597C3.43139 4.81947 2.81947 5.43139 2.43598 6.18404C2.18868 6.66937 2.09012 7.18608 2.04419 7.74817C1.99998 8.28936 1.99999 8.95372 2 9.75868V14.2413C1.99999 15.0463 1.99998 15.7106 2.04419 16.2518C2.09012 16.8139 2.18868 17.3306 2.43598 17.816C2.81947 18.5686 3.43139 19.1805 4.18404 19.564C4.66937 19.8113 5.18608 19.9099 5.74818 19.9558C6.28936 20 6.95371 20 7.75866 20H16.2413C17.0462 20 17.7106 20 18.2518 19.9558C18.8139 19.9099 19.3306 19.8113 19.816 19.564C20.5686 19.1805 21.1805 18.5686 21.564 17.816C21.8113 17.3306 21.9099 16.8139 21.9558 16.2518C22 15.7106 22 15.0463 22 14.2413V9.75868C22 8.95372 22 8.28936 21.9558 7.74817C21.9099 7.18608 21.8113 6.66937 21.564 6.18404C21.1805 5.43139 20.5686 4.81947 19.816 4.43597C19.3306 4.18868 18.8139 4.09012 18.2518 4.04419C17.7106 3.99998 17.0463 3.99999 16.2413 4ZM5.09202 6.21799C5.24842 6.1383 5.47262 6.07337 5.91104 6.03755C6.36113 6.00078 6.94342 6 7.8 6H16.2C17.0566 6 17.6389 6.00078 18.089 6.03755C18.5274 6.07337 18.7516 6.1383 18.908 6.21799C19.2214 6.37767 19.486 6.61657 19.6765 6.90935L12.7071 13.8787C12.3166 14.2692 11.6834 14.2692 11.2929 13.8787L4.32356 6.90933C4.51403 6.61656 4.77863 6.37767 5.09202 6.21799ZM4.0002 9.4144L7.5858 13L4.08889 16.4969C4.06824 16.3856 4.05088 16.2521 4.03755 16.089C4.00078 15.6389 4 15.0566 4 14.2V9.8C4 9.66482 4.00002 9.53647 4.0002 9.4144ZM5.50311 17.9111L9.00001 14.4142L9.8787 15.2929C11.0503 16.4645 12.9498 16.4645 14.1213 15.2929L15 14.4142L18.4969 17.9111C18.3856 17.9318 18.2521 17.9491 18.089 17.9624C17.6389 17.9992 17.0566 18 16.2 18H7.8C6.94342 18 6.36113 17.9992 5.91104 17.9624C5.74793 17.9491 5.61446 17.9318 5.50311 17.9111ZM19.9111 16.4969L16.4142 13L19.9998 9.41443C20 9.53649 20 9.66483 20 9.8V14.2C20 15.0566 19.9992 15.6389 19.9624 16.089C19.9491 16.2521 19.9318 16.3855 19.9111 16.4969Z" fill="#191919"/>
</svg>
