<svg width="24" height="24" viewBox="0 0 24 24" fill="none" xmlns="http://www.w3.org/2000/svg">
<path d="M13.4027 7.2L12.9827 13.92H11.0227L10.6027 7.2H13.4027Z" fill="#191919"/>
<path d="M12.0027 17.14C11.2327 17.14 10.6727 16.58 10.6727 15.88C10.6727 15.18 11.2327 14.62 12.0027 14.62C12.7727 14.62 13.3327 15.18 13.3327 15.88C13.3327 16.58 12.7727 17.14 12.0027 17.14Z" fill="#191919"/>
<path fill-rule="evenodd" clip-rule="evenodd" d="M22 12C22 17.5228 17.5228 22 12 22C6.47715 22 2 17.5228 2 12C2 6.47715 6.47715 2 12 2C17.5228 2 22 6.47715 22 12ZM20 12C20 16.4183 16.4183 20 12 20C7.58172 20 4 16.4183 4 12C4 7.58172 7.58172 4 12 4C16.4183 4 20 7.58172 20 12Z" fill="#191919"/>
</svg>
