<svg width="24" height="24" viewBox="0 0 24 24" fill="none" xmlns="http://www.w3.org/2000/svg">
<path d="M14.5 12C14.5 13.3807 13.3807 14.5 12 14.5C10.6193 14.5 9.5 13.3807 9.5 12C9.5 10.6193 10.6193 9.5 12 9.5C13.3807 9.5 14.5 10.6193 14.5 12Z" fill="#191919"/>
<path fill-rule="evenodd" clip-rule="evenodd" d="M12 5C7.58204 5 3.71433 7.57033 1.16429 11.4508C0.945235 11.7842 0.945235 12.2158 1.16429 12.5492C3.71433 16.4297 7.58204 19 12 19C16.418 19 20.2857 16.4297 22.8357 12.5492C23.0548 12.2158 23.0548 11.7842 22.8357 11.4508C20.2857 7.57033 16.418 5 12 5ZM16.5 12C16.5 14.4853 14.4853 16.5 12 16.5C9.51472 16.5 7.5 14.4853 7.5 12C7.5 9.51472 9.51472 7.5 12 7.5C14.4853 7.5 16.5 9.51472 16.5 12Z" fill="#191919"/>
</svg>
