<svg width="24" height="24" viewBox="0 0 24 24" fill="none" xmlns="http://www.w3.org/2000/svg">
<path fill-rule="evenodd" clip-rule="evenodd" d="M21.8291 1.75878C22.2386 1.38831 22.8707 1.4197 23.2412 1.82909C23.6117 2.23857 23.5803 2.87065 23.1709 3.2412L2.1709 22.2412C1.76141 22.6117 1.12934 22.5803 0.758787 22.1709C0.388298 21.7614 0.419706 21.1293 0.829099 20.7588L4.07129 17.8242C2.50716 16.3332 1.36005 14.4062 0.830076 12.2344L0.772459 11.9971L0.830076 11.7598C2.05971 6.73258 6.59206 2.99999 12 2.99999L12.4883 3.00976C14.6474 3.10016 16.6532 3.78804 18.3447 4.91015L21.8291 1.75878ZM12 4.99999C7.62144 4.99999 3.93474 7.96397 2.83594 11.9961C3.3096 13.7398 4.26679 15.2861 5.55761 16.4795L8.45605 13.8574C8.16459 13.3022 7.99902 12.6699 7.99902 12C7.99902 11.2711 8.19552 10.5885 8.53613 9.99999C8.54407 9.98627 8.55048 9.97164 8.55859 9.958C8.58299 9.91698 8.60896 9.87696 8.63476 9.8369C8.64624 9.81909 8.65715 9.80087 8.66894 9.78319C8.72862 9.69372 8.79288 9.60762 8.85937 9.52343C8.88754 9.48779 8.91673 9.45284 8.94629 9.41796C9.06113 9.28231 9.18276 9.15244 9.31445 9.03319C9.32523 9.02342 9.33679 9.01451 9.34765 9.00487C9.43335 8.92895 9.52224 8.85651 9.61426 8.78808C9.64752 8.76331 9.68198 8.74039 9.71582 8.71679C9.73612 8.70264 9.7558 8.68759 9.77637 8.67382C9.80184 8.65675 9.82774 8.64043 9.85351 8.62401C9.88679 8.60282 9.92017 8.58174 9.9541 8.56151C9.97302 8.55024 9.99265 8.54023 10.0117 8.52929C10.0509 8.50681 10.0899 8.48405 10.1299 8.46288C10.1416 8.45668 10.1533 8.4504 10.165 8.44433C10.2101 8.42102 10.2557 8.39856 10.3018 8.37694C10.3179 8.36939 10.3344 8.36278 10.3506 8.35546C10.392 8.33671 10.4335 8.31814 10.4756 8.30077C10.5017 8.29001 10.5284 8.28068 10.5547 8.2705C10.5901 8.25677 10.6252 8.24222 10.6611 8.22948C10.6792 8.22309 10.6977 8.21803 10.7158 8.2119C10.8196 8.17677 10.9249 8.14481 11.0322 8.11815C11.0508 8.11355 11.0693 8.10882 11.0879 8.10448C11.1358 8.09332 11.1839 8.08265 11.2324 8.07323C11.2379 8.07216 11.2435 8.07135 11.249 8.0703C11.3049 8.05969 11.3613 8.05024 11.418 8.04198C11.4316 8.03998 11.4453 8.03798 11.459 8.03612C11.6357 8.01227 11.8168 7.99999 12 7.99999C12.0655 7.99999 12.1309 8.00168 12.1963 8.00487C12.2398 8.00699 12.2831 8.01017 12.3262 8.01366C12.3503 8.01562 12.3744 8.01713 12.3984 8.01952C12.437 8.02335 12.4754 8.02827 12.5137 8.03319C12.5453 8.03727 12.5768 8.04204 12.6084 8.04686C12.6421 8.05202 12.6756 8.05748 12.709 8.06347C12.7462 8.07013 12.7833 8.07723 12.8203 8.08495C12.8452 8.09014 12.8698 8.0959 12.8945 8.10155C12.9347 8.11073 12.9747 8.12042 13.0146 8.13085C13.0467 8.13925 13.0786 8.14805 13.1103 8.15722C13.1349 8.16428 13.1592 8.17213 13.1836 8.17968C13.2245 8.19234 13.2653 8.20481 13.3057 8.21874C13.328 8.22642 13.3499 8.23507 13.3721 8.24315C13.4083 8.2564 13.4447 8.26894 13.4805 8.28319C13.73 8.38247 13.9717 8.50766 14.2012 8.65917L16.8037 6.30468C15.5037 5.54017 14.0064 5.07587 12.4043 5.00878L12 4.99999Z" fill="#191919"/>
<path d="M20.5566 8.33593C21.033 8.05718 21.6457 8.21713 21.9248 8.69335C22.4786 9.63875 22.902 10.6713 23.1689 11.7646L23.2266 12.0019L23.168 12.2402C21.9384 17.2669 17.4089 20.9997 12.001 21C11.0457 21 10.1159 20.8835 9.22656 20.6631C8.69069 20.5302 8.36358 19.988 8.49609 19.4521C8.62894 18.9162 9.17109 18.589 9.70703 18.7217C10.4403 18.9034 11.209 19 12.001 19C16.3802 18.9997 20.0644 16.0339 21.1621 12C20.9408 11.1869 20.6157 10.4163 20.1992 9.70507C19.9201 9.22852 20.0801 8.61508 20.5566 8.33593Z" fill="#191919"/>
</svg>
