<svg width="24" height="24" viewBox="0 0 24 24" fill="none" xmlns="http://www.w3.org/2000/svg">
<path d="M12.5054 3.01074C17.6906 3.23478 21.98 6.8926 23.1694 11.7646L23.2271 12.002L23.1694 12.2393C21.9786 17.1092 17.69 20.7653 12.5063 20.9893L12.0015 21C6.59125 21 2.05799 17.2646 0.830566 12.2344L0.772949 11.9971L0.830566 11.7598C2.06017 6.73254 6.59251 3 12.0005 3L12.5054 3.01074ZM12.0005 5C7.62156 5 3.93489 7.96444 2.83643 11.9971C3.93296 16.0327 7.62053 19 12.0015 19L12.4175 18.9912C16.6126 18.8103 20.0995 15.9061 21.1626 12.001C20.0652 7.96644 16.3803 5.00004 12.0005 5Z" fill="#191919"/>
<path d="M12.0009 16C14.21 16 16.0009 14.2091 16.0009 12C16.0009 9.79086 14.21 8 12.0009 8C9.79175 8 8.00089 9.79086 8.00089 12C8.00089 14.2091 9.79175 16 12.0009 16Z" fill="#191919"/>
</svg>
