<svg width="24" height="24" viewBox="0 0 24 24" fill="none" xmlns="http://www.w3.org/2000/svg">
<path fill-rule="evenodd" clip-rule="evenodd" d="M1.29289 1.29289C1.68342 0.902369 2.31658 0.902369 2.70711 1.29289L7.39221 5.978C8.82854 5.34682 10.3771 5 12 5C16.418 5 20.2857 7.57033 22.8357 11.4508C23.0548 11.7842 23.0548 12.2158 22.8357 12.5492C21.6357 14.3753 20.1438 15.9114 18.4401 17.0259L22.7071 21.2929C23.0976 21.6834 23.0976 22.3166 22.7071 22.7071C22.3166 23.0976 21.6834 23.0976 21.2929 22.7071L1.29289 2.70711C0.902369 2.31658 0.902369 1.68342 1.29289 1.29289ZM9.60426 8.19005L11.0864 9.67219C11.3694 9.56104 11.6776 9.5 12 9.5C13.3807 9.5 14.5 10.6193 14.5 12C14.5 12.3224 14.439 12.6306 14.3278 12.9136L15.81 14.3957C16.2471 13.702 16.5 12.8805 16.5 12C16.5 9.51472 14.4853 7.5 12 7.5C11.1195 7.5 10.298 7.75291 9.60426 8.19005Z" fill="#191919"/>
<path d="M4.02184 8.14315C2.94909 9.08071 1.98796 10.1974 1.16429 11.4508C0.945235 11.7842 0.945235 12.2158 1.16429 12.5492C3.71433 16.4297 7.58204 19 12 19C12.8841 19 13.7461 18.8971 14.58 18.7013L12.3642 16.4855C12.244 16.4951 12.1226 16.5 12 16.5C9.51472 16.5 7.5 14.4853 7.5 12C7.5 11.8774 7.5049 11.756 7.51452 11.6358L4.02184 8.14315Z" fill="#191919"/>
</svg>
