<svg width="24" height="24" viewBox="0 0 24 24" fill="none" xmlns="http://www.w3.org/2000/svg">
<path fill-rule="evenodd" clip-rule="evenodd" d="M15.2927 3.29289C16.7878 1.79779 19.2119 1.7978 20.707 3.29289C22.202 4.78799 22.202 7.21201 20.707 8.70711L18.4141 11L18.4998 11.0858C19.2809 11.8668 19.2809 13.1332 18.4999 13.9142L17.4141 15C16.633 15.781 15.3667 15.781 14.5856 15L13.9999 14.4143L9.36426 19.05C8.96927 19.445 8.45018 19.6402 7.93251 19.6357C7.64091 20.9872 6.43873 22 5 22C3.34315 22 2 20.6569 2 19C2 17.5613 3.0128 16.3591 4.36433 16.0675C4.35984 15.5498 4.55507 15.0308 4.95004 14.6358L9.58573 10.0001L8.99985 9.41421C8.2188 8.63316 8.2188 7.36683 8.99985 6.58579L10.0856 5.5C10.8667 4.71895 12.133 4.71895 12.9141 5.5L12.9998 5.58578L15.2927 3.29289ZM12.5857 13.0001L10.9999 11.4143L6.36426 16.05L7.95004 17.6358L12.5857 13.0001ZM4 19C4 18.4477 4.44772 18 5 18C5.55228 18 6 18.4477 6 19C6 19.5523 5.55228 20 5 20C4.44772 20 4 19.5523 4 19Z" fill="#191919"/>
</svg>
