<svg width="24" height="24" viewBox="0 0 24 24" fill="none" xmlns="http://www.w3.org/2000/svg">
<path d="M15.293 3.29121C16.788 1.79632 19.212 1.79632 20.707 3.29121C22.2021 4.78626 22.202 7.21017 20.707 8.70528L18.4141 10.9982L19.707 12.2912C20.0975 12.6817 20.0974 13.3147 19.707 13.7053C19.3165 14.0958 18.6835 14.0958 18.293 13.7053L17 12.4123L10 19.4123C9.62496 19.7873 9.11631 19.9982 8.58594 19.9982H7.96387C7.72139 21.6945 6.26335 22.9982 4.5 22.9982C2.56699 22.9982 1 21.4312 1 19.4982C1.00019 17.7352 2.30399 16.277 4 16.0344V15.4123C4.00012 14.882 4.21097 14.3732 4.58594 13.9982L11.5859 6.99824L10.293 5.70528C9.90266 5.31473 9.90252 4.68167 10.293 4.29121C10.6834 3.90089 11.3165 3.90095 11.707 4.29121L13 5.58418L15.293 3.29121ZM19.293 4.70528C18.579 3.99143 17.421 3.99143 16.707 4.70528L14.4141 6.99824L17 9.58418L19.293 7.29121C20.0069 6.57716 20.007 5.41927 19.293 4.70528ZM3 19.4982C3 20.3267 3.67159 20.9982 4.5 20.9982C5.32843 20.9982 6 20.3267 6 19.4982V19.4123L4.58594 17.9982H4.5C3.67171 17.9983 3.00021 18.67 3 19.4982ZM6 16.5842L7.41406 17.9982H8.58594L15.5859 10.9982L13 8.41231L6 15.4123V16.5842Z" fill="#191919"/>
</svg>
