<svg width="24" height="24" viewBox="0 0 24 24" fill="none" xmlns="http://www.w3.org/2000/svg">
<path d="M17.0142 5.09574C15.677 4.80473 14.1012 5.14901 12.7038 6.53258C12.3141 6.91841 11.6863 6.91841 11.2966 6.53258C9.89917 5.14901 8.32336 4.80473 6.98622 5.09574C5.62627 5.39171 4.43885 6.35928 3.86567 7.7543C2.79097 10.3699 3.76831 15.1923 12.0002 19.8555C20.2321 15.1923 21.2094 10.3699 20.1347 7.75429C19.5615 6.35927 18.3741 5.39171 17.0142 5.09574ZM21.9847 6.99419C23.677 11.1129 21.4608 16.9641 12.4802 21.8773C12.1811 22.0409 11.8193 22.0409 11.5203 21.8773C2.53964 16.9642 0.323448 11.1129 2.01573 6.9942C2.83631 4.99706 4.55257 3.57857 6.5609 3.14149C8.34148 2.75397 10.2957 3.14856 12.0002 4.48887C13.7047 3.14856 15.6589 2.75397 17.4395 3.14148C19.4478 3.57857 21.1641 4.99705 21.9847 6.99419Z" fill="#191919"/>
</svg>
