<svg width="24" height="24" viewBox="0 0 24 24" fill="none" xmlns="http://www.w3.org/2000/svg">
<path d="M17.828 3C17.0479 3.60345 16.5891 4.58492 16.6997 5.63779C16.8104 6.69106 17.4638 7.55593 18.3528 7.98384C19.1328 7.38039 19.5916 6.39893 19.481 5.34605C19.3703 4.29279 18.717 3.42791 17.828 3Z" fill="#191919"/>
<path d="M19.1885 9.23473C19.6526 8.28314 20.5619 7.69394 21.5433 7.59561C22.07 8.42949 22.1656 9.5088 21.7014 10.4604C21.2373 11.412 20.328 12.0012 19.3466 12.0995C18.8199 11.2656 18.7244 10.1863 19.1885 9.23473Z" fill="#191919"/>
<path d="M21.2902 13.6326C20.4059 13.1959 19.3226 13.2137 18.4248 13.7747C17.5265 14.336 17.0356 15.3026 17.0409 16.2893C17.9252 16.726 19.0085 16.7082 19.9063 16.1471C20.8046 15.5858 21.2955 14.6193 21.2902 13.6326Z" fill="#191919"/>
<path d="M18.4818 18.8282C17.9633 17.9892 17.035 17.4301 15.9762 17.4301C14.9173 17.4301 13.9891 17.9892 13.4705 18.8282C13.9891 19.6673 14.9173 20.2264 15.9762 20.2264C17.035 20.2264 17.9633 19.6673 18.4818 18.8282Z" fill="#191919"/>
<path d="M8.02462 17.4303C6.96579 17.4303 6.03753 17.9894 5.51898 18.8285C6.03753 19.6675 6.96579 20.2266 8.02462 20.2266C9.08347 20.2266 10.0117 19.6675 10.5303 18.8285C10.0117 17.9894 9.08347 17.4303 8.02462 17.4303Z" fill="#191919"/>
<path d="M2.70976 13.6327C3.59408 13.1961 4.6774 13.2139 5.57523 13.7749C6.47348 14.3362 6.96442 15.3027 6.95914 16.2894C6.07482 16.7261 4.99149 16.7083 4.09367 16.1473C3.19541 15.586 2.70447 14.6195 2.70976 13.6327Z" fill="#191919"/>
<path d="M4.81151 9.23488C4.34739 8.28329 3.43808 7.69409 2.4567 7.59577C1.92997 8.42964 1.83443 9.50895 2.29856 10.4606C2.76268 11.4121 3.67199 12.0013 4.65336 12.0997C5.18009 11.2658 5.27564 10.1865 4.81151 9.23488Z" fill="#191919"/>
<path d="M6.17202 3.00018C6.95207 3.60363 7.41092 4.58509 7.30025 5.63797C7.18955 6.69123 6.53623 7.55611 5.64725 7.98402C4.86719 7.38057 4.40835 6.3991 4.51901 5.34623C4.62972 4.29297 5.28304 3.42809 6.17202 3.00018Z" fill="#191919"/>
<path d="M9.60743 13.8236C9.53814 14.1231 9.86296 14.3588 10.1262 14.2L12.0008 13.0692L13.8754 14.2C14.1387 14.3588 14.4635 14.1231 14.3942 13.8236L13.9009 11.6911L15.5557 10.2564C15.788 10.055 15.6641 9.67338 15.3578 9.6468L13.1701 9.45689L12.3214 7.44871C12.2016 7.16534 11.8 7.16534 11.6803 7.44871L10.8315 9.45689L8.64382 9.6468C8.33752 9.67338 8.21365 10.055 8.44595 10.2564L10.1007 11.6911L9.60743 13.8236Z" fill="#191919"/>
</svg>
