<svg width="24" height="24" viewBox="0 0 24 24" fill="none" xmlns="http://www.w3.org/2000/svg">
<path fill-rule="evenodd" clip-rule="evenodd" d="M12.9961 2.13173L12.9976 2.13258C14.3639 2.91679 15.6171 3.96672 16.7144 5.08718C18.5437 6.95502 20.5 9.76789 20.5 13.2951C20.5 18.0771 16.7197 22 12 22C7.28035 22 3.5 18.0771 3.5 13.2951C3.5 11.0051 4.60864 7.97713 6.79289 5.79287C7.18342 5.40234 7.81658 5.40234 8.20711 5.79287L8.86429 6.45005L11.6808 2.42651C11.9772 2.00309 12.5474 1.8753 12.9961 2.13173ZM8.12815 18.6804C8.04417 18.323 8 17.952 8 17.5756C8 15.8104 8.94257 14.4313 9.77296 13.552C10.4094 12.878 11.0317 12.4374 11.3207 12.2469C11.7788 11.9449 12.2355 11.9544 12.6793 12.2469C12.9683 12.4374 13.5906 12.878 14.227 13.552C15.0574 14.4313 16 15.8104 16 17.5756C16 17.952 15.9558 18.323 15.8718 18.6804C17.4624 17.4628 18.5 15.5119 18.5 13.2951C18.5 10.5272 16.9563 8.1925 15.2856 6.48656C14.3475 5.52878 13.4031 4.80532 12.7666 4.36288L9.81923 8.57344C9.64971 8.81562 9.38172 8.97038 9.08722 8.99616C8.79273 9.02195 8.50193 8.91612 8.29289 8.70708L7.54036 7.95455C6.1729 9.67102 5.5 11.7743 5.5 13.2951C5.5 15.5119 6.5376 17.4628 8.12815 18.6804ZM12 14.222C10.9671 15.0326 10 16.2003 10 17.5756C10 19.0429 11.0156 20 12 20C12.9844 20 14 19.0429 14 17.5756C14 16.2003 13.0329 15.0326 12 14.222Z" fill="#191919"/>
</svg>
