<svg width="24" height="24" viewBox="0 0 24 24" fill="none" xmlns="http://www.w3.org/2000/svg">
<path fill-rule="evenodd" clip-rule="evenodd" d="M7.5 3C5.84348 3 4.4443 3.63836 3.46789 4.72101C2.50126 5.79283 2 7.24116 2 8.79564C2 10.3212 2.5492 11.6891 3.44415 13H7.58579L8.79289 11.7929C9.18342 11.4024 9.81658 11.4024 10.2071 11.7929L10.726 12.3118L12.1056 9.55279C12.275 9.214 12.6212 9 13 9C13.3788 9 13.725 9.214 13.8944 9.55279L15.618 13H20.5562C21.4509 11.6888 22 10.3211 22 8.79564C22 7.24116 21.4987 5.79283 20.5321 4.72101C19.5557 3.63836 18.1565 3 16.5 3C14.8741 3 13.7307 3.72163 12.894 4.74682C12.5554 5.16169 12.2625 5.63246 12 6.12405C11.7375 5.63246 11.4446 5.16169 11.106 4.74682C10.2693 3.72163 9.1259 3 7.5 3ZM18.9214 15H15C14.6212 15 14.275 14.786 14.1056 14.4472L13 12.2361L11.8944 14.4472C11.7507 14.7347 11.4775 14.9356 11.1602 14.9871C10.8429 15.0386 10.5202 14.9344 10.2929 14.7071L9.5 13.9142L8.70711 14.7071C8.51957 14.8946 8.26522 15 8 15H5.08022C6.39358 16.4013 8.07686 17.8801 9.97218 19.5451L10.0335 19.599L11.3385 20.75C11.7154 21.0824 12.2805 21.0835 12.6586 20.7525L13.9636 19.6102L13.9658 19.6083L14.0509 19.5334C15.9376 17.8724 17.6132 16.3973 18.9214 15Z" fill="#191919"/>
</svg>
