<svg width="24" height="24" viewBox="0 0 24 24" fill="none" xmlns="http://www.w3.org/2000/svg">
<path d="M5 20C5 20.5523 5.44772 21 6 21C6.55228 21 7 20.5523 7 20L7 4C7 3.44772 6.55229 3 6 3C5.44772 3 5 3.44772 5 4V20Z" fill="#191919"/>
<path d="M13.1832 13.9425C11.8194 12.9463 10.1851 12.3917 8.5 12.3503V4.0047C10.2086 4.06138 11.8632 4.63053 13.2472 5.64146L13.7913 6.03891C15.2092 7.07458 16.971 7.52553 18.7121 7.29843C19.3947 7.20939 20 7.74084 20 8.42922V14.3115C20 14.8989 19.5756 15.4004 18.9963 15.4975C17.0802 15.8189 15.1155 15.354 13.5467 14.208L13.1832 13.9425Z" fill="#191919"/>
</svg>
