<svg width="24" height="24" viewBox="0 0 24 24" fill="none" xmlns="http://www.w3.org/2000/svg">
<path fill-rule="evenodd" clip-rule="evenodd" d="M4 1C4.55228 1 5 1.44772 5 2H21C21.3466 2 21.6684 2.17979 21.8506 2.47461C22.0327 2.76939 22.0495 3.13735 21.8945 3.44727L18.6182 10L21.8945 16.5527C22.0495 16.8626 22.0327 17.2306 21.8506 17.5254C21.6684 17.8202 21.3466 18 21 18H5V22C5 22.5523 4.55228 23 4 23C3.44772 23 3 22.5523 3 22V2C3 1.44772 3.44772 1 4 1ZM5 16H19.3818L16.6055 10.4473C16.4647 10.1657 16.4647 9.83426 16.6055 9.55273L19.3818 4H5V16Z" fill="#191919"/>
</svg>
