<svg width="24" height="24" viewBox="0 0 24 24" fill="none" xmlns="http://www.w3.org/2000/svg">
<g clip-path="url(#clip0_20354_23066)">
<path d="M13.2353 0.354612C13.5062 0.0343526 13.9487 -0.0834846 14.3427 0.0606662C14.7367 0.205005 14.9989 0.580477 14.9989 1.00012V9.00012H20.9989C21.3883 9.00012 21.7423 9.22605 21.9062 9.57922C22.0699 9.9323 22.0138 10.3484 21.7626 10.6456L10.7626 23.6456C10.4916 23.9659 10.0491 24.0837 9.65518 23.9396C9.26114 23.7952 8.99893 23.4198 8.99893 23.0001V15.0001H2.99893C2.60959 15.0001 2.25556 14.7742 2.09171 14.421C1.92795 14.0679 1.98403 13.6518 2.23526 13.3546L13.2353 0.354612ZM5.15518 13.0001H10.9989V20.2697L18.8427 11.0001H12.9989V3.72961L5.15518 13.0001Z" fill="#191919"/>
</g>
<defs>
<clipPath id="clip0_20354_23066">
<rect width="24" height="24" fill="white"/>
</clipPath>
</defs>
</svg>
