<svg width="24" height="24" viewBox="0 0 24 24" fill="none" xmlns="http://www.w3.org/2000/svg">
<g clip-path="url(#clip0_20390_23064)">
<path d="M13.2364 0.354734C13.5073 0.0344747 13.9498 -0.0833625 14.3438 0.0607883C14.7378 0.205128 15 0.580599 15 1.00024V9.00024H21C21.3894 9.00024 21.7434 9.22617 21.9073 9.57934C22.071 9.93242 22.0149 10.3485 21.7637 10.6457L10.7637 23.6458C10.4927 23.966 10.0502 24.0838 9.65628 23.9397C9.26224 23.7954 9.00003 23.4199 9.00003 23.0002V15.0002H3.00003C2.61069 15.0002 2.25666 14.7743 2.0928 14.4211C1.92905 14.0681 1.98513 13.652 2.23636 13.3547L13.2364 0.354734ZM5.15628 13.0002H11V20.2698L18.8438 11.0002H13V3.72973L5.15628 13.0002Z" fill="#191919"/>
<path d="M20.6489 21.0002L19.9989 18.9502L19.3489 21.0002H20.6489ZM21.1489 22.5002H18.8489L18.3489 24.0002H16.2989L18.9489 17.0002H21.0489L23.6989 24.0002H21.6489L21.1489 22.5002Z" fill="#191919"/>
</g>
<defs>
<clipPath id="clip0_20390_23064">
<rect width="24" height="24" fill="white"/>
</clipPath>
</defs>
</svg>
