<svg width="24" height="24" viewBox="0 0 24 24" fill="none" xmlns="http://www.w3.org/2000/svg">
<g clip-path="url(#clip0_20355_23082)">
<path d="M20.2364 9.35444C20.5931 8.9332 21.2241 8.87997 21.6456 9.23627C22.067 9.59284 22.1199 10.2239 21.7638 10.6455L10.7638 23.6455C10.4928 23.9657 10.0503 24.0835 9.65636 23.9394C9.26233 23.7951 9.00011 23.4196 9.00011 22.9999V19.2109C9.00024 18.6587 9.44791 18.2109 10.0001 18.2109C10.5522 18.211 11 18.6588 11.0001 19.2109V20.2695L20.2364 9.35444Z" fill="#191919"/>
<path fill-rule="evenodd" clip-rule="evenodd" d="M13.2364 0.354438C13.5075 0.034376 13.95 -0.0836188 14.3439 0.060493C14.7378 0.204843 15 0.580449 15.0001 0.999946V7.93745L21.8292 1.75874C22.2387 1.38849 22.8708 1.41975 23.2413 1.82905C23.6117 2.23845 23.5802 2.87057 23.171 3.24116L2.17101 22.2412C1.76153 22.6116 1.12946 22.5802 0.758904 22.1708C0.388425 21.7614 0.419826 21.1293 0.829216 20.7587L7.19445 14.9999H3.00011C2.61078 14.9999 2.25674 14.774 2.09289 14.4208C1.92919 14.0678 1.98524 13.6516 2.23644 13.3544L13.2364 0.354438ZM5.15636 12.9999H9.40441L13.0001 9.74604V3.72944L5.15636 12.9999Z" fill="#191919"/>
</g>
<defs>
<clipPath id="clip0_20355_23082">
<rect width="24" height="24" fill="white"/>
</clipPath>
</defs>
</svg>
