<svg width="24" height="24" viewBox="0 0 24 24" fill="none" xmlns="http://www.w3.org/2000/svg">
<path d="M3.61719 2.07643C3.99086 1.92165 4.42103 2.00723 4.70703 2.29323L18.3643 15.9505C18.7543 16.341 18.7546 16.9742 18.3643 17.3645C16.9581 18.7706 15.0858 19.7119 13 19.9426V22.0003C12.9999 22.5524 12.5522 23.0003 12 23.0003C11.4478 23.0003 11.0001 22.5524 11 22.0003V19.9426C6.50027 19.4451 3.00014 15.6326 3 11.0003V3.00026C3 2.59588 3.24364 2.23127 3.61719 2.07643Z" fill="#191919"/>
<path d="M19.293 2.29323C19.579 2.00723 20.0091 1.92165 20.3828 2.07643C20.7563 2.23127 21 2.59589 21 3.00026V11.0003C20.9999 12.61 20.5735 14.1203 19.833 15.428C19.7648 15.3074 19.6865 15.1906 19.5967 15.0803L19.4248 14.8899L13.0605 8.52565L19.293 2.29323Z" fill="#191919"/>
<path d="M11.3691 1.72487C11.7619 1.40445 12.3409 1.42717 12.707 1.79323L15.1895 4.27565L12 7.4651L8.81055 4.27565L11.293 1.79323L11.3691 1.72487Z" fill="#191919"/>
</svg>
