<svg width="24" height="24" viewBox="0 0 24 24" fill="none" xmlns="http://www.w3.org/2000/svg">
<path d="M5 4.00002C5.55228 4.00002 6 4.44773 6 5.00002V9.88782C6 10.4406 6.22882 10.9688 6.63212 11.3469C7.40143 12.0681 8.59857 12.0681 9.36788 11.3469C9.77118 10.9688 10 10.4406 10 9.88782V5.00002C10 4.44773 10.4477 4.00002 11 4.00002C11.5523 4.00002 12 4.44773 12 5.00002V9.88782C12 10.9935 11.5424 12.0498 10.7358 12.806C10.3655 13.1531 9.94558 13.4167 9.5 13.5968V20C9.5 20.5523 9.05228 21 8.5 21H7.5C6.94772 21 6.5 20.5523 6.5 20V13.5968C6.05442 13.4167 5.63455 13.1531 5.26424 12.806C4.45763 12.0498 4 10.9935 4 9.88782V5.00002C4 4.44773 4.44772 4.00002 5 4.00002Z" fill="#191919"/>
<path d="M8 4.00002C8.55228 4.00002 9 4.44773 9 5.00002V10C9 10.5523 8.55228 11 8 11C7.44772 11 7 10.5523 7 10V5.00002C7 4.44773 7.44772 4.00002 8 4.00002Z" fill="#191919"/>
<path fill-rule="evenodd" clip-rule="evenodd" d="M19.013 3.00008C17.8506 2.9767 16.5921 3.26515 15.6066 4.09345C14.5905 4.94745 14 6.26135 14 8.00006V14.0016C14 15.1083 14.8975 16 16 16.0001L17 16.0001V20C17 20.5523 17.4477 21 18 21H19C19.5523 21 20 20.5523 20 20V4C20 3.45206 19.5593 3.00705 19.013 3.00008Z" fill="#191919"/>
</svg>
