<svg width="24" height="24" viewBox="0 0 24 24" fill="none" xmlns="http://www.w3.org/2000/svg">
<path d="M11 3.00005L5.7723 3.00002C5.66071 2.9999 5.4776 2.9997 5.30872 3.0135C5.10166 3.03042 4.74742 3.07768 4.36501 3.27253C3.8946 3.51221 3.51215 3.89466 3.27247 4.36507C3.07762 4.74748 3.03036 5.10173 3.01344 5.30878C2.99964 5.47766 2.99984 5.66077 2.99996 5.77236L2.99998 8H11V3.00005Z" fill="#191919"/>
<path d="M2.99998 10V14H11L11 10H2.99998Z" fill="#191919"/>
<path d="M2.99998 16L2.99996 18.2277C2.99984 18.3393 2.99964 18.5224 3.01344 18.6913C3.03036 18.8984 3.07762 19.2526 3.27247 19.635C3.51215 20.1054 3.8946 20.4879 4.36501 20.7276C4.74742 20.9224 5.10166 20.9697 5.30872 20.9866C5.47761 21.0004 5.66072 21.0002 5.77231 21.0001L11 21V16H2.99998Z" fill="#191919"/>
<path d="M13 21L18.2277 21.0001C18.3392 21.0002 18.5224 21.0004 18.6912 20.9866C18.8983 20.9697 19.2525 20.9224 19.635 20.7276C20.1054 20.4879 20.4878 20.1054 20.7275 19.635C20.9224 19.2526 20.9696 18.8984 20.9865 18.6913C21.0003 18.5224 21.0001 18.3393 21 18.2277L21 16H13V21Z" fill="#191919"/>
<path d="M21 14V10H13L13 14H21Z" fill="#191919"/>
<path d="M21 8H13V3.00005L18.2277 3.00002C18.3393 2.9999 18.5224 2.9997 18.6912 3.0135C18.8983 3.03042 19.2525 3.07768 19.635 3.27253C20.1054 3.51221 20.4878 3.89466 20.7275 4.36507C20.9224 4.74748 20.9696 5.10173 20.9865 5.30878C21.0003 5.47767 21.0001 5.66078 21 5.77237L21 8Z" fill="#191919"/>
</svg>
