<svg width="24" height="24" viewBox="0 0 24 24" fill="none" xmlns="http://www.w3.org/2000/svg">
<path d="M12 9C11.6214 9 11.285 9.20783 11.1156 9.50073C10.839 9.97879 10.2273 10.1421 9.74926 9.86561C9.2712 9.58906 9.10783 8.97733 9.38438 8.49927C9.90656 7.59657 10.8981 7 12 7C13.6569 7 15 8.34315 15 10C15 10.6733 14.8194 11.2219 14.4801 11.663C14.1667 12.0704 13.7667 12.3141 13.519 12.4645C13.2192 12.6466 13.121 12.7084 13.0539 12.7824L13.0508 12.7857C13.0347 12.8026 13 12.8389 13 13C13 13.5523 12.5523 14 12 14C11.4477 14 11 13.5523 11 13C11 12.3526 11.2103 11.839 11.5711 11.4403C11.8491 11.1332 12.2036 10.9211 12.4171 10.7934C12.4398 10.7798 12.4617 10.7667 12.481 10.755C12.7333 10.6018 12.8333 10.5236 12.8949 10.4435C12.9306 10.3971 13 10.2926 13 10C13 9.44772 12.5523 9 12 9Z" fill="#191919"/>
<path d="M13 16C13 16.5523 12.5523 17 12 17C11.4477 17 11 16.5523 11 16C11 15.4477 11.4477 15 12 15C12.5523 15 13 15.4477 13 16Z" fill="#191919"/>
<path d="M22 12C22 17.5228 17.5228 22 12 22C6.47715 22 2 17.5228 2 12C2 6.47715 6.47715 2 12 2C17.5228 2 22 6.47715 22 12ZM20 12C20 7.58172 16.4183 4 12 4C7.58172 4 4 7.58172 4 12C4 16.4183 7.58172 20 12 20C16.4183 20 20 16.4183 20 12Z" fill="#191919"/>
</svg>
