<svg width="24" height="24" viewBox="0 0 24 24" fill="none" xmlns="http://www.w3.org/2000/svg">
<path d="M4.00018 3C4.00018 2.44772 4.44789 2 5.00018 2C5.55246 2 6.00018 2.44771 6.00018 3L6.00018 5.29188C7.59187 3.8673 9.69445 3 12.0002 3C16.9707 3 21.0002 7.02944 21.0002 12C21.0002 16.9706 16.9707 21 12.0002 21C11.4479 21 11.0002 20.5523 11.0002 20C11.0002 19.4477 11.4479 19 12.0002 19C15.8662 19 19.0002 15.866 19.0002 12C19.0002 8.13401 15.8662 5 12.0002 5C9.41045 5 7.14788 6.40581 5.93604 8.50073C5.7573 8.80972 5.4274 9 5.07043 9H5.00018C4.44789 9 4.00018 8.55228 4.00018 8L4.00018 3Z" fill="#191919"/>
<path d="M12.0002 7C12.5525 7 13.0002 7.44771 13.0002 8V11.5858L15.2073 13.7929C15.5978 14.1834 15.5978 14.8166 15.2073 15.2071C14.8168 15.5976 14.1836 15.5976 13.7931 15.2071L11.2931 12.7071C11.1055 12.5196 11.0002 12.2652 11.0002 12V8C11.0002 7.44771 11.4479 7 12.0002 7Z" fill="#191919"/>
<path d="M4.46945 14.9612C3.89577 15.293 3.69974 16.0271 4.03159 16.6008C4.36348 17.1744 5.09787 17.3709 5.67152 17.039C6.24517 16.7072 6.44116 15.9731 6.10927 15.3994C5.77741 14.8257 5.04312 14.6293 4.46945 14.9612Z" fill="#191919"/>
<path d="M6.96016 18.3278C6.6282 18.9015 6.8241 19.6356 7.39771 19.9675L7.39876 19.9681C7.97241 20.3 8.7065 20.104 9.03838 19.5304C9.37026 18.9567 9.17427 18.2226 8.60061 17.8907C8.027 17.5588 7.29212 17.7542 6.96016 18.3278Z" fill="#191919"/>
</svg>
