<svg width="24" height="24" viewBox="0 0 24 24" fill="none" xmlns="http://www.w3.org/2000/svg">
<path d="M2.51464 9.85745L3.00012 9.56617V17.0001C3.00012 19.2092 4.79098 21.0001 7.00012 21.0001H17.0001C19.2092 21.0001 21.0001 19.2092 21.0001 17.0001V9.56613L21.4856 9.85745C21.9592 10.1416 22.5735 9.98804 22.8576 9.51446C23.1418 9.04088 22.9882 8.42663 22.5146 8.14248L14.0581 3.06857C12.7914 2.30853 11.2089 2.30853 9.94217 3.06857L1.48565 8.14248C1.01207 8.42663 0.85851 9.04088 1.14266 9.51446C1.4268 9.98804 2.04106 10.1416 2.51464 9.85745ZM13.0291 4.78356L19.0001 8.36614V17.0001C19.0001 18.1047 18.1047 19.0001 17.0001 19.0001H16.0001V15C16.0001 12.7909 14.2092 11 12.0001 11C9.79098 11 8.00012 12.7909 8.00012 15V19.0001H7.00012C5.89555 19.0001 5.00012 18.1047 5.00012 17.0001V8.36618L10.9711 4.78356C11.6045 4.40354 12.3958 4.40354 13.0291 4.78356ZM10.0001 15C10.0001 13.8954 10.8955 13 12.0001 13C13.1047 13 14.0001 13.8954 14.0001 15V19H10.0001V15Z" fill="#191919"/>
</svg>
