<svg width="24" height="24" viewBox="0 0 24 24" fill="none" xmlns="http://www.w3.org/2000/svg">
<path d="M3.00012 9.56617L2.51464 9.85747C2.04106 10.1416 1.4268 9.98804 1.14266 9.51446C0.85851 9.04088 1.01207 8.42663 1.48565 8.14248L9.94217 3.06857C11.2089 2.30853 12.7914 2.30853 14.0581 3.06857L22.5146 8.14248C22.9882 8.42663 23.1418 9.04088 22.8576 9.51446C22.5735 9.98804 21.9592 10.1416 21.4856 9.85747L21.0001 9.56615V17.0001C21.0001 19.2092 19.2092 21.0001 17.0001 21.0001H7.00012C4.79098 21.0001 3.00012 19.2092 3.00012 17.0001V9.56617ZM12.0002 12C10.3434 12 9.00024 13.3431 9.00024 15V19H15.0002V15C15.0002 13.3431 13.6571 12 12.0002 12Z" fill="#191919"/>
</svg>
