<svg width="24" height="24" viewBox="0 0 24 24" fill="none" xmlns="http://www.w3.org/2000/svg">
<path d="M12 10C12.5523 10 13 10.4477 13 11V17C13 17.5523 12.5523 18 12 18C11.4477 18 11 17.5523 11 17V11C11 10.4477 11.4477 10 12 10Z" fill="#191919"/>
<path d="M12 5.5C12.8284 5.5 13.5 6.17157 13.5 7C13.4999 7.82831 12.8283 8.5 12 8.5C11.1717 8.5 10.5001 7.82831 10.5 7C10.5 6.17157 11.1716 5.5 12 5.5Z" fill="#191919"/>
<path fill-rule="evenodd" clip-rule="evenodd" d="M12 1C18.0751 1 23 5.92487 23 12C22.9999 18.0751 18.0751 23 12 23C5.92491 23 1.00007 18.0751 1 12C1 5.92487 5.92487 1 12 1ZM12 3C7.02944 3 3 7.02944 3 12C3.00007 16.9705 7.02948 21 12 21C16.9705 21 20.9999 16.9705 21 12C21 7.02944 16.9706 3 12 3Z" fill="#191919"/>
</svg>
