<svg width="24" height="24" viewBox="0 0 24 24" fill="none" xmlns="http://www.w3.org/2000/svg">
<path d="M12 1C11.4477 1 11 1.44772 11 2V3C11 3.55228 11.4477 4 12 4C12.5523 4 13 3.55228 13 3V2C13 1.44772 12.5523 1 12 1Z" fill="#191919"/>
<path d="M19.7782 4.22182C19.3877 3.8313 18.7545 3.8313 18.364 4.22182L17.6569 4.92893C17.2663 5.31945 17.2663 5.95262 17.6569 6.34314C18.0474 6.73367 18.6806 6.73367 19.0711 6.34314L19.7782 5.63604C20.1687 5.24551 20.1687 4.61235 19.7782 4.22182Z" fill="#191919"/>
<path d="M21 10.9999C21.5523 10.9999 22 11.4477 22 11.9999C22 12.5522 21.5523 12.9999 21 12.9999H20C19.4477 12.9999 19 12.5522 19 11.9999C19 11.4477 19.4477 10.9999 20 10.9999H21Z" fill="#191919"/>
<path d="M5 11.9999C5 11.4477 4.55228 10.9999 4 10.9999H3C2.44772 10.9999 2 11.4477 2 11.9999C2 12.5522 2.44772 12.9999 3 12.9999H4C4.55228 12.9999 5 12.5522 5 11.9999Z" fill="#191919"/>
<path d="M6.34316 4.92888C6.73368 5.3194 6.73368 5.95257 6.34316 6.34309C5.95263 6.73362 5.31947 6.73362 4.92894 6.34309L4.22184 5.63599C3.83131 5.24546 3.83131 4.6123 4.22184 4.22177C4.61236 3.83125 5.24552 3.83125 5.63605 4.22177L6.34316 4.92888Z" fill="#191919"/>
<path d="M12 5C8.68629 5 6 7.68629 6 11C6 12.3154 6.42443 13.5345 7.14359 14.5241C7.67889 15.2607 8 15.8937 8 16.499V20C8 21.6569 9.34315 23 11 23H13C14.6569 23 16 21.6569 16 20V16.499C16 15.8937 16.3211 15.2607 16.8564 14.5241C17.5756 13.5345 18 12.3154 18 11C18 7.68629 15.3137 5 12 5ZM8 11C8 8.79086 9.79086 7 12 7C14.2091 7 16 8.79086 16 11C16 11.879 15.7177 12.689 15.2385 13.3484C14.6645 14.1383 14 15.2173 14 16.499V17H10V16.499C10 15.2173 9.33554 14.1383 8.7615 13.3484C8.28234 12.689 8 11.879 8 11ZM10 20V19H14V20C14 20.5523 13.5523 21 13 21H11C10.4477 21 10 20.5523 10 20Z" fill="#191919"/>
</svg>
