<svg width="24" height="24" viewBox="0 0 24 24" fill="none" xmlns="http://www.w3.org/2000/svg">
<path d="M6 10.5C5.17157 10.5 4.5 11.1716 4.5 12C4.5 12.8284 5.17157 13.5 6 13.5C6.82843 13.5 7.5 12.8284 7.5 12C7.5 11.1716 6.82843 10.5 6 10.5Z" fill="#191919"/>
<path d="M7 6C3.68629 6 1 8.68629 1 12C1 15.3137 3.68629 18 7 18C8.93777 18 10.661 17.0804 11.7564 15.6578L13 14.4142L14.2929 15.7071C14.6834 16.0976 15.3166 16.0976 15.7071 15.7071L17 14.4142L18.2929 15.7071C18.6834 16.0976 19.3166 16.0976 19.7071 15.7071L22.7071 12.7071C23.0976 12.3166 23.0976 11.6834 22.7071 11.2929L20.7071 9.29289C20.5196 9.10536 20.2652 9 20 9H12.1971C11.1604 7.20794 9.22219 6 7 6ZM3 12C3 9.79086 4.79086 8 7 8C8.6387 8 10.0494 8.98556 10.6676 10.4004C10.8267 10.7646 11.1865 11 11.584 11H19.5858L20.5858 12L19 13.5858L17.7071 12.2929C17.3166 11.9024 16.6834 11.9024 16.2929 12.2929L15 13.5858L13.7071 12.2929C13.5196 12.1054 13.2652 12 13 12C12.7348 12 12.4804 12.1054 12.2929 12.2929L10.2944 14.2914C10.261 14.3248 10.23 14.3605 10.2017 14.3982C9.47028 15.3727 8.30853 16 7 16C4.79086 16 3 14.2091 3 12Z" fill="#191919"/>
</svg>
