<svg width="24" height="24" viewBox="0 0 24 24" fill="none" xmlns="http://www.w3.org/2000/svg">
<path fill-rule="evenodd" clip-rule="evenodd" d="M8.00024 2C8.55253 2 9.00024 2.44772 9.00024 3V4H14.0002C14.5525 4 15.0002 4.44772 15.0002 5C15.0002 5.55228 14.5525 6 14.0002 6H12.7715C12.2796 7.56658 11.1764 9.66408 9.38846 11.7112C10.0837 12.3635 10.866 12.9969 11.7401 13.5858C12.1982 13.8944 12.3193 14.5158 12.0107 14.9739C11.7022 15.4319 11.0807 15.5531 10.6227 15.2445C9.6476 14.5876 8.7752 13.8802 8.00024 13.1512C6.51131 14.5518 4.66303 15.8724 2.4193 16.908C1.91785 17.1394 1.32372 16.9205 1.09228 16.4191C0.860842 15.9176 1.07973 15.3235 1.58118 15.092C3.6057 14.1576 5.27109 12.9693 6.61202 11.7112C4.82406 9.66408 3.7209 7.56658 3.22894 6H2.00024C1.44796 6 1.00024 5.55228 1.00024 5C1.00024 4.44772 1.44796 4 2.00024 4H7.00024V3C7.00024 2.44772 7.44796 2 8.00024 2ZM5.35027 6C5.81434 7.17478 6.67106 8.70674 8.00024 10.2591C9.32942 8.70674 10.1861 7.17478 10.6502 6H5.35027ZM17.5002 7C17.9039 7 18.268 7.24274 18.4233 7.61538L23.4233 19.6154C23.6357 20.1252 23.3947 20.7107 22.8849 20.9231C22.3751 21.1355 21.7896 20.8944 21.5772 20.3846L20.3752 17.5H14.6252L13.4233 20.3846C13.2109 20.8944 12.6254 21.1355 12.1156 20.9231C11.6058 20.7107 11.3647 20.1252 11.5772 19.6154L16.5772 7.61538C16.7324 7.24274 17.0965 7 17.5002 7ZM15.4586 15.5H19.5419L17.5002 10.6L15.4586 15.5Z" fill="#191919"/>
</svg>
