<svg width="24" height="24" viewBox="0 0 24 24" fill="none" xmlns="http://www.w3.org/2000/svg">
<path fill-rule="evenodd" clip-rule="evenodd" d="M11.3819 3.00557C11.6341 3.49125 11.6361 4.13996 11.2536 4.66176C10.4652 5.73726 10 7.06283 10 8.5C10 12.0899 12.9101 15 16.5 15C17.3602 15 18.1791 14.8334 18.9278 14.5317C19.5277 14.29 20.156 14.4515 20.5647 14.8158C20.996 15.2001 21.2472 15.8889 20.8973 16.569C19.2392 19.792 15.8783 22 12 22C6.47715 22 2 17.5228 2 12C2 7.24391 5.31931 3.26547 9.76676 2.25053C10.5114 2.0806 11.1159 2.49357 11.3819 3.00557ZM8.94356 4.60429C6.04145 5.80495 4 8.66499 4 12C4 16.4183 7.58172 20 12 20C14.6235 20 16.9534 18.7373 18.413 16.7836C17.7976 16.9253 17.1571 17 16.5 17C11.8056 17 8 13.1944 8 8.5C8 7.09691 8.34062 5.77174 8.94356 4.60429Z" fill="#191919"/>
<path fill-rule="evenodd" clip-rule="evenodd" d="M17.5 2C17.9851 2 18.4002 2.34816 18.4847 2.82585L18.6465 3.74073C18.8783 5.05135 19.8334 6.11708 21.1109 6.49056L21.2806 6.54018C21.707 6.66483 22 7.05579 22 7.5C22 7.94421 21.707 8.33517 21.2806 8.45982L21.1109 8.50944C19.8334 8.88292 18.8783 9.94865 18.6465 11.2593L18.4847 12.1742C18.4002 12.6518 17.9851 13 17.5 13C17.0149 13 16.5998 12.6518 16.5153 12.1742L16.3535 11.2593C16.1217 9.94865 15.1666 8.88292 13.8891 8.50944L13.7194 8.45982C13.293 8.33517 13 7.94421 13 7.5C13 7.05579 13.293 6.66483 13.7194 6.54018L13.8891 6.49056C15.1666 6.11708 16.1217 5.05135 16.3535 3.74073L16.5153 2.82585C16.5998 2.34816 17.0149 2 17.5 2ZM17.5 6.15689C17.1612 6.67098 16.738 7.12534 16.2483 7.5C16.738 7.87466 17.1612 8.32902 17.5 8.84311C17.8388 8.32902 18.262 7.87466 18.7517 7.5C18.262 7.12534 17.8388 6.67098 17.5 6.15689Z" fill="#191919"/>
</svg>
