<svg width="24" height="24" viewBox="0 0 24 24" fill="none" xmlns="http://www.w3.org/2000/svg">
<path d="M4 5C4 4.44772 3.55228 4 3 4C2.44772 4 2 4.44772 2 5V16C2 18.2091 3.79086 20 6 20H21C21.5523 20 22 19.5523 22 19C22 18.4477 21.5523 18 21 18H6C5.29786 18 4.68023 17.6382 4.32339 17.0908L9.29289 12.1213C9.68342 11.7308 10.3166 11.7308 10.7071 12.1213L10.8787 12.2929C12.0503 13.4645 13.9497 13.4645 15.1213 12.2929L19 8.41421V11C19 11.5523 19.4477 12 20 12C20.5523 12 21 11.5523 21 11V6C21 5.44772 20.5523 5 20 5H15C14.4477 5 14 5.44772 14 6C14 6.55228 14.4477 7 15 7H17.5858L13.7071 10.8787C13.3166 11.2692 12.6834 11.2692 12.2929 10.8787L12.1213 10.7071C10.9497 9.53554 9.05025 9.53553 7.87868 10.7071L4 14.5858V5Z" fill="#191919"/>
</svg>
