<svg width="24" height="24" viewBox="0 0 24 24" fill="none" xmlns="http://www.w3.org/2000/svg">
<path d="M17.7937 14.7079C17.4028 14.3177 17.4022 13.6845 17.7923 13.2936L18.5423 12.5422C20.4963 10.5882 20.497 7.41112 18.5431 5.45715C16.5891 3.50318 13.4127 3.50318 11.4587 5.45715L10.7066 6.20783C10.3157 6.59798 9.68252 6.59737 9.29237 6.20647C8.90222 5.81557 8.90283 5.18241 9.29373 4.79226L10.0445 4.04294C12.7795 1.3081 17.2223 1.30798 19.9573 4.04294C22.6922 6.77785 22.6922 11.2203 19.9576 13.9554L19.2079 14.7065C18.8178 15.0974 18.1846 15.098 17.7937 14.7079Z" fill="#191919"/>
<path d="M6.20653 9.29218C6.59743 9.68233 6.59804 10.3155 6.20789 10.7064L5.45789 11.4579C3.50391 13.4119 3.5032 16.5889 5.45717 18.5429C7.41114 20.4969 10.5875 20.4969 12.5415 18.5429L13.2936 17.7922C13.6845 17.4021 14.3177 17.4027 14.7079 17.7936C15.098 18.1845 15.0974 18.8176 14.7065 19.2078L13.9557 19.9571C11.2207 22.6919 6.77791 22.6921 4.04295 19.9571C1.30804 17.2222 1.30798 12.7798 4.04262 10.0447L4.79231 9.29354C5.18246 8.90264 5.81563 8.90203 6.20653 9.29218Z" fill="#191919"/>
<path d="M14.7072 10.7071C15.0977 10.3166 15.0977 9.6834 14.7072 9.29287C14.3167 8.90235 13.6835 8.90235 13.293 9.29287L9.29302 13.2929C8.9025 13.6834 8.9025 14.3166 9.29302 14.7071C9.68355 15.0976 10.3167 15.0976 10.7072 14.7071L14.7072 10.7071Z" fill="#191919"/>
</svg>
