<svg width="24" height="24" viewBox="0 0 24 24" fill="none" xmlns="http://www.w3.org/2000/svg">
<path d="M5.75722 1.02985C6.29301 0.8959 6.83595 1.22166 6.96989 1.75745L7.46989 3.75745C7.60384 4.29325 7.27808 4.83618 6.74229 4.97013C6.20649 5.10408 5.66356 4.77832 5.52961 4.24253L5.02961 2.24253C4.89566 1.70673 5.22142 1.1638 5.75722 1.02985ZM1.02961 5.75745C1.16356 5.22166 1.70649 4.8959 2.24229 5.02985L4.24229 5.52985C4.77808 5.6638 5.10384 6.20673 4.96989 6.74253C4.83595 7.27832 4.29301 7.60408 3.75722 7.47013L1.75722 6.97013C1.22142 6.83618 0.895657 6.29325 1.02961 5.75745ZM19.0297 17.2575C19.1636 16.7217 19.7065 16.3959 20.2423 16.5299L22.2423 17.0299C22.7781 17.1638 23.1039 17.7067 22.9699 18.2425C22.836 18.7783 22.2931 19.1041 21.7573 18.9701L19.7573 18.4701C19.2215 18.3362 18.8957 17.7933 19.0297 17.2575ZM17.2573 19.0299C17.7931 18.8959 18.336 19.2217 18.4699 19.7575L18.9699 21.7575C19.1039 22.2933 18.7781 22.8362 18.2423 22.9701C17.7065 23.1041 17.1636 22.7783 17.0297 22.2425L16.5297 20.2425C16.3957 19.7067 16.7215 19.1638 17.2573 19.0299Z" fill="#191919"/>
<path d="M17.7934 14.7079C17.4025 14.3177 17.4019 13.6845 17.792 13.2936L18.542 12.5422C20.496 10.5882 20.4967 7.41113 18.5428 5.45716C16.5888 3.50319 13.4123 3.50319 11.4584 5.45716L10.7062 6.20784C10.3153 6.59799 9.68214 6.59738 9.29199 6.20648C8.90185 5.81558 8.90245 5.18242 9.29336 4.79227L10.0442 4.04295C12.7792 1.30811 17.222 1.30799 19.957 4.04295C22.6919 6.77786 22.6919 11.2203 19.9573 13.9554L19.2076 14.7065C18.8175 15.0974 18.1843 15.098 17.7934 14.7079Z" fill="#191919"/>
<path d="M6.20615 9.2922C6.59705 9.68235 6.59766 10.3155 6.20751 10.7064L5.45751 11.4579C3.50353 13.4119 3.50282 16.5889 5.45679 18.5429C7.41076 20.4969 10.5872 20.4969 12.5412 18.5429L13.2933 17.7922C13.6842 17.4021 14.3174 17.4027 14.7076 17.7936C15.0977 18.1845 15.0971 18.8176 14.7062 19.2078L13.9554 19.9571C11.2204 22.6919 6.77754 22.6921 4.04258 19.9571C1.30767 17.2222 1.3076 12.7798 4.04225 10.0447L4.79194 9.29357C5.18208 8.90266 5.81525 8.90205 6.20615 9.2922Z" fill="#191919"/>
<path d="M14.7069 10.7071C15.0974 10.3166 15.0974 9.68341 14.7069 9.29288C14.3164 8.90236 13.6832 8.90236 13.2927 9.29288L9.29265 13.2929C8.90212 13.6834 8.90212 14.3166 9.29265 14.7071C9.68317 15.0976 10.3164 15.0976 10.7069 14.7071L14.7069 10.7071Z" fill="#191919"/>
</svg>
