<svg width="24" height="24" viewBox="0 0 24 24" fill="none" xmlns="http://www.w3.org/2000/svg">
<path d="M11.5328 22.3842L12.4623 22.3867C12.1711 22.5385 11.8233 22.5374 11.5328 22.3842Z" fill="#191919"/>
<path d="M12 7C9.79086 7 8 8.79086 8 11C8 13.2091 9.79086 15 12 15C14.2091 15 16 13.2091 16 11C16 8.79086 14.2091 7 12 7ZM10 11C10 9.89543 10.8954 9 12 9C13.1046 9 14 9.89543 14 11C14 12.1046 13.1046 13 12 13C10.8954 13 10 12.1046 10 11Z" fill="#191919"/>
<path d="M11.5328 22.3842L12.4638 22.386L12.4659 22.3848L12.4725 22.3814L12.4941 22.3699C12.5122 22.3602 12.5378 22.3464 12.5702 22.3287C12.6352 22.2931 12.7278 22.2415 12.8441 22.1742C13.0767 22.0398 13.4049 21.8427 13.7969 21.5866C14.579 21.0757 15.6253 20.3237 16.6758 19.3604C18.7427 17.4652 21 14.5903 21 11C21 5.86437 16.958 2 12 2C7.04198 2 3 5.86437 3 11C3 14.567 5.25879 17.442 7.32295 19.341C8.37288 20.307 9.41854 21.0633 10.2001 21.5778C10.5919 21.8357 10.9199 22.0345 11.1522 22.1701C11.2685 22.2379 11.361 22.2901 11.4258 22.3259C11.4582 22.3439 11.4837 22.3578 11.5018 22.3676L11.5234 22.3791L11.5299 22.3826L11.5328 22.3842ZM5 11C5 6.99387 8.12146 4 12 4C15.8785 4 19 6.99387 19 11C19 13.7386 17.2573 16.1137 15.3242 17.8863C14.3747 18.7569 13.421 19.4432 12.7031 19.9122C12.4291 20.0911 12.191 20.2375 12.0025 20.3494C11.8135 20.2362 11.5747 20.0882 11.2999 19.9073C10.5815 19.4344 9.62712 18.7432 8.67705 17.8692C6.74121 16.0882 5 13.7133 5 11Z" fill="#191919"/>
</svg>
