<svg width="24" height="24" viewBox="0 0 24 24" fill="none" xmlns="http://www.w3.org/2000/svg">
<path d="M12 16C14.2091 16 16 14.2091 16 12C16 9.79086 14.2091 8 12 8C9.79086 8 8 9.79086 8 12C8 14.2091 9.79086 16 12 16Z" fill="#191919"/>
<path fill-rule="evenodd" clip-rule="evenodd" d="M13 2C13 1.44772 12.5523 1 12 1C11.4477 1 11 1.44772 11 2V4.06189C7.38128 4.51314 4.51314 7.38128 4.06189 11H2C1.44772 11 1 11.4477 1 12C1 12.5523 1.44772 13 2 13H4.06189C4.51314 16.6187 7.38128 19.4869 11 19.9381V22C11 22.5523 11.4477 23 12 23C12.5523 23 13 22.5523 13 22V19.9381C16.6187 19.4869 19.4869 16.6187 19.9381 13H22C22.5523 13 23 12.5523 23 12C23 11.4477 22.5523 11 22 11H19.9381C19.4869 7.38128 16.6187 4.51314 13 4.06189V2ZM18 12C18 15.3137 15.3137 18 12 18C8.68629 18 6 15.3137 6 12C6 8.68629 8.68629 6 12 6C15.3137 6 18 8.68629 18 12Z" fill="#191919"/>
</svg>
