<svg width="24" height="24" viewBox="0 0 24 24" fill="none" xmlns="http://www.w3.org/2000/svg">
<path d="M11 22V20.9424C6.82858 20.4811 3.51786 17.1714 3.05664 13H2C1.44772 13 1 12.5523 1 12C1 11.4477 1.44772 11 2 11H3.05664C3.51786 6.82853 6.82853 3.51786 11 3.05664V2C11 1.44772 11.4477 1 12 1C12.5523 1 13 1.44772 13 2V3.05664C17.1715 3.51786 20.4821 6.82853 20.9434 11H22C22.5523 11 23 11.4477 23 12C23 12.5523 22.5523 13 22 13H20.9434C20.4821 17.1714 17.1714 20.4811 13 20.9424V22C13 22.5523 12.5523 23 12 23C11.4477 23 11 22.5523 11 22ZM12 5C8.13401 5 5 8.13401 5 12C5 15.866 8.13401 19 12 19C15.866 19 19 15.866 19 12C19 8.13401 15.866 5 12 5ZM14 12C14 10.8954 13.1046 10 12 10C10.8954 10 10 10.8954 10 12C10 13.1046 10.8954 14 12 14C13.1046 14 14 13.1046 14 12ZM16 12C16 14.2091 14.2091 16 12 16C9.79086 16 8 14.2091 8 12C8 9.79086 9.79086 8 12 8C14.2091 8 16 9.79086 16 12Z" fill="#191919"/>
</svg>
