<svg width="24" height="24" viewBox="0 0 24 24" fill="none" xmlns="http://www.w3.org/2000/svg">
<path d="M20.6873 3.2758C20.968 3.54311 21.069 3.94857 20.9464 4.31631L14.9451 22.3163C14.8172 22.7 14.4707 22.9689 14.0672 22.9975C13.6637 23.0261 13.2827 22.8088 13.1019 22.4469L9.28091 14.7982L1.64862 10.9304C1.26046 10.7847 1.00246 10.4146 1.00002 10C0.997577 9.58547 1.25121 9.21238 1.63763 9.06214L19.6354 3.06799C19.9966 2.92752 20.4066 3.0085 20.6873 3.2758ZM18.3756 5.70361L4.50002 10L10.3514 13.0638C10.5877 13.1525 10.7818 13.3273 10.8946 13.5531L13.8117 19.3925L18.3756 5.70361Z" fill="#191919"/>
</svg>
