<svg width="24" height="24" viewBox="0 0 24 24" fill="none" xmlns="http://www.w3.org/2000/svg">
<path d="M15.2498 8.625C16.0092 8.625 16.6248 8.00939 16.6248 7.25C16.6248 6.49061 16.0092 5.875 15.2498 5.875C14.4904 5.875 13.8748 6.49061 13.8748 7.25C13.8748 8.00939 14.4904 8.625 15.2498 8.625Z" fill="#191919"/>
<path fill-rule="evenodd" clip-rule="evenodd" d="M13.7552 14.0787L13.7493 14.0721L13.7394 14.0608L13.7081 14.025C13.6824 13.9953 13.6469 13.954 13.6032 13.9022C13.5158 13.7986 13.3946 13.6519 13.2509 13.4701C12.9652 13.1084 12.582 12.5966 12.1952 11.998C11.4932 10.9117 10.5 9.12579 10.5 7.33203C10.5 4.7192 12.5716 2.5 15.25 2.5C17.9284 2.5 20 4.7192 20 7.33203C20 9.12579 19.0068 10.9117 18.3048 11.998C17.918 12.5966 17.5348 13.1084 17.2491 13.4701C17.1054 13.6519 16.9842 13.7986 16.8968 13.9022C16.8531 13.954 16.8176 13.9953 16.7919 14.025L16.7606 14.0608L16.7507 14.0721L16.7473 14.076L16.7448 14.0787C16.3653 14.5057 15.8213 14.75 15.25 14.75C14.6787 14.75 14.1347 14.5057 13.7552 14.0787ZM15.25 12.75C15.25 12.75 15.8507 12.0742 16.4907 11.1169C17.2199 10.0261 18 8.56993 18 7.33203C18 5.76794 16.7688 4.5 15.25 4.5C13.7312 4.5 12.5 5.76794 12.5 7.33203C12.5 8.56993 13.2801 10.0261 14.0093 11.1169C14.6493 12.0742 15.25 12.75 15.25 12.75Z" fill="#191919"/>
<path d="M8.5 13.25C7.25736 13.25 6.25 14.2574 6.25 15.5C6.25 16.7426 7.25736 17.75 8.5 17.75H15.5C15.9142 17.75 16.25 18.0858 16.25 18.5C16.25 18.9142 15.9142 19.25 15.5 19.25H13C12.5858 19.25 12.25 19.5858 12.25 20C12.25 20.4142 12.5858 20.75 13 20.75H15.5C16.7426 20.75 17.75 19.7426 17.75 18.5C17.75 17.2574 16.7426 16.25 15.5 16.25H8.5C8.08579 16.25 7.75 15.9142 7.75 15.5C7.75 15.0858 8.08579 14.75 8.5 14.75H11C11.4142 14.75 11.75 14.4142 11.75 14C11.75 13.5858 11.4142 13.25 11 13.25H8.5Z" fill="#191919"/>
<path d="M4 19.25C3.58579 19.25 3.25 19.5858 3.25 20C3.25 20.4142 3.58579 20.75 4 20.75H6C6.41421 20.75 6.75 20.4142 6.75 20C6.75 19.5858 6.41421 19.25 6 19.25H4Z" fill="#191919"/>
<path d="M7.75 20C7.75 19.5858 8.08579 19.25 8.5 19.25H10.5C10.9142 19.25 11.25 19.5858 11.25 20C11.25 20.4142 10.9142 20.75 10.5 20.75H8.5C8.08579 20.75 7.75 20.4142 7.75 20Z" fill="#191919"/>
</svg>
