<svg width="24" height="24" viewBox="0 0 24 24" fill="none" xmlns="http://www.w3.org/2000/svg">
<path d="M2 20V4C2 2.89543 2.89543 2 4 2H12C12.5523 2 13 2.44772 13 3C13 3.55228 12.5523 4 12 4H4V20H12C12.5523 20 13 20.4477 13 21C13 21.5523 12.5523 22 12 22H4C2.89543 22 2 21.1046 2 20ZM16.293 6.29297C16.6835 5.90244 17.3165 5.90244 17.707 6.29297L22 10.5859C22.781 11.367 22.7809 12.633 22 13.4141L17.707 17.707C17.3165 18.0976 16.6835 18.0976 16.293 17.707C15.9024 17.3165 15.9024 16.6835 16.293 16.293L19.5859 13H8C7.44772 13 7 12.5523 7 12C7 11.4477 7.44772 11 8 11H19.5859L16.293 7.70703C15.9024 7.31651 15.9024 6.68349 16.293 6.29297Z" fill="#191919"/>
</svg>
