<svg width="24" height="24" viewBox="0 0 24 24" fill="none" xmlns="http://www.w3.org/2000/svg">
<path d="M21.7071 12.7071C22.0976 12.3166 22.0976 11.6834 21.7071 11.2929L18.2071 7.79289C17.8166 7.40237 17.1834 7.40237 16.7929 7.79289C16.4024 8.18342 16.4024 8.81658 16.7929 9.20711L18.5858 11H9.5C8.94771 11 8.5 11.4477 8.5 12C8.5 12.5523 8.94771 13 9.5 13H18.5858L16.7929 14.7929C16.4024 15.1834 16.4024 15.8166 16.7929 16.2071C17.1834 16.5976 17.8166 16.5976 18.2071 16.2071L21.7071 12.7071Z" fill="#191919"/>
<path d="M7.79999 21H10.2C11.8802 21 12.7203 21 13.362 20.673C13.9265 20.3854 14.3854 19.9265 14.673 19.362C15 18.7202 15 17.8802 15 16.2V14.5H9.5C8.11929 14.5 7 13.3807 7 12C7 10.6193 8.11929 9.5 9.5 9.5L15 9.5V7.8C15 6.11985 15 5.27977 14.673 4.63803C14.3854 4.07355 13.9265 3.6146 13.362 3.32698C12.7203 3 11.8802 3 10.2 3L7.79999 3C6.11983 3 5.27974 3 4.638 3.32698C4.07352 3.6146 3.61459 4.07354 3.32697 4.63803C2.99999 5.27977 3 6.11985 3 7.8L3 16.2C3 17.8802 2.99998 18.7202 3.32697 19.362C3.61459 19.9265 4.07351 20.3854 4.638 20.673C5.27974 21 6.11983 21 7.79999 21Z" fill="#191919"/>
</svg>
