<svg width="24" height="24" viewBox="0 0 24 24" fill="none" xmlns="http://www.w3.org/2000/svg">
<path d="M10 5.38744V17C10 17.0925 9.98743 17.1821 9.96391 17.2672L14.0001 18.6126V7.00003C14.0001 6.90749 14.0126 6.81788 14.0362 6.73282L10 5.38744ZM15.964 6.73282C15.9875 6.81788 16.0001 6.90749 16.0001 7.00003V18.6126L19.3163 17.5072C19.7246 17.3711 20.0001 16.9889 20.0001 16.5585V6.77488C20.0001 6.09232 19.3314 5.61036 18.6838 5.8262L15.964 6.73282ZM8.0361 17.2672C8.01257 17.1822 8 17.0926 8 17V5.38747L4.68377 6.49287C4.27543 6.62898 4 7.01112 4 7.44155V17.2252C4 17.9077 4.66869 18.3897 5.31623 18.1738L8.0361 17.2672ZM8.05137 3.26216C8.66717 3.0569 9.33294 3.0569 9.94873 3.26216L14.6838 4.84053C14.8891 4.90895 15.111 4.90895 15.3163 4.84053L18.0514 3.92883C19.994 3.2813 22.0001 4.72721 22.0001 6.77488V16.5585C22.0001 17.8498 21.1738 18.9962 19.9487 19.4045L15.9487 20.7379C15.3329 20.9431 14.6672 20.9431 14.0514 20.7379L9.31628 19.1595C9.11101 19.0911 8.88909 19.0911 8.68383 19.1595L5.94868 20.0712C4.00609 20.7187 2 19.2728 2 17.2252V7.44155C2 6.15026 2.82629 5.00384 4.05132 4.5955L8.05137 3.26216Z" fill="#191919"/>
</svg>
