<svg width="24" height="24" viewBox="0 0 24 24" fill="none" xmlns="http://www.w3.org/2000/svg">
<path fill-rule="evenodd" clip-rule="evenodd" d="M8.30878 2.01344C8.47767 1.99964 8.66077 1.99984 8.77236 1.99996H19.2277C19.3393 1.99984 19.5224 1.99964 19.6913 2.01344C19.8984 2.03036 20.2526 2.07762 20.635 2.27247C21.1054 2.51215 21.4879 2.8946 21.7276 3.36501C21.9224 3.74742 21.9697 4.10166 21.9866 4.30872C22.0004 4.4776 22.0002 4.66071 22.0001 4.7723V15.2277C22.0002 15.3393 22.0004 15.5224 21.9866 15.6912C21.9697 15.8983 21.9224 16.2525 21.7276 16.635C21.4879 17.1054 21.1054 17.4878 20.635 17.7275C20.2526 17.9224 19.8984 17.9696 19.6913 17.9865C19.5225 18.0003 19.3393 18.0001 19.2277 18H8.77232C8.66072 18.0001 8.47764 18.0003 8.30878 17.9865C8.10173 17.9696 7.74749 17.9224 7.36507 17.7275C6.89467 17.4878 6.51221 17.1054 6.27253 16.635C6.07768 16.2525 6.03042 15.8983 6.0135 15.6912C5.9997 15.5224 5.9999 15.3393 6.00003 15.2277V4.7723C5.9999 4.66071 5.9997 4.4776 6.0135 4.30872C6.03042 4.10166 6.07768 3.74742 6.27253 3.36501C6.51221 2.8946 6.89467 2.51215 7.36507 2.27247C7.74749 2.07762 8.10173 2.03036 8.30878 2.01344ZM9 9.99998C9 9.4477 9.44772 8.99998 10 8.99998H17C17.5523 8.99998 18 9.4477 18 9.99998C18 10.5523 17.5523 11 17 11H10C9.44772 11 9 10.5523 9 9.99998ZM10 4.99998C9.44772 4.99998 9 5.4477 9 5.99998C9 6.55227 9.44772 6.99998 10 6.99998H14C14.5523 6.99998 15 6.55227 15 5.99998C15 5.4477 14.5523 4.99998 14 4.99998H10ZM9 14C9 13.4477 9.44772 13 10 13H12C12.5523 13 13 13.4477 13 14C13 14.5523 12.5523 15 12 15H10C9.44772 15 9 14.5523 9 14Z" fill="#191919"/>
<path d="M4 6.99998C4 6.4477 3.55229 5.99998 3 5.99998C2.44772 5.99998 2 6.4477 2 6.99998L2 17.8385C1.99998 18.3657 1.99997 18.8204 2.03057 19.195C2.06287 19.5904 2.13419 19.9836 2.32698 20.362C2.6146 20.9264 3.07354 21.3854 3.63803 21.673C4.01641 21.8658 4.40963 21.9371 4.80497 21.9694C5.17955 22 5.63432 22 6.16148 22H17C17.5523 22 18 21.5523 18 21C18 20.4477 17.5523 20 17 20H6.2C5.62345 20 5.25118 19.9992 4.96784 19.9761C4.69618 19.9539 4.59546 19.9162 4.54601 19.891C4.35785 19.7951 4.20487 19.6421 4.109 19.454C4.0838 19.4045 4.04613 19.3038 4.02393 19.0322C4.00078 18.7488 4 18.3765 4 17.8V6.99998Z" fill="#191919"/>
</svg>
