<svg width="24" height="24" viewBox="0 0 24 24" fill="none" xmlns="http://www.w3.org/2000/svg">
<path d="M3 21V3C3 1.89543 3.89543 1 5 1H13.7578C13.811 1.00001 13.864 1.00277 13.917 1.00488C13.9444 1.00263 13.972 1 14 1C14.0833 1 14.1638 1.01204 14.2412 1.03125C15.1237 1.13882 15.9508 1.53674 16.5859 2.17188L19.8281 5.41406C20.463 6.04897 20.861 6.87569 20.9688 7.75781C20.9881 7.83548 21 7.91634 21 8C21 8.02766 20.9973 8.05494 20.9951 8.08203C20.9973 8.13531 21 8.18866 21 8.24219V21C21 22.1046 20.1046 23 19 23H5C3.89543 23 3 22.1046 3 21ZM16 16C16.5523 16 17 16.4477 17 17C17 17.5523 16.5523 18 16 18H8C7.44772 18 7 17.5523 7 17C7 16.4477 7.44772 16 8 16H16ZM16 12C16.5523 12 17 12.4477 17 13C17 13.5523 16.5523 14 16 14H8C7.44772 14 7 13.5523 7 13C7 12.4477 7.44772 12 8 12H16ZM18.5654 7C18.5182 6.94052 18.4683 6.88236 18.4141 6.82812L15.1719 3.58594C15.1176 3.5317 15.0595 3.48179 15 3.43457V7H18.5654ZM5 21H19V9H15C13.8954 9 13 8.10457 13 7V3H5V21Z" fill="#191919"/>
</svg>
