<svg width="24" height="24" viewBox="0 0 24 24" fill="none" xmlns="http://www.w3.org/2000/svg">
<path d="M21 17C21.5522 17 21.9999 17.4478 22 18C22 18.5523 21.5523 19 21 19H3C2.44772 19 2 18.5523 2 18C2.00007 17.4478 2.44776 17 3 17H21ZM21 11C21.5522 11 21.9999 11.4478 22 12C22 12.5523 21.5523 13 21 13H3C2.44772 13 2 12.5523 2 12C2.00007 11.4478 2.44776 11 3 11H21ZM21 5C21.5523 5 22 5.44772 22 6C22 6.55228 21.5523 7 21 7H3C2.44772 7 2 6.55228 2 6C2 5.44772 2.44772 5 3 5H21Z" fill="#191919"/>
</svg>
