<svg width="24" height="24" viewBox="0 0 24 24" fill="none" xmlns="http://www.w3.org/2000/svg">
<path d="M6.51723 3C4.88489 3 3.42878 4.02616 2.87977 5.5634L2.41512 6.86447C1.94563 8.17905 2.23465 9.52952 3 10.5155V17C3 19.2091 4.79086 21 7 21H17C19.2091 21 21 19.2091 21 17V10.5155C21.7654 9.52952 22.0544 8.17905 21.5849 6.86447L21.1202 5.5634C20.5712 4.02616 19.1151 3 17.4828 3H6.51723ZM8.34697 5L8.005 7.39376C8.00472 7.39576 8.00443 7.39776 8.00415 7.39977L7.85874 8.41763C7.72903 9.32559 6.95143 10 6.03425 10C4.75975 10 3.86995 8.73738 4.29861 7.53713L4.76326 6.23606C5.02799 5.49481 5.73012 5 6.51723 5H8.34697ZM8.97313 10.6335C9.70788 11.4669 10.7842 12 12 12C13.2158 12 14.2921 11.4669 15.0268 10.6335C15.7363 11.4745 16.7966 12 17.9657 12C18.3269 12 18.6733 11.9514 19 11.861V17C19 18.1046 18.1046 19 17 19H7C5.89543 19 5 18.1046 5 17V11.861C5.32667 11.9514 5.67305 12 6.03425 12C7.20334 12 8.26367 11.4745 8.97313 10.6335ZM10.3673 5H13.6327L14.0151 7.6766C14.1902 8.90287 13.2387 10 12 10C10.7627 10 9.81191 8.9054 9.9843 7.68084L10.3673 5ZM17.4828 5C18.2699 5 18.972 5.49481 19.2367 6.23606L19.7014 7.53713C20.13 8.73738 19.2402 10 17.9657 10C17.0486 10 16.271 9.32559 16.1413 8.41763L15.653 5H17.4828Z" fill="#191919"/>
</svg>
