<svg width="24" height="24" viewBox="0 0 24 24" fill="none" xmlns="http://www.w3.org/2000/svg">
<path fill-rule="evenodd" clip-rule="evenodd" d="M7.25 11.5C9.59721 11.5 11.5 9.59721 11.5 7.25C11.5 4.90279 9.59721 3 7.25 3C4.90279 3 3 4.90279 3 7.25C3 9.59721 4.90279 11.5 7.25 11.5ZM9.5 7.25C9.5 8.49264 8.49264 9.5 7.25 9.5C6.00736 9.5 5 8.49264 5 7.25C5 6.00736 6.00736 5 7.25 5C8.49264 5 9.5 6.00736 9.5 7.25Z" fill="#191919"/>
<path fill-rule="evenodd" clip-rule="evenodd" d="M8.1149 13C7.93626 12.6906 7.60614 12.5 7.24887 12.5C6.8916 12.5 6.56148 12.6906 6.38284 13L2.63007 19.5C2.45144 19.8094 2.45144 20.1906 2.63007 20.5C2.8087 20.8094 3.13883 21 3.49609 21H11.0016C11.3589 21 11.689 20.8094 11.8677 20.5C12.0463 20.1906 12.0463 19.8094 11.8677 19.5L8.1149 13ZM5.22814 19L7.24887 15.5L9.2696 19H5.22814Z" fill="#191919"/>
<path fill-rule="evenodd" clip-rule="evenodd" d="M13 14C13 13.4477 13.4477 13 14 13H20C20.5523 13 21 13.4477 21 14V20C21 20.5523 20.5523 21 20 21H14C13.4477 21 13 20.5523 13 20V14ZM15 15V19H19V15H15Z" fill="#191919"/>
<path fill-rule="evenodd" clip-rule="evenodd" d="M17.9062 3.57709C17.7419 3.22503 17.3885 3 17 3C16.6115 3 16.2581 3.22503 16.0938 3.57709L15.2135 5.46346L13.3271 6.34383C12.975 6.50814 12.75 6.86149 12.75 7.25C12.75 7.63851 12.975 7.99186 13.3271 8.15617L15.2135 9.03654L16.0938 10.9229C16.2581 11.275 16.6115 11.5 17 11.5C17.3885 11.5 17.7419 11.275 17.9062 10.9229L18.7865 9.03654L20.6729 8.15617C21.025 7.99186 21.25 7.63851 21.25 7.25C21.25 6.86149 21.025 6.50814 20.6729 6.34383L18.7865 5.46346L17.9062 3.57709ZM16.872 6.63877L17 6.36456L17.128 6.63877C17.2273 6.85161 17.3984 7.02269 17.6112 7.12203L17.8854 7.25L17.6112 7.37797C17.3984 7.47731 17.2273 7.64839 17.128 7.86123L17 8.13544L16.872 7.86123C16.7727 7.64839 16.6016 7.47731 16.3888 7.37797L16.1146 7.25L16.3888 7.12203C16.6016 7.02269 16.7727 6.85161 16.872 6.63877Z" fill="#191919"/>
</svg>
