<svg width="24" height="24" viewBox="0 0 24 24" fill="none" xmlns="http://www.w3.org/2000/svg">
<path d="M14.0002 4C14.0002 5.10457 13.1048 6 12.0002 6C10.8957 6 10.0002 5.10457 10.0002 4C10.0002 2.89543 10.8957 2 12.0002 2C13.1048 2 14.0002 2.89543 14.0002 4Z" fill="#191919"/>
<path d="M13.9999 12C13.9999 13.1046 13.1044 14 11.9999 14C10.8953 14 9.99988 13.1046 9.99988 12C9.99988 10.8954 10.8953 10 11.9999 10C13.1044 10 13.9999 10.8954 13.9999 12Z" fill="#191919"/>
<path d="M14.0002 20C14.0002 21.1046 13.1048 22 12.0002 22C10.8957 22 10.0002 21.1046 10.0002 20C10.0002 18.8954 10.8957 18 12.0002 18C13.1048 18 14.0002 18.8954 14.0002 20Z" fill="#191919"/>
</svg>
