<svg width="24" height="24" viewBox="0 0 24 24" fill="none" xmlns="http://www.w3.org/2000/svg">
<path d="M6 12C6 13.1046 5.10457 14 4 14C2.89543 14 2 13.1046 2 12C2 10.8954 2.89543 10 4 10C5.10457 10 6 10.8954 6 12Z" fill="#191919"/>
<path d="M13.9993 12C13.9993 13.1046 13.1039 14 11.9993 14C10.8948 14 9.99935 13.1046 9.99935 12C9.99935 10.8954 10.8948 10 11.9993 10C13.1039 10 13.9993 10.8954 13.9993 12Z" fill="#191919"/>
<path d="M22 12C22 13.1046 21.1046 14 20 14C18.8954 14 18 13.1046 18 12C18 10.8954 18.8954 10 20 10C21.1046 10 22 10.8954 22 12Z" fill="#191919"/>
</svg>
