<svg width="24" height="24" viewBox="0 0 24 24" fill="none" xmlns="http://www.w3.org/2000/svg">
<path d="M8 7C8 6.44772 8.44772 6 9 6H10C10.5523 6 11 6.44772 11 7V8C11 8.55228 10.5523 9 10 9H9C8.44772 9 8 8.55228 8 8V7Z" fill="#191919"/>
<path d="M9 11C8.44772 11 8 11.4477 8 12C8 12.5523 8.44772 13 9 13H15C15.5523 13 16 12.5523 16 12C16 11.4477 15.5523 11 15 11H9Z" fill="#191919"/>
<path d="M4 6C4 3.79086 5.79086 2 8 2H16C18.2091 2 20 3.79086 20 6V18C20 20.2091 18.2091 22 16 22H8C5.79086 22 4 20.2091 4 18V6ZM8 4C6.89543 4 6 4.89543 6 6V18C6 19.1046 6.89543 20 8 20H16C17.1046 20 18 19.1046 18 18V6C18 4.89543 17.1046 4 16 4H8Z" fill="#191919"/>
<path d="M8 16C8 15.4477 8.44772 15 9 15C9.55228 15 10 15.4477 10 16V17C10 17.5523 9.55228 18 9 18C8.44772 18 8 17.5523 8 17V16Z" fill="#191919"/>
<path d="M11 16C11 15.4477 11.4477 15 12 15C12.5523 15 13 15.4477 13 16V17C13 17.5523 12.5523 18 12 18C11.4477 18 11 17.5523 11 17V16Z" fill="#191919"/>
<path d="M14 16C14 15.4477 14.4477 15 15 15C15.5523 15 16 15.4477 16 16V17C16 17.5523 15.5523 18 15 18C14.4477 18 14 17.5523 14 17V16Z" fill="#191919"/>
</svg>
