<svg width="24" height="24" viewBox="0 0 24 24" fill="none" xmlns="http://www.w3.org/2000/svg">
<path d="M12 2C10.0648 2 8.45118 3.37371 8.08018 5.19972C6.22329 6.45692 4.99997 8.58508 4.99997 11V12.5C4.99997 13.1295 4.70358 13.7223 4.19997 14.1L3.79997 14.4C2.26235 15.5532 3.07795 18 4.99997 18H7.10002C7.56329 20.2822 9.58104 22 12 22C14.419 22 16.4367 20.2822 16.9 18H19C20.922 18 21.7376 15.5532 20.2 14.4L19.8 14.1C19.2964 13.7223 19 13.1295 19 12.5V11C19 8.58508 17.7767 6.45692 15.9198 5.19972C15.5488 3.37371 13.9351 2 12 2ZM10.0044 5.86492C10.0733 4.82383 10.9409 4 12 4C13.0591 4 13.9266 4.82383 13.9955 5.86492C14.0176 6.19809 14.2045 6.49828 14.4937 6.66511C15.9939 7.53034 17 9.14828 17 11V12.5C17 13.759 17.5927 14.9446 18.6 15.7L19 16H4.99997L5.39997 15.7C6.4072 14.9446 6.99997 13.759 6.99997 12.5V11C6.99997 9.14828 8.00607 7.53034 9.50623 6.66511C9.79547 6.49828 9.98237 6.19809 10.0044 5.86492ZM14.8293 18C14.4175 19.1652 13.3062 20 12 20C10.6938 20 9.58254 19.1652 9.17071 18H14.8293Z" fill="#191919"/>
</svg>
