<svg width="24" height="24" viewBox="0 0 24 24" fill="none" xmlns="http://www.w3.org/2000/svg">
<path d="M10.0001 11C10.0001 10.4477 9.55234 10 9.00006 10C8.44778 10 8.00006 10.4477 8.00006 11C8.00006 13.2091 9.79092 15 12.0001 15C14.2092 15 16.0001 13.2091 16.0001 11C16.0001 10.4477 15.5524 10 15.0001 10C14.4478 10 14.0001 10.4477 14.0001 11C14.0001 12.1046 13.1047 13 12.0001 13C10.8955 13 10.0001 12.1046 10.0001 11Z" fill="#191919"/>
<path d="M20.0001 6H16.9001C16.4368 3.71776 14.4191 2 12.0001 2C9.5811 2 7.56335 3.71776 7.10008 6H4.00008C3.47999 6 3.04672 6.39866 3.00353 6.91695L2.43316 13.7614C2.36101 14.6271 2.30167 15.3389 2.30225 15.9195C2.30285 16.5203 2.36523 17.0771 2.59686 17.6056C2.95419 18.4209 3.57331 19.0938 4.35619 19.5176C4.86364 19.7923 5.41327 19.9007 6.01202 19.9512C6.59047 20 7.30481 20 8.17343 20H15.8267C16.6953 20 17.4097 20 17.9882 19.9512C18.5869 19.9007 19.1365 19.7923 19.644 19.5176C20.4269 19.0938 21.046 18.4209 21.4033 17.6056C21.635 17.0771 21.6973 16.5203 21.6979 15.9195C21.6985 15.339 21.6392 14.6271 21.567 13.7614L20.9967 6.91695C20.9535 6.39866 20.5202 6 20.0001 6ZM12.0001 4C13.3063 4 14.4176 4.83481 14.8294 6H9.17077C9.5826 4.83481 10.6939 4 12.0001 4ZM4.92021 8H19.08L19.5704 13.8844C19.647 14.8038 19.6984 15.4313 19.6979 15.9175C19.6975 16.3929 19.6449 16.6353 19.5715 16.8028C19.3929 17.2105 19.0833 17.5469 18.6919 17.7588C18.531 17.8459 18.2938 17.9184 17.8201 17.9583C17.3357 17.9992 16.706 18 15.7835 18H8.21671C7.29415 18 6.66452 17.9992 6.18009 17.9583C5.70638 17.9184 5.46917 17.8459 5.30833 17.7588C4.91689 17.5469 4.60733 17.2105 4.42866 16.8028C4.35525 16.6353 4.30272 16.3929 4.30225 15.9175C4.30177 15.4313 4.35322 14.8038 4.42984 13.8844L4.92021 8Z" fill="#191919"/>
</svg>
