<svg width="24" height="24" viewBox="0 0 24 24" fill="none" xmlns="http://www.w3.org/2000/svg">
<path d="M12 9C10.3431 9 9 10.3431 9 12C9 13.6569 10.3431 15 12 15C13.6569 15 15 13.6569 15 12C15 10.3431 13.6569 9 12 9ZM11 12C11 11.4477 11.4477 11 12 11C12.5523 11 13 11.4477 13 12C13 12.5523 12.5523 13 12 13C11.4477 13 11 12.5523 11 12Z" fill="#191919"/>
<path d="M5 5C3.34315 5 2 6.34315 2 8V16C2 17.6569 3.34315 19 5 19H19C20.6569 19 22 17.6569 22 16V8C22 6.34315 20.6569 5 19 5H5ZM4 8C4 7.44772 4.44772 7 5 7V8H4ZM7 8V7H17V8C17 9.10457 17.8954 10 19 10H20V14H19C17.8954 14 17 14.8954 17 16V17H7V16C7 14.8954 6.10457 14 5 14H4V10H5C6.10457 10 7 9.10457 7 8ZM19 8V7C19.5523 7 20 7.44772 20 8H19ZM19 16H20C20 16.5523 19.5523 17 19 17V16ZM5 16V17C4.44772 17 4 16.5523 4 16H5Z" fill="#191919"/>
</svg>
