<svg width="24" height="24" viewBox="0 0 24 24" fill="none" xmlns="http://www.w3.org/2000/svg">
<path d="M7.50113 6.5C7.50113 4.01472 9.51582 2 12.0011 2C14.4864 2 16.5011 4.01472 16.5011 6.5C16.5011 8.98528 14.4864 11 12.0011 11C9.51582 11 7.50113 8.98528 7.50113 6.5ZM12.0011 4C10.6204 4 9.50113 5.11928 9.50113 6.5C9.50113 7.88072 10.6204 9 12.0011 9C13.3818 9 14.5011 7.88072 14.5011 6.5C14.5011 5.11928 13.3818 4 12.0011 4Z" fill="#191919"/>
<path d="M19 15C19.5523 15 20 15.4477 20 16V18H22C22.5523 18 23 18.4477 23 19C23 19.5523 22.5523 20 22 20H20V22C20 22.5523 19.5523 23 19 23C18.4477 23 18 22.5523 18 22V20H16C15.4477 20 15 19.5523 15 19C15 18.4477 15.4477 18 16 18H18V16C18 15.4477 18.4477 15 19 15Z" fill="#191919"/>
<path d="M5.5 18.5C5.5 17.2489 6.08181 16.2948 7.10461 15.6135C8.1612 14.9098 9.70067 14.5 11.5 14.5C12.1412 14.5 12.7543 14.5522 13.3265 14.653C13.8704 14.7489 14.389 14.3856 14.4848 13.8417C14.5807 13.2978 14.2174 12.7792 13.6735 12.6834C12.9783 12.5609 12.2487 12.5 11.5 12.5C9.43333 12.5 7.47281 12.9652 5.99589 13.949C4.4852 14.9552 3.5 16.5011 3.5 18.5C3.5 19.8807 4.61929 21 6 21H11C11.5523 21 12 20.5523 12 20C12 19.4477 11.5523 19 11 19H6C5.72386 19 5.5 18.7761 5.5 18.5Z" fill="#191919"/>
</svg>
