<svg width="24" height="24" viewBox="0 0 24 24" fill="none" xmlns="http://www.w3.org/2000/svg">
<path d="M4.28514 15.1183C3.51957 15.8173 3 16.8841 3 18.3846C3 18.7245 3.27552 19 3.61538 19H11.3846C11.7245 19 12 18.7245 12 18.3846C12 16.8841 11.4804 15.8173 10.7149 15.1183C9.93605 14.4073 8.81669 14 7.5 14C6.18331 14 5.06395 14.4073 4.28514 15.1183ZM2.93668 13.6413C4.14849 12.535 5.77912 12 7.5 12C9.22088 12 10.8515 12.535 12.0633 13.6413C13.2884 14.7597 14 16.3851 14 18.3846C14 19.8291 12.8291 21 11.3846 21H3.61538C2.17095 21 1 19.8291 1 18.3846C1 16.3851 1.71165 14.7597 2.93668 13.6413Z" fill="#191919"/>
<path d="M16.5 14C16.0506 14 15.6225 14.0478 15.2231 14.1392C14.6847 14.2623 14.1484 13.9258 14.0252 13.3874C13.902 12.849 14.2386 12.3127 14.7769 12.1895C15.3312 12.0627 15.9094 12 16.5 12C18.2209 12 19.8515 12.535 21.0633 13.6413C22.2884 14.7597 23 16.3851 23 18.3846C23 19.8291 21.8291 21 20.3846 21H17C16.4477 21 16 20.5523 16 20C16 19.4477 16.4477 19 17 19H20.3846C20.7245 19 21 18.7245 21 18.3846C21 16.8841 20.4804 15.8173 19.7149 15.1183C18.9361 14.4073 17.8167 14 16.5 14Z" fill="#191919"/>
<path d="M7.49999 5C6.39542 5 5.5 5.89542 5.5 7C5.5 8.10458 6.39542 9 7.49999 9C8.60457 9 9.5 8.10457 9.5 7C9.5 5.89543 8.60457 5 7.49999 5ZM3.5 7C3.5 4.79086 5.29084 3 7.49999 3C9.70914 3 11.5 4.79086 11.5 7C11.5 9.20914 9.70914 11 7.49999 11C5.29084 11 3.5 9.20914 3.5 7Z" fill="#191919"/>
<path d="M16.5 5C15.3954 5 14.5 5.89542 14.5 7C14.5 8.10458 15.3954 9 16.5 9C17.6046 9 18.5 8.10457 18.5 7C18.5 5.89543 17.6046 5 16.5 5ZM12.5 7C12.5 4.79086 14.2908 3 16.5 3C18.7091 3 20.5 4.79086 20.5 7C20.5 9.20914 18.7091 11 16.5 11C14.2908 11 12.5 9.20914 12.5 7Z" fill="#191919"/>
</svg>
