<svg width="24" height="24" viewBox="0 0 24 24" fill="none" xmlns="http://www.w3.org/2000/svg">
<path d="M12.0011 2C9.51582 2 7.50113 4.01472 7.50113 6.5C7.50113 8.98528 9.51582 11 12.0011 11C14.4864 11 16.5011 8.98528 16.5011 6.5C16.5011 4.01472 14.4864 2 12.0011 2Z" fill="#191919"/>
<path d="M12 12.5C9.93333 12.5 7.97281 12.9652 6.49589 13.949C4.9852 14.9552 4 16.5011 4 18.5C4 19.8807 5.11929 21 6.5 21H17.5C18.8807 21 20 19.8807 20 18.5C20 16.5011 19.0148 14.9552 17.5041 13.949C16.0272 12.9652 14.0667 12.5 12 12.5Z" fill="#191919"/>
</svg>
