<svg width="24" height="24" viewBox="0 0 24 24" fill="none" xmlns="http://www.w3.org/2000/svg">
<path d="M12.0011 2C9.51582 2 7.50113 4.01472 7.50113 6.5C7.50113 8.98528 9.51582 11 12.0011 11C14.4864 11 16.5011 8.98528 16.5011 6.5C16.5011 4.01472 14.4864 2 12.0011 2ZM9.50113 6.5C9.50113 5.11928 10.6204 4 12.0011 4C13.3818 4 14.5011 5.11928 14.5011 6.5C14.5011 7.88072 13.3818 9 12.0011 9C10.6204 9 9.50113 7.88072 9.50113 6.5Z" fill="#191919"/>
<path d="M12 12.5C9.93333 12.5 7.97281 12.9652 6.49589 13.949C4.9852 14.9552 4 16.5011 4 18.5C4 19.8807 5.11929 21 6.5 21H17.5C18.8807 21 20 19.8807 20 18.5C20 16.5011 19.0148 14.9552 17.5041 13.949C16.0272 12.9652 14.0667 12.5 12 12.5ZM6 18.5C6 17.2489 6.58181 16.2948 7.60461 15.6135C8.6612 14.9098 10.2007 14.5 12 14.5C13.7993 14.5 15.3388 14.9098 16.3954 15.6135C17.4182 16.2948 18 17.2489 18 18.5C18 18.7761 17.7761 19 17.5 19H6.5C6.22386 19 6 18.7761 6 18.5Z" fill="#191919"/>
</svg>
