<svg preserveAspectRatio="none" width="100%" height="100%" overflow="visible" style="display: block;" viewBox="0 0 19.5 21" fill="none" xmlns="http://www.w3.org/2000/svg">
<g id="Vector">
<path d="M4.00113 4.5C4.00113 2.01472 6.01582 0 8.5011 0C10.9864 0 13.0011 2.01472 13.0011 4.5C13.0011 6.98528 10.9864 9 8.5011 9C6.01582 9 4.00113 6.98528 4.00113 4.5ZM8.5011 2C7.1204 2 6.00113 3.11928 6.00113 4.5C6.00113 5.88072 7.1204 7 8.5011 7C9.8818 7 11.0011 5.88072 11.0011 4.5C11.0011 3.11928 9.8818 2 8.5011 2Z" fill="#191919"/>
<path d="M15.5 13C16.0523 13 16.5 13.4477 16.5 14V16H18.5C19.0523 16 19.5 16.4477 19.5 17C19.5 17.5523 19.0523 18 18.5 18H16.5V20C16.5 20.5523 16.0523 21 15.5 21C14.9477 21 14.5 20.5523 14.5 20V18H12.5C11.9477 18 11.5 17.5523 11.5 17C11.5 16.4477 11.9477 16 12.5 16H14.5V14C14.5 13.4477 14.9477 13 15.5 13Z" fill="#191919"/>
<path d="M2 16.5C2 15.2489 2.58181 14.2948 3.60461 13.6135C4.6612 12.9098 6.20067 12.5 8 12.5C8.6412 12.5 9.2543 12.5522 9.8265 12.653C10.3704 12.7489 10.889 12.3856 10.9848 11.8417C11.0807 11.2978 10.7174 10.7792 10.1735 10.6834C9.4783 10.5609 8.7487 10.5 8 10.5C5.93333 10.5 3.97281 10.9652 2.49589 11.949C0.9852 12.9552 0 14.5011 0 16.5C0 17.8807 1.11929 19 2.5 19H7.5C8.0523 19 8.5 18.5523 8.5 18C8.5 17.4477 8.0523 17 7.5 17H2.5C2.22386 17 2 16.7761 2 16.5Z" fill="#191919"/>
</g>
</svg>
