<svg width="24" height="24" viewBox="0 0 24 24" fill="none" xmlns="http://www.w3.org/2000/svg">
<path d="M15.7929 2.29291C15.4024 2.68345 15.4024 3.31661 15.7929 3.70713L16.5858 4.5H7.41418L8.2071 3.70713C8.59763 3.31661 8.59765 2.68345 8.20714 2.29291C7.81662 1.90238 7.18346 1.90236 6.79292 2.29287L4.29279 4.79287C4.10524 4.98041 3.99988 5.23477 3.99988 5.5C3.99988 5.76523 4.10524 6.01959 4.29279 6.20713L6.79292 8.70713C7.18346 9.09764 7.81662 9.09762 8.20713 8.70709C8.59765 8.31655 8.59763 7.68339 8.2071 7.29287L7.41418 6.5H16.5858L15.7929 7.29287C15.4024 7.68339 15.4024 8.31655 15.7929 8.70709C16.1834 9.09762 16.8165 9.09764 17.2071 8.70713L19.7072 6.20712C19.8948 6.01959 20.0001 5.76523 20.0001 5.5C20.0001 5.23477 19.8948 4.98041 19.7072 4.79287L17.2071 2.29287C16.8165 1.90236 16.1834 1.90238 15.7929 2.29291Z" fill="#191919"/>
<path d="M19.8235 19.7941C20.3564 20.7933 19.6324 22 18.5 22H14.5C13.6716 22 13 21.3284 13 20.5V11C13 9.95896 14.3925 9.61085 14.8824 10.5294L19.8235 19.7941Z" fill="#191919"/>
<path d="M4.17647 19.7941C3.64358 20.7933 4.36762 22 5.5 22H9.5C10.3284 22 11 21.3284 11 20.5V11C11 9.95896 9.60754 9.61085 9.11764 10.5294L4.17647 19.7941Z" fill="#191919"/>
</svg>
