<svg width="24" height="24" viewBox="0 0 24 24" fill="none" xmlns="http://www.w3.org/2000/svg">
<path d="M16 2.58586C16.7809 3.36689 16.7809 4.63297 16 5.41399L13.707 7.70695C13.3165 8.09745 12.6835 8.09744 12.293 7.70695C11.9025 7.31644 11.9025 6.68342 12.293 6.29289L13.5859 4.99992H7C5.34315 4.99992 4 6.34307 4 7.99992V12.9999C4 13.5522 3.55228 13.9999 3 13.9999C2.44772 13.9999 2 13.5522 2 12.9999V7.99992C2 5.2385 4.23858 2.99992 7 2.99992H13.5859L12.293 1.70695C11.9025 1.31643 11.9025 0.683417 12.293 0.292892C12.6835 -0.0976311 13.3165 -0.0976304 13.707 0.292892L16 2.58586Z" fill="#191919"/>
<path fill-rule="evenodd" clip-rule="evenodd" d="M20 18.9999C20 20.6568 18.6569 21.9999 17 21.9999H10C8.34315 21.9999 7 20.6568 7 18.9999V11.9999C7 10.3431 8.34315 8.99992 10 8.99992H17C18.6569 8.99992 20 10.3431 20 11.9999V18.9999ZM18 11.9999C18 11.4476 17.5523 10.9999 17 10.9999H10C9.44772 10.9999 9 11.4476 9 11.9999V18.9999C9 19.5522 9.44772 19.9999 10 19.9999H17C17.5523 19.9999 18 19.5522 18 18.9999V11.9999Z" fill="#191919"/>
</svg>
