<svg width="24" height="24" viewBox="0 0 24 24" fill="none" xmlns="http://www.w3.org/2000/svg">
<path d="M19 15C19.5523 15 20 15.4477 20 16V18H22C22.5523 18 23 18.4477 23 19C22.9999 19.5522 22.5522 20 22 20H20V22C19.9999 22.5522 19.5522 23 19 23C18.4478 23 18.0001 22.5522 18 22V20H16C15.4478 20 15.0001 19.5522 15 19C15 18.4477 15.4477 18 16 18H18V16C18 15.4477 18.4477 15 19 15Z" fill="#191919"/>
<path d="M16 2C18.2091 2 20 3.79086 20 6V12C20 12.5523 19.5523 13 19 13C18.4477 13 18 12.5523 18 12V6C18 4.89543 17.1046 4 16 4H6C4.89543 4 4 4.89543 4 6V16C4 16.1785 4.02547 16.351 4.06934 16.5156L9.66406 10.9209L9.80762 10.792C10.5002 10.2271 11.4999 10.2269 12.1924 10.792L12.335 10.9209L14.707 13.293C15.0974 13.6834 15.0974 14.3165 14.707 14.707C14.3165 15.0974 13.6835 15.0975 13.293 14.707L10.999 12.4141L5.4834 17.9297C5.64841 17.9738 5.8211 18 6 18H12C12.5523 18 13 18.4477 13 19C13 19.5523 12.5523 20 12 20H6C3.79086 20 2 18.2091 2 16V6C2 3.79086 3.79086 2 6 2H16Z" fill="#191919"/>
<path d="M14.5 6C15.3284 6 16 6.67157 16 7.5C15.9999 8.32837 15.3284 9 14.5 9C13.6716 9 13.0001 8.32837 13 7.5C13 6.67157 13.6716 6 14.5 6Z" fill="#191919"/>
</svg>
