<svg width="24" height="24" viewBox="0 0 24 24" fill="none" xmlns="http://www.w3.org/2000/svg">
<path fill-rule="evenodd" clip-rule="evenodd" d="M5.72355 4.0339C5.26636 4.07125 4.7269 4.15939 4.18405 4.43598C3.4314 4.81948 2.81948 5.4314 2.43598 6.18405C2.15939 6.7269 2.07125 7.26636 2.0339 7.72355C1.99989 8.13986 1.99995 8.63143 2.00001 9.13619L2.00001 12.5858L5.29289 9.29289C5.68342 8.90237 6.31658 8.90237 6.70711 9.29289L11.5 14.0858L12.7929 12.7929C13.1834 12.4024 13.8166 12.4024 14.2071 12.7929L20.5203 19.1061C20.9522 18.7557 21.3087 18.317 21.564 17.816C21.8406 17.2731 21.9288 16.7337 21.9661 16.2765C22.0001 15.8601 22.0001 15.3686 22 14.8638V9.13625C22.0001 8.63147 22.0001 8.13988 21.9661 7.72355C21.9288 7.26636 21.8406 6.7269 21.564 6.18405C21.1805 5.4314 20.5686 4.81948 19.816 4.43598C19.2731 4.15939 18.7337 4.07125 18.2765 4.0339C17.8602 3.99989 17.3686 3.99995 16.8638 4.00001L7.13622 4.00001C6.63146 3.99995 6.13986 3.99989 5.72355 4.0339ZM17 11C18.1046 11 19 10.1046 19 9C19 7.89543 18.1046 7 17 7C15.8954 7 15 7.89543 15 9C15 10.1046 15.8954 11 17 11Z" fill="#191919"/>
<path d="M2.0339 16.2765C2.0124 16.0133 2.00452 15.7202 2.00164 15.4126L6 11.4142L10.7929 16.2071C11.1834 16.5976 11.8166 16.5976 12.2071 16.2071L13.5 14.9142L18.5265 19.9407C18.4409 19.9513 18.3574 19.9595 18.2765 19.9661C17.8602 20.0001 17.3686 20.0001 16.8639 20H7.13621C6.63147 20.0001 6.13985 20.0001 5.72355 19.9661C5.26636 19.9288 4.7269 19.8406 4.18405 19.564C3.4314 19.1805 2.81948 18.5686 2.43598 17.816C2.15939 17.2731 2.07125 16.7337 2.0339 16.2765Z" fill="#191919"/>
</svg>
