<svg width="24" height="24" viewBox="0 0 24 24" fill="none" xmlns="http://www.w3.org/2000/svg">
<path d="M20.9999 4.58582C21.7808 5.36685 21.7808 6.63292 20.9999 7.41395L18.7069 9.70692C18.3164 10.0973 17.6833 10.0974 17.2929 9.70692C16.9025 9.31644 16.9025 8.68337 17.2929 8.29286L18.5858 6.99989H5.41395L6.70692 8.29286C7.09744 8.68338 7.09744 9.31639 6.70692 9.70692C6.31638 10.0973 5.68332 10.0974 5.29286 9.70692L2.99989 7.41395C2.21909 6.63297 2.21914 5.36684 2.99989 4.58582L5.29286 2.29286C5.68335 1.90236 6.31639 1.90242 6.70692 2.29286C7.09744 2.68338 7.09744 3.31639 6.70692 3.70692L5.41395 4.99989H18.5858L17.2929 3.70692C16.9025 3.31644 16.9025 2.68337 17.2929 2.29286C17.6834 1.90236 18.3164 1.90241 18.7069 2.29286L20.9999 4.58582Z" fill="#191919"/>
<path fill-rule="evenodd" clip-rule="evenodd" d="M20.5438 19.4218C21.3564 20.4734 20.6072 21.9997 19.2782 21.9999H4.72157C3.39287 21.9995 2.64368 20.4733 3.45594 19.4218L10.7343 10.0028L10.8612 9.85731C11.5287 9.17755 12.665 9.22599 13.2655 10.0028L20.5438 19.4218ZM10.9999 12.9286L5.53602 19.9999H10.9999V12.9286ZM12.9999 12.9286V19.9999H18.4638L12.9999 12.9286Z" fill="#191919"/>
</svg>
