<svg width="24" height="24" viewBox="0 0 24 24" fill="none" xmlns="http://www.w3.org/2000/svg">
<path d="M16 6.5C16.8284 6.5 17.5 7.17157 17.5 8C17.4999 8.82837 16.8284 9.5 16 9.5C15.1716 9.5 14.5001 8.82837 14.5 8C14.5 7.17157 15.1716 6.5 16 6.5Z" fill="#191919"/>
<path fill-rule="evenodd" clip-rule="evenodd" d="M18 2C20.2091 2 22 3.79086 22 6V18C22 20.2091 20.2091 22 18 22H6C3.79086 22 2 20.2091 2 18V6C2 3.79086 3.79086 2 6 2H18ZM5.4834 19.9297C5.64841 19.9738 5.8211 20 6 20H18C18.1786 20 18.3509 19.9736 18.5156 19.9297L12 13.4141L5.4834 19.9297ZM6 4C4.89543 4 4 4.89543 4 6V18C4 18.1785 4.02547 18.351 4.06934 18.5156L10.5859 12C11.367 11.2192 12.6331 11.2191 13.4141 12L19.9297 18.5156C19.9736 18.3509 20 18.1786 20 18V6C20 4.89543 19.1046 4 18 4H6Z" fill="#191919"/>
</svg>
