<svg width="24" height="24" viewBox="0 0 24 24" fill="none" xmlns="http://www.w3.org/2000/svg">
<path d="M10.2929 3.70713C9.90237 3.31661 9.90235 2.68345 10.2929 2.29291C10.6834 1.90238 11.3165 1.90236 11.7071 2.29287L14.2072 4.79287C14.3948 4.98041 14.5001 5.23477 14.5001 5.5C14.5001 5.76523 14.3948 6.01959 14.2072 6.20712L11.7071 8.70713C11.3165 9.09764 10.6834 9.09762 10.2929 8.70709C9.90235 8.31655 9.90237 7.68339 10.2929 7.29287L11.0858 6.5H10.4C9.2634 6.5 8.47108 6.50078 7.85424 6.55118C7.24907 6.60062 6.90139 6.69279 6.63803 6.82698C6.07354 7.1146 5.6146 7.57354 5.32698 8.13803C5.1928 8.40138 5.10062 8.74907 5.05118 9.35424C5.00078 9.97108 5 10.7634 5 11.9V13.5C5 14.0523 4.55229 14.5 4 14.5C3.44772 14.5 3 14.0523 3 13.5V11.8572C2.99999 10.7734 2.99998 9.89925 3.05782 9.19138C3.11737 8.46253 3.24318 7.82234 3.54497 7.23005C4.02434 6.28924 4.78924 5.52433 5.73005 5.04497C6.32234 4.74318 6.96253 4.61737 7.69138 4.55782C8.39926 4.49998 9.27341 4.49999 10.3572 4.5H11.0858L10.2929 3.70713Z" fill="#191919"/>
<path d="M21.9865 13.3087C22.0003 13.4776 22.0001 13.6607 22 13.7723V19.2277C22.0001 19.3393 22.0003 19.5224 21.9865 19.6912C21.9696 19.8983 21.9223 20.2525 21.7275 20.635C21.4878 21.1054 21.1053 21.4878 20.6349 21.7275C20.2525 21.9223 19.8983 21.9696 19.6912 21.9865C19.5223 22.0003 19.3392 22.0001 19.2276 22H10.7723C10.6607 22.0001 10.4776 22.0003 10.3087 21.9865C10.1016 21.9696 9.74739 21.9223 9.36498 21.7275C8.89457 21.4878 8.51212 21.1054 8.27244 20.635C8.07759 20.2525 8.03033 19.8983 8.01341 19.6912C7.99961 19.5224 7.99981 19.3393 7.99993 19.2277L7.99993 13.7723C7.99981 13.6607 7.99961 13.4776 8.01341 13.3087C8.03033 13.1017 8.07759 12.7474 8.27244 12.365C8.51212 11.8946 8.89457 11.5122 9.36498 11.2725C9.74739 11.0776 10.1016 11.0304 10.3087 11.0134C10.4776 10.9996 10.6607 10.9998 10.7723 11H19.2276C19.3392 10.9998 19.5223 10.9996 19.6912 11.0134C19.8983 11.0304 20.2525 11.0776 20.6349 11.2725C21.1053 11.5122 21.4878 11.8946 21.7275 12.365C21.9223 12.7474 21.9696 13.1017 21.9865 13.3087Z" fill="#191919"/>
</svg>
