<svg width="24" height="24" viewBox="0 0 24 24" fill="none" xmlns="http://www.w3.org/2000/svg">
<path d="M2 6C2.55224 6 2.99993 6.44777 3 7V19C3 20.1046 3.89543 21 5 21H17C17.5522 21 17.9999 21.4478 18 22C18 22.5523 17.5523 23 17 23H5C2.79086 23 1 21.2091 1 19V7C1.00007 6.44777 1.44776 6 2 6Z" fill="#191919"/>
<path d="M17.5 5C18.3284 5 19 5.67157 19 6.5C19 7.32843 18.3284 8 17.5 8C16.6716 8 16 7.32843 16 6.5C16 5.67157 16.6716 5 17.5 5Z" fill="#191919"/>
<path fill-rule="evenodd" clip-rule="evenodd" d="M19 1C21.2091 1 22.9999 2.79092 23 5V15C23 17.2091 21.2091 19 19 19H9C6.79086 19 5 17.2091 5 15V5C5.00007 2.79092 6.7909 1 9 1H19ZM8.4834 16.9297C8.64842 16.9738 8.82108 17 9 17H19C19.1785 17 19.3509 16.9745 19.5156 16.9307L13.999 11.4141L8.4834 16.9297ZM9 3C7.89547 3 7.00007 3.89549 7 5V15C7 15.1784 7.02549 15.351 7.06934 15.5156L12.6641 9.92188C13.4017 9.18433 14.5973 9.1843 15.335 9.92188L20.9297 15.5156C20.9736 15.3509 21 15.1785 21 15V5C20.9999 3.89549 20.1045 3 19 3H9Z" fill="#191919"/>
</svg>
