<svg width="24" height="24" viewBox="0 0 24 24" fill="none" xmlns="http://www.w3.org/2000/svg">
<path fill-rule="evenodd" clip-rule="evenodd" d="M5.72355 4.0339C5.26636 4.07125 4.7269 4.15939 4.18405 4.43598C3.4314 4.81948 2.81948 5.4314 2.43598 6.18405C2.15939 6.7269 2.07125 7.26636 2.0339 7.72355C1.99989 8.13986 1.99995 8.63143 2.00001 9.13619L2.00001 12.5858L5.29289 9.29289C5.68342 8.90237 6.31658 8.90237 6.70711 9.29289L11.5 14.0858L12.7929 12.7929C13.1834 12.4024 13.8166 12.4024 14.2071 12.7929L17.5386 16.1243C18.364 15.1318 19.6082 14.5 21 14.5C21.3437 14.5 21.6784 14.5385 22 14.6115V9.13625C22.0001 8.63147 22.0001 8.13988 21.9661 7.72355C21.9288 7.26636 21.8406 6.7269 21.564 6.18405C21.1805 5.4314 20.5686 4.81948 19.816 4.43598C19.2731 4.15939 18.7337 4.07125 18.2765 4.0339C17.8602 3.99989 17.3686 3.99995 16.8638 4.00001L7.13622 4.00001C6.63146 3.99995 6.13986 3.99989 5.72355 4.0339ZM17 11C18.1046 11 19 10.1046 19 9C19 7.89543 18.1046 7 17 7C15.8954 7 15 7.89543 15 9C15 10.1046 15.8954 11 17 11Z" fill="#191919"/>
<path d="M13.5 14.9142L16.6068 18.021C16.5369 18.3362 16.5 18.6638 16.5 19C16.5 19.3437 16.5385 19.6784 16.6115 20H7.13621C6.63147 20.0001 6.13985 20.0001 5.72355 19.9661C5.26636 19.9288 4.7269 19.8406 4.18405 19.564C3.4314 19.1805 2.81948 18.5686 2.43598 17.816C2.15939 17.2731 2.07125 16.7337 2.0339 16.2765C2.0124 16.0133 2.00452 15.7202 2.00164 15.4126L6 11.4142L10.7929 16.2071C11.1834 16.5976 11.8166 16.5976 12.2071 16.2071L13.5 14.9142Z" fill="#191919"/>
<path d="M21 16C21.5523 16 22 16.4477 22 17V18H23C23.5523 18 24 18.4477 24 19C24 19.5523 23.5523 20 23 20H22V21C22 21.5523 21.5523 22 21 22C20.4477 22 20 21.5523 20 21V20H19C18.4477 20 18 19.5523 18 19C18 18.4477 18.4477 18 19 18H20V17C20 16.4477 20.4477 16 21 16Z" fill="#191919"/>
</svg>
