<svg width="24" height="24" viewBox="0 0 24 24" fill="none" xmlns="http://www.w3.org/2000/svg">
<path fill-rule="evenodd" clip-rule="evenodd" d="M21.9865 6.30878C22.0003 6.47766 22.0001 6.66077 22 6.77236L22 13.2277C22.0001 13.3393 22.0003 13.5225 21.9865 13.6913C21.9696 13.8984 21.9224 14.2526 21.7275 14.635C21.544 14.9952 21.2768 15.3038 20.9505 15.5363L15.2071 9.79292C14.8166 9.4024 14.1834 9.4024 13.7929 9.79292L13 10.5858L10.7071 8.29292C10.3166 7.9024 9.68342 7.9024 9.29289 8.29292L5.99998 11.5858L5.99998 6.77232C5.99986 6.66072 5.99966 6.47764 6.01346 6.30878C6.03037 6.10173 6.07764 5.74748 6.27249 5.36507C6.51217 4.89466 6.89462 4.51221 7.36503 4.27253C7.74744 4.07768 8.10168 4.03042 8.30874 4.0135C8.47762 3.9997 8.66073 3.9999 8.77232 4.00002L19.2277 4.00003C19.3393 3.9999 19.5224 3.9997 19.6913 4.0135C19.8983 4.03042 20.2526 4.07768 20.635 4.27253C21.1054 4.51221 21.4878 4.89467 21.7275 5.36507C21.9224 5.74748 21.9696 6.10173 21.9865 6.30878ZM18.5 9.00003C19.3284 9.00003 20 8.32846 20 7.50003C20 6.6716 19.3284 6.00003 18.5 6.00003C17.6716 6.00003 17 6.6716 17 7.50003C17 8.32846 17.6716 9.00003 18.5 9.00003Z" fill="#191919"/>
<path d="M14.5 11.9142L18.5858 16.0001H8.77232C8.66072 16.0002 8.47762 16.0004 8.30874 15.9866C8.10168 15.9697 7.74744 15.9224 7.36503 15.7276C6.89462 15.4879 6.51217 15.1054 6.27249 14.635C6.21109 14.5145 6.16435 14.3968 6.12859 14.2857L10 10.4142L12.2929 12.7071C12.6834 13.0977 13.3166 13.0977 13.7071 12.7071L14.5 11.9142Z" fill="#191919"/>
<path d="M4 15.8C4 16.3766 4.00078 16.7488 4.02393 17.0322C4.04613 17.3038 4.0838 17.4045 4.109 17.454C4.20487 17.6422 4.35785 17.7951 4.54601 17.891C4.59546 17.9162 4.69617 17.9539 4.96784 17.9761C5.25117 17.9992 5.62345 18 6.2 18H17C17.5523 18 18 18.4477 18 19C18 19.5523 17.5523 20 17 20L6.16146 20C5.63436 20 5.17952 20 4.80497 19.9694C4.40963 19.9371 4.01641 19.8658 3.63803 19.673C3.07355 19.3854 2.6146 18.9265 2.32698 18.362C2.13419 17.9836 2.06287 17.5904 2.03057 17.195C1.99997 16.8204 1.99998 16.3657 2 15.8385V9C2 8.44771 2.44772 8 3 8C3.55229 8 4 8.44771 4 9L4 15.8Z" fill="#191919"/>
</svg>
