<svg width="24" height="24" viewBox="0 0 24 24" fill="none" xmlns="http://www.w3.org/2000/svg">
<path fill-rule="evenodd" clip-rule="evenodd" d="M22 11C22 9.13616 20.7252 7.57006 19 7.12602V5C19 3.34315 17.6569 2 16 2H8C6.34315 2 5 3.34315 5 5V7.12602C3.27477 7.57006 2 9.13616 2 11V16C2 17.1046 2.89543 18 4 18H5V19C5 20.6569 6.34315 22 8 22H16C17.6569 22 19 20.6569 19 19V18H20C21.1046 18 22 17.1046 22 16V11ZM17 5V7H7V5C7 4.44772 7.44772 4 8 4H16C16.5523 4 17 4.44772 17 5ZM16 20C16.5523 20 17 19.5523 17 19V12H7V19C7 19.5523 7.44772 20 8 20H16Z" fill="#191919"/>
<path d="M8 18C8 17.4477 8.44772 17 9 17H11C11.5523 17 12 17.4477 12 18C12 18.5523 11.5523 19 11 19H9C8.44772 19 8 18.5523 8 18Z" fill="#191919"/>
<path d="M8 15C8 14.4477 8.44772 14 9 14H13C13.5523 14 14 14.4477 14 15C14 15.5523 13.5523 16 13 16H9C8.44772 16 8 15.5523 8 15Z" fill="#191919"/>
</svg>
