<svg width="24" height="24" viewBox="0 0 24 24" fill="none" xmlns="http://www.w3.org/2000/svg">
<path d="M7 14V20H17V14H7ZM19 16H21V10C21 8.89543 20.1046 8 19 8H5C3.89543 8 3 8.89543 3 10V16H5V14C5 12.8954 5.89543 12 7 12H17C18.1046 12 19 12.8954 19 14V16ZM7 4V6H17V4H7ZM19 6C21.2091 6 23 7.79086 23 10V16C23 17.1046 22.1046 18 21 18H19V20C19 21.1046 18.1046 22 17 22H7C5.89543 22 5 21.1046 5 20V18H3C1.89543 18 1 17.1046 1 16V10C1 7.79086 2.79086 6 5 6V4C5 2.89543 5.89543 2 7 2H17C18.1046 2 19 2.89543 19 4V6Z" fill="#191919"/>
</svg>
