<svg width="24" height="24" viewBox="0 0 24 24" fill="none" xmlns="http://www.w3.org/2000/svg">
<path fill-rule="evenodd" clip-rule="evenodd" d="M12 1C18.0751 1 23 5.92487 23 12C23 18.0751 18.0751 23 12 23C5.92487 23 1 18.0751 1 12C1 5.92487 5.92487 1 12 1ZM6.38379 19.0303C7.92344 20.2619 9.87504 21 12 21C16.9706 21 21 16.9706 21 12C21 9.87504 20.2619 7.92344 19.0303 6.38379L6.38379 19.0303ZM12 3C7.02944 3 3 7.02944 3 12C3 14.125 3.73815 16.0766 4.96973 17.6162L17.6162 4.96973C16.0766 3.73815 14.125 3 12 3Z" fill="#191919"/>
</svg>
