<svg width="24" height="24" viewBox="0 0 24 24" fill="none" xmlns="http://www.w3.org/2000/svg">
<path d="M15.8375 2.31569C17.1613 1.37017 19 2.31641 19 3.94316V7.12599C20.7252 7.57003 22 9.13613 22 11C22 12.8638 20.7252 14.4299 19 14.874V18.0568C19 19.6836 17.1613 20.6298 15.8375 19.6843L12.0022 16.9448V19C12.0022 20.6576 10.6572 22 9.0011 22C7.34496 22 6 20.6576 6 19V15.9C3.71776 15.4367 2 13.419 2 11C2 8.23855 4.23858 5.99997 7 5.99997H10.0386C10.4555 5.99997 10.8619 5.86972 11.2011 5.62744L15.8375 2.31569ZM8 16V19C8 19.5516 8.4481 20 9.0011 20C9.5541 20 10.0022 19.5516 10.0022 19V16H8ZM19 12.7324C19.5978 12.3866 20 11.7403 20 11C20 10.2597 19.5978 9.61334 19 9.26753V12.7324ZM17 18.0568V3.94316L12.3636 7.2549C11.6852 7.73948 10.8723 7.99997 10.0386 7.99997H7C5.34315 7.99997 4 9.34312 4 11C4 12.6569 5.34315 14 7 14H10.0386C10.8723 14 11.6852 14.2605 12.3636 14.7451L17 18.0568Z" fill="#191919"/>
</svg>
