<svg width="24" height="24" viewBox="0 0 24 24" fill="none" xmlns="http://www.w3.org/2000/svg">
<path d="M12.001 3C12.5093 3.00052 12.936 3.38258 12.9932 3.8877C13.255 6.19863 13.9534 7.84799 15.0547 8.96973C16.1502 10.0854 17.7614 10.7972 20.0889 11.0039C20.605 11.05 21.0005 11.4827 21 12.001C20.9994 12.5194 20.6024 12.9514 20.0859 12.9961C17.798 13.1942 16.1513 13.9053 15.0283 15.0283C13.9053 16.1513 13.1942 17.798 12.9961 20.0859C12.9514 20.6024 12.5194 20.9994 12.001 21C11.4827 21.0005 11.05 20.605 11.0039 20.0889C10.7972 17.7614 10.0854 16.1502 8.96973 15.0547C7.84799 13.9534 6.19863 13.255 3.8877 12.9932C3.38258 12.936 3.00052 12.5093 3 12.001C2.9995 11.4927 3.38076 11.0651 3.88574 11.0068C6.2366 10.7356 7.84943 10.0373 8.94336 8.94336C10.0373 7.84943 10.7356 6.2366 11.0068 3.88574L11.0215 3.79199C11.1184 3.33415 11.5245 2.99954 12.001 3ZM11.998 7.9541C11.582 8.86957 11.042 9.67285 10.3574 10.3574C9.67285 11.042 8.86957 11.582 7.9541 11.998C8.86961 12.4115 9.67937 12.9487 10.3711 13.6279C11.045 14.2896 11.5839 15.0635 11.998 15.9443C12.4097 15.0629 12.9457 14.2829 13.6143 13.6143C14.2829 12.9457 15.0629 12.4097 15.9443 11.998C15.0635 11.5839 14.2896 11.045 13.6279 10.3711C12.9487 9.67937 12.4115 8.86961 11.998 7.9541ZM18 3C18.2367 3 18.4287 3.19202 18.4287 3.42871V3.51465C18.4289 4.65049 19.3495 5.57109 20.4854 5.57129H20.5713C20.808 5.57129 21 5.76331 21 6C21 6.23669 20.808 6.42871 20.5713 6.42871H20.4854C19.3495 6.42891 18.4289 7.34951 18.4287 8.48535V8.57129C18.4287 8.80798 18.2367 9 18 9C17.7633 9 17.5713 8.80798 17.5713 8.57129V8.48535C17.5711 7.34951 16.6505 6.42891 15.5146 6.42871H15.4287C15.192 6.42871 15 6.23669 15 6C15 5.76331 15.192 5.57129 15.4287 5.57129H15.5146C16.6505 5.57109 17.5711 4.65049 17.5713 3.51465V3.42871C17.5713 3.19202 17.7633 3 18 3Z" fill="#191919"/>
</svg>
