<svg width="24" height="24" viewBox="0 0 24 24" fill="none" xmlns="http://www.w3.org/2000/svg">
<g clip-path="url(#clip0_24255_136)">
<path d="M13.7887 5H11.8623C11.8891 4.93478 11.9161 4.86795 11.9432 4.79968C12.2864 3.93282 12.68 2.72405 12.6952 1.62556C12.7099 0.563836 11.833 0 11.1043 0C10.3604 0 9.72538 0.508267 9.4817 1.21684C8.92783 2.8274 8.39692 3.6609 7.6465 4.16065C6.98049 4.6042 6.0371 4.85713 4.5 4.95376V12.4991C5.59328 12.7698 6.66751 13.246 7.65457 13.7243C7.8588 13.8233 8.0635 13.9245 8.26445 14.0238C8.66593 14.2222 9.05243 14.4132 9.39032 14.5645C9.86985 14.7793 10.4263 15 10.9162 15C11.5807 15 12.2544 14.7449 12.779 14.4883C13.3213 14.223 13.7974 13.909 14.0901 13.7021C14.503 13.4101 14.7456 12.949 14.8059 12.4692L15.4847 7.05847C15.6215 5.9685 14.8235 5 13.7887 5Z" fill="#191919"/>
<path d="M0 5C0 4.44772 0.447715 4 1 4H2C2.55228 4 3 4.44772 3 5V12C3 12.5523 2.55228 13 2 13H1C0.447715 13 0 12.5523 0 12V5Z" fill="#191919"/>
<path d="M8.51529 16.9415L8.64906 15.8754C8.69227 15.8952 8.73499 15.9146 8.77713 15.9335C9.23394 16.1381 10.0644 16.5 10.9162 16.5C11.9254 16.5 12.8475 16.1246 13.4382 15.8357C14.0794 15.522 14.6279 15.1589 14.9561 14.9268C15.7566 14.3608 16.1886 13.4977 16.2942 12.6559L16.5788 10.3878C17.5008 10.8272 18.4923 11.2513 19.5 11.5008V19.0462C17.9629 19.1429 17.0195 19.3958 16.3535 19.8393C15.6031 20.3391 15.0722 21.1726 14.5183 22.7831C14.2746 23.4917 13.6396 24 12.8957 24C12.167 24 11.2901 23.4362 11.3048 22.3744C11.32 21.2759 11.7136 20.0672 12.0568 19.2003C12.0839 19.132 12.1109 19.0652 12.1377 19H10.2113C9.17648 19 8.37854 18.0315 8.51529 16.9415Z" fill="#191919"/>
<path d="M23 20C23.5523 20 24 19.5523 24 19V12C24 11.4477 23.5523 11 23 11H22C21.4477 11 21 11.4477 21 12V19C21 19.5523 21.4477 20 22 20H23Z" fill="#191919"/>
</g>
<defs>
<clipPath id="clip0_24255_136">
<rect width="24" height="24" fill="white"/>
</clipPath>
</defs>
</svg>
