<svg width="24" height="24" viewBox="0 0 24 24" fill="none" xmlns="http://www.w3.org/2000/svg">
<g clip-path="url(#clip0_24255_135)">
<path d="M21 16H22V10H21V16ZM8 2.94336C8 2.59404 7.80953 2.28998 7.52734 2.12695L5 7.2334V14H10.96C11.4366 13.9998 11.8542 13.6812 11.9805 13.2217L13.3213 8.33887C13.5061 7.665 12.9986 7 12.2998 7H9C8.44774 7 8.00003 6.55226 8 6V2.94336ZM2 14H3V8H2V14ZM24 16.2588C24 17.2204 23.2204 18 22.2588 18H20.6211L17.9639 23.3662C17.7718 23.7542 17.3763 24 16.9434 24C15.3179 24 14 22.6821 14 21.0566V19H10C9.44772 19 9 18.5523 9 18C9.00003 17.4477 9.44774 17 10 17H15C15.5523 17 16 17.4477 16 18V21.0566C16 21.4055 16.1901 21.7089 16.4717 21.8721L19 16.7656V10H17.7354C17.1831 10 16.7354 9.55229 16.7354 9C16.7354 8.44771 17.1831 8 17.7354 8H22.2588C23.2204 8 24 8.77959 24 9.74121V16.2588ZM10 5H12.2998C14.3187 5 15.7841 6.92132 15.25 8.86816L13.9092 13.751C13.5445 15.0792 12.3373 15.9998 10.96 16H1.74121C0.83957 16 0.0977973 15.3147 0.00878906 14.4365L0 14.2588V7.74121C0 6.77959 0.779585 6 1.74121 6H3.37891L6.03613 0.633789C6.22822 0.245822 6.62373 4.45203e-05 7.05664 0C8.68215 0 10 1.31785 10 2.94336V5Z" fill="#191919"/>
</g>
<defs>
<clipPath id="clip0_24255_135">
<rect width="24" height="24" fill="white"/>
</clipPath>
</defs>
</svg>
