<svg width="24" height="24" viewBox="0 0 24 24" fill="none" xmlns="http://www.w3.org/2000/svg">
<path d="M8 4C6.89543 4 6 4.89543 6 6V19.2768L8.00386 18.1318C8.31129 17.9561 8.68871 17.9561 8.99614 18.1318L12 19.8482L15.0039 18.1318C15.3113 17.9561 15.6887 17.9561 15.9961 18.1318L18 19.2768V6C18 4.89543 17.1046 4 16 4H8ZM4 6C4 3.79086 5.79086 2 8 2H16C18.2091 2 20 3.79086 20 6V21C20 21.3565 19.8102 21.686 19.5019 21.8649C19.1936 22.0438 18.8134 22.0451 18.5039 21.8682L15.5 20.1518L12.4961 21.8682C12.1887 22.0439 11.8113 22.0439 11.5039 21.8682L8.5 20.1518L5.49614 21.8682C5.18664 22.0451 4.80639 22.0438 4.49807 21.8649C4.18976 21.686 4 21.3565 4 21V6ZM8 9C8 8.44772 8.44772 8 9 8H15C15.5523 8 16 8.44772 16 9C16 9.55228 15.5523 10 15 10H9C8.44772 10 8 9.55228 8 9ZM8 13C8 12.4477 8.44772 12 9 12H15C15.5523 12 16 12.4477 16 13C16 13.5523 15.5523 14 15 14H9C8.44772 14 8 13.5523 8 13Z" fill="#191919"/>
</svg>
