<svg width="24" height="24" viewBox="0 0 24 24" fill="none" xmlns="http://www.w3.org/2000/svg">
<path d="M5 4C5 2.89543 5.89543 2 7 2H17C18.1046 2 19 2.89543 19 4C20.6569 4 22 5.34315 22 7C22 9.09706 20.3862 10.8172 18.3328 10.9864C17.3482 13.0708 15.3647 14.5909 13 14.9291V17H15C16.6569 17 18 18.3431 18 20V21C18 21.5523 17.5523 22 17 22H7C6.44772 22 6 21.5523 6 21V20C6 18.3431 7.34315 17 9 17H11V14.9291C8.63529 14.5909 6.65183 13.0708 5.66717 10.9864C3.61375 10.8172 2 9.09706 2 7C2 5.34315 3.34315 4 5 4ZM5 6C4.44772 6 4 6.44772 4 7C4 7.75678 4.42032 8.41539 5.04025 8.7551C5.01365 8.50705 5 8.25512 5 8V6ZM18.9597 8.7551C19.5797 8.41539 20 7.75678 20 7C20 6.44772 19.5523 6 19 6V8C19 8.25512 18.9864 8.50705 18.9597 8.7551ZM17 4H7V8C7 10.7614 9.23858 13 12 13C14.7614 13 17 10.7614 17 8V4ZM9 19C8.44772 19 8 19.4477 8 20H16C16 19.4477 15.5523 19 15 19H9Z" fill="#191919"/>
</svg>
