<svg width="24" height="24" viewBox="0 0 24 24" fill="none" xmlns="http://www.w3.org/2000/svg">
<path d="M2 12C2.00001 6.47716 6.47716 2 12 2C14.7263 2 17.1969 3.09171 19 4.85938V3C19 2.44772 19.4477 2 20 2C20.5523 2 21 2.44772 21 3V7C21 8.03565 20.2128 8.88699 19.2041 8.98926L19 9H15C14.4477 9 14 8.55228 14 8C14 7.44772 14.4477 7 15 7H18.2451C16.7779 5.16979 14.5253 4 12 4C7.58173 4 4.00001 7.58173 4 12C4 16.4183 7.58172 20 12 20C16.117 20 19.5089 16.8893 19.9512 12.8906C20.0118 12.3418 20.5059 11.9453 21.0547 12.0059C21.6036 12.0665 22.0001 12.5614 21.9395 13.1104C21.3864 18.1112 17.1478 22 12 22C6.47715 22 2 17.5228 2 12Z" fill="#191919"/>
</svg>
