<svg width="24" height="24" viewBox="0 0 24 24" fill="none" xmlns="http://www.w3.org/2000/svg">
<path d="M10.3656 2.67945C11.4244 2.31323 12.5756 2.31323 13.6344 2.67945L19.6538 4.76142C20.4595 5.04011 21 5.79896 21 6.65155V11.6393C21 14.6974 19.4471 17.5463 16.8769 19.2034L13.0838 21.649C12.4239 22.0745 11.5761 22.0745 10.9162 21.649L7.12311 19.2034C4.55289 17.5463 3 14.6974 3 11.6393V6.65155C3 5.79896 3.54049 5.04011 4.34625 4.76142L10.3656 2.67945ZM12.9806 4.56959C12.3453 4.34985 11.6547 4.34985 11.0194 4.56959L5 6.65155V11.6393C5 14.0178 6.2078 16.2336 8.20686 17.5225L12 19.9681L15.7931 17.5225C17.7922 16.2336 19 14.0178 19 11.6393V6.65155L12.9806 4.56959Z" fill="#191919"/>
</svg>
