<svg width="24" height="24" viewBox="0 0 24 24" fill="none" xmlns="http://www.w3.org/2000/svg">
<path d="M2 8.0002V6.0002C2 3.79106 3.79086 2.0002 6 2.0002H8C8.55228 2.0002 9 2.44791 9 3.0002C9 3.55248 8.55228 4.0002 8 4.0002H6C4.89543 4.0002 4 4.89563 4 6.0002V8.0002C4 8.55248 3.55228 9.0002 3 9.0002C2.44772 9.0002 2 8.55248 2 8.0002Z" fill="#191919"/>
<path d="M2 16V18C2 20.2091 3.79086 22 6 22H8C8.55228 22 9 21.5523 9 21C9 20.4477 8.55228 20 8 20H6C4.89543 20 4 19.1046 4 18V16C4 15.4477 3.55228 15 3 15C2.44772 15 2 15.4477 2 16Z" fill="#191919"/>
<path d="M22 8V6C22 3.79086 20.2091 2 18 2H16C15.4477 2 15 2.44772 15 3C15 3.55228 15.4477 4 16 4H18C19.1046 4 20 4.89543 20 6V8C20 8.55228 20.4477 9 21 9C21.5523 9 22 8.55228 22 8Z" fill="#191919"/>
<path d="M22 16V18C22 20.2091 20.2091 22 18 22H16C15.4477 22 15 21.5523 15 21C15 20.4477 15.4477 20 16 20H18C19.1046 20 20 19.1046 20 18V16C20 15.4477 20.4477 15 21 15C21.5523 15 22 15.4477 22 16Z" fill="#191919"/>
<path d="M8 8.00039V16.0004H16V8.00039H8ZM18 16.0004C18 17.105 17.1046 18.0004 16 18.0004H8C6.89543 18.0004 6 17.105 6 16.0004V8.00039C6 6.89582 6.89543 6.00039 8 6.00039H16C17.1046 6.00039 18 6.89582 18 8.00039V16.0004Z" fill="#191919"/>
<path d="M10 10.0004H14V14.0004H10V10.0004Z" fill="#191919"/>
</svg>
