<svg width="24" height="24" viewBox="0 0 24 24" fill="none" xmlns="http://www.w3.org/2000/svg">
<path d="M19.9389 5.34428C20.073 4.9786 19.9825 4.56833 19.7071 4.29292C19.4317 4.01751 19.0214 3.92707 18.6557 4.06115L3.65575 9.56115C3.26041 9.70611 2.99824 10.0832 3.00001 10.5042C3.00178 10.9253 3.26712 11.3001 3.66366 11.4418L8.89772 13.3111C8.95529 13.2378 9.02194 13.1697 9.09759 13.1082L15.7256 7.72295C15.8815 7.59627 16.108 7.60795 16.25 7.75C16.392 7.89205 16.4037 8.11849 16.2771 8.2744L10.8918 14.9024C10.8303 14.978 10.7622 15.0447 10.6889 15.1023L12.5583 20.3364C12.6999 20.7329 13.0747 20.9982 13.4958 21C13.9169 21.0018 14.2939 20.7396 14.4389 20.3443L19.9389 5.34428Z" fill="#191919"/>
</svg>
