<svg width="24" height="24" viewBox="0 0 24 24" fill="none" xmlns="http://www.w3.org/2000/svg">
<path d="M20.3051 2.30176C21.0429 2.35161 21.6478 2.95563 21.6977 3.69336L21.7084 3.7041L21.6987 3.71289C21.7087 3.89752 21.6848 4.09016 21.6186 4.28418L15.5268 22.124C15.025 23.5935 13.0008 23.7302 12.3061 22.3418L8.75531 15.2422L1.65766 11.6934C0.26867 10.9989 0.404849 8.97351 1.87445 8.47168L19.7143 2.37988C19.9079 2.31377 20.1003 2.28997 20.2846 2.2998L20.2944 2.29004L20.3051 2.30176ZM10.7172 14.6943L13.8266 20.9121L18.6635 6.74805L10.7172 14.6943ZM3.08539 10.1709L9.30414 13.2803L17.2495 5.33398L3.08539 10.1709Z" fill="#191919"/>
</svg>
