<svg width="24" height="24" viewBox="0 0 24 24" fill="none" xmlns="http://www.w3.org/2000/svg">
<path d="M12 8C9.79086 8 8 9.79086 8 12C8 14.2091 9.79086 16 12 16C14.2091 16 16 14.2091 16 12C16 9.79086 14.2091 8 12 8ZM10 12C10 10.8954 10.8954 10 12 10C13.1046 10 14 10.8954 14 12C14 13.1046 13.1046 14 12 14C10.8954 14 10 13.1046 10 12Z" fill="#191919"/>
<path d="M11.4205 2C10.4977 2 9.6947 2.63137 9.47697 3.52811L9.10182 5.07318L7.65429 4.25414C6.87207 3.81155 5.89068 3.9451 5.25517 4.58061L4.58061 5.25518C3.94509 5.89069 3.81155 6.87208 4.25414 7.6543L5.07318 9.10182L3.52811 9.47697C2.63136 9.6947 2 10.4977 2 11.4205V12.5795C2 13.5023 2.63137 14.3053 3.52811 14.523L5.07318 14.8982L4.25414 16.3457C3.81155 17.1279 3.94509 18.1093 4.58061 18.7448L5.25517 19.4194C5.89069 20.0549 6.87207 20.1884 7.65429 19.7459L9.10182 18.9268L9.47697 20.4719C9.6947 21.3686 10.4977 22 11.4205 22H12.5795C13.5023 22 14.3053 21.3686 14.523 20.4719L14.8982 18.9268L16.3457 19.7459C17.1279 20.1884 18.1093 20.0549 18.7448 19.4194L19.4194 18.7448C20.0549 18.1093 20.1884 17.1279 19.7459 16.3457L18.9268 14.8982L20.4719 14.523C21.3686 14.3053 22 13.5023 22 12.5795V11.4205C22 10.4977 21.3686 9.6947 20.4719 9.47696L18.9268 9.10182L19.7459 7.6543C20.1884 6.87208 20.0549 5.89069 19.4194 5.25518L18.7448 4.58061C18.1093 3.94509 17.1279 3.81155 16.3457 4.25415L14.8982 5.07318L14.523 3.52811C14.3053 2.63136 13.5023 2 12.5795 2H11.4205ZM5.54507 11.0454C6.83503 10.7322 7.46756 9.27224 6.81386 8.11691L5.99482 6.66939L6.66939 5.99482L8.11692 6.81386C9.27224 7.46756 10.7322 6.83503 11.0454 5.54507L11.4205 4H12.5795L12.9546 5.54507C13.2678 6.83503 14.7278 7.46756 15.8831 6.81386L17.3306 5.99482L18.0052 6.66939L17.1861 8.11691C16.5324 9.27223 17.165 10.7321 18.4549 11.0454L20 11.4205V12.5795L18.4549 12.9546C17.165 13.2678 16.5324 14.7278 17.1861 15.8831L18.0052 17.3306L17.3306 18.0052L15.8831 17.1861C14.7278 16.5324 13.2678 17.165 12.9546 18.4549L12.5795 20H11.4205L11.0454 18.4549C10.7322 17.165 9.27224 16.5324 8.11691 17.1861L6.66939 18.0052L5.99482 17.3306L6.81386 15.8831C7.46756 14.7278 6.83503 13.2678 5.54507 12.9546L4 12.5795V11.4205L5.54507 11.0454Z" fill="#191919"/>
</svg>
