<svg width="24" height="24" viewBox="0 0 24 24" fill="none" xmlns="http://www.w3.org/2000/svg">
<path d="M2 17.9957V13.9957C2.00012 13.4436 2.44779 12.9957 3 12.9957C3.55221 12.9957 3.99988 13.4436 4 13.9957V17.9957C4 19.1003 4.89543 19.9957 6 19.9957H18C19.1046 19.9957 20 19.1003 20 17.9957V13.9957C20.0001 13.4436 20.4478 12.9957 21 12.9957C21.5522 12.9957 21.9999 13.4436 22 13.9957V17.9957C22 20.2049 20.2091 21.9957 18 21.9957H6C3.79086 21.9957 2 20.2049 2 17.9957ZM11 15.9957V4.40981L6.70703 8.70278C6.31651 9.09328 5.68349 9.09329 5.29297 8.70278C4.90247 8.31226 4.90247 7.67923 5.29297 7.28871L10.5859 1.99575C11.367 1.21478 12.633 1.21481 13.4141 1.99575L18.707 7.28871C19.0976 7.67924 19.0976 8.31225 18.707 8.70278C18.3165 9.09328 17.6835 9.09329 17.293 8.70278L13 4.40981V15.9957C13 16.5479 12.5521 16.9956 12 16.9957C11.4477 16.9957 11 16.548 11 15.9957Z" fill="#191919"/>
</svg>
