<svg width="24" height="24" viewBox="0 0 24 24" fill="none" xmlns="http://www.w3.org/2000/svg">
<path d="M12.7071 2.29289C12.3166 1.90237 11.6834 1.90237 11.2929 2.29289L7.79289 5.79289C7.40237 6.18342 7.40237 6.81655 7.79289 7.20708C8.18342 7.5976 8.81658 7.5976 9.20711 7.20708L11 5.41417V14.5C11 15.0523 11.4477 15.5 12 15.5C12.5523 15.5 13 15.0523 13 14.5V5.41417L14.7929 7.20708C15.1834 7.5976 15.8166 7.5976 16.2071 7.20708C16.5976 6.81655 16.5976 6.18342 16.2071 5.79289L12.7071 2.29289Z" fill="#191919"/>
<path d="M21 16.2V13.8C21 12.1198 21 11.2797 20.673 10.638C20.3854 10.0735 19.9265 9.61457 19.362 9.32695C18.7202 8.99997 17.8802 8.99999 16.2 8.99999H14.5V14.5C14.5 15.8807 13.3807 17 12 17C10.6193 17 9.5 15.8807 9.5 14.5V8.99999H7.8C6.11985 8.99999 5.27977 8.99997 4.63803 9.32695C4.07354 9.61457 3.6146 10.0735 3.32698 10.638C3 11.2797 3 12.1198 3 13.8V16.2C3 17.8802 3 18.7202 3.32698 19.362C3.6146 19.9265 4.07354 20.3854 4.63803 20.673C5.27977 21 6.11985 21 7.8 21H16.2C17.8802 21 18.7202 21 19.362 20.673C19.9265 20.3854 20.3854 19.9265 20.673 19.362C21 18.7202 21 17.8802 21 16.2Z" fill="#191919"/>
</svg>
