<svg width="24" height="24" viewBox="0 0 24 24" fill="none" xmlns="http://www.w3.org/2000/svg">
<path d="M16.2071 9.70709C16.5976 9.31656 16.5976 8.6834 16.2071 8.29287C15.8166 7.90235 15.1834 7.90235 14.7929 8.29287L11 12.0858L9.70711 10.7929C9.31658 10.4024 8.68342 10.4024 8.29289 10.7929C7.90237 11.1834 7.90237 11.8166 8.29289 12.2071L10.2929 14.2071C10.6834 14.5976 11.3166 14.5976 11.7071 14.2071L16.2071 9.70709Z" fill="#191919"/>
<path d="M13.6344 2.67945C12.5756 2.31323 11.4244 2.31323 10.3656 2.67945L4.34625 4.76142C3.54049 5.04011 3 5.79896 3 6.65155V11.6393C3 14.6974 4.55289 17.5463 7.12311 19.2034L10.9162 21.649C11.5761 22.0745 12.4239 22.0745 13.0838 21.649L16.8769 19.2034C19.4471 17.5463 21 14.6974 21 11.6393V6.65155C21 5.79896 20.4595 5.04011 19.6538 4.76142L13.6344 2.67945ZM11.0194 4.56959C11.6547 4.34985 12.3453 4.34985 12.9806 4.56959L19 6.65155V11.6393C19 14.0178 17.7922 16.2336 15.7931 17.5225L12 19.9681L8.20686 17.5225C6.2078 16.2336 5 14.0178 5 11.6393V6.65155L11.0194 4.56959Z" fill="#191919"/>
</svg>
