<svg width="24" height="24" viewBox="0 0 24 24" fill="none" xmlns="http://www.w3.org/2000/svg">
<path d="M4.00002 14C6.20907 14 7.99987 15.7907 8.00002 17.9997C8.00018 15.7907 9.79098 14 12 14C14.2092 14 16 15.7909 16 18C16 15.7909 17.7909 14 20 14H20.5L20.95 11H10.2426C9.18178 11 8.16436 10.5786 7.41421 9.82843L7.17157 9.58579C6.7965 9.21071 6.28779 9 5.75736 9H2.75L3.5 14H4.00002Z" fill="#191919"/>
<path d="M10.2426 9H21.25L21.4832 7.44502C21.7553 5.63121 20.3505 4 18.5164 4H5.48356C3.80099 4 2.47974 5.3728 2.48295 7H5.75736C6.81823 7 7.83564 7.42143 8.58579 8.17157L8.82843 8.41421C9.2035 8.78929 9.71221 9 10.2426 9Z" fill="#191919"/>
<path d="M4 20C5.10457 20 6 19.1046 6 18C6 16.8954 5.10457 16 4 16C2.89543 16 2 16.8954 2 18C2 19.1046 2.89543 20 4 20Z" fill="#191919"/>
<path d="M12 20C13.1046 20 14 19.1046 14 18C14 16.8954 13.1046 16 12 16C10.8954 16 10 16.8954 10 18C10 19.1046 10.8954 20 12 20Z" fill="#191919"/>
<path d="M20 20C21.1046 20 22 19.1046 22 18C22 16.8954 21.1046 16 20 16C18.8954 16 18 16.8954 18 18C18 19.1046 18.8954 20 20 20Z" fill="#191919"/>
</svg>
