<svg width="24" height="24" viewBox="0 0 24 24" fill="none" xmlns="http://www.w3.org/2000/svg">
<path d="M5 14C5.55228 14 6 14.4477 6 15V21C5.99993 21.5522 5.55224 22 5 22C4.44792 21.9998 4.00007 21.5521 4 21V15C4 14.4478 4.44788 14.0002 5 14Z" fill="#191919"/>
<g opacity="0.2">
<path d="M12 8C12.5523 8 13 8.44772 13 9V21C12.9999 21.5522 12.5522 22 12 22C11.4479 21.9998 11.0001 21.5521 11 21V9C11 8.44784 11.4479 8.0002 12 8Z" fill="#191919"/>
<path d="M19 2C19.5523 2 20 2.44772 20 3V21C19.9999 21.5522 19.5522 22 19 22C18.4479 21.9998 18.0001 21.5521 18 21V3C18 2.44784 18.4479 2.0002 19 2Z" fill="#191919"/>
</g>
</svg>
