<svg width="24" height="24" viewBox="0 0 24 24" fill="none" xmlns="http://www.w3.org/2000/svg">
<g opacity="0.2">
<path d="M5 14C5.55228 14 6 14.4477 6 15V21C6 21.5523 5.55228 22 5 22C4.44772 22 4 21.5523 4 21V15C4 14.4477 4.44772 14 5 14Z" fill="#191919"/>
<path d="M12 8C12.5523 8 13 8.44772 13 9V21C13 21.5523 12.5523 22 12 22C11.4477 22 11 21.5523 11 21V9C11 8.44772 11.4477 8 12 8Z" fill="#191919"/>
<path d="M19 2C19.5523 2 20 2.44772 20 3V13C20 13.5523 19.5523 14 19 14C18.4477 14 18 13.5523 18 13V3C18 2.44772 18.4477 2 19 2Z" fill="#191919"/>
</g>
<path d="M20.793 15.7932C21.1836 15.4028 21.8166 15.4027 22.2071 15.7932C22.5973 16.1837 22.5974 16.8168 22.2071 17.2073L20.4141 19.0002L22.2071 20.7932C22.5973 21.1837 22.5974 21.8168 22.2071 22.2073C21.8166 22.5977 21.1836 22.5975 20.793 22.2073L19 20.4143L17.2071 22.2073C16.8166 22.5977 16.1836 22.5975 15.793 22.2073C15.4025 21.8167 15.4025 21.1837 15.793 20.7932L17.586 19.0002L15.793 17.2073C15.4025 16.8167 15.4025 16.1837 15.793 15.7932C16.1836 15.4028 16.8166 15.4027 17.2071 15.7932L19 17.5862L20.793 15.7932Z" fill="#191919"/>
</svg>
