<svg width="24" height="24" viewBox="0 0 24 24" fill="none" xmlns="http://www.w3.org/2000/svg">
<path d="M5 6.82957V10.9995H19V4.20457L5 6.82957ZM19 19.7954V12.9995H5V17.1704L19 19.7954ZM21 10.9995H22C22.5521 10.9995 22.9998 11.4474 23 11.9995C23 12.5518 22.5523 12.9995 22 12.9995H21V19.7954C20.9998 21.0473 19.8624 21.9916 18.6318 21.7612L4.63184 19.1362C3.68601 18.9589 3.00018 18.1327 3 17.1704V12.9995H2C1.44772 12.9995 1 12.5518 1 11.9995C1.00025 11.4474 1.44787 10.9995 2 10.9995H3V6.82957C3.00014 5.86727 3.68599 5.04109 4.63184 4.86375L18.6318 2.23875C19.8624 2.00831 20.9998 2.9526 21 4.20457V10.9995Z" fill="#191919"/>
</svg>
