<svg width="24" height="24" viewBox="0 0 24 24" fill="none" xmlns="http://www.w3.org/2000/svg">
<path d="M10.9996 22V21H4.20463C2.95266 20.9998 2.00837 19.8624 2.23881 18.6318L4.86381 4.63184C5.04115 3.68599 5.86733 3.00014 6.82963 3H10.9996V2C10.9996 1.44787 11.4475 1.00025 11.9996 1C12.5518 1 12.9996 1.44772 12.9996 2V3H17.1704C18.1327 3.00017 18.9589 3.68601 19.1363 4.63184L21.7613 18.6318C21.9917 19.8624 21.0474 20.9998 19.7954 21H12.9996V22C12.9996 22.5523 12.5518 23 11.9996 23C11.4475 22.9998 10.9996 22.5521 10.9996 22ZM4.20463 19H10.9996V5H6.82963L4.20463 19ZM12.9996 19H19.7954L17.1704 5H12.9996V19Z" fill="#191919"/>
</svg>
