<svg width="24" height="24" viewBox="0 0 24 24" fill="none" xmlns="http://www.w3.org/2000/svg">
<path d="M12 23C11.4478 23 11 22.5523 11 22V19.5L13 19.5L13 4.5H11L11 19.5H7.63433C6.22653 19.5 5.52263 19.5 5.04327 19.2079C4.62319 18.9519 4.31218 18.5501 4.1697 18.0793C4.00711 17.542 4.18358 16.8606 4.53652 15.4977L6.7637 6.89775C6.98587 6.03987 7.09695 5.61094 7.33885 5.29182C7.55231 5.01023 7.83656 4.79022 8.16267 4.65417C8.53224 4.5 8.97533 4.5 9.86151 4.5L11 4.5L11 2C11 1.44772 11.4478 1 12 1C12.5523 1 13 1.44772 13 2L13 4.5L14.1386 4.5C15.0248 4.5 15.4678 4.5 15.8374 4.65417C16.1635 4.79022 16.4478 5.01023 16.6612 5.29182C16.9031 5.61094 17.0142 6.03987 17.2364 6.89775L19.4636 15.4977C19.8165 16.8606 19.993 17.542 19.8304 18.0793C19.6879 18.5501 19.3769 18.9519 18.9568 19.2079C18.4775 19.5 17.7736 19.5 16.3658 19.5H13L13 22C13 22.5523 12.5523 23 12 23Z" fill="#191919"/>
</svg>
