<svg width="24" height="24" viewBox="0 0 24 24" fill="none" xmlns="http://www.w3.org/2000/svg">
<path fill-rule="evenodd" clip-rule="evenodd" d="M18.0793 4.16958C17.542 4.00699 16.8606 4.18346 15.4977 4.5364L6.89775 6.76358C6.03987 6.98575 5.61094 7.09683 5.29182 7.33873C5.01023 7.55219 4.79022 7.83644 4.65417 8.16255C4.5 8.53212 4.5 8.97521 4.5 9.86138V10.9999H2C1.44772 10.9999 1 11.4477 1 11.9999C1 12.5522 1.44772 12.9999 2 12.9999H4.5V14.1385C4.5 15.0246 4.5 15.4677 4.65417 15.8373C4.79022 16.1634 5.01023 16.4476 5.29182 16.6611C5.61093 16.903 6.03986 17.0141 6.89773 17.2363L15.4977 19.4634C16.8606 19.8164 17.542 19.9928 18.0793 19.8303C18.5501 19.6878 18.9519 19.3768 19.2079 18.9567C19.5 18.4773 19.5 17.7734 19.5 16.3656V12.9999H22C22.5523 12.9999 23 12.5522 23 11.9999C23 11.4477 22.5523 10.9999 22 10.9999H19.5V7.6342C19.5 6.2264 19.5 5.52251 19.2079 5.04315C18.9519 4.62307 18.5501 4.31206 18.0793 4.16958ZM19.5 10.9999V12.9999H4.5L4.5 10.9999H19.5Z" fill="#191919"/>
</svg>
