<svg width="24" height="24" viewBox="0 0 24 24" fill="none" xmlns="http://www.w3.org/2000/svg">
<path d="M7.39941 14.2002C7.84089 13.8687 8.46809 13.9581 8.7998 14.3994C9.53116 15.373 10.6923 15.9998 12 16C13.308 16 14.4697 15.3732 15.2012 14.3994C15.5328 13.958 16.16 13.8688 16.6016 14.2002C17.043 14.5318 17.1322 15.159 16.8008 15.6006C15.7078 17.0557 13.9636 18 12 18C10.0366 17.9998 8.29304 17.0555 7.2002 15.6006C6.86887 15.159 6.95796 14.5318 7.39941 14.2002Z" fill="#191919"/>
<path d="M9 8.5C9.82835 8.5 10.4999 9.17169 10.5 10C10.5 10.8284 9.82843 11.5 9 11.5C8.17166 11.4999 7.5 10.8284 7.5 10C7.50013 9.17175 8.17174 8.5001 9 8.5Z" fill="#191919"/>
<path d="M15 8.5C15.8283 8.5 16.4998 9.17174 16.5 10C16.5 10.8284 15.8284 11.5 15 11.5C14.1717 11.4999 13.5 10.8284 13.5 10C13.5002 9.17181 14.1718 8.5001 15 8.5Z" fill="#191919"/>
<path fill-rule="evenodd" clip-rule="evenodd" d="M12 1C18.075 1 22.9998 5.92504 23 12C23 18.0751 18.0751 23 12 23C5.92496 22.9999 1 18.0751 1 12C1.0002 5.9251 5.92508 1.00011 12 1ZM12 3C7.02965 3.00011 3.0002 7.02967 3 12C3 16.9705 7.02953 20.9999 12 21C16.9706 21 21 16.9706 21 12C20.9998 7.02961 16.9704 3 12 3Z" fill="#191919"/>
</svg>
