<svg width="24" height="24" viewBox="0 0 24 24" fill="none" xmlns="http://www.w3.org/2000/svg">
<path fill-rule="evenodd" clip-rule="evenodd" d="M12 22C17.5228 22 22 17.5228 22 12C22 6.47715 17.5228 2 12 2C6.47715 2 2 6.47715 2 12C2 17.5228 6.47715 22 12 22ZM10.75 9.25C10.75 10.2165 9.9665 11 9 11C8.0335 11 7.25 10.2165 7.25 9.25C7.25 8.2835 8.0335 7.5 9 7.5C9.9665 7.5 10.75 8.2835 10.75 9.25ZM16.75 9.25C16.75 10.2165 15.9665 11 15 11C14.0335 11 13.25 10.2165 13.25 9.25C13.25 8.2835 14.0335 7.5 15 7.5C15.9665 7.5 16.75 8.2835 16.75 9.25ZM7 14C6.44772 14 6 14.4477 6 15C6 15.5523 6.44772 16 7 16H17C17.5523 16 18 15.5523 18 15C18 14.4477 17.5523 14 17 14H7Z" fill="#191919"/>
</svg>
