<svg width="24" height="24" viewBox="0 0 24 24" fill="none" xmlns="http://www.w3.org/2000/svg">
<path d="M21 12C21 7.02944 16.9706 3 12 3C7.02944 3 3 7.02944 3 12C3 16.9706 7.02944 21 12 21C16.9706 21 21 16.9706 21 12ZM23 12C23 18.0751 18.0751 23 12 23C5.92487 23 1 18.0751 1 12C1 5.92487 5.92487 1 12 1C18.0751 1 23 5.92487 23 12Z" fill="#191919"/>
<path d="M16.0008 13.9996C16.5531 13.9996 17.0008 14.4473 17.0008 14.9996C17.0008 15.5519 16.5531 15.9996 16.0008 15.9996H8.00079C7.44851 15.9996 7.00079 15.5519 7.00079 14.9996C7.00079 14.4473 7.44851 13.9996 8.00079 13.9996H16.0008Z" fill="#191919"/>
<path d="M10.5 9.9998C10.5 10.8282 9.82843 11.4998 9 11.4998C8.17157 11.4998 7.5 10.8282 7.5 9.9998C7.5 9.17138 8.17157 8.4998 9 8.4998C9.82843 8.4998 10.5 9.17138 10.5 9.9998Z" fill="#191919"/>
<path d="M16.5 10C16.5 10.8284 15.8284 11.5 15 11.5C14.1716 11.5 13.5 10.8284 13.5 10C13.5 9.17157 14.1716 8.5 15 8.5C15.8284 8.5 16.5 9.17157 16.5 10Z" fill="#191919"/>
</svg>
