<svg width="24" height="24" viewBox="0 0 24 24" fill="none" xmlns="http://www.w3.org/2000/svg">
<path d="M21 12C21 7.02944 16.9706 3 12 3C7.02944 3 3 7.02944 3 12C3 16.9706 7.02944 21 12 21C16.9706 21 21 16.9706 21 12ZM23 12C23 18.0751 18.0751 23 12 23C5.92487 23 1 18.0751 1 12C1 5.92487 5.92487 1 12 1C18.0751 1 23 5.92487 23 12Z" fill="#191919"/>
<path d="M7.39941 17.7998C7.841 18.1314 8.46814 18.0421 8.7998 17.6006C9.5312 16.6269 10.6922 16.0001 12 16C13.308 16 14.4697 16.6268 15.2012 17.6006C15.5329 18.0422 16.16 18.1315 16.6016 17.7998C17.043 17.4682 17.1323 16.841 16.8008 16.3994C15.7078 14.9443 13.9636 14 12 14C10.0365 14.0001 8.29308 14.9444 7.2002 16.3994C6.8686 16.841 6.95786 17.4681 7.39941 17.7998Z" fill="#191919"/>
<path d="M10.5 9.9998C10.5 10.8282 9.82843 11.4998 9 11.4998C8.17157 11.4998 7.5 10.8282 7.5 9.9998C7.5 9.17138 8.17157 8.4998 9 8.4998C9.82843 8.4998 10.5 9.17138 10.5 9.9998Z" fill="#191919"/>
<path d="M16.5 9.9998C16.5 10.8282 15.8284 11.4998 15 11.4998C14.1716 11.4998 13.5 10.8282 13.5 9.9998C13.5 9.17138 14.1716 8.4998 15 8.4998C15.8284 8.4998 16.5 9.17138 16.5 9.9998Z" fill="#191919"/>
</svg>
