<svg width="24" height="24" viewBox="0 0 24 24" fill="none" xmlns="http://www.w3.org/2000/svg">
<path fill-rule="evenodd" clip-rule="evenodd" d="M12 22C17.5228 22 22 17.5228 22 12C22 6.47715 17.5228 2 12 2C6.47715 2 2 6.47715 2 12C2 17.5228 6.47715 22 12 22ZM9 11C9.9665 11 10.75 10.2165 10.75 9.25C10.75 8.2835 9.9665 7.5 9 7.5C8.0335 7.5 7.25 8.2835 7.25 9.25C7.25 10.2165 8.0335 11 9 11ZM16.75 9.25C16.75 10.2165 15.9665 11 15 11C14.0335 11 13.25 10.2165 13.25 9.25C13.25 8.2835 14.0335 7.5 15 7.5C15.9665 7.5 16.75 8.2835 16.75 9.25ZM7.72954 16.6839C7.35181 17.0869 6.71897 17.1073 6.31606 16.7295C5.91315 16.3518 5.89274 15.719 6.27047 15.3161C7.74635 13.7418 9.9075 13 12 13C14.0925 13 16.2537 13.7418 17.7295 15.3161C18.1073 15.719 18.0869 16.3518 17.6839 16.7295C17.281 17.1073 16.6482 17.0869 16.2705 16.6839C15.2463 15.5915 13.6575 15 12 15C10.3425 15 8.75366 15.5915 7.72954 16.6839Z" fill="#191919"/>
</svg>
