<svg width="24" height="24" viewBox="0 0 24 24" fill="none" xmlns="http://www.w3.org/2000/svg">
<path fill-rule="evenodd" clip-rule="evenodd" d="M12 22C17.5228 22 22 17.5228 22 12C22 6.47715 17.5228 2 12 2C6.47715 2 2 6.47715 2 12C2 17.5228 6.47715 22 12 22ZM9 11C9.9665 11 10.75 10.2165 10.75 9.25C10.75 8.2835 9.9665 7.5 9 7.5C8.0335 7.5 7.25 8.2835 7.25 9.25C7.25 10.2165 8.0335 11 9 11ZM16.75 9.25C16.75 10.2165 15.9665 11 15 11C14.0335 11 13.25 10.2165 13.25 9.25C13.25 8.2835 14.0335 7.5 15 7.5C15.9665 7.5 16.75 8.2835 16.75 9.25ZM7.3274 13.4382C7.01716 12.9813 6.39526 12.8624 5.93835 13.1727C5.48144 13.4829 5.36255 14.1048 5.67279 14.5617C7.05233 16.5934 9.17611 18 12.0001 18C14.8241 18 16.9479 16.5934 18.3274 14.5617C18.6376 14.1048 18.5188 13.4829 18.0618 13.1727C17.6049 12.8624 16.983 12.9813 16.6728 13.4382C15.6079 15.0065 14.065 16 12.0001 16C9.9352 16 8.39231 15.0065 7.3274 13.4382Z" fill="#191919"/>
</svg>
