<svg width="24" height="24" viewBox="0 0 24 24" fill="none" xmlns="http://www.w3.org/2000/svg">
<path d="M16.293 14.793C16.6834 14.4025 17.3165 14.4026 17.707 14.793C18.0975 15.1835 18.0975 15.8165 17.707 16.2071L12.707 21.2071C12.3165 21.5976 11.6835 21.5976 11.293 21.2071L6.29295 16.2071C5.90243 15.8165 5.90243 15.1835 6.29295 14.793C6.68348 14.4025 7.31649 14.4025 7.70702 14.793L12 19.086L16.293 14.793ZM11.293 2.79299C11.6835 2.40248 12.3165 2.40252 12.707 2.79299L17.707 7.79299C18.0975 8.18351 18.0975 8.81653 17.707 9.20705C17.3165 9.59752 16.6835 9.59756 16.293 9.20705L12 4.91408L7.70702 9.20705C7.31649 9.59758 6.68348 9.59758 6.29295 9.20705C5.90248 8.81652 5.90245 8.1835 6.29295 7.79299L11.293 2.79299Z" fill="#191919"/>
</svg>
