<svg width="24" height="24" viewBox="0 0 24 24" fill="none" xmlns="http://www.w3.org/2000/svg">
<path d="M17 4.50009C17 3.94781 17.4477 3.50009 18 3.50009C18.5523 3.50009 19 3.94781 19 4.50009V17.586L21.793 14.7931C22.1835 14.4025 22.8165 14.4025 23.207 14.7931C23.5975 15.1836 23.5975 15.8166 23.207 16.2071L19.4141 20.0001C18.6331 20.7809 17.367 20.7809 16.5859 20.0001L12.793 16.2071C12.4025 15.8166 12.4025 15.1836 12.793 14.7931C13.1835 14.4025 13.8165 14.4025 14.207 14.7931L17 17.586V4.50009ZM5.00001 19.5001V6.41416L2.20704 9.20712C1.81653 9.59755 1.18348 9.59755 0.792978 9.20712C0.402478 8.81663 0.402529 8.18359 0.792978 7.79306L4.58595 4.00009C5.367 3.21904 6.63302 3.21905 7.41407 4.00009L11.207 7.79306C11.5975 8.18359 11.5975 8.81663 11.207 9.20712C10.8165 9.59755 10.1835 9.59755 9.79298 9.20712L7.00001 6.41416V19.5001C6.99993 20.0523 6.55224 20.5001 6.00001 20.5001C5.44777 20.5001 5.00009 20.0523 5.00001 19.5001Z" fill="#191919"/>
</svg>
