<svg width="24" height="24" viewBox="0 0 24 24" fill="none" xmlns="http://www.w3.org/2000/svg">
<path d="M8.81832 11.4545C9.0483 11.783 9.49327 11.8685 9.85939 11.7048C10.5131 11.4125 11.2376 11.25 12 11.25C12.7625 11.25 13.4871 11.4126 14.1409 11.7049C14.507 11.8686 14.952 11.7832 15.182 11.4546C15.428 11.1031 15.3332 10.6133 14.9473 10.4257C14.0567 9.99283 13.0567 9.75 12 9.75C10.9434 9.75 9.9435 9.99277 9.05305 10.4256C8.66713 10.6131 8.57225 11.1029 8.81832 11.4545Z" fill="#191919"/>
<path d="M15.8679 9.21105C16.2259 9.40142 16.6784 9.31681 16.911 8.98463C17.154 8.63748 17.0635 8.15548 16.6922 7.95126C15.3002 7.18557 13.701 6.75 12 6.75C10.2992 6.75 8.70005 7.18551 7.30809 7.95109C6.93678 8.15531 6.84632 8.63732 7.08933 8.98448C7.32185 9.31665 7.77435 9.40126 8.13235 9.21091C9.28593 8.59754 10.6024 8.25 12 8.25C13.3977 8.25 14.7143 8.59759 15.8679 9.21105Z" fill="#191919"/>
<path d="M17.5919 6.73599C17.9455 6.93893 18.4018 6.85481 18.6356 6.52081C18.8772 6.17574 18.7889 5.6975 18.4252 5.48492C16.5386 4.38204 14.3431 3.75 12 3.75C9.65703 3.75 7.46167 4.38197 5.57508 5.48475C5.21143 5.69732 5.12309 6.17557 5.36465 6.52065C5.59844 6.85464 6.05475 6.93877 6.40835 6.73584C8.05551 5.79052 9.96463 5.25 12 5.25C14.0355 5.25 15.9447 5.79057 17.5919 6.73599Z" fill="#191919"/>
<path d="M5.03988 20.02C6.65488 20.02 7.65238 19.0225 7.65238 17.8825C7.65238 15.555 4.51738 15.935 4.51738 15.0325C4.51738 14.795 4.75488 14.5575 5.27738 14.5575C5.94238 14.5575 6.36988 15.08 6.36988 15.08L7.41488 13.94C7.41488 13.94 6.70238 12.99 5.08738 12.99C3.51988 12.99 2.56988 13.9875 2.56988 15.0325C2.56988 17.36 5.70488 16.98 5.70488 17.8825C5.70488 18.1675 5.41988 18.4525 4.84988 18.4525C3.99488 18.4525 3.42488 17.74 3.42488 17.74L2.37988 18.88C2.37988 18.88 3.23488 20.02 5.03988 20.02Z" fill="#191919"/>
<path d="M12.0257 20.02C14.1632 20.02 15.7307 18.4525 15.7307 16.505C15.7307 14.5575 14.1632 12.99 12.0257 12.99C9.88822 12.99 8.32072 14.5575 8.32072 16.505C8.32072 18.4525 9.88822 20.02 12.0257 20.02ZM12.0257 18.3575C10.9807 18.3575 10.1732 17.55 10.1732 16.505C10.1732 15.46 10.9807 14.6525 12.0257 14.6525C13.0707 14.6525 13.8782 15.46 13.8782 16.505C13.8782 17.55 13.0707 18.3575 12.0257 18.3575Z" fill="#191919"/>
<path d="M19.0116 20.02C20.6266 20.02 21.6241 19.0225 21.6241 17.8825C21.6241 15.555 18.4891 15.935 18.4891 15.0325C18.4891 14.795 18.7266 14.5575 19.2491 14.5575C19.9141 14.5575 20.3416 15.08 20.3416 15.08L21.3866 13.94C21.3866 13.94 20.6741 12.99 19.0591 12.99C17.4916 12.99 16.5416 13.9875 16.5416 15.0325C16.5416 17.36 19.6766 16.98 19.6766 17.8825C19.6766 18.1675 19.3916 18.4525 18.8216 18.4525C17.9666 18.4525 17.3966 17.74 17.3966 17.74L16.3516 18.88C16.3516 18.88 17.2066 20.02 19.0116 20.02Z" fill="#191919"/>
</svg>
