<svg width="24" height="24" viewBox="0 0 24 24" fill="none" xmlns="http://www.w3.org/2000/svg">
<path d="M3.75 19.5C4.44036 19.5 5 20.0596 5 20.75C5 21.4404 4.44036 22 3.75 22C3.05964 22 2.5 21.4404 2.5 20.75C2.5 20.0596 3.05964 19.5 3.75 19.5Z" fill="#191919"/>
<path d="M9.25 19.5C9.94036 19.5 10.5 20.0596 10.5 20.75C10.5 21.4404 9.94036 22 9.25 22C8.55964 22 8 21.4404 8 20.75C8 20.0596 8.55964 19.5 9.25 19.5Z" fill="#191919"/>
<path d="M14.75 19.5C15.4404 19.5 16 20.0596 16 20.75C16 21.4404 15.4404 22 14.75 22C14.0596 22 13.5 21.4404 13.5 20.75C13.5 20.0596 14.0596 19.5 14.75 19.5Z" fill="#191919"/>
<path d="M20.25 19.5C20.9404 19.5 21.5 20.0596 21.5 20.75C21.5 21.4404 20.9404 22 20.25 22C19.5596 22 19 21.4404 19 20.75C19 20.0596 19.5596 19.5 20.25 19.5Z" fill="#191919"/>
<path fill-rule="evenodd" clip-rule="evenodd" d="M12.252 2.01172C12.5973 2.06442 12.8949 2.29521 13.0283 2.62598L18.6777 16.626C18.8842 17.1381 18.6361 17.7211 18.124 17.9277C17.6119 18.1342 17.0289 17.8861 16.8223 17.374L15.2598 13.5H8.74023L7.17773 17.374C6.97111 17.8861 6.38807 18.1342 5.87598 17.9277C5.36391 17.7211 5.11581 17.1381 5.32227 16.626L10.9717 2.62598C11.1243 2.2478 11.4916 2 11.8994 2H12.1006L12.252 2.01172ZM9.54785 11.5H14.4521L12 5.4209L9.54785 11.5Z" fill="#191919"/>
</svg>
