<svg width="24" height="24" viewBox="0 0 24 24" fill="none" xmlns="http://www.w3.org/2000/svg">
<path d="M11.997 8.17502L13.102 11.165H10.892L11.997 8.17502Z" fill="#191919"/>
<path fill-rule="evenodd" clip-rule="evenodd" d="M12 22C17.5228 22 22 17.5228 22 12C22 6.47715 17.5228 2 12 2C6.47715 2 2 6.47715 2 12C2 17.5228 6.47715 22 12 22ZM13.752 12.855L14.532 15H16.612L13.037 5.90002H10.957L7.38196 15H9.46196L10.242 12.855H13.752ZM8 16H10V18H8V16ZM13 18V16H11V18H13ZM14 16H16V18H14V16Z" fill="#191919"/>
</svg>
