<svg width="24" height="24" viewBox="0 0 24 24" fill="none" xmlns="http://www.w3.org/2000/svg">
<path d="M11.9999 1.5C12.3659 1.5 12.7026 1.69991 12.8779 2.02121L15.6101 7.03106L21.219 8.08142C21.5787 8.14879 21.8729 8.40727 21.986 8.75532C22.0991 9.10338 22.013 9.48541 21.7616 9.75134L17.8413 13.898L18.5756 19.557C18.6227 19.9199 18.4677 20.2796 18.1717 20.4947C17.8756 20.7098 17.4857 20.746 17.1551 20.589L11.9999 18.1419L6.84477 20.589C6.51416 20.746 6.12423 20.7098 5.82816 20.4947C5.53209 20.2796 5.37717 19.9199 5.42426 19.557L6.15857 13.898L2.23821 9.75134C1.98679 9.48541 1.90072 9.10338 2.01381 8.75532C2.1269 8.40727 2.42109 8.14879 2.7808 8.08142L8.38976 7.03106L11.122 2.02121C11.2972 1.69991 11.634 1.5 11.9999 1.5ZM11.9999 4.58858L9.91833 8.40539C9.7745 8.66912 9.51974 8.85422 9.22447 8.90951L4.95123 9.70975L7.93799 12.8689C8.14436 13.0872 8.24168 13.3867 8.20302 13.6846L7.64358 17.996L11.5711 16.1316C11.8425 16.0028 12.1574 16.0028 12.4288 16.1316L16.3562 17.996L15.7968 13.6846C15.7582 13.3867 15.8555 13.0872 16.0618 12.8689L19.0486 9.70975L14.7754 8.90951C14.4801 8.85422 14.2253 8.66912 14.0815 8.40539L11.9999 4.58858Z" fill="#191919"/>
</svg>
