<svg width="24" height="24" viewBox="0 0 24 24" fill="none" xmlns="http://www.w3.org/2000/svg">
<path d="M12.8779 2.52121C12.7026 2.19991 12.3659 2 11.9999 2C11.634 2 11.2972 2.19991 11.122 2.52121L8.38976 7.53106L2.7808 8.58142C2.42109 8.64879 2.1269 8.90727 2.01381 9.25532C1.90072 9.60338 1.98679 9.98541 2.23821 10.2513L6.15857 14.398L5.42426 20.057C5.37717 20.4199 5.53209 20.7796 5.82816 20.9947C6.12423 21.2098 6.51416 21.246 6.84477 21.089L11.9999 18.6419L17.1551 21.089C17.4857 21.246 17.8756 21.2098 18.1717 20.9947C18.4677 20.7796 18.6227 20.4199 18.5756 20.057L17.8413 14.398L21.7616 10.2513C22.013 9.98541 22.0991 9.60338 21.986 9.25532C21.8729 8.90727 21.5787 8.64879 21.219 8.58142L15.6101 7.53106L12.8779 2.52121ZM11.9999 5.08858L14.0815 8.90539C14.2253 9.16912 14.4801 9.35422 14.7754 9.40951L19.0486 10.2097L16.0618 13.3689C15.8555 13.5872 15.7582 13.8867 15.7968 14.1846L16.3562 18.496L12.4288 16.6316C12.2931 16.5672 12.1465 16.535 11.9999 16.535V5.08858Z" fill="#191919"/>
</svg>
