<svg width="24" height="24" viewBox="0 0 24 24" fill="none" xmlns="http://www.w3.org/2000/svg">
<path fill-rule="evenodd" clip-rule="evenodd" d="M12.8335 18.75C12.8335 19.4404 13.3931 20 14.0835 20C14.7739 20 15.3335 19.4404 15.3335 18.75L15.3335 14.25C15.3335 13.5596 14.7739 13 14.0835 13C13.3931 13 12.8335 13.5596 12.8335 14.25L12.8335 18.75ZM17.5002 18.75C17.5002 19.4404 18.0598 20 18.7502 20C19.4405 20 20.0002 19.4404 20.0002 18.75L20.0002 14.25C20.0002 13.5596 19.4405 13 18.7502 13C18.0598 13 17.5002 13.5596 17.5002 14.25L17.5002 18.75Z" fill="#191919"/>
<g opacity="0.6">
<path d="M17.9873 11.6071C17.785 8.47654 15.1817 6 12 6C8.68629 6 6 8.68629 6 12C6 15.0883 8.33332 17.6317 11.3333 17.9634V18.75C11.3333 19.1967 11.4398 19.6186 11.6288 19.9915C7.38284 19.7976 4 16.2939 4 12C4 7.58172 7.58172 4 12 4C16.351 4 19.8907 7.47341 19.9975 11.7986C19.6231 11.6077 19.1991 11.5 18.7499 11.5C18.4853 11.5 18.2295 11.5374 17.9873 11.6071Z" fill="#191919"/>
</g>
</svg>
