<svg width="24" height="24" viewBox="0 0 24 24" fill="none" xmlns="http://www.w3.org/2000/svg">
<path opacity="0.8" d="M13.5718 21H20.5937V18.9587H16.5112L20.4304 15.0395V12.9983H13.7351V15.0395H17.491L13.5718 18.9587V21Z" fill="#191919"/>
<g opacity="0.6">
<path d="M12.431 17.9848C12.2886 17.9949 12.1449 18 12 18C8.68629 18 6 15.3137 6 12C6 8.68629 8.68629 6 12 6C15.1448 6 17.7246 8.41947 17.9793 11.4985H19.9845C19.7257 7.31386 16.2499 4 12 4C7.58172 4 4 7.58172 4 12C4 16.4183 7.58172 20 12 20C12.0239 20 12.0477 19.9999 12.0715 19.9997V18.959C12.0715 18.6006 12.1998 18.2554 12.431 17.9848Z" fill="#191919"/>
</g>
</svg>
