<svg width="24" height="24" viewBox="0 0 24 24" fill="none" xmlns="http://www.w3.org/2000/svg">
<path fill-rule="evenodd" clip-rule="evenodd" d="M20.9021 12.2716C21.0576 12.5093 21.0251 12.8235 20.8243 13.0243L18.2485 15.6L19.9243 17.2757C20.0674 17.4189 20.1287 17.6246 20.0873 17.8228C20.0458 18.021 19.9072 18.1849 19.7186 18.2587L12.8186 20.9587C12.5542 21.0622 12.2533 20.966 12.0979 20.7284C11.9424 20.4907 11.9749 20.1765 12.1757 19.9757L14.7515 17.4L13.0757 15.7243C12.9326 15.5811 12.8713 15.3754 12.9127 15.1772C12.9542 14.979 13.0928 14.8151 13.2814 14.7413L20.1814 12.0413C20.4458 11.9378 20.7467 12.034 20.9021 12.2716Z" fill="#004C1B"/>
<path d="M12.0304 17.9999C12.0203 18 12.0101 18 12 18C8.68629 18 6 15.3137 6 12C6 8.68629 8.68629 6 12 6C15.077 6 17.6129 8.31615 17.9596 11.3001L19.6348 10.6446C19.7131 10.614 19.7924 10.5883 19.8721 10.5675C19.197 6.83281 15.9293 4 12 4C7.58172 4 4 7.58172 4 12C4 15.9293 6.83275 19.1969 10.5674 19.8721C10.6589 19.5193 10.8428 19.1875 11.1151 18.9152L12.0304 17.9999Z" fill="#00832D"/>
</svg>
