<svg width="24" height="24" viewBox="0 0 24 24" fill="none" xmlns="http://www.w3.org/2000/svg">
<path fill-rule="evenodd" clip-rule="evenodd" d="M13.3661 13.3661C13.8542 12.878 14.6457 12.878 15.1339 13.3661L17 15.2321L18.8661 13.3661C19.3543 12.878 20.1458 12.878 20.6339 13.3661C21.122 13.8543 21.122 14.6458 20.6339 15.1339L18.7678 16.9999L20.6339 18.8658C21.122 19.3539 21.122 20.1454 20.6339 20.6336C20.1458 21.1217 19.3543 21.1218 18.8661 20.6336L17 18.7676L15.1339 20.6336C14.6457 21.1218 13.8542 21.1217 13.3661 20.6336C12.878 20.1454 12.878 19.3539 13.3661 18.8658L15.2322 16.9999L13.3661 15.1339C12.878 14.6458 12.878 13.8543 13.3661 13.3661Z" fill="#810B00"/>
<path d="M12.1293 17.9986C12.0863 17.9995 12.0432 18 12 18C8.68629 18 6 15.3137 6 12C6 8.68629 8.68629 6 12 6C15.3137 6 18 8.68629 18 12C18 12.0433 17.9995 12.0865 17.9986 12.1296C18.5695 11.6569 19.2866 11.4504 19.9852 11.51C19.7321 7.31993 16.2537 4 12 4C7.58172 4 4 7.58172 4 12C4 16.2538 7.31994 19.7321 11.51 19.9852C11.4504 19.2866 11.6568 18.5696 12.1293 17.9986Z" fill="#D91400"/>
</svg>
