<svg width="24" height="24" viewBox="0 0 24 24" fill="none" xmlns="http://www.w3.org/2000/svg">
<path fill-rule="evenodd" clip-rule="evenodd" d="M14 19.75C14 20.4404 14.5596 21 15.25 21C15.9404 21 16.5 20.4404 16.5 19.75L16.5 14.25C16.5 13.5596 15.9404 13 15.25 13C14.5596 13 14 13.5596 14 14.25V19.75ZM19 19.75C19 20.4404 19.5596 21 20.25 21C20.9404 21 21.5 20.4404 21.5 19.75L21.5 14.25C21.5 13.5596 20.9404 13 20.25 13C19.5596 13 19 13.5596 19 14.25L19 19.75Z" fill="#835200"/>
<path d="M12.5 17.9795C12.3351 17.9931 12.1684 18 12 18C8.68629 18 6 15.3137 6 12C6 8.68629 8.68629 6 12 6C15.3137 6 18 8.68629 18 12C18 12.2483 17.9849 12.4931 17.9556 12.7334C18.4021 12.0594 19.1376 11.5935 19.9854 11.5126C19.7335 7.32127 16.2546 4 12 4C7.58172 4 4 7.58172 4 12C4 16.4183 7.58172 20 12 20C12.1713 20 12.3412 19.9946 12.5098 19.984C12.5033 19.9069 12.5 19.8288 12.5 19.75V17.9795Z" fill="#A36500"/>
</svg>
