<svg width="24" height="24" viewBox="0 0 24 24" fill="none" xmlns="http://www.w3.org/2000/svg">
<path d="M12 4C11.645 4 11.2958 4.02307 10.9539 4.06767C10.4062 4.13911 9.90435 3.75306 9.83292 3.20542C9.76148 2.65777 10.1475 2.15591 10.6952 2.08447C11.1227 2.02871 11.5582 2 12 2C14.5152 2 16.8135 2.92861 18.5709 4.46167C18.9072 4.75507 19.2237 5.07061 19.5181 5.40603C20.9809 7.07246 21.8984 9.22931 21.9921 11.5979C21.9973 11.7313 22 11.8654 22 12C22 12.2209 21.9928 12.4402 21.9787 12.6578C21.8465 14.6916 21.1058 16.5606 19.9378 18.0828L19.9335 18.0884C19.8899 18.1452 19.8456 18.2015 19.8008 18.2573C19.6407 18.4567 19.4731 18.6498 19.2984 18.8362L19.2657 18.8709L19.265 18.8717C18.9017 19.2557 18.5082 19.6109 18.0884 19.9335C17.6505 20.27 17.0227 20.1878 16.6861 19.7499C16.3496 19.312 16.4318 18.6842 16.8697 18.3477C17.2062 18.0891 17.5216 17.8044 17.8128 17.4965C17.9565 17.3446 18.0944 17.187 18.226 17.0242C18.2671 16.9732 18.3077 16.9217 18.3477 16.8697L18.3515 16.8648C19.2806 15.6538 19.8706 14.1707 19.9811 12.5548C19.9936 12.3716 20 12.1866 20 12C20 11.9112 19.9986 11.8228 19.9957 11.7348C19.9335 9.82416 19.2013 8.08288 18.0264 6.73834C17.8502 6.53673 17.664 6.34403 17.4687 6.16101C16.0872 4.86656 14.246 4.05676 12.2164 4.00286C12.1445 4.00096 12.0724 4 12 4ZM7.31386 4.25008C7.65038 4.688 7.56819 5.3158 7.13027 5.65232C6.57571 6.07848 6.07848 6.57571 5.65232 7.13027C5.3158 7.56819 4.688 7.65038 4.25008 7.31386C3.81216 6.97734 3.72996 6.34953 4.06649 5.91162C4.59856 5.21922 5.21922 4.59856 5.91162 4.06649C6.34953 3.72996 6.97734 3.81216 7.31386 4.25008ZM3.20542 9.83292C3.75306 9.90435 4.13911 10.4062 4.06767 10.9539C4.02307 11.2958 4 11.645 4 12C4 12.355 4.02307 12.7042 4.06767 13.0461C4.13911 13.5938 3.75306 14.0956 3.20542 14.1671C2.65777 14.2385 2.15591 13.8525 2.08447 13.3048C2.02871 12.8773 2 12.4418 2 12C2 11.5582 2.02871 11.1227 2.08447 10.6952C2.15591 10.1475 2.65777 9.76148 3.20542 9.83292ZM4.25008 16.6861C4.688 16.3496 5.3158 16.4318 5.65232 16.8697C6.07848 17.4243 6.57571 17.9215 7.13027 18.3477C7.56819 18.6842 7.65038 19.312 7.31386 19.7499C6.97734 20.1878 6.34953 20.27 5.91162 19.9335C5.21922 19.4014 4.59856 18.7808 4.06649 18.0884C3.72996 17.6505 3.81216 17.0227 4.25008 16.6861ZM9.83292 20.7946C9.90435 20.2469 10.4062 19.8609 10.9539 19.9323C11.2958 19.9769 11.645 20 12 20C12.355 20 12.7042 19.9769 13.0461 19.9323C13.5938 19.8609 14.0956 20.2469 14.1671 20.7946C14.2385 21.3422 13.8525 21.8441 13.3048 21.9155C12.8773 21.9713 12.4418 22 12 22C11.5582 22 11.1227 21.9713 10.6952 21.9155C10.1475 21.8441 9.76148 21.3422 9.83292 20.7946ZM12.4994 6.02082C12.2243 5.99783 12 6.22386 12 6.5V11.7929C12 11.9255 12.0527 12.0527 12.1464 12.1464L15.8891 15.8891C16.0843 16.0843 16.4027 16.0856 16.5811 15.8748C17.236 15.1005 17.6858 14.1705 17.8847 13.1705C18.1162 12.0067 17.9974 10.8003 17.5433 9.7039C17.0892 8.60754 16.3201 7.67047 15.3334 7.01118C14.4857 6.44476 13.51 6.10523 12.4994 6.02082Z" fill="#181818"/>
</svg>
