<svg width="24" height="24" viewBox="0 0 24 24" fill="none" xmlns="http://www.w3.org/2000/svg">
<path d="M21 12C21 7.02944 16.9706 3 12 3C7.02944 3 3 7.02944 3 12C3 16.9706 7.02944 21 12 21C16.9706 21 21 16.9706 21 12ZM23 12C23 18.0751 18.0751 23 12 23C5.92487 23 1 18.0751 1 12C1 5.92487 5.92487 1 12 1C18.0751 1 23 5.92487 23 12Z" fill="#191919"/>
<path d="M15.9993 10.9993C16.5516 10.9993 16.9993 11.447 16.9993 11.9993C16.9993 12.5516 16.5516 12.9993 15.9993 12.9993L7.99927 12.9993C7.44698 12.9993 6.99927 12.5516 6.99927 11.9993C6.99927 11.447 7.44698 10.9993 7.99927 10.9993L15.9993 10.9993Z" fill="#191919"/>
</svg>
