<svg width="24" height="24" viewBox="0 0 24 24" fill="none" xmlns="http://www.w3.org/2000/svg">
<path d="M13 2C13 1.44772 12.5523 1 12 1C11.4477 1 11 1.44772 11 2V3.5C11 4.05228 11.4477 4.5 12 4.5C12.5523 4.5 13 4.05228 13 3.5V2Z" fill="#191919"/>
<path d="M5.6373 4.22298C5.24679 3.83244 4.61363 3.83241 4.22308 4.22291C3.83254 4.61342 3.83251 5.24658 4.22302 5.63713L5.29286 6.70707C5.68336 7.09762 6.31653 7.09765 6.70707 6.70714C7.09762 6.31664 7.09765 5.68347 6.70714 5.29293L5.6373 4.22298Z" fill="#191919"/>
<path d="M19.777 5.63713C20.1675 5.24658 20.1675 4.61342 19.7769 4.22291C19.3864 3.83241 18.7532 3.83244 18.3627 4.22298L17.2929 5.29293C16.9024 5.68347 16.9024 6.31664 17.2929 6.70714C17.6835 7.09765 18.3166 7.09762 18.7071 6.70707L19.777 5.63713Z" fill="#191919"/>
<path d="M2 11C1.44772 11 1 11.4477 1 12C1 12.5523 1.44772 13 2 13H3.5C4.05228 13 4.5 12.5523 4.5 12C4.5 11.4477 4.05228 11 3.5 11H2Z" fill="#191919"/>
<path d="M20.5 11C19.9477 11 19.5 11.4477 19.5 12C19.5 12.5523 19.9477 13 20.5 13H22C22.5523 13 23 12.5523 23 12C23 11.4477 22.5523 11 22 11H20.5Z" fill="#191919"/>
<path d="M6.70715 18.7071C7.09765 18.3165 7.09761 17.6833 6.70706 17.2928C6.31651 16.9023 5.68335 16.9024 5.29285 17.2929L4.223 18.3629C3.8325 18.7535 3.83255 19.3866 4.22309 19.7771C4.61364 20.1676 5.24681 20.1676 5.63731 19.777L6.70715 18.7071Z" fill="#191919"/>
<path d="M18.7072 17.2929C18.3167 16.9024 17.6835 16.9023 17.2929 17.2928C16.9024 17.6833 16.9023 18.3165 17.2928 18.7071L18.3627 19.777C18.7532 20.1676 19.3864 20.1676 19.7769 19.7771C20.1675 19.3866 20.1675 18.7535 19.777 18.3629L18.7072 17.2929Z" fill="#191919"/>
<path d="M13 20.5C13 19.9477 12.5523 19.5 12 19.5C11.4477 19.5 11 19.9477 11 20.5V22C11 22.5523 11.4477 23 12 23C12.5523 23 13 22.5523 13 22V20.5Z" fill="#191919"/>
<path d="M6 12C6 15.3137 8.68629 18 12 18C15.3137 18 18 15.3137 18 12C18 8.68629 15.3137 6 12 6C8.68629 6 6 8.68629 6 12ZM12 16C9.79086 16 8 14.2091 8 12C8 9.79086 9.79086 8 12 8C14.2091 8 16 9.79086 16 12C16 14.2091 14.2091 16 12 16Z" fill="#191919"/>
</svg>
