<svg width="24" height="24" viewBox="0 0 24 24" fill="none" xmlns="http://www.w3.org/2000/svg">
<path d="M7.79306 12.793C8.18359 12.4025 8.81662 12.4025 9.20712 12.793C9.59755 13.1835 9.59755 13.8165 9.20712 14.207L6.41415 17H19.5001C20.0523 17.0001 20.5001 17.4478 20.5001 18C20.5001 18.5522 20.0523 18.9999 19.5001 19H6.41415L9.20712 21.793C9.59755 22.1835 9.59755 22.8165 9.20712 23.207C8.81662 23.5975 8.18359 23.5975 7.79306 23.207L4.00009 19.4141C3.21905 18.633 3.21904 17.367 4.00009 16.5859L7.79306 12.793ZM14.7931 0.792977C15.1836 0.402529 15.8166 0.402478 16.2071 0.792977L20.0001 4.58595C20.7809 5.36696 20.7809 6.63306 20.0001 7.41407L16.2071 11.207C15.8166 11.5975 15.1836 11.5975 14.7931 11.207C14.4025 10.8165 14.4025 10.1835 14.7931 9.79298L17.586 7.00001H4.50009C3.94781 7.00001 3.50009 6.55229 3.50009 6.00001C3.50009 5.44772 3.94781 5.00001 4.50009 5.00001H17.586L14.7931 2.20704C14.4025 1.81652 14.4025 1.1835 14.7931 0.792977Z" fill="#191919"/>
</svg>
