<svg width="24" height="24" viewBox="0 0 24 24" fill="none" xmlns="http://www.w3.org/2000/svg">
<path d="M2.94554 21V17C2.94556 15.8954 3.84099 15 4.94554 15H8.94554C9.4977 15.0001 9.94552 15.4478 9.94554 16C9.94554 16.5522 9.49771 16.9999 8.94554 17H5.70335C7.17076 18.8295 9.42087 20 11.9455 20C16.0624 19.9999 19.4545 16.8892 19.8967 12.8906C19.9574 12.3417 20.4513 11.9452 21.0002 12.0059C21.5492 12.0665 21.9447 12.5614 21.884 13.1104C21.331 18.111 17.0932 21.9999 11.9455 22C9.21935 22 6.74854 20.9081 4.94554 19.1406V21C4.94554 21.5522 4.49771 21.9999 3.94554 22C3.39326 22 2.94554 21.5523 2.94554 21ZM11.9455 2C14.6718 2.00006 17.1425 3.09169 18.9455 4.85938V3C18.9455 2.44772 19.3933 2 19.9455 2C20.4977 2.00013 20.9455 2.44779 20.9455 3V7C20.9455 8.03557 20.1582 8.88689 19.1496 8.98926L18.9455 9H14.9455C14.3933 9 13.9455 8.55228 13.9455 8C13.9455 7.44772 14.3933 7 14.9455 7H18.1907C16.7235 5.16978 14.4708 4.00007 11.9455 4C7.82838 4 4.43642 7.11145 3.99437 11.1104C3.93348 11.6591 3.43868 12.0548 2.88988 11.9941C2.34133 11.9333 1.94571 11.4392 2.00609 10.8906C2.55891 5.88961 6.79758 2 11.9455 2Z" fill="#191919"/>
</svg>
