<svg width="24" height="24" viewBox="0 0 24 24" fill="none" xmlns="http://www.w3.org/2000/svg">
<path d="M7.5 9C8.32843 9 9 8.32843 9 7.5C9 6.67157 8.32843 6 7.5 6C6.67157 6 6 6.67157 6 7.5C6 8.32843 6.67157 9 7.5 9Z" fill="#202125"/>
<path d="M6 2C3.79086 2 2 3.79086 2 6V10.7574C2 11.8182 2.42143 12.8356 3.17157 13.5858L10.1716 20.5858C11.7337 22.1479 14.2663 22.1479 15.8284 20.5858L20.5858 15.8284C22.1479 14.2663 22.1479 11.7337 20.5858 10.1716L13.5858 3.17157C12.8356 2.42143 11.8182 2 10.7574 2H6ZM4 6C4 4.89543 4.89543 4 6 4H10.7574C11.2878 4 11.7965 4.21071 12.1716 4.58579L19.1716 11.5858C19.9526 12.3668 19.9526 13.6332 19.1716 14.4142L14.4142 19.1716C13.6332 19.9526 12.3668 19.9526 11.5858 19.1716L4.58579 12.1716C4.21071 11.7965 4 11.2878 4 10.7574V6Z" fill="#202125"/>
</svg>
