<svg width="24" height="24" viewBox="0 0 24 24" fill="none" xmlns="http://www.w3.org/2000/svg">
<path d="M12.9965 14H18.1537C19.4548 14 20.4097 12.7769 20.0941 11.5146L18.5941 5.51465C18.3714 4.62449 17.5713 4 16.6537 4H8.49646V13.7773L11.6019 20.4326C12.4047 20.2165 12.9963 19.4862 12.9965 18.6152V14ZM14.9965 18.6152C14.9962 20.7606 13.2571 22.4998 11.1117 22.5C10.6531 22.5 10.2353 22.2339 10.0414 21.8184L6.85974 15H3.99646C2.89189 15 1.99646 14.1046 1.99646 13V4C1.99646 2.89543 2.89189 2 3.99646 2H16.6537C18.4892 2 20.0894 3.24961 20.5345 5.03027L22.0345 11.0303C22.6654 13.5547 20.7558 16 18.1537 16H14.9965V18.6152ZM3.99646 13H6.49646V4H3.99646V13Z" fill="#191919"/>
</svg>
