<svg width="24" height="24" viewBox="0 0 24 24" fill="none" xmlns="http://www.w3.org/2000/svg">
<path d="M18.8578 8H16.606C16.6373 7.92826 16.6689 7.85474 16.7005 7.77965C17.1017 6.82611 17.5618 5.49646 17.5796 4.28812C17.5968 3.12022 16.5718 2.5 15.7199 2.5C14.8503 2.5 14.1081 3.05909 13.8232 3.83853C13.1758 5.61014 12.5552 6.52699 11.678 7.07672C10.8995 7.56462 9.79676 7.84284 8 7.94914V16.2491C9.27796 16.5468 10.5337 17.0706 11.6875 17.5968C11.9262 17.7056 12.1655 17.8169 12.4004 17.9261C12.8696 18.1444 13.3214 18.3545 13.7164 18.521C14.2769 18.7573 14.9274 19 15.5 19C16.2769 19 17.0643 18.7194 17.6776 18.4371C18.3114 18.1453 18.8679 17.7999 19.2101 17.5723C19.6927 17.2511 19.9764 16.7439 20.0468 16.2161L20.8403 10.2643C21.0001 9.06535 20.0674 8 18.8578 8Z" fill="#191919"/>
<path fill-rule="evenodd" clip-rule="evenodd" d="M3 8C3 7.44772 3.44772 7 4 7H5.5C6.05228 7 6.5 7.44772 6.5 8V16C6.5 16.5523 6.05228 17 5.5 17H4C3.44772 17 3 16.5523 3 16V8Z" fill="#191919"/>
</svg>
