<svg width="24" height="24" viewBox="0 0 24 24" fill="none" xmlns="http://www.w3.org/2000/svg">
<path d="M5.14217 16H7.39402C7.36268 16.0717 7.33112 16.1453 7.29953 16.2203C6.89835 17.1739 6.43816 18.5035 6.4204 19.7119C6.40323 20.8798 7.42824 21.5 8.28005 21.5C9.14965 21.5 9.89193 20.9409 10.1768 20.1615C10.8242 18.3899 11.4448 17.473 12.322 16.9233C13.1005 16.4354 14.2032 16.1572 16 16.0509V7.75094C14.722 7.45319 13.4663 6.92938 12.3125 6.40323C12.0738 6.29436 11.8345 6.18309 11.5996 6.07385C11.1304 5.85561 10.6786 5.64551 10.2836 5.47902C9.72305 5.24274 9.07261 5 8.5 5C7.72315 5 6.9357 5.28061 6.32244 5.56291C5.68857 5.8547 5.13207 6.2001 4.78995 6.42774C4.3073 6.7489 4.02362 7.25605 3.95325 7.78387L3.15972 13.7357C2.99986 14.9346 3.9326 16 5.14217 16Z" fill="#191919"/>
<path fill-rule="evenodd" clip-rule="evenodd" d="M21 16C21 16.5523 20.5523 17 20 17H18.5C17.9477 17 17.5 16.5523 17.5 16V8C17.5 7.44771 17.9477 7 18.5 7H20C20.5523 7 21 7.44771 21 8V16Z" fill="#191919"/>
</svg>
