<svg width="24" height="24" viewBox="0 0 24 24" fill="none" xmlns="http://www.w3.org/2000/svg">
<path d="M13 5.38477C12.9998 4.51368 12.4084 3.78246 11.6055 3.56641L8.5 10.2217V20H16.6572C17.5748 20 18.375 19.3755 18.5977 18.4854L20.0977 12.4854C20.4132 11.2231 19.4584 10 18.1572 10H13V5.38477ZM4 20H6.5V11H4V20ZM15 8H18.1572C20.7594 8 22.669 10.4453 22.0381 12.9697L20.5381 18.9697C20.0929 20.7504 18.4927 22 16.6572 22H4C2.89543 22 2 21.1046 2 20V11C2 9.89543 2.89543 9 4 9H6.86328L10.0449 2.18164C10.2388 1.76608 10.6566 1.5 11.1152 1.5L11.3145 1.50488C13.3673 1.60877 14.9998 3.30617 15 5.38477V8Z" fill="#191919"/>
</svg>
