<svg width="24" height="24" viewBox="0 0 24 24" fill="none" xmlns="http://www.w3.org/2000/svg">
<path d="M20 8C20 6.89543 19.1046 6 18 6H6C4.89543 6 4 6.89543 4 8V8.63574C6.49918 10.1554 6.49889 13.8434 4 15.3633V16C4 17.1046 4.89543 18 6 18H18C19.1046 18 20 17.1046 20 16V15.3633C17.5011 13.8434 17.5008 10.1554 20 8.63574V8ZM14 15.5098V15.5C14 14.9477 14.4477 14.5 15 14.5C15.5523 14.5 16 14.9477 16 15.5V15.5098C16 16.0621 15.5523 16.5098 15 16.5098C14.4477 16.5098 14 16.0621 14 15.5098ZM14 12.0098V12C14 11.4477 14.4477 11 15 11C15.5523 11 16 11.4477 16 12V12.0098C16 12.5621 15.5523 13.0098 15 13.0098C14.4477 13.0098 14 12.5621 14 12.0098ZM14 8.50977V8.5C14 7.94772 14.4477 7.5 15 7.5C15.5523 7.5 16 7.94772 16 8.5V8.50977C16 9.06205 15.5523 9.50977 15 9.50977C14.4477 9.50977 14 9.06205 14 8.50977ZM22 9.25C22 9.6589 21.7508 10.0268 21.3711 10.1787C19.7097 10.8436 19.7097 13.1564 21.3711 13.8213C21.7508 13.9732 22 14.3411 22 14.75V16C22 18.2091 20.2091 20 18 20H6C3.79086 20 2 18.2091 2 16V14.75C2 14.3411 2.24925 13.9732 2.62891 13.8213C4.29031 13.1564 4.29031 10.8436 2.62891 10.1787C2.24925 10.0268 2 9.6589 2 9.25V8C2 5.79086 3.79086 4 6 4H18C20.2091 4 22 5.79086 22 8V9.25Z" fill="#191919"/>
</svg>
