<svg width="24" height="24" viewBox="0 0 24 24" fill="none" xmlns="http://www.w3.org/2000/svg">
<path fill-rule="evenodd" clip-rule="evenodd" d="M18.707 10.6787C20.1658 9.82772 22.033 10.2282 23.0146 11.6025C24.0516 13.0548 23.7319 15.0702 22.2969 16.1309L14.0049 22.2598C12.8418 23.1194 11.3053 23.2847 9.98633 22.6914L2.17773 19.1777C1.46006 18.8548 0.99809 18.1405 0.998047 17.3535V13C0.998121 11.8955 1.89352 11 2.99805 11H14.748C15.4384 11 15.998 11.5596 15.998 12.25V12.2588L18.707 10.6787ZM21.3867 12.7646C21.0057 12.2313 20.2811 12.076 19.7148 12.4062L15.5518 14.835C14.8865 16.1206 13.5455 17 11.998 17H9.99805C9.4458 17 8.99811 16.5522 8.99805 16C8.99805 15.4477 9.44576 15 9.99805 15H11.998C13.1026 15 13.998 14.1045 13.998 13H2.99805V17.3535L10.8066 20.8672C11.4661 21.1639 12.2348 21.0812 12.8164 20.6514L21.1084 14.5225C21.6654 14.1107 21.7893 13.3283 21.3867 12.7646Z" fill="#191919"/>
<path fill-rule="evenodd" clip-rule="evenodd" d="M11.998 1C14.2072 1 15.998 2.79086 15.998 5C15.998 7.20908 14.2071 9 11.998 9C9.78895 9 7.99811 7.20908 7.99805 5C7.99805 2.79086 9.78891 1 11.998 1ZM11.998 3C10.8935 3 9.99805 3.89543 9.99805 5C9.99811 6.10451 10.8935 7 11.998 7C13.1026 7 13.998 6.10451 13.998 5C13.998 3.89543 13.1026 3 11.998 3Z" fill="#191919"/>
</svg>
