<svg width="24" height="24" viewBox="0 0 24 24" fill="none" xmlns="http://www.w3.org/2000/svg">
<path d="M15.4648 8C15.8051 7.41165 15.9999 6.72857 15.9999 6C15.9999 3.79086 14.209 2 11.9999 2C9.79076 2 7.9999 3.79086 7.9999 6C7.9999 6.72857 8.19469 7.41165 8.53503 8H7.52749C6.17463 8 4.98916 8.90546 4.6332 10.2106L2.72411 17.2106C2.20363 19.1191 3.64028 21 5.6184 21H18.3814C20.3595 21 21.7962 19.1191 21.2757 17.2106L19.3666 10.2106C19.0106 8.90546 17.8252 8 16.4723 8H15.4648ZM9.9999 6C9.9999 4.89543 10.8953 4 11.9999 4C13.1045 4 13.9999 4.89543 13.9999 6C13.9999 7.10457 13.1045 8 11.9999 8C10.8953 8 9.9999 7.10457 9.9999 6ZM7.52749 10H16.4723C16.9233 10 17.3184 10.3018 17.4371 10.7369L19.3462 17.7369C19.5197 18.373 19.0408 19 18.3814 19H5.6184C4.95902 19 4.48014 18.373 4.65363 17.7369L6.56272 10.7369C6.68138 10.3018 7.07654 10 7.52749 10Z" fill="#191919"/>
</svg>
