<svg width="24" height="24" viewBox="0 0 24 24" fill="none" xmlns="http://www.w3.org/2000/svg">
<path d="M7.12602 5H3C2.44772 5 2 5.44772 2 6C2 6.55228 2.44772 7 3 7H4.06445L4.81552 18.2661C4.9556 20.3673 6.7008 22 8.80666 22H15.1933C17.2992 22 19.0444 20.3673 19.1845 18.2661L19.9356 7H21C21.5523 7 22 6.55228 22 6C22 5.44772 21.5523 5 21 5H16.874C16.4299 3.27477 14.8638 2 13 2H11C9.13616 2 7.57006 3.27477 7.12602 5ZM9.26756 5C9.61337 4.4022 10.2597 4 11 4H13C13.7403 4 14.3866 4.4022 14.7324 5H9.26756ZM17.9311 7L17.1889 18.133C17.1189 19.1836 16.2463 20 15.1933 20H8.80666C7.75373 20 6.88113 19.1836 6.81109 18.133L6.06889 7H17.9311ZM10 10C10.5523 10 11 10.4477 11 11V16C11 16.5523 10.5523 17 10 17C9.44772 17 9 16.5523 9 16V11C9 10.4477 9.44772 10 10 10ZM14 10C14.5523 10 15 10.4477 15 11V16C15 16.5523 14.5523 17 14 17C13.4477 17 13 16.5523 13 16V11C13 10.4477 13.4477 10 14 10Z" fill="#191919"/>
</svg>
