<svg width="24" height="24" viewBox="0 0 24 24" fill="none" xmlns="http://www.w3.org/2000/svg">
<path d="M4.5 4C3.11929 4 2 5.11929 2 6.5V15.5C2 16.8807 3.11929 18 4.5 18H5.7339L5.14266 18.9854C4.85851 19.459 5.01208 20.0733 5.48566 20.3574C5.95924 20.6415 6.5735 20.488 6.85764 20.0144L8.06629 18H15.9337L17.1424 20.0144C17.4265 20.488 18.0408 20.6415 18.5143 20.3574C18.9879 20.0733 19.1415 19.459 18.8573 18.9854L18.2661 18H19.5C20.8807 18 22 16.8807 22 15.5V6.5C22 5.11929 20.8807 4 19.5 4H4.5Z" fill="#191919"/>
</svg>
