<svg width="24" height="24" viewBox="0 0 24 24" fill="none" xmlns="http://www.w3.org/2000/svg">
<path d="M7 7C7 4.23858 9.2386 2 12 2C14.3312 2 16.2874 3.59442 16.8424 5.75074C16.9801 6.28559 16.6581 6.83078 16.1232 6.96844C15.5884 7.1061 15.0432 6.78411 14.9055 6.24926C14.5725 4.95512 13.3965 4 12 4C10.3431 4 9 5.34315 9 7V9H16C18.2091 9 20 10.7909 20 13V18C20 20.2091 18.2091 22 16 22H8C5.79086 22 4 20.2091 4 18V13C4 11.1362 5.27477 9.57006 7 9.12602V7ZM8 11C6.89543 11 6 11.8954 6 13V18C6 19.1046 6.89543 20 8 20H16C17.1046 20 18 19.1046 18 18V13C18 11.8954 17.1046 11 16 11H8ZM12 13C12.5523 13 13 13.4477 13 14V17C13 17.5523 12.5523 18 12 18C11.4477 18 11 17.5523 11 17V14C11 13.4477 11.4477 13 12 13Z" fill="#191919"/>
</svg>
