<svg width="24" height="24" viewBox="0 0 24 24" fill="none" xmlns="http://www.w3.org/2000/svg">
<path d="M11 22V9.41406L6.70703 13.707C6.31651 14.0976 5.68349 14.0976 5.29297 13.707C4.90256 13.3165 4.90248 12.6835 5.29297 12.293L10.5859 7C11.3669 6.2192 12.6331 6.2192 13.4141 7L18.707 12.293C19.0975 12.6835 19.0974 13.3165 18.707 13.707C18.3165 14.0976 17.6835 14.0976 17.293 13.707L13 9.41406V22C13 22.5522 12.5521 22.9998 12 23C11.4477 23 11 22.5523 11 22ZM21 2C21.5523 2 22 2.44772 22 3C22 3.55228 21.5523 4 21 4H3C2.44772 4 2 3.55228 2 3C2 2.44772 2.44772 2 3 2H21Z" fill="#191919"/>
</svg>
