<svg width="24" height="24" viewBox="0 0 24 24" fill="none" xmlns="http://www.w3.org/2000/svg">
<path d="M15.8638 17C16.3686 17.0001 16.8602 17.0001 17.2765 16.9661C17.7337 16.9288 18.2731 16.8406 18.816 16.564C19.5686 16.1805 20.1805 15.5686 20.564 14.816C20.8406 14.2731 20.9288 13.7337 20.9661 13.2765C21.0001 12.8602 21.0001 12.3686 21 11.8639V8.13621C21.0001 7.63147 21.0001 7.13985 20.9661 6.72355C20.9288 6.26636 20.8406 5.72689 20.564 5.18405C20.1805 4.4314 19.5686 3.81948 18.816 3.43598C18.2731 3.15939 17.7337 3.07125 17.2765 3.0339C16.8602 2.99989 16.3686 2.99994 15.8638 3.00001L8.13625 3.00001C7.63148 2.99994 7.13987 2.99988 6.72355 3.0339C6.26636 3.07125 5.72689 3.15939 5.18405 3.43598C4.4314 3.81948 3.81948 4.4314 3.43598 5.18404C3.15939 5.72689 3.07125 6.26636 3.0339 6.72355C2.99989 7.13987 2.99994 7.63145 3.00001 8.13622L3.00001 11.8638C2.99994 12.3685 2.99988 12.8601 3.0339 13.2765C3.07125 13.7337 3.15939 14.2731 3.43598 14.816C3.81948 15.5686 4.4314 16.1805 5.18405 16.564C5.72689 16.8406 6.26636 16.9288 6.72355 16.9661C7.13986 17.0001 7.63143 17.0001 8.13619 17L9.50002 17V14.792C8.58526 15.1908 7.48057 15.0161 6.73225 14.2678C5.75594 13.2914 5.75594 11.7085 6.73225 10.7322L10.2323 7.23222C11.2086 6.25591 12.7915 6.25591 13.7678 7.23222L17.2678 10.7322C18.2441 11.7085 18.2441 13.2914 17.2678 14.2678C16.5195 15.0161 15.4148 15.1908 14.5 14.792V17L15.8638 17Z" fill="#191919"/>
<path fill-rule="evenodd" clip-rule="evenodd" d="M11.2929 8.29288C11.6834 7.90236 12.3166 7.90236 12.7071 8.29288L16.2071 11.7929C16.5976 12.1834 16.5976 12.8166 16.2071 13.2071C15.8166 13.5976 15.1834 13.5976 14.7929 13.2071L13 11.4142V21C13 21.5523 12.5523 22 12 22C11.4477 22 11 21.5523 11 21V11.4142L9.20712 13.2071C8.8166 13.5976 8.18344 13.5976 7.79291 13.2071C7.40239 12.8166 7.40239 12.1834 7.79291 11.7929L11.2929 8.29288Z" fill="#191919"/>
</svg>
