<svg width="24" height="24" viewBox="0 0 24 24" fill="none" xmlns="http://www.w3.org/2000/svg">
<path d="M6 12.9995C8.20898 12.9995 9.99974 14.7906 10 16.9995C10 19.2087 8.20914 20.9995 6 20.9995C3.79086 20.9995 2 19.2087 2 16.9995C2.00026 14.7906 3.79102 12.9995 6 12.9995ZM18 12.9995C20.209 12.9995 21.9997 14.7906 22 16.9995C22 19.2087 20.2091 20.9995 18 20.9995C15.7909 20.9995 14 19.2087 14 16.9995C14.0003 14.7906 15.791 12.9995 18 12.9995ZM9.97754 7.68996C10.2557 7.54951 10.5838 7.54643 10.8643 7.68215C10.9962 7.746 11.1177 7.80564 11.2305 7.86086C11.8654 8.17165 12.2315 8.35052 12.7119 8.45363C13.2582 8.57082 14.0061 8.5925 15.4492 8.39308C15.9961 8.3175 16.5013 8.69977 16.5771 9.2466C16.6528 9.79364 16.2706 10.2988 15.7236 10.3745C14.1957 10.5857 13.1761 10.5994 12.292 10.4097C12.2423 10.399 12.193 10.3874 12.1445 10.3755C12.1456 10.4475 12.1452 10.5204 12.1426 10.5933C12.126 11.0538 12.0404 11.5089 11.8799 11.8931C13.1338 12.3233 14.0673 13.5674 13.8613 15.0112C13.6934 16.1869 13.3957 17.2213 12.9434 18.3775C12.7321 18.9174 12.123 19.1853 11.583 18.9741C11.0431 18.7628 10.777 18.1528 10.9883 17.6128C11.3945 16.5745 11.6417 15.6981 11.7822 14.7144C11.8283 14.3897 11.6163 14.0076 11.1758 13.8696L9.60645 13.3794L9.50586 13.3423C9.20374 13.2129 8.98917 12.9529 8.90723 12.6509C8.83359 12.4612 8.82819 12.0288 8.94043 11.107L9.44531 8.39894C9.50254 8.09269 9.69946 7.83047 9.97754 7.68996ZM6 14.9995C4.89559 14.9995 4.00026 15.8952 4 16.9995C4 18.1041 4.89543 18.9995 6 18.9995C7.10457 18.9995 8 18.1041 8 16.9995C7.99974 15.8952 7.10441 14.9995 6 14.9995ZM18 14.9995C16.8956 14.9995 16.0003 15.8952 16 16.9995C16 18.1041 16.8954 18.9995 18 18.9995C19.1046 18.9995 20 18.1041 20 16.9995C19.9997 15.8952 19.1044 14.9995 18 14.9995ZM7 8.51711C7.55223 8.51711 7.99992 8.96489 8 9.51711V10.9995C8 11.5518 7.55228 11.9995 7 11.9995H3.41797C2.86572 11.9995 2.41797 11.5518 2.41797 10.9995V9.51711C2.41805 8.96492 2.86577 8.51715 3.41797 8.51711H7ZM11.6943 3.13332C12.7884 2.98219 13.798 3.74624 13.9492 4.84035C14.1004 5.93438 13.3361 6.94381 12.2422 7.09523C11.1481 7.24645 10.1376 6.4823 9.98633 5.3882C9.83511 4.29403 10.6002 3.28454 11.6943 3.13332Z" fill="#191919"/>
</svg>
