<svg width="24" height="24" viewBox="0 0 24 24" fill="none" xmlns="http://www.w3.org/2000/svg">
<path d="M1.5 15C1.5 16.1972 2.20129 17.2306 3.21549 17.7119C3.7085 19.0476 4.99302 20 6.5 20C7.8962 20 9.10145 19.1825 9.66318 18H14.3368C14.8985 19.1825 16.1038 20 17.5 20C18.9284 20 20.1569 19.1444 20.701 17.9177C22.0197 17.602 23 16.4155 23 15V12.4594C23 11.0294 21.9906 9.79812 20.5883 9.51767L19.0716 9.21432C18.3794 9.07589 17.7583 8.69784 17.3173 8.14666L14.9007 5.12592C14.3314 4.41427 13.4695 4 12.5581 4H8.69857C7.64478 4 6.66826 4.5529 6.12609 5.45651L4.38587 8.35688C4.13252 8.77913 3.77913 9.13252 3.35688 9.38587L2.95651 9.62609C2.0529 10.1683 1.5 11.1448 1.5 12.1986V15ZM19 16.5C19 17.3284 18.3284 18 17.5 18C16.6716 18 16 17.3284 16 16.5C16 15.6716 16.6716 15 17.5 15C18.3284 15 19 15.6716 19 16.5ZM6.5 18C5.67157 18 5 17.3284 5 16.5C5 15.6716 5.67157 15 6.5 15C7.32843 15 8 15.6716 8 16.5C8 17.3284 7.32843 18 6.5 18ZM15.4947 10H12.5C12.2239 10 12 9.77614 12 9.5V6.4C12 6.17909 12.1791 6 12.4 6H12.5581C12.8619 6 13.1492 6.13809 13.339 6.3753L15.7556 9.39605C15.9379 9.62398 15.7866 10 15.4947 10ZM9.5 10H6.41937C6.11952 10 5.94659 9.64299 6.10086 9.38587L7.84108 6.4855C8.0218 6.1843 8.34731 6 8.69857 6H9.6C9.82091 6 10 6.17909 10 6.4V9.5C10 9.77614 9.77614 10 9.5 10Z" fill="#191919"/>
</svg>
