<svg width="24" height="24" viewBox="0 0 24 24" fill="none" xmlns="http://www.w3.org/2000/svg">
<path d="M14.5001 4.00002C14.5001 5.1046 13.6047 6.00005 12.5001 6.00005C11.3955 6.00005 10.5001 5.1046 10.5001 4.00002C10.5001 2.89544 11.3955 2 12.5001 2C13.6047 2 14.5001 2.89544 14.5001 4.00002Z" fill="#191919"/>
<path d="M12.5957 14.1098L12.6688 13.7399C12.7732 13.213 12.8972 12.5933 12.9786 12.2057C13.1594 11.3447 13.3101 10.203 13.3997 9.45236C13.5067 8.5564 13.2545 7.65841 12.5187 7.16799C12.3868 7.08008 12.1555 7.02391 11.8739 6.99676C11.8438 6.99241 11.8133 6.98939 11.7823 6.98776C11.7546 6.9863 11.7269 6.98502 11.6994 6.98393C11.5171 6.97441 11.3197 6.97543 11.1184 6.98637C11.0552 6.98981 10.9925 6.9953 10.9301 7.00273C9.2183 7.15968 8.01418 8.07889 7.24134 9.19934C6.38023 10.4478 6.04414 11.9443 5.99904 12.9657C5.97468 13.5175 6.40221 13.9845 6.95396 14.0088C7.5057 14.0332 7.97273 13.6057 7.99709 13.0539C8.02982 12.3126 8.28812 11.2042 8.88768 10.3349C9.16468 9.93333 9.5107 9.58389 9.95288 9.34038L9.50763 12.8761C9.43453 13.4608 9.65791 14.0404 10.0564 14.473V14.4677C10.0862 14.4985 10.1184 14.5278 10.1529 14.5552C12.3062 16.2704 13.7677 19.3439 14.6238 21.4339C14.8331 21.945 15.4171 22.1896 15.9282 21.9802C16.4393 21.7709 16.6839 21.1869 16.4745 20.6758C15.7607 18.933 14.5092 16.1771 12.5957 14.1098Z" fill="#191919"/>
<path d="M14.3928 9.57092C14.4353 9.2154 14.4345 8.83746 14.3767 8.46246L15.0357 9.1214C15.5983 9.68401 16.3613 10.0001 17.157 10.0001H18.0002C18.5524 10.0001 19.0002 10.4478 19.0002 11.0001C19.0002 11.5524 18.5524 12.0001 18.0002 12.0001H17.157C16.0863 12.0001 15.051 11.6567 14.1984 11.0309C14.2787 10.4935 14.345 9.97166 14.3928 9.57092Z" fill="#191919"/>
<path d="M9.56167 15.3944L9.39877 15.9646C9.20097 16.6569 8.85599 17.2983 8.38742 17.845L6.24076 20.3494C5.88134 20.7687 5.9299 21.4001 6.34923 21.7595C6.76856 22.1189 7.39987 22.0703 7.75929 21.651L9.90595 19.1466C10.4284 18.5371 10.8411 17.8434 11.1274 17.0966C10.8193 16.6966 10.4774 16.3059 10.0859 15.9144C9.97359 15.8021 9.86301 15.6927 9.75125 15.5822L9.56167 15.3944Z" fill="#191919"/>
</svg>
