<svg width="24" height="24" viewBox="0 0 24 24" fill="none" xmlns="http://www.w3.org/2000/svg">
<path d="M18 15C16.8954 15 16 15.8954 16 17C16 18.1046 16.8954 19 18 19C19.1046 19 20 18.1046 20 17C20 15.8954 19.1046 15 18 15ZM14 17C14 14.7909 15.7909 13 18 13C20.2091 13 22 14.7909 22 17C22 19.2091 20.2091 21 18 21C15.7909 21 14 19.2091 14 17Z" fill="#191919"/>
<path d="M6 15C4.89543 15 4 15.8954 4 17C4 18.1046 4.89543 19 6 19C7.10457 19 8 18.1046 8 17C8 15.8954 7.10457 15 6 15ZM2 17C2 14.7909 3.79086 13 6 13C8.20914 13 10 14.7909 10 17C10 19.2091 8.20914 21 6 21C3.79086 21 2 19.2091 2 17Z" fill="#191919"/>
<path d="M11.2929 7.79289C11.63 7.45583 12.1581 7.40353 12.5547 7.66795C12.6767 7.74931 12.7888 7.82478 12.8931 7.89496C13.4796 8.28982 13.8174 8.51728 14.2792 8.68521C14.8044 8.87617 15.5426 9 17 9C17.5523 9 18 9.44772 18 10C18 10.5523 17.5523 11 17 11C15.4574 11 14.4456 10.8738 13.5958 10.5648C13.3478 10.4746 13.118 10.3696 12.8992 10.2543C12.4585 10.8869 11.8066 11.5755 11.1508 12.0191C12.3091 13.3659 13 15.1901 13 17V17.9998C13 18.5521 12.5523 19 12 19C11.4477 19 11 18.5523 11 18V17C11 15.3048 10.1634 13.5988 8.93245 12.6558C8.26123 12.1416 8.03386 11.0519 8.75325 10.3325L11.2929 7.79289Z" fill="#191919"/>
<path d="M16 5C16 6.10457 15.1046 7 14 7C12.8954 7 12 6.10457 12 5C12 3.89543 12.8954 3 14 3C15.1046 3 16 3.89543 16 5Z" fill="#191919"/>
<path d="M7.61612 4.46966C8.10427 3.98151 8.89573 3.98151 9.38388 4.46966L10.2803 5.36611C10.7685 5.85427 10.7685 6.64572 10.2803 7.13388L7.38388 10.0303C6.89573 10.5185 6.10427 10.5185 5.61612 10.0303L4.71967 9.13388C4.23151 8.64572 4.23152 7.85426 4.71967 7.36611L7.61612 4.46966Z" fill="#191919"/>
</svg>
