<svg width="24" height="24" viewBox="0 0 24 24" fill="none" xmlns="http://www.w3.org/2000/svg">
<path fill-rule="evenodd" clip-rule="evenodd" d="M6 12.9998C8.20911 12.9998 9.99995 14.7907 10 16.9998C10 19.2089 8.20914 20.9998 6 20.9998C3.79086 20.9998 2 19.2089 2 16.9998C2.00005 14.7907 3.79089 12.9998 6 12.9998ZM6 14.9998C4.89546 14.9998 4.00005 15.8953 4 16.9998C4 18.1044 4.89543 18.9998 6 18.9998C7.10457 18.9998 8 18.1044 8 16.9998C7.99995 15.8953 7.10454 14.9998 6 14.9998Z" fill="#191919"/>
<path fill-rule="evenodd" clip-rule="evenodd" d="M18 12.9998C20.2091 12.9998 21.9999 14.7907 22 16.9998C22 19.2089 20.2091 20.9998 18 20.9998C15.7909 20.9998 14 19.2089 14 16.9998C14.0001 14.7907 15.7909 12.9998 18 12.9998ZM18 14.9998C16.8955 14.9998 16.0001 15.8953 16 16.9998C16 18.1044 16.8954 18.9998 18 18.9998C19.1046 18.9998 20 18.1044 20 16.9998C19.9999 15.8953 19.1045 14.9998 18 14.9998Z" fill="#191919"/>
<path d="M11.293 7.79277C11.63 7.45576 12.1581 7.4034 12.5547 7.66777C12.6767 7.74913 12.7893 7.82513 12.8936 7.89531C13.4797 8.28995 13.8176 8.51747 14.2793 8.68535C14.8045 8.87629 15.5427 8.9998 17 8.9998C17.5523 8.9998 17.9999 9.44756 18 9.9998C18 10.5521 17.5523 10.9998 17 10.9998C15.4574 10.9998 14.4455 10.8733 13.5957 10.5643C13.348 10.4742 13.1181 10.3698 12.8994 10.2547C12.4588 10.8872 11.8061 11.5757 11.1504 12.0193C12.3087 13.3661 13 15.1899 13 16.9998V17.9998C13 18.552 12.5523 18.9998 12 18.9998C11.4477 18.9998 11 18.5521 11 17.9998V16.9998C11 15.3047 10.1634 13.599 8.93262 12.656C8.26151 12.142 8.03396 11.0522 8.75293 10.3328L11.293 7.79277Z" fill="#191919"/>
<path d="M7.61621 4.46953C8.10435 3.98146 8.89565 3.98146 9.38379 4.46953L10.2803 5.36601C10.7684 5.85414 10.7684 6.64543 10.2803 7.13359L7.38379 10.0301C6.89564 10.5182 6.10437 10.5182 5.61621 10.0301L4.71973 9.13359C4.23164 8.64543 4.23159 7.85414 4.71973 7.36601L7.61621 4.46953Z" fill="#191919"/>
<path d="M19.7568 2.75175C19.9131 2.54798 20.2384 2.68394 20.2031 2.93828L19.917 4.9998H21.9932C22.2004 4.9998 22.3175 5.23768 22.1914 5.40214L19.2432 9.24785C19.0869 9.45162 18.7616 9.31565 18.7969 9.06132L19.083 6.9998H17.0068C16.7996 6.9998 16.6825 6.76192 16.8086 6.59746L19.7568 2.75175Z" fill="#191919"/>
<path d="M14 2.9998C15.1045 2.9998 15.9999 3.89527 16 4.9998C16 6.10437 15.1046 6.9998 14 6.9998C12.8954 6.9998 12 6.10437 12 4.9998C12.0001 3.89527 12.8955 2.9998 14 2.9998Z" fill="#191919"/>
</svg>
