<svg width="24" height="24" viewBox="0 0 24 24" fill="none" xmlns="http://www.w3.org/2000/svg">
<path fill-rule="evenodd" clip-rule="evenodd" d="M11.2695 6.06934C12.3039 6.06936 13.2653 6.60237 13.8135 7.47949L15.8896 10.8018L18.3477 11.1768C19.0948 11.2909 19.695 11.8119 19.9336 12.498C21.1656 13.1798 22 14.4923 22 16C22 18.2091 20.2091 20 18 20C16.5196 20 15.2278 19.1954 14.5361 18H8.46387C7.77219 19.1954 6.48038 20 5 20C2.79086 20 1 18.2091 1 16C1 13.7909 2.79086 12 5 12C5.08594 12 5.17126 12.0025 5.25586 12.0078L4.62598 11H4C3.44772 11 3 10.5523 3 10C3 9.44772 3.44772 9 4 9H7C7.55228 9 8 9.44772 8 10C8 10.5523 7.55228 11 7 11H6.9834L9.7168 15.373L10.3428 11.9219C10.5363 10.8571 11.5423 10.1387 12.6123 10.3018L13.2822 10.4033L12.1172 8.53906C11.9344 8.24681 11.6142 8.06838 11.2695 8.06836H10C9.44793 8.0681 9 7.62049 9 7.06836C9.00021 6.51637 9.44801 6.06953 10 6.06934H11.2695ZM5 14C3.89543 14 3 14.8954 3 16C3 17.1046 3.89543 18 5 18C6.10457 18 7 17.1046 7 16C7 14.8954 6.10457 14 5 14ZM18 14C16.8954 14 16 14.8954 16 16C16 17.1046 16.8954 18 18 18C19.1046 18 20 17.1046 20 16C20 14.8954 19.1046 14 18 14Z" fill="#191919"/>
</svg>
