<svg width="24" height="24" viewBox="0 0 24 24" fill="none" xmlns="http://www.w3.org/2000/svg">
<path d="M10.5668 9.0987C10.9133 8.93218 11.3245 8.97899 11.6247 9.21913L14.1247 11.2191C14.3619 11.4089 14.5 11.6962 14.5 12C14.5 12.3038 14.3619 12.5911 14.1247 12.7809L11.6247 14.7809C11.3245 15.021 10.9133 15.0678 10.5668 14.9013C10.2203 14.7348 10 14.3844 10 14V10C10 9.61559 10.2203 9.26522 10.5668 9.0987Z" fill="#191919"/>
<path d="M8.11013 4H15.8899C16.858 3.99998 17.6568 3.99997 18.303 4.06312C18.9757 4.12888 19.5884 4.27056 20.1433 4.62269C20.6405 4.93819 21.0618 5.35955 21.3773 5.85669C21.7294 6.41155 21.8711 7.02427 21.9369 7.69705C22 8.34317 22 9.14201 22 10.1101V13.8899C22 14.858 22 15.6568 21.9369 16.303C21.8711 16.9757 21.7294 17.5884 21.3773 18.1433C21.0618 18.6405 20.6405 19.0618 20.1433 19.3773C19.5884 19.7294 18.9757 19.8711 18.303 19.9369C17.6568 20 16.858 20 15.8899 20H8.11011C7.14201 20 6.34317 20 5.69705 19.9369C5.02427 19.8711 4.41156 19.7294 3.85669 19.3773C3.35955 19.0618 2.93819 18.6405 2.62269 18.1433C2.27056 17.5884 2.12888 16.9757 2.06312 16.303C1.99997 15.6568 1.99998 14.858 2 13.8899V10.1101C1.99998 9.14202 1.99997 8.34317 2.06312 7.69705C2.12888 7.02427 2.27056 6.41155 2.62269 5.85669C2.93819 5.35955 3.35955 4.93819 3.85669 4.62269C4.41156 4.27056 5.02427 4.12888 5.69705 4.06312C6.34317 3.99997 7.14202 3.99998 8.11013 4ZM5.89161 6.05363C5.36989 6.10463 5.10939 6.19645 4.92835 6.31134C4.67978 6.46909 4.46909 6.67977 4.31135 6.92835C4.19646 7.10938 4.10463 7.36988 4.05364 7.89161C4.00112 8.42892 4 9.12953 4 10.16V13.84C4 14.8705 4.00112 15.5711 4.05364 16.1084C4.10463 16.6301 4.19646 16.8906 4.31135 17.0717C4.46909 17.3202 4.67978 17.5309 4.92835 17.6887C5.10939 17.8035 5.36989 17.8954 5.89161 17.9464C6.42892 17.9989 7.12953 18 8.16 18H15.84C16.8705 18 17.5711 17.9989 18.1084 17.9464C18.6301 17.8954 18.8906 17.8035 19.0717 17.6887C19.3202 17.5309 19.5309 17.3202 19.6887 17.0717C19.8035 16.8906 19.8954 16.6301 19.9464 16.1084C19.9989 15.5711 20 14.8705 20 13.84V10.16C20 9.12953 19.9989 8.42892 19.9464 7.89161C19.8954 7.36988 19.8035 7.10938 19.6887 6.92835C19.5309 6.67977 19.3202 6.46909 19.0717 6.31134C18.8906 6.19645 18.6301 6.10463 18.1084 6.05363C17.5711 6.00111 16.8705 6 15.84 6H8.16C7.12953 6 6.42892 6.00111 5.89161 6.05363Z" fill="#191919"/>
</svg>
