<svg width="24" height="24" viewBox="0 0 24 24" fill="none" xmlns="http://www.w3.org/2000/svg">
<path d="M7 21V17H3C2.44772 17 2 16.5523 2 16C2 15.4477 2.44772 15 3 15H7C8.10457 15 9 15.8954 9 17V21C9 21.5523 8.55228 22 8 22C7.44772 22 7 21.5523 7 21ZM15 21V17C15 15.8954 15.8954 15 17 15H21C21.5523 15 22 15.4477 22 16C22 16.5523 21.5523 17 21 17H17V21C17 21.5523 16.5523 22 16 22C15.4477 22 15 21.5523 15 21ZM7 7V3C7 2.44772 7.44772 2 8 2C8.55228 2 9 2.44772 9 3V7C9 8.10457 8.10457 9 7 9H3C2.44772 9 2 8.55228 2 8C2 7.44772 2.44772 7 3 7H7ZM15 7V3C15 2.44772 15.4477 2 16 2C16.5523 2 17 2.44772 17 3V7H21C21.5523 7 22 7.44772 22 8C22 8.55228 21.5523 9 21 9H17C15.8954 9 15 8.10457 15 7Z" fill="#191919"/>
</svg>
