<svg width="24" height="24" viewBox="0 0 24 24" fill="none" xmlns="http://www.w3.org/2000/svg">
<path d="M2 18V16C2 15.4477 2.44772 15 3 15C3.55228 15 4 15.4477 4 16V18C4 19.1046 4.89543 20 6 20H8C8.55228 20 9 20.4477 9 21C9 21.5523 8.55228 22 8 22H6C3.79086 22 2 20.2091 2 18ZM20 18V16C20 15.4477 20.4477 15 21 15C21.5523 15 22 15.4477 22 16V18C22 20.2091 20.2091 22 18 22H16C15.4477 22 15 21.5523 15 21C15 20.4477 15.4477 20 16 20H18C19.1046 20 20 19.1046 20 18ZM2 8V6C2.00011 3.79095 3.79093 2 6 2H8C8.55222 2 8.99989 2.4478 9 3C9 3.55228 8.55228 4 8 4H6C4.8955 4 4.00011 4.89552 4 6V8C4 8.55228 3.55228 9 3 9C2.44772 9 2 8.55228 2 8ZM20 8V6C20 4.89543 19.1046 4 18 4H16C15.4477 4 15 3.55228 15 3C15 2.44772 15.4477 2 16 2H18C20.2091 2 22 3.79086 22 6V8C22 8.55228 21.5523 9 21 9C20.4477 9 20 8.55228 20 8Z" fill="#191919"/>
</svg>
