<svg width="24" height="24" viewBox="0 0 24 24" fill="none" xmlns="http://www.w3.org/2000/svg">
<path d="M15 5.13505C15 3.43938 13.0223 2.51306 11.7196 3.59861L7.63795 7.00001H6C4.34315 7.00001 3 8.34315 3 10V14C3 15.6569 4.34315 17 6 17H7.63795L11.7196 20.4014C13.0223 21.487 15 20.5606 15 18.865V5.13505ZM8.64018 8.76823L13 5.13505V18.865L8.64018 15.2318C8.46047 15.082 8.23394 15 8 15H6C5.44772 15 5 14.5523 5 14V10C5 9.44772 5.44772 9.00001 6 9.00001H8C8.23394 9.00001 8.46047 8.91799 8.64018 8.76823Z" fill="#191919"/>
<path d="M18.9497 7.05028C18.5592 6.65975 17.926 6.65975 17.5355 7.05028C17.145 7.4408 17.145 8.07397 17.5355 8.46449C17.9998 8.92878 18.3681 9.47998 18.6194 10.0866C18.8706 10.6932 19 11.3434 19 12C19 12.6566 18.8706 13.3068 18.6194 13.9134C18.3681 14.5201 17.9998 15.0713 17.5355 15.5356C17.145 15.9261 17.145 16.5592 17.5355 16.9498C17.926 17.3403 18.5592 17.3403 18.9497 16.9498C19.5997 16.2998 20.1153 15.5281 20.4671 14.6788C20.8189 13.8295 21 12.9193 21 12C21 11.0808 20.8189 10.1705 20.4671 9.32124C20.1153 8.47196 19.5997 7.70029 18.9497 7.05028Z" fill="#191919"/>
</svg>
