<svg width="24" height="24" viewBox="0 0 24 24" fill="none" xmlns="http://www.w3.org/2000/svg">
<path d="M9.71963 3.59861C11.0223 2.51306 13 3.43938 13 5.13505V18.865C13 20.5606 11.0223 21.4869 9.71963 20.4014L5.63795 17H4C2.34315 17 1 15.6569 1 14V10C1 8.34316 2.34315 7.00001 4 7.00001H5.63795L9.71963 3.59861ZM11 5.13505L6.64018 8.76823C6.46047 8.91799 6.23394 9.00001 6 9.00001H4C3.44772 9.00001 3 9.44773 3 10V14C3 14.5523 3.44772 15 4 15H6C6.23394 15 6.46047 15.082 6.64018 15.2318L11 18.865V5.13505Z" fill="#191919"/>
<path d="M15.5355 7.05026C15.926 6.65974 16.5592 6.65974 16.9497 7.05026C17.5997 7.70027 18.1153 8.47195 18.4671 9.32123C18.8189 10.1705 19 11.0807 19 12C19 12.9193 18.8189 13.8295 18.4671 14.6788C18.1153 15.5281 17.5997 16.2997 16.9497 16.9497C16.5592 17.3403 15.926 17.3403 15.5355 16.9497C15.145 16.5592 15.145 15.9261 15.5355 15.5355C15.9998 15.0712 16.3681 14.52 16.6194 13.9134C16.8706 13.3068 17 12.6566 17 12C17 11.3434 16.8706 10.6932 16.6194 10.0866C16.3681 9.47996 15.9998 8.92877 15.5355 8.46448C15.145 8.07395 15.145 7.44079 15.5355 7.05026Z" fill="#191919"/>
<path d="M19.7782 4.22184C19.3876 3.83131 18.7545 3.83131 18.3639 4.22184C17.9734 4.61236 17.9734 5.24552 18.3639 5.63605C19.1997 6.47178 19.8626 7.46393 20.3149 8.55586C20.7672 9.64779 21 10.8181 21 12C21 13.1819 20.7672 14.3522 20.3149 15.4442C19.8626 16.5361 19.1997 17.5282 18.3639 18.364C17.9734 18.7545 17.9734 19.3876 18.3639 19.7782C18.7545 20.1687 19.3876 20.1687 19.7782 19.7782C20.7996 18.7567 21.6098 17.5441 22.1627 16.2095C22.7155 14.8749 23 13.4445 23 12C23 10.5555 22.7155 9.12507 22.1627 7.79049C21.6098 6.45591 20.7996 5.24328 19.7782 4.22184Z" fill="#191919"/>
</svg>
