<svg width="24" height="24" viewBox="0 0 24 24" fill="none" xmlns="http://www.w3.org/2000/svg">
<path d="M13 5.13505C13 3.43938 11.0223 2.51306 9.71963 3.59861L5.63795 7.00001H4C2.34315 7.00001 1 8.34315 1 10V14C1 15.6569 2.34315 17 4 17H5.63795L9.71963 20.4014C11.0223 21.487 13 20.5606 13 18.865V5.13505ZM6.64018 8.76823L11 5.13505V18.865L6.64018 15.2318C6.46047 15.082 6.23394 15 6 15H4C3.44772 15 3 14.5523 3 14V10C3 9.44772 3.44772 9.00001 4 9.00001H6C6.23394 9.00001 6.46047 8.91799 6.64018 8.76823Z" fill="#191919"/>
<path d="M16.7118 8.79524C16.3213 8.40472 15.6881 8.40472 15.2976 8.79524C14.9071 9.18577 14.9071 9.81893 15.2976 10.2095L17.0881 12L15.2976 13.7905C14.9071 14.1811 14.9071 14.8142 15.2976 15.2048C15.6881 15.5953 16.3213 15.5953 16.7118 15.2048L18.5023 13.4142L20.2929 15.2048C20.6834 15.5953 21.3166 15.5953 21.7071 15.2048C22.0976 14.8142 22.0976 14.1811 21.7071 13.7905L19.9166 12L21.7071 10.2095C22.0976 9.81893 22.0976 9.18577 21.7071 8.79524C21.3166 8.40472 20.6834 8.40472 20.2929 8.79524L18.5023 10.5858L16.7118 8.79524Z" fill="#191919"/>
</svg>
