<svg width="24" height="24" viewBox="0 0 24 24" fill="none" xmlns="http://www.w3.org/2000/svg">
<path d="M11.9992 15.5047C12.8276 15.5047 13.4992 16.1763 13.4992 17.0047C13.4991 17.8331 12.8275 18.5047 11.9992 18.5047C11.171 18.5046 10.4993 17.833 10.4992 17.0047C10.4992 16.1764 11.1709 15.5049 11.9992 15.5047Z" fill="#191919"/>
<path d="M11.9992 8.00475C12.5515 8.00475 12.9992 8.45246 12.9992 9.00475V13.0047C12.9991 13.5569 12.5514 14.0047 11.9992 14.0047C11.4471 14.0046 10.9993 13.5568 10.9992 13.0047V9.00475C10.9992 8.45255 11.447 8.00489 11.9992 8.00475Z" fill="#191919"/>
<path fill-rule="evenodd" clip-rule="evenodd" d="M10.2472 2.11608C11.0071 0.734662 12.9913 0.734667 13.7511 2.11608L23.0607 19.0409C23.7935 20.3737 22.8289 22.0047 21.3078 22.0047H2.6906C1.16956 22.0047 0.204953 20.3737 0.93767 19.0409L10.2472 2.11608ZM2.6906 20.0047H21.3078L11.9992 3.07994L2.6906 20.0047Z" fill="#191919"/>
</svg>
