<svg width="24" height="24" viewBox="0 0 24 24" fill="none" xmlns="http://www.w3.org/2000/svg">
<path d="M7 2C6.44772 2 6 2.44772 6 3V8.33682C4.81753 8.89855 4 10.1038 4 11.5V21C4 21.5523 4.44772 22 5 22H10C10.5523 22 11 21.5523 11 21V11.5C11 10.1038 10.1825 8.89855 9 8.33682V3C9 2.44772 8.55228 2 8 2H7Z" fill="#191919"/>
<path fill-rule="evenodd" clip-rule="evenodd" d="M15 17.5163C13.8479 16.375 13 13.3657 13 10.125C13 7.125 13.75 6.37502 14.5 6.00006L17.5 6.00002C18.25 6.37502 19 7.125 19 10.125C19 13.3657 18.1521 16.375 17 17.5163V20H18C18.5523 20 19 20.4477 19 21C19 21.5523 18.5523 22 18 22H14C13.4477 22 13 21.5523 13 21C13 20.4477 13.4477 20 14 20H15V17.5163ZM17.5 10.125C17.5 8.72057 17.3197 8.03247 17.1693 7.70673C17.1267 7.61451 17.0868 7.54923 17.0459 7.5H14.9541C14.9132 7.54922 14.8732 7.61451 14.8307 7.70673C14.6803 8.03246 14.5 8.72057 14.5 10.125C14.5 10.4444 14.5089 10.76 14.526 11.0703C14.7487 10.9587 14.9993 10.875 15.25 10.875C15.625 10.875 15.8125 11.0625 16 11.25C16.1875 11.4375 16.375 11.625 16.75 11.625C16.9915 11.625 17.233 11.5473 17.4495 11.4418C17.4824 11.0134 17.5 10.5728 17.5 10.125Z" fill="#191919"/>
</svg>
