<svg width="24" height="24" viewBox="0 0 24 24" fill="none" xmlns="http://www.w3.org/2000/svg">
<path d="M16.1182 4.88221C16.3903 4.61002 16.2657 4.14538 15.894 4.04578L13.933 3.52034C13.2428 3.33541 12.5064 3.53273 12.0012 4.03798L9.03798 7.00118C8.53273 7.50643 8.33541 8.24285 8.52034 8.93303L9.30078 11.8457C9.34702 12.0182 9.29769 12.2023 9.17137 12.3287L4.51777 16.9823C4.18625 17.3138 4 17.7634 4 18.2323C4 19.2086 4.79146 20 5.76777 20C6.23661 20 6.68625 19.8138 7.01777 19.4823L11.6714 14.8286C11.7977 14.7023 11.9818 14.653 12.1544 14.6992L15.067 15.4797C15.7572 15.6646 16.4936 15.4673 16.9988 14.962L19.962 11.9988C20.4673 11.4936 20.6646 10.7572 20.4797 10.067L19.9544 8.10666C19.8548 7.73483 19.3899 7.61034 19.1178 7.8826L15.6883 11.3136C15.5699 11.432 15.4002 11.4833 15.2362 11.4504L13.3255 11.0666C13.1278 11.0269 12.9732 10.8722 12.9337 10.6745L12.5515 8.7655C12.5187 8.60159 12.5699 8.43211 12.6881 8.31388L16.1182 4.88221Z" fill="#191919"/>
</svg>
