<svg width="24" height="24" viewBox="0 0 24 24" fill="none" xmlns="http://www.w3.org/2000/svg">
<path d="M17.0001 10C17.0001 6.13401 13.8661 3 10.0001 3C6.13407 3 3.00006 6.13401 3.00006 10C3.00006 13.866 6.13407 17 10.0001 17C13.8661 17 17.0001 13.866 17.0001 10ZM13.0049 8.99512C13.5572 8.99512 14.0049 9.44283 14.0049 9.99512C14.0049 10.5473 13.5572 10.9951 13.0049 10.9951H7.00494C6.45275 10.9951 6.00501 10.5473 6.00494 9.99512C6.00494 9.44287 6.45272 8.99518 7.00494 8.99512H13.0049ZM19.0001 10C19.0001 12.125 18.2619 14.0766 17.0303 15.6162L22.7071 21.293C23.0976 21.6835 23.0976 22.3165 22.7071 22.707C22.3166 23.0975 21.6836 23.0975 21.293 22.707L15.6163 17.0303C14.0766 18.2619 12.125 19 10.0001 19C5.0295 19 1.00006 14.9706 1.00006 10C1.00006 5.02944 5.0295 1 10.0001 1C14.9706 1 19.0001 5.02944 19.0001 10Z" fill="#191919"/>
</svg>
