<svg width="24" height="24" viewBox="0 0 24 24" fill="none" xmlns="http://www.w3.org/2000/svg">
<path fill-rule="evenodd" clip-rule="evenodd" d="M17 10.5C17 11.9341 16.5356 13.2597 15.7489 14.3347L19.7071 18.2929C20.0976 18.6834 20.0976 19.3166 19.7071 19.7071C19.3166 20.0976 18.6834 20.0976 18.2929 19.7071L14.3347 15.7489C13.2597 16.5356 11.9341 17 10.5 17C6.91015 17 4 14.0899 4 10.5C4 6.91015 6.91015 4 10.5 4C14.0899 4 17 6.91015 17 10.5ZM8 9.5C7.44772 9.5 7 9.94772 7 10.5C7 11.0523 7.44772 11.5 8 11.5H13C13.5523 11.5 14 11.0523 14 10.5C14 9.94772 13.5523 9.5 13 9.5H8Z" fill="#191919"/>
</svg>
