<svg width="28" height="28" viewBox="0 0 28 28" fill="none" xmlns="http://www.w3.org/2000/svg">
<path d="M15.7625 5.29314C15.1086 4.05968 13.8306 3.30177 12.4485 3.30177H1.91222C1.71902 3.30177 1.55556 3.46524 1.55556 3.67329C1.55556 3.76246 1.60014 3.85162 1.65958 3.92593L3.94815 6.22938C4.1562 6.43744 4.42369 6.55632 4.70605 6.54146H12.1216C12.6566 6.54146 13.0876 6.95757 13.0876 7.49257C13.0876 8.02756 12.6715 8.45853 12.1365 8.45853H7.0392C6.84601 8.45853 6.68254 8.622 6.68254 8.83006C6.68254 8.91922 6.72712 9.00839 6.78657 9.0827L9.07513 11.3862C9.28318 11.5942 9.55068 11.6982 9.8479 11.6982H12.1662C15.1681 11.6982 17.4418 8.48825 15.7625 5.29314Z" fill="white"/>
<path fill-rule="evenodd" clip-rule="evenodd" d="M25.6667 16.6929C25.6667 19.795 24.0521 26.2418 21.5506 26.2418C19.6633 26.2418 19.2843 24.0669 19.1868 21.2961C18.241 23.4227 17.7403 24.5267 17.1153 25.6322C16.82 26.1543 16.4651 26.2619 16.0776 26.2619C15.7362 26.2619 14.8559 26.1444 14.6509 26.0132C14.4458 25.8823 14.3331 25.7638 14.2327 25.263C13.7678 22.9454 14.0685 19.9481 14.5305 17.5588C14.6112 17.1413 14.7152 16.9396 14.995 16.7506C15.2935 16.549 15.9551 16.5348 16.3859 16.527C16.6147 16.5229 16.7476 16.6925 16.6901 16.9799C16.2739 19.0662 15.7854 21.9246 16.166 24.8714C16.166 24.8714 17.6057 21.9315 19.0981 18.2713C19.3976 17.5366 19.4646 17.2954 19.7495 17.2303C20.1225 17.1452 20.3914 17.1448 20.7669 17.1918C21.0147 17.2229 21.1393 17.2895 21.1298 17.6433C21.1038 18.597 21.0418 19.6763 21.0418 20.7969C21.0418 22.6929 21.2392 24.8244 21.9479 24.8244C22.8996 24.8244 23.7358 20.2639 23.4404 16.3452C23.42 16.0746 23.515 15.7996 23.7956 15.7696C23.9362 15.7546 24.2208 15.7381 24.5416 15.7381C25.2724 15.7381 25.6667 15.8724 25.6667 16.6929Z" fill="white"/>
</svg>
