<svg width="16" height="16" viewBox="0 0 16 16" fill="none" xmlns="http://www.w3.org/2000/svg">
<path fill-rule="evenodd" clip-rule="evenodd" d="M16 8C16 12.4183 12.4183 16 8 16C3.58172 16 0 12.4183 0 8C0 3.58172 3.58172 0 8 0C12.4183 0 16 3.58172 16 8ZM9.5 4.5C9.5 5.32843 8.82843 6 8 6C7.17157 6 6.5 5.32843 6.5 4.5C6.5 3.67157 7.17157 3 8 3C8.82843 3 9.5 3.67157 9.5 4.5ZM8.18383 6.50203C8.12325 6.5029 8.06196 6.50335 8 6.50335C7.93829 6.50335 7.87724 6.5029 7.8169 6.50204C7.78371 6.49978 7.75066 6.4992 7.71784 6.50025C7.02575 6.48509 6.43202 6.41673 5.99872 6.34876C5.75373 6.31033 5.56166 6.27229 5.43399 6.24468C5.3702 6.23089 5.32263 6.21974 5.29273 6.21249L5.26136 6.20471L5.25766 6.20378C5.25766 6.20378 5.25766 6.20378 5 7.17001L4.74234 8.13625C4.2087 7.99395 3.89146 7.44599 4.03376 6.91235C4.17597 6.37907 4.72329 6.0619 5.25658 6.20349L5.25766 6.20378L5 7.17001C4.74234 8.13625 4.74234 8.13625 4.74234 8.13625L4.7459 8.13719L4.7513 8.13861L4.76758 8.1428C4.78083 8.14618 4.79888 8.1507 4.82153 8.15619C4.86682 8.16717 4.93058 8.18205 5.01132 8.19951C5.17272 8.23441 5.40252 8.2797 5.68878 8.3246C5.91121 8.35949 6.1687 8.3943 6.45552 8.42381L5.53648 11.7324C5.38867 12.2645 5.70022 12.8157 6.23236 12.9635C6.76449 13.1113 7.3157 12.7998 7.46352 12.2676L7.9487 10.521L8.36111 12.2341C8.49037 12.771 9.03044 13.1015 9.56739 12.9722C10.1043 12.843 10.4348 12.3029 10.3056 11.7659L9.50201 8.42812C9.80593 8.39772 10.0779 8.3612 10.3112 8.3246C10.5975 8.2797 10.8273 8.23441 10.9887 8.19951C11.0694 8.18205 11.1332 8.16717 11.1785 8.15619C11.2011 8.1507 11.2192 8.14618 11.2324 8.1428L11.2487 8.13861L11.2541 8.13719L11.2573 8.13634C11.2573 8.13634 11.2577 8.13625 11 7.17001L11.2573 8.13634C11.791 7.99404 12.1085 7.44599 11.9662 6.91235C11.824 6.37905 11.2767 6.06187 10.7433 6.20351L10.7423 6.20378L10.7386 6.20471L10.7073 6.21249C10.6774 6.21974 10.6298 6.23089 10.566 6.24468C10.4383 6.27229 10.2463 6.31033 10.0013 6.34876C9.56792 6.41674 8.97409 6.48511 8.28187 6.50026C8.24941 6.49924 8.2167 6.49981 8.18383 6.50203Z" fill="#191919"/>
</svg>
