<svg width="16" height="16" viewBox="0 0 16 16" fill="none" xmlns="http://www.w3.org/2000/svg">
<path d="M14 8C14 4.68629 11.3137 2 8 2C4.68629 2 2 4.68629 2 8C2 11.3137 4.68629 14 8 14C11.3137 14 14 11.3137 14 8ZM7 11V8.99512H5.00488C4.45269 8.99505 4.00495 8.54731 4.00488 7.99512C4.00488 7.44287 4.45265 6.99518 5.00488 6.99512H7V5C7 4.44772 7.44772 4.00001 8 4C8.55229 4 9 4.44772 9 5V6.99512H11.0049C11.5572 6.99512 12.0049 7.44283 12.0049 7.99512C12.0048 8.54735 11.5571 8.99512 11.0049 8.99512H9V11C9 11.5523 8.55229 12 8 12C7.44772 12 7 11.5523 7 11ZM16 8C16 12.4183 12.4183 16 8 16C3.58172 16 0 12.4183 0 8C0 3.58172 3.58172 0 8 0C12.4183 0 16 3.58172 16 8Z" fill="#191919"/>
</svg>
