<svg width="16" height="16" viewBox="0 0 16 16" fill="none" xmlns="http://www.w3.org/2000/svg">
<path fill-rule="evenodd" clip-rule="evenodd" d="M16 8C16 12.4183 12.4183 16 8 16C3.58172 16 0 12.4183 0 8C0 3.58172 3.58172 0 8 0C12.4183 0 16 3.58172 16 8ZM8 4.5C8.55229 4.5 9 4.94772 9 5.5V7H10.5C11.0523 7 11.5 7.44772 11.5 8C11.5 8.55229 11.0523 9 10.5 9H9V10.5C9 11.0523 8.55229 11.5 8 11.5C7.44772 11.5 7 11.0523 7 10.5V9H5.5C4.94772 9 4.5 8.55229 4.5 8C4.5 7.44772 4.94772 7 5.5 7H7V5.5C7 4.94772 7.44772 4.5 8 4.5Z" fill="#191919"/>
</svg>
