<svg width="16" height="16" viewBox="0 0 16 16" fill="none" xmlns="http://www.w3.org/2000/svg">
<path d="M3 13H5V6H3V13ZM11 10H13V6H11V10ZM15 1C15.5523 1 16 1.44772 16 2C16 2.55228 15.5523 3 15 3H1C0.447715 3 0 2.55228 0 2C0 1.44772 0.447715 1 1 1H15ZM7 13.333C7 14.2535 6.25348 15 5.33301 15H2.66699C1.74652 15 1 14.2535 1 13.333V5.66699C1 4.74652 1.74652 4 2.66699 4H5.33301C6.25348 4 7 4.74652 7 5.66699V13.333ZM15 10.333C15 11.2535 14.2535 12 13.333 12H10.667C9.74652 12 9 11.2535 9 10.333V5.66699C9 4.74652 9.74652 4 10.667 4H13.333C14.2535 4 15 4.74652 15 5.66699V10.333Z" fill="#191919"/>
</svg>
