<svg width="16" height="16" viewBox="0 0 16 16" fill="none" xmlns="http://www.w3.org/2000/svg">
<path d="M12.5 7.75C12.5 7.05964 11.9404 6.5 11.25 6.5H10V12.5H12.5V7.75ZM6.75 9C7.16421 9 7.5 9.33579 7.5 9.75C7.5 10.1642 7.16421 10.5 6.75 10.5H5.25C4.83579 10.5 4.5 10.1642 4.5 9.75C4.5 9.33579 4.83579 9 5.25 9H6.75ZM6.75 6C7.16421 6 7.5 6.33579 7.5 6.75C7.5 7.16421 7.16421 7.5 6.75 7.5H5.25C4.83579 7.5 4.5 7.16421 4.5 6.75C4.5 6.33579 4.83579 6 5.25 6H6.75ZM8.5 4.75C8.5 4.05964 7.94036 3.5 7.25 3.5H4.75C4.05964 3.5 3.5 4.05964 3.5 4.75V12.5H8.5V4.75ZM10 5H11.25C12.7688 5 14 6.23122 14 7.75V12.5H14.25C14.6642 12.5 15 12.8358 15 13.25C15 13.6642 14.6642 14 14.25 14H1.75C1.33579 14 1 13.6642 1 13.25C1 12.8358 1.33579 12.5 1.75 12.5H2V4.75C2 3.23122 3.23122 2 4.75 2H7.25C8.76878 2 10 3.23122 10 4.75V5Z" fill="#191919"/>
</svg>
