<svg width="16" height="16" viewBox="0 0 16 16" fill="none" xmlns="http://www.w3.org/2000/svg">
<path d="M13.0004 9.49691C13.0004 8.11623 11.8811 6.99696 10.5004 6.99691H3.74845L5.70743 8.95589C6.09789 9.34635 6.09774 9.97941 5.70743 10.37C5.31691 10.7605 4.6839 10.7605 4.29337 10.37L1.09806 7.17464C0.44735 6.52376 0.447238 5.46902 1.09806 4.8182L4.29337 1.62288C4.6839 1.23241 5.31693 1.23238 5.70743 1.62288C6.09789 2.0134 6.09789 2.64644 5.70743 3.03695L3.74747 4.99691H10.5004C12.9856 4.99696 15.0004 7.01166 15.0004 9.49691C15.0002 11.982 12.9855 13.9969 10.5004 13.9969H9.0004C8.44823 13.9969 8.00059 13.549 8.0004 12.9969C8.0004 12.4446 8.44812 11.9969 9.0004 11.9969H10.5004C11.881 11.9969 13.0002 10.8774 13.0004 9.49691Z" fill="#191919"/>
</svg>
