<svg width="16" height="16" viewBox="0 0 16 16" fill="none" xmlns="http://www.w3.org/2000/svg">
<path d="M7.36925 0.724658C7.76202 0.404349 8.34104 0.426917 8.70714 0.793018L10.2071 2.29302C10.4929 2.57902 10.5787 3.0093 10.4239 3.38286C10.2691 3.75632 9.90438 3.99994 9.50011 4.00005H9.00011V7.00005H12.0001V6.50005C12.0001 6.09563 12.2437 5.73103 12.6173 5.57622C12.9909 5.42151 13.4212 5.50705 13.7071 5.79302L15.2071 7.29302L15.2755 7.36919C15.5956 7.76196 15.5732 8.34105 15.2071 8.70708L13.7071 10.2071C13.4212 10.493 12.9909 10.5785 12.6173 10.4239C12.2438 10.2691 12.0002 9.90436 12.0001 9.50005V9.00005H9.00011V12H9.50011C9.90442 12.0002 10.2692 12.2437 10.4239 12.6172C10.5785 12.9908 10.4931 13.4212 10.2071 13.7071L8.70714 15.2071C8.34111 15.5731 7.76202 15.5955 7.36925 15.2754L7.29308 15.2071L5.79308 13.7071C5.50711 13.4211 5.42157 12.9909 5.57628 12.6172C5.73109 12.2436 6.09569 12 6.50011 12H7.00011V9.00005H4.00011V9.50005C4 9.90432 3.75638 10.2691 3.38292 10.4239C3.00936 10.5786 2.57908 10.4929 2.29308 10.2071L0.793079 8.70708C0.426978 8.34098 0.40441 7.76196 0.724719 7.36919L0.793079 7.29302L2.29308 5.79302C2.57908 5.50702 3.00925 5.42144 3.38292 5.57622C3.75636 5.7311 4.00011 6.09574 4.00011 6.50005V7.00005H7.00011V4.00005H6.50011C6.0958 4.00005 5.73116 3.7563 5.57628 3.38286C5.4215 3.00919 5.50708 2.57902 5.79308 2.29302L7.29308 0.793018L7.36925 0.724658Z" fill="#191919"/>
</svg>
