<svg width="16" height="16" viewBox="0 0 16 16" fill="none" xmlns="http://www.w3.org/2000/svg">
<path d="M12.0004 12.9969V8.66292C12.0002 7.7426 11.2538 6.99691 10.3334 6.99691H3.74845L5.70743 8.95589C6.09789 9.34635 6.09774 9.97941 5.70743 10.37C5.31691 10.7605 4.6839 10.7605 4.29337 10.37L1.09806 7.17464C0.44735 6.52376 0.447238 5.46902 1.09806 4.8182L4.29337 1.62288C4.6839 1.23241 5.31693 1.23238 5.70743 1.62288C6.09789 2.0134 6.09789 2.64644 5.70743 3.03695L3.74747 4.99691H10.3334C12.3583 4.99691 14.0002 6.63803 14.0004 8.66292V12.9969C14.0002 13.549 13.5525 13.9969 13.0004 13.9969C12.4482 13.9969 12.0006 13.549 12.0004 12.9969Z" fill="#191919"/>
</svg>
