<svg width="16" height="16" viewBox="0 0 16 16" fill="none" xmlns="http://www.w3.org/2000/svg">
<path d="M1 9.4969C1 7.01162 3.01472 4.9969 5.5 4.9969H12.2529L10.293 3.03694C9.90246 2.64642 9.90246 2.0134 10.293 1.62287C10.6835 1.23235 11.3165 1.23236 11.707 1.62287L14.9023 4.81819C15.5531 5.469 15.553 6.52376 14.9023 7.17463L11.707 10.3699C11.3165 10.7605 10.6835 10.7605 10.293 10.3699C9.90262 9.97941 9.9025 9.34635 10.293 8.95588L12.252 6.9969H5.5C4.11929 6.9969 3 8.11619 3 9.4969C3.00018 10.8775 4.1194 11.9969 5.5 11.9969H7C7.55228 11.9969 8 12.4446 8 12.9969C7.99982 13.549 7.55217 13.9969 7 13.9969H5.5C3.01483 13.9969 1.00018 11.982 1 9.4969Z" fill="#191919"/>
</svg>
