<svg width="16" height="16" viewBox="0 0 16 16" fill="none" xmlns="http://www.w3.org/2000/svg">
<path d="M13.9999 10V6.41406L9.70207 10.7119C9.03818 11.3758 7.96167 11.3758 7.29778 10.7119L5.49992 8.91406L1.70696 12.707C1.31643 13.0976 0.683417 13.0976 0.292893 12.707C-0.0976312 12.3165 -0.0976306 11.6835 0.292893 11.293L4.29778 7.28809L4.42668 7.1709C5.0499 6.66257 5.94995 6.66257 6.57317 7.1709L6.70207 7.28809L8.49992 9.08594L12.5859 5H8.99992C8.44764 5 7.99992 4.55228 7.99992 4C7.99992 3.44772 8.44764 3 8.99992 3H14.33L14.5009 3.00879C15.3429 3.09442 15.9999 3.80537 15.9999 4.66992V10C15.9999 10.5523 15.5522 11 14.9999 11C14.4476 11 13.9999 10.5523 13.9999 10Z" fill="#191919"/>
</svg>
