<svg width="16" height="16" viewBox="0 0 16 16" fill="none" xmlns="http://www.w3.org/2000/svg">
<path d="M2 12.9969V8.66294C2.00017 6.63805 3.64206 4.99693 5.66699 4.99693H12.2529L10.293 3.03697C9.90246 2.64645 9.90246 2.01343 10.293 1.62291C10.6835 1.23238 11.3165 1.23239 11.707 1.62291L14.9023 4.81822C15.5531 5.46903 15.553 6.52379 14.9023 7.17466L11.707 10.37C11.3165 10.7605 10.6835 10.7605 10.293 10.37C9.90262 9.97944 9.9025 9.34638 10.293 8.95591L12.252 6.99693H5.66699C4.74663 6.99693 4.00017 7.74262 4 8.66294V12.9969C3.99982 13.5491 3.55218 13.9969 3 13.9969C2.44782 13.9969 2.00018 13.5491 2 12.9969Z" fill="#191919"/>
</svg>
