<svg width="16" height="16" viewBox="0 0 16 16" fill="none" xmlns="http://www.w3.org/2000/svg">
<path fill-rule="evenodd" clip-rule="evenodd" d="M10.9999 7C12.1043 7.00013 12.9999 7.89551 12.9999 9V14C12.9999 15.1045 12.1043 15.9999 10.9999 16H4.99988C3.89531 16 2.99988 15.1046 2.99988 14V9C2.99988 7.89543 3.89531 7 4.99988 7H10.9999ZM8.99988 10C8.44759 10 7.99988 10.4477 7.99988 11C7.99988 11.5523 8.44759 12 8.99988 12H9.99988L10.1024 11.9951C10.6064 11.9437 10.9999 11.5176 10.9999 11C10.9999 10.4824 10.6064 10.0563 10.1024 10.0049L9.99988 10H8.99988Z" fill="#191919"/>
<path d="M8.16785 0C8.9034 0.000231093 9.49965 0.596474 9.49988 1.33203C9.49988 1.43118 9.56567 1.51866 9.66101 1.5459L11.1864 1.98145C12.1339 2.25218 12.8205 3.04909 12.9686 4H12.9999C13.5521 4.00013 13.9999 4.4478 13.9999 5C13.9999 5.5522 13.5521 5.99987 12.9999 6H2.99988C2.44759 6 1.99988 5.55228 1.99988 5C1.99988 4.44772 2.44759 4 2.99988 4H3.03015C3.17829 3.04906 3.86582 2.25313 4.81335 1.98242L6.33875 1.5459C6.43408 1.51866 6.49988 1.43119 6.49988 1.33203C6.50011 0.596472 7.09635 0.000227954 7.83191 0H8.16785Z" fill="#191919"/>
</svg>
