<svg width="16" height="16" viewBox="0 0 16 16" fill="none" xmlns="http://www.w3.org/2000/svg">
<path d="M10.7749 9.58896C9.74752 9.68291 8.69805 9.79251 7.88912 10.4171C7.46154 10.7472 7 11.1353 6.58736 11.5479C5.87479 12.2605 4.3558 14.0347 3.2524 15.3429C2.55626 16.1681 1.301 16.2254 0.53756 15.462C-0.225694 14.6984 -0.167731 13.4432 0.657677 12.7472C1.96236 11.6471 3.73093 10.1338 4.45162 9.41318C4.86923 8.99558 5.25851 8.53198 5.58834 8.10458C6.21142 7.29719 6.31829 6.24984 6.41061 5.2247L10.7749 9.58896Z" fill="#191919"/>
<path d="M14.684 7.69833C14.5982 7.79716 14.5097 7.89515 14.4155 7.98935C13.9921 8.41273 13.5187 8.75148 13.02 9.00595L6.99361 2.97958C7.2481 2.48103 7.58699 2.00829 8.01022 1.58505C8.10452 1.49075 8.2023 1.40149 8.30123 1.31552L14.684 7.69833Z" fill="#191919"/>
<path d="M10.0903 0.276459C11.7424 -0.29167 13.5543 0.0122566 14.771 1.22861C15.9876 2.44517 16.2912 4.2571 15.7231 5.90927L10.0903 0.276459Z" fill="#191919"/>
</svg>
