<svg width="16" height="16" viewBox="0 0 16 16" fill="none" xmlns="http://www.w3.org/2000/svg">
<path d="M10.2953 5.29297C10.6858 4.90257 11.3189 4.90249 11.7094 5.29297C12.0997 5.68346 12.0997 6.31654 11.7094 6.70703L10.4164 8L11.7094 9.29297C12.0997 9.68345 12.0997 10.3166 11.7094 10.707C11.3189 11.0975 10.6858 11.0974 10.2953 10.707L9.00234 9.41406L7.70937 10.707C7.31889 11.0975 6.68585 11.0974 6.29531 10.707C5.90479 10.3165 5.90479 9.68349 6.29531 9.29297L7.58828 8L6.29531 6.70703C5.90479 6.31651 5.90479 5.68349 6.29531 5.29297C6.68585 4.90262 7.31891 4.9025 7.70937 5.29297L9.00234 6.58594L10.2953 5.29297Z" fill="#191919"/>
<path fill-rule="evenodd" clip-rule="evenodd" d="M12.351 2C13.9388 2 15.226 3.28718 15.226 4.875V11.125C15.226 12.7128 13.9388 14 12.351 14H6.58242C5.80418 13.9999 5.05947 13.684 4.51797 13.125L0.647849 9.13086C0.0373874 8.50069 0.0373865 7.49931 0.647849 6.86914L4.51797 2.875C5.05947 2.31603 5.80418 2.00006 6.58242 2H12.351ZM6.58242 4C6.34562 4.00006 6.11926 4.09652 5.95449 4.2666L2.33633 8L5.95449 11.7334C6.11926 11.9035 6.34562 11.9999 6.58242 12H12.351C12.8342 12 13.226 11.6082 13.226 11.125V4.875C13.226 4.39175 12.8342 4 12.351 4H6.58242Z" fill="#191919"/>
</svg>
