<svg width="16" height="16" viewBox="0 0 16 16" fill="none" xmlns="http://www.w3.org/2000/svg">
<path fill-rule="evenodd" clip-rule="evenodd" d="M7.5 0C6.11929 0 5 1.11929 5 2.5V3.209C3.41983 3.71947 2.23654 5.11282 2.03157 6.8076C2.17347 7.48848 2.777 8 3.5 8H12.5C13.223 8 13.8265 7.48848 13.9684 6.8076C13.7635 5.11282 12.5802 3.71947 11 3.209V2.5C11 1.11929 9.88071 0 8.5 0H7.5ZM9 3V2.5C9 2.22386 8.77614 2 8.5 2H7.5C7.22386 2 7 2.22386 7 2.5V3H9Z" fill="#191919"/>
<path d="M9 11V10H3.5C2.9632 10 2.45463 9.87915 2 9.66319V13.5C2 14.8807 3.11929 16 4.5 16H11.5C12.8807 16 14 14.8807 14 13.5V9.66319C13.5454 9.87915 13.0368 10 12.5 10H11V11C11 11.5523 10.5523 12 10 12C9.44772 12 9 11.5523 9 11Z" fill="#191919"/>
</svg>
