<svg width="16" height="16" viewBox="0 0 16 16" fill="none" xmlns="http://www.w3.org/2000/svg">
<path fill-rule="evenodd" clip-rule="evenodd" d="M7.40088 2C6.22145 2 5.08916 2.46305 4.24769 3.28948L0.541162 6.92983C-0.0574225 7.51772 -0.0574213 8.48228 0.541162 9.07017L4.24769 12.7105C5.08916 13.537 6.22145 14 7.40088 14H12.8787C14.5355 14 15.8787 12.6569 15.8787 11V5C15.8787 3.34315 14.5355 2 12.8787 2H7.40088ZM12.409 5.46967C12.7019 5.76256 12.7019 6.23744 12.409 6.53033L10.9393 8L12.409 9.46967C12.7019 9.76256 12.7019 10.2374 12.409 10.5303C12.1161 10.8232 11.6412 10.8232 11.3483 10.5303L9.87866 9.06066L8.40899 10.5303C8.1161 10.8232 7.64123 10.8232 7.34833 10.5303C7.05544 10.2374 7.05544 9.76256 7.34833 9.46967L8.818 8L7.34833 6.53033C7.05544 6.23744 7.05544 5.76256 7.34833 5.46967C7.64123 5.17678 8.1161 5.17678 8.40899 5.46967L9.87866 6.93934L11.3483 5.46967C11.6412 5.17678 12.1161 5.17678 12.409 5.46967Z" fill="#191919"/>
</svg>
