<svg width="16" height="16" viewBox="0 0 16 16" fill="none" xmlns="http://www.w3.org/2000/svg">
<path d="M12.2515 7.29411C13.2107 6.61002 14.1552 6.03007 14.9527 5.57699C15.7464 5.12606 15.9609 4.27091 15.8405 3.61683C15.7193 2.95846 15.2013 2.21947 14.2653 2.11547L9.00896 1.53143L12.2515 7.29411Z" fill="#191919"/>
<path d="M6.90356 1.86816C6.5922 1.31479 5.9616 1.00392 5.35373 1.18736C4.36644 1.4853 3.42994 1.97275 2.70123 2.70146C1.97252 3.43016 1.48511 4.36665 1.18723 5.35395C1.00382 5.96182 1.31473 6.59238 1.8681 6.90371L8.53354 10.6538C8.85717 10.2726 9.19602 9.90123 9.54855 9.54871C9.90117 9.19609 10.2726 8.85715 10.6539 8.53345L6.90356 1.86816Z" fill="#191919"/>
<path d="M7.29417 12.2513L1.53132 9.00904L2.1153 14.2654C2.2193 15.2014 2.95833 15.7193 3.61668 15.8406C4.27076 15.961 5.12592 15.7465 5.57685 14.9528C6.02998 14.1552 6.60999 13.2106 7.29417 12.2513Z" fill="#191919"/>
</svg>
