<svg width="16" height="16" viewBox="0 0 16 16" fill="none" xmlns="http://www.w3.org/2000/svg">
<path fill-rule="evenodd" clip-rule="evenodd" d="M6 0C3.1311 0 1 2.57642 1 5.5C1 7.50159 1.97687 9.29818 3.50052 10.2657C3.52225 11.1713 4.22126 11.9092 5.11046 11.9922L5.25862 12.3083C5.28758 12.3701 5.27596 12.4433 5.2293 12.493L4.81115 12.9391C4.20456 13.5861 4.05355 14.5375 4.42998 15.3405L4.4693 15.4244C4.70371 15.9245 5.29912 16.1399 5.7992 15.9055C6.29927 15.671 6.51463 15.0756 6.28022 14.5756L6.2409 14.4917C6.21195 14.4299 6.22356 14.3567 6.27022 14.307L6.68838 13.8609C7.18039 13.3361 7.37267 12.6111 7.22688 11.9274C7.94966 11.7138 8.48059 11.0531 8.49948 10.2657C10.0231 9.29819 11 7.50159 11 5.5C11 2.57642 8.8689 0 6 0ZM12.2264 13C13.2065 12.998 14.0005 12.2028 14.0005 11.2222V11.1599C15.2318 10.2459 16.0005 8.70192 16.0005 6.99999C16.0005 4.40994 14.1666 2.07522 11.624 2.00177C12.1892 3.06209 12.5002 4.27264 12.5002 5.49999C12.5002 7.73244 11.5191 9.81211 9.87423 11.1248C9.75813 11.531 9.56571 11.9048 9.31348 12.2299C9.52469 12.5364 9.82956 12.7732 10.1868 12.8992C10.1791 13.4058 10.3582 13.9081 10.7076 14.3013C10.7266 14.3226 10.7288 14.3541 10.7129 14.3778L10.668 14.4453C10.3616 14.9048 10.4858 15.5257 10.9453 15.8321C11.4048 16.1384 12.0257 16.0142 12.3321 15.5547L12.377 15.4872C12.8906 14.7169 12.8273 13.7003 12.2264 13Z" fill="#191919"/>
</svg>
