<svg width="16" height="16" viewBox="0 0 16 16" fill="none" xmlns="http://www.w3.org/2000/svg">
<path d="M1 5.75C1 4.23122 2.23122 3 3.75 3H4.25C4.66421 3 5 3.33579 5 3.75C5 4.16421 4.66421 4.5 4.25 4.5H3.75C3.05964 4.5 2.5 5.05964 2.5 5.75V6.25C2.5 6.66421 2.16421 7 1.75 7C1.33579 7 1 6.66421 1 6.25V5.75Z" fill="#202125"/>
<path d="M11 3.75C11 3.33579 11.3358 3 11.75 3H12.25C13.7688 3 15 4.23122 15 5.75V6.25C15 6.66421 14.6642 7 14.25 7C13.8358 7 13.5 6.66421 13.5 6.25V5.75C13.5 5.05964 12.9404 4.5 12.25 4.5H11.75C11.3358 4.5 11 4.16421 11 3.75Z" fill="#202125"/>
<path d="M1.75 9C2.16421 9 2.5 9.33579 2.5 9.75V10.25C2.5 10.9404 3.05964 11.5 3.75 11.5H4.25C4.66421 11.5 5 11.8358 5 12.25C5 12.6642 4.66421 13 4.25 13H3.75C2.23122 13 1 11.7688 1 10.25V9.75C1 9.33579 1.33579 9 1.75 9Z" fill="#202125"/>
<path d="M14.25 9C14.6642 9 15 9.33579 15 9.75V10.25C15 11.7688 13.7688 13 12.25 13H11.75C11.3358 13 11 12.6642 11 12.25C11 11.8358 11.3358 11.5 11.75 11.5H12.25C12.9404 11.5 13.5 10.9404 13.5 10.25V9.75C13.5 9.33579 13.8358 9 14.25 9Z" fill="#202125"/>
<path d="M11.75 10.5C12.1642 10.5 12.5 10.1642 12.5 9.75V6.25C12.5 6.05109 12.421 5.86032 12.2803 5.71967C12.1397 5.57902 11.9489 5.5 11.75 5.5H9.25C8.83579 5.5 8.5 5.83579 8.5 6.25V9.75C8.5 10.1642 8.83579 10.5 9.25 10.5H11.75Z" fill="#202125"/>
<path d="M6 9.75C6 10.1642 6.33579 10.5 6.75 10.5C7.16421 10.5 7.5 10.1642 7.5 9.75V6.25C7.5 5.83579 7.16421 5.5 6.75 5.5C6.33579 5.5 6 5.83579 6 6.25V9.75Z" fill="#202125"/>
<path d="M3.5 9.75C3.5 10.1642 3.83579 10.5 4.25 10.5C4.66421 10.5 5 10.1642 5 9.75V6.25C5 5.83579 4.66421 5.5 4.25 5.5C3.83579 5.5 3.5 5.83579 3.5 6.25V9.75Z" fill="#202125"/>
</svg>
