<svg width="16" height="16" viewBox="0 0 16 16" fill="none" xmlns="http://www.w3.org/2000/svg">
<g clip-path="url(#clip0_23950_124)">
<path fill-rule="evenodd" clip-rule="evenodd" d="M0.300564 5.82022C1.05385 3.15418 3.15455 1.05358 5.82065 0.300442C5.93759 0.698457 6.00034 1.11967 6.00034 1.55553C6.00034 4.01013 4.01049 5.99997 1.55589 5.99997C1.11994 5.99997 0.69865 5.93721 0.300564 5.82022ZM8.00034 1.55553C8.00034 1.01997 7.93501 0.499674 7.81189 0.00216825C7.87442 0.000725386 7.93712 0 8 0C12.4183 0 16 3.58172 16 8C16 8.06299 15.9993 8.12581 15.9978 8.18845C15.5002 8.06525 14.9797 7.99988 14.444 7.99988C10.8848 7.99988 7.99951 10.8852 7.99951 14.4443C7.99951 14.9799 8.06485 15.5003 8.188 15.9978C8.12551 15.9993 8.06284 16 8 16C3.58172 16 0 12.4183 0 8C0 7.93697 0.000728867 7.87411 0.00217863 7.81144C0.499791 7.93461 1.02021 7.99997 1.55589 7.99997C5.11506 7.99997 8.00034 5.1147 8.00034 1.55553ZM15.6995 10.1797C14.9462 12.8458 12.8454 14.9465 10.1793 15.6996C10.0623 15.3015 9.99951 14.8802 9.99951 14.4443C9.99951 11.9897 11.9894 9.99988 14.444 9.99988C14.88 9.99988 15.3013 10.0627 15.6995 10.1797Z" fill="#191919"/>
</g>
<defs>
<clipPath id="clip0_23950_124">
<rect width="16" height="16" fill="white"/>
</clipPath>
</defs>
</svg>
