<svg width="16" height="16" viewBox="0 0 16 16" fill="none" xmlns="http://www.w3.org/2000/svg">
<g clip-path="url(#clip0_33666_65)">
<path d="M12.9033 14.3174C11.7647 15.2024 10.3824 15.7874 8.87207 15.9512C8.79275 15.5631 8.75 15.1615 8.75 14.75C8.75 13.4542 9.16194 12.2552 9.86035 11.2744L12.9033 14.3174Z" fill="#191919"/>
<path d="M8.43164 9.8457C7.37863 11.2004 6.75 12.9013 6.75 14.75C6.75 15.1458 6.77891 15.5348 6.83496 15.915C3.3486 15.4063 0.591817 12.6497 0.0839844 9.16309C0.464594 9.21943 0.853752 9.25 1.25 9.25C3.0986 9.25 4.79868 8.62033 6.15332 7.56738L8.43164 9.8457Z" fill="#191919"/>
<path d="M14.75 8.75C15.1615 8.75 15.5631 8.79275 15.9512 8.87207C15.7874 10.3824 15.2024 11.7647 14.3174 12.9033L11.2744 9.86035C12.2552 9.16194 13.4542 8.75 14.75 8.75Z" fill="#191919"/>
<path d="M9.16309 0.0839844C12.6497 0.591817 15.4063 3.3486 15.915 6.83496C15.5348 6.77891 15.1458 6.75 14.75 6.75C12.9013 6.75 11.2004 7.37863 9.8457 8.43164L7.56738 6.15332C8.62033 4.79868 9.25 3.0986 9.25 1.25C9.25 0.853752 9.21943 0.464594 9.16309 0.0839844Z" fill="#191919"/>
<path d="M4.72461 6.13867C3.74385 6.837 2.5457 7.25 1.25 7.25C0.838033 7.25 0.436261 7.20657 0.0478516 7.12695C0.211756 5.61693 0.796693 4.23416 1.68164 3.0957L4.72461 6.13867Z" fill="#191919"/>
<path d="M7.12695 0.0478516C7.20657 0.436261 7.25 0.838033 7.25 1.25C7.25 2.5457 6.837 3.74385 6.13867 4.72461L3.0957 1.68164C4.23416 0.796693 5.61693 0.211756 7.12695 0.0478516Z" fill="#191919"/>
</g>
<defs>
<clipPath id="clip0_33666_65">
<rect width="16" height="16" fill="white"/>
</clipPath>
</defs>
</svg>
