<svg width="16" height="16" viewBox="0 0 16 16" fill="none" xmlns="http://www.w3.org/2000/svg">
<path fill-rule="evenodd" clip-rule="evenodd" d="M14.1797 0.552938C14.6198 0.404148 15.1045 0.578203 15.3496 0.972859C15.5945 1.36749 15.5354 1.87879 15.207 2.20723L10.7607 6.65352L13.9336 9.82735C14.1781 10.0719 14.2789 10.4262 14.2002 10.7629C14.1213 11.0994 13.8742 11.3709 13.5468 11.4816L1.82029 15.4475C1.38019 15.5963 0.895469 15.4222 0.650364 15.0275C0.405411 14.6329 0.464487 14.1216 0.792942 13.7932L5.23825 9.34591L2.06638 6.17305C1.82186 5.92853 1.72106 5.57424 1.79978 5.23751C1.87864 4.90103 2.12569 4.62947 2.4531 4.51876L14.1797 0.552938ZM4.61911 5.89669L8.06833 9.34591L5.23239 12.1818L11.3799 10.1027L7.93161 6.6545L10.7666 3.81759L4.61911 5.89669Z" fill="#191919"/>
</svg>
