<svg width="16" height="16" viewBox="0 0 16 16" fill="none" xmlns="http://www.w3.org/2000/svg">
<path d="M5.75 4C5.33579 4 5 4.33579 5 4.75C5 5.16421 5.33579 5.5 5.75 5.5H10.25C10.6642 5.5 11 5.16421 11 4.75C11 4.33579 10.6642 4 10.25 4H5.75Z" fill="#202125"/>
<path d="M5.75 7C5.33579 7 5 7.33579 5 7.75C5 8.16421 5.33579 8.5 5.75 8.5H8.25C8.66421 8.5 9 8.16421 9 7.75C9 7.33579 8.66421 7 8.25 7H5.75Z" fill="#202125"/>
<path d="M2 2.75V12.75C2 13.9926 3.00736 15 4.25 15H11.25C12.7688 15 14 13.7688 14 12.25V3.75C14 2.23122 12.7688 1 11.25 1H3.75C2.7835 1 2 1.7835 2 2.75ZM3.75 2.5H11.25C11.9404 2.5 12.5 3.05964 12.5 3.75V9.25C12.5 9.94036 11.9404 10.5 11.25 10.5H4.25C3.98702 10.5 3.73458 10.5451 3.5 10.628V2.75C3.5 2.61193 3.61193 2.5 3.75 2.5ZM12.5 11.7001V12.25C12.5 12.9404 11.9404 13.5 11.25 13.5H4.25C3.83579 13.5 3.5 13.1642 3.5 12.75C3.5 12.3358 3.83579 12 4.25 12H11.25C11.7001 12 12.125 11.8919 12.5 11.7001Z" fill="#202125"/>
</svg>
