<svg width="16" height="16" viewBox="0 0 16 16" fill="none" xmlns="http://www.w3.org/2000/svg">
<path d="M12.1981 2.12758C10.9953 0.931832 9.00735 1.09931 8.02154 2.47944C7.65273 2.99578 7.29578 3.77616 6.66044 4.00719L2.72747 5.43737C1.75341 5.79157 1.47698 7.03759 2.20987 7.77048L4.68934 10.2499L1.21967 13.7196C0.926777 14.0125 0.926777 14.4874 1.21967 14.7803C1.51256 15.0732 1.98744 15.0732 2.28033 14.7803L5.75 11.3106L8.22947 13.7901C8.96236 14.523 10.2084 14.2465 10.5626 13.2725L11.9948 9.3338C12.2269 8.69559 13.0139 8.33126 13.5308 7.95766C14.9058 6.96399 15.0619 4.97455 13.8588 3.77852L12.1981 2.12758Z" fill="#191919"/>
</svg>
