<svg width="16" height="16" viewBox="0 0 16 16" fill="none" xmlns="http://www.w3.org/2000/svg">
<path d="M11.1406 3.19136C10.5938 2.64784 9.69023 2.72397 9.24214 3.3513L8.47103 4.43086C8.14796 4.88315 7.69542 5.22693 7.17305 5.41688L3.36305 6.80234L9.19761 12.6369L10.5851 8.82119C10.7733 8.30371 11.1125 7.85463 11.5588 7.53211L12.6522 6.74192C13.2772 6.29024 13.3482 5.38595 12.8013 4.84231L11.1406 3.19136ZM8.02154 2.47944C9.00735 1.09931 10.9953 0.931832 12.1981 2.12758L13.8588 3.77852C15.0619 4.97455 14.9058 6.96399 13.5308 7.95766L12.4374 8.74786C12.2345 8.89446 12.0804 9.09859 11.9948 9.3338L10.5626 13.2725C10.2084 14.2465 8.96236 14.523 8.22947 13.7901L5.75 11.3106L2.28033 14.7803C1.98744 15.0732 1.51256 15.0732 1.21967 14.7803C0.926777 14.4874 0.926777 14.0125 1.21967 13.7196L4.68934 10.2499L2.20987 7.77048C1.47698 7.03759 1.75341 5.79157 2.72747 5.43737L6.66044 4.00719C6.89788 3.92085 7.10358 3.76459 7.25043 3.559L8.02154 2.47944Z" fill="#191919"/>
</svg>
