<svg width="16" height="16" viewBox="0 0 16 16" fill="none" xmlns="http://www.w3.org/2000/svg">
<path d="M4.75 3.5H5.5V7.25C5.5 7.51735 5.64232 7.76449 5.87355 7.89868C6.10479 8.03287 6.38998 8.03383 6.6221 7.90118L8 7.11381L9.3779 7.90118C9.61002 8.03383 9.89521 8.03287 10.1264 7.89868C10.3577 7.76449 10.5 7.51735 10.5 7.25V3.5H11.25C11.9404 3.5 12.5 4.05964 12.5 4.75V11.25C12.5 11.9404 11.9404 12.5 11.25 12.5H4.75C4.05964 12.5 3.5 11.9404 3.5 11.25V4.75C3.5 4.05964 4.05964 3.5 4.75 3.5ZM4.75 2C3.23122 2 2 3.23122 2 4.75V11.25C2 12.7688 3.23122 14 4.75 14H11.25C12.7688 14 14 12.7688 14 11.25V4.75C14 3.23122 12.7688 2 11.25 2H4.75ZM7 3.5H9V5.95762L8.3721 5.59882C8.14153 5.46706 7.85847 5.46706 7.6279 5.59882L7 5.95762V3.5ZM8 10.25C8 9.83579 8.33579 9.5 8.75 9.5H10.25C10.6642 9.5 11 9.83579 11 10.25C11 10.6642 10.6642 11 10.25 11H8.75C8.33579 11 8 10.6642 8 10.25Z" fill="#191919"/>
</svg>
