<svg width="16" height="16" viewBox="0 0 16 16" fill="none" xmlns="http://www.w3.org/2000/svg">
<path d="M11.5 2.75V4H12.25C13.7688 4 15 5.23122 15 6.75V11.25C15 12.7688 13.7688 14 12.25 14H3.75C2.23122 14 1 12.7688 1 11.25V6.75C1 5.23122 2.23122 4 3.75 4H4.5V2.75C4.5 1.7835 5.2835 1 6.25 1H9.75C10.7165 1 11.5 1.7835 11.5 2.75ZM6 2.75V4H10V2.75C10 2.61193 9.88807 2.5 9.75 2.5H6.25C6.11193 2.5 6 2.61193 6 2.75ZM2.5 6.75V7.5H13.5V6.75C13.5 6.05964 12.9404 5.5 12.25 5.5H3.75C3.05964 5.5 2.5 6.05964 2.5 6.75ZM2.5 9V11.25C2.5 11.9404 3.05964 12.5 3.75 12.5H12.25C12.9404 12.5 13.5 11.9404 13.5 11.25V9H8.75V10.25C8.75 10.6642 8.41421 11 8 11C7.58579 11 7.25 10.6642 7.25 10.25V9H2.5Z" fill="#191919"/>
</svg>
