<svg width="16" height="16" viewBox="0 0 16 16" fill="none" xmlns="http://www.w3.org/2000/svg">
<path d="M5 1C5.41421 1 5.75 1.33579 5.75 1.75V2.5H10.25V1.75C10.25 1.33579 10.5858 1 11 1C11.4142 1 11.75 1.33579 11.75 1.75V2.5H12.25C13.7688 2.5 15 3.73122 15 5.25V12.25C15 13.7688 13.7688 15 12.25 15H3.75C2.23122 15 1 13.7688 1 12.25V5.25C1 3.73122 2.23122 2.5 3.75 2.5H4.25V1.75C4.25 1.33579 4.58579 1 5 1ZM3.75 4C3.05964 4 2.5 4.55964 2.5 5.25V6H13.5V5.25C13.5 4.55964 12.9404 4 12.25 4H3.75ZM13.5 7.5H2.5V12.25C2.5 12.9404 3.05964 13.5 3.75 13.5H12.25C12.9404 13.5 13.5 12.9404 13.5 12.25V7.5Z" fill="#191919"/>
</svg>
