<svg width="16" height="16" viewBox="0 0 16 16" fill="none" xmlns="http://www.w3.org/2000/svg">
<path d="M8 5.5C6.34315 5.5 5 6.84315 5 8.5C5 10.1569 6.34315 11.5 8 11.5C9.65685 11.5 11 10.1569 11 8.5C11 6.84315 9.65685 5.5 8 5.5ZM6.5 8.5C6.5 7.67157 7.17157 7 8 7C8.82843 7 9.5 7.67157 9.5 8.5C9.5 9.32843 8.82843 10 8 10C7.17157 10 6.5 9.32843 6.5 8.5Z" fill="#191919"/>
<path d="M7.57843 2C6.84908 2 6.14961 2.28973 5.63388 2.80546L4.80546 3.63388C4.57104 3.8683 4.25309 4 3.92157 4H3.75C2.23122 4 1 5.23122 1 6.75V11.25C1 12.7688 2.23122 14 3.75 14H12.2487C13.7674 14 14.9987 12.7688 14.9987 11.25V6.75C14.9987 5.23122 13.7674 4 12.2487 4H12.0784C11.7469 4 11.429 3.8683 11.1945 3.63388L10.3661 2.80546C9.85039 2.28973 9.15092 2 8.42157 2H7.57843ZM6.69454 3.86612C6.92896 3.6317 7.24691 3.5 7.57843 3.5H8.42157C8.75309 3.5 9.07104 3.6317 9.30546 3.86612L10.1339 4.69454C10.6496 5.21027 11.3491 5.5 12.0784 5.5H12.2487C12.939 5.5 13.4987 6.05964 13.4987 6.75V11.25C13.4987 11.9404 12.939 12.5 12.2487 12.5H3.75C3.05964 12.5 2.5 11.9404 2.5 11.25V6.75C2.5 6.05964 3.05964 5.5 3.75 5.5H3.92157C4.65092 5.5 5.35039 5.21027 5.86612 4.69454L6.69454 3.86612Z" fill="#191919"/>
</svg>
