<svg width="16" height="16" viewBox="0 0 16 16" fill="none" xmlns="http://www.w3.org/2000/svg">
<path d="M7.5273 16L7.70595 12.5737C7.70855 12.5174 7.69848 12.4611 7.67647 12.4092C7.65447 12.3573 7.6211 12.3109 7.57881 12.2736C7.53653 12.2363 7.48641 12.2089 7.43214 12.1935C7.37788 12.1781 7.32085 12.1751 7.26526 12.1846L3.85484 12.7841L4.31538 11.5136C4.33407 11.4631 4.33646 11.408 4.32222 11.356C4.30798 11.304 4.27782 11.2578 4.23598 11.2238L0.5 8.19851L1.34169 7.80546C1.39853 7.7786 1.44362 7.7319 1.46847 7.67415C1.49333 7.6164 1.49624 7.55156 1.47667 7.49181L0.738213 5.22084L2.89007 5.67742C2.94837 5.68957 3.00908 5.68119 3.06191 5.6537C3.11473 5.6262 3.15642 5.58128 3.1799 5.52655L3.59677 4.54591L5.27618 6.34839C5.31458 6.38889 5.36508 6.41585 5.42009 6.42523C5.47511 6.43461 5.53169 6.4259 5.58134 6.4004C5.63099 6.3749 5.67104 6.334 5.69547 6.28382C5.71991 6.23364 5.72742 6.17689 5.71687 6.12208L4.90695 1.94541L6.20521 2.69578C6.23569 2.71365 6.26952 2.72506 6.30459 2.72932C6.33966 2.73358 6.37523 2.73059 6.40911 2.72054C6.44298 2.71049 6.47442 2.6936 6.5015 2.6709C6.52857 2.6482 6.5507 2.62018 6.5665 2.58859L7.88462 0L9.20273 2.58859C9.21853 2.62018 9.24066 2.6482 9.26773 2.6709C9.29481 2.6936 9.32625 2.71049 9.36012 2.72054C9.394 2.73059 9.42957 2.73358 9.46464 2.72932C9.49971 2.72506 9.53354 2.71365 9.56402 2.69578L10.8623 1.94541L10.0524 6.12208C10.0418 6.17689 10.0493 6.23364 10.0738 6.28382C10.0982 6.334 10.1382 6.3749 10.1879 6.4004C10.2375 6.4259 10.2941 6.43461 10.3491 6.42523C10.4042 6.41585 10.4547 6.38889 10.4931 6.34839L12.1725 4.54591L12.5893 5.52655C12.6128 5.58128 12.6545 5.6262 12.7073 5.6537C12.7601 5.68119 12.8209 5.68957 12.8792 5.67742L15.031 5.22084L14.2926 7.49181C14.273 7.55156 14.2759 7.6164 14.3008 7.67415C14.3256 7.7319 14.3707 7.7786 14.4275 7.80546L15.2692 8.19851L11.5333 11.2238C11.4914 11.2578 11.4613 11.304 11.447 11.356C11.4328 11.408 11.4352 11.4631 11.4538 11.5136L11.9144 12.7841L8.50397 12.1846C8.44838 12.1751 8.39135 12.1781 8.33709 12.1935C8.28282 12.2089 8.2327 12.2363 8.19042 12.2736C8.14813 12.3109 8.11476 12.3573 8.09276 12.4092C8.07075 12.4611 8.06068 12.5174 8.06328 12.5737L8.24194 16H7.5273Z" fill="#EF3340"/>
</svg>
