<svg width="16" height="16" viewBox="0 0 16 16" fill="none" xmlns="http://www.w3.org/2000/svg">
<path fill-rule="evenodd" clip-rule="evenodd" d="M4.5 2C4.15342 2 3.83156 2.17945 3.64935 2.47427C3.46714 2.76909 3.45058 3.13723 3.60557 3.44721L4.60557 5.44721C4.77497 5.786 5.12123 6 5.5 6H12.5C12.8788 6 13.225 5.786 13.3944 5.44721L14.3944 3.44721C14.5494 3.13723 14.5329 2.76909 14.3507 2.47427C14.1684 2.17945 13.8466 2 13.5 2H4.5ZM1 3C1.55228 3 2 3.44772 2 4V11C2 11.5523 2.44772 12 3 12H4.25H12.75H15C15.5523 12 16 12.4477 16 13C16 13.5523 15.5523 14 15 14H14.4823C14.361 14.8481 13.6316 15.5 12.75 15.5C11.8684 15.5 11.139 14.8481 11.0177 14H5.98228C5.86097 14.8481 5.13162 15.5 4.25 15.5C3.35478 15.5 2.61655 14.8278 2.51254 13.9606C1.08752 13.7277 0 12.4909 0 11V4C0 3.44772 0.447715 3 1 3ZM4.5 7C4.15342 7 3.83156 7.17945 3.64935 7.47427C3.46714 7.76909 3.45058 8.13723 3.60557 8.44721L4.60557 10.4472C4.77497 10.786 5.12123 11 5.5 11H12.5C12.8788 11 13.225 10.786 13.3944 10.4472L14.3944 8.44721C14.5494 8.13723 14.5329 7.76909 14.3507 7.47427C14.1684 7.17945 13.8466 7 13.5 7H4.5Z" fill="#191919"/>
</svg>
