<svg width="16" height="16" viewBox="0 0 16 16" fill="none" xmlns="http://www.w3.org/2000/svg">
<path d="M10.7801 7.2804C11.073 6.9875 11.073 6.51263 10.7801 6.21974C10.4872 5.92684 10.0124 5.92684 9.7195 6.21974L7.49983 8.43941L6.53016 7.46974C6.23726 7.17684 5.76239 7.17684 5.4695 7.46974C5.1766 7.76263 5.1766 8.2375 5.4695 8.5304L6.9695 10.0304C7.26239 10.3233 7.73726 10.3233 8.03016 10.0304L10.7801 7.2804Z" fill="#191919"/>
<path d="M9.94596 1.88786C8.87166 0.811794 7.128 0.811793 6.05369 1.88786L6.00645 1.93517C5.77172 2.17029 5.45306 2.30228 5.12083 2.30201L5.05397 2.30196C3.53343 2.30071 2.30047 3.53367 2.30172 5.05421L2.30177 5.12107C2.30204 5.4533 2.17005 5.77196 1.93493 6.00669L1.88762 6.05393C0.81155 7.12824 0.811549 8.87189 1.88762 9.9462L1.93493 9.99344C2.17005 10.2282 2.30204 10.5469 2.30177 10.8791L2.30172 10.946C2.30047 12.4665 3.53343 13.6995 5.05397 13.6982H5.12083C5.45306 13.6979 5.77172 13.8299 6.00645 14.065L6.05369 14.1123C7.128 15.1884 8.87165 15.1884 9.94596 14.1123L9.9932 14.065C10.2279 13.8299 10.5466 13.6979 10.8788 13.6982H10.9457C12.4662 13.6995 13.6992 12.4665 13.6979 10.946V10.8791C13.6976 10.5469 13.8296 10.2282 14.0647 9.99344L14.112 9.9462C15.1881 8.8719 15.1881 7.12824 14.112 6.05393L14.0647 6.00669C13.8296 5.77196 13.6976 5.4533 13.6979 5.12107V5.05421C13.6992 3.53367 12.4662 2.30071 10.9457 2.30196L10.8788 2.30201C10.5466 2.30228 10.2279 2.17029 9.9932 1.93517L9.94596 1.88786ZM7.11522 2.94765C7.60354 2.45853 8.39611 2.45853 8.88443 2.94765L8.93167 2.99497C9.44808 3.51222 10.1491 3.80261 10.88 3.80201L10.9469 3.80196C11.638 3.80139 12.1985 4.36182 12.1979 5.05298V5.11984C12.1973 5.85074 12.4877 6.55182 13.0049 7.06822L13.0522 7.11546C13.5413 7.60378 13.5413 8.39635 13.0522 8.88467L13.0049 8.93191C12.4877 9.44832 12.1973 10.1494 12.1979 10.8803V10.9472C12.1985 11.6383 11.638 12.1988 10.9469 12.1982H10.88C10.1491 12.1976 9.44807 12.488 8.93167 13.0052L8.88443 13.0525C8.39611 13.5416 7.60354 13.5416 7.11522 13.0525L7.06798 13.0052C6.55158 12.488 5.8505 12.1976 5.1196 12.1982H5.05274C4.36158 12.1988 3.80115 11.6383 3.80172 10.9472L3.80177 10.8803C3.80237 10.1494 3.51197 9.44831 2.99472 8.93191L2.94741 8.88467C2.45829 8.39635 2.45829 7.60378 2.94741 7.11546L2.99473 7.06822C3.51198 6.55182 3.80237 5.85074 3.80177 5.11984L3.80172 5.05298C3.80115 4.36182 4.36158 3.80139 5.05274 3.80196L5.1196 3.80201C5.8505 3.80261 6.55158 3.51221 7.06798 2.99496L7.11522 2.94765Z" fill="#191919"/>
</svg>
