<svg width="16" height="16" viewBox="0 0 16 16" fill="none" xmlns="http://www.w3.org/2000/svg">
<path d="M1 8C1 4.13401 4.13401 1 8 1C8.41421 1 8.75 1.33579 8.75 1.75C8.75 2.16421 8.41421 2.5 8 2.5C4.96243 2.5 2.5 4.96243 2.5 8C2.5 11.0376 4.96243 13.5 8 13.5C11.0376 13.5 13.5 11.0376 13.5 8C13.5 7.58579 13.8358 7.25 14.25 7.25C14.6642 7.25 15 7.58579 15 8C15 11.866 11.866 15 8 15C4.13401 15 1 11.866 1 8ZM3.77734 8C3.77734 6.10835 5.02114 4.50855 6.7334 3.9707L6.80762 3.95117C7.18 3.87438 7.55745 4.09137 7.67383 4.46191C7.79009 4.83236 7.60416 5.22506 7.25488 5.375L7.18262 5.40234C6.07777 5.7496 5.27734 6.78241 5.27734 8C5.27749 9.50332 6.49665 10.7217 8 10.7217C9.21782 10.7217 10.2506 9.92158 10.5977 8.81641C10.7218 8.42128 11.1429 8.20208 11.5381 8.32617C11.933 8.45031 12.1531 8.87063 12.0293 9.26562C11.4915 10.978 9.89176 12.2217 8 12.2217C5.66822 12.2217 3.77749 10.3317 3.77734 8Z" fill="#191919"/>
<path d="M11.2949 1.15332C11.4799 1.0122 11.7223 0.964225 11.9502 1.02734C12.2106 1.09948 12.412 1.30623 12.4776 1.56836L12.8682 3.13086L14.4317 3.52246L14.5274 3.55273C14.7436 3.63872 14.9095 3.82188 14.9727 4.0498C15.0448 4.3102 14.9714 4.58921 14.7803 4.78027L12.5733 6.9873C12.2451 7.31546 11.8 7.49996 11.336 7.5H9.56057L8.5303 8.53027C8.23741 8.82317 7.76265 8.82317 7.46975 8.53027C7.17686 8.23738 7.17686 7.76262 7.46975 7.46973L8.50003 6.43945V4.66406C8.50007 4.19999 8.68457 3.75491 9.01272 3.42676L11.2198 1.21973L11.2949 1.15332ZM10 6H11.336C11.4022 5.99996 11.4659 5.97361 11.5127 5.92676L12.7832 4.65625L12.0684 4.47754C11.8331 4.41871 11.6425 4.25065 11.5537 4.0293L11.5225 3.93164L11.3438 3.2168L10.0733 4.4873C10.0264 4.53415 10.0001 4.59781 10 4.66406V6Z" fill="#191919"/>
</svg>
