<svg width="16" height="16" viewBox="0 0 16 16" fill="none" xmlns="http://www.w3.org/2000/svg">
<path d="M5.91957 2H10.0804C10.6146 1.99999 11.0604 1.99998 11.4247 2.02974C11.8046 2.06078 12.1612 2.12789 12.4985 2.29973C13.0159 2.56338 13.4366 2.98408 13.7003 3.50153C13.8721 3.83879 13.9392 4.19544 13.9703 4.57533C14 4.93956 14 5.3854 14 5.91955V10.0805C14 10.6146 14 11.0604 13.9703 11.4247C13.9392 11.8046 13.8721 12.1612 13.7003 12.4985C13.4366 13.0159 13.0159 13.4366 12.4985 13.7003C12.1612 13.8721 11.8046 13.9392 11.4247 13.9703C11.0604 14 10.6146 14 10.0805 14H5.91955C5.3854 14 4.93956 14 4.57533 13.9703C4.19545 13.9392 3.83879 13.8721 3.50153 13.7003C2.98408 13.4366 2.56338 13.0159 2.29973 12.4985C2.12789 12.1612 2.06078 11.8046 2.02974 11.4247C1.99998 11.0604 1.99999 10.6146 2 10.0804V5.91956C1.99999 5.38541 1.99998 4.93956 2.02974 4.57533C2.06078 4.19545 2.12789 3.83879 2.29973 3.50153C2.56338 2.98408 2.98408 2.56338 3.50153 2.29973C3.83879 2.12789 4.19545 2.06078 4.57533 2.02974C4.93956 1.99998 5.38541 1.99999 5.91957 2ZM4.69748 3.52476C4.41036 3.54822 4.27307 3.5901 4.18251 3.63624C3.94731 3.75608 3.75608 3.94731 3.63624 4.18251C3.5901 4.27307 3.54822 4.41035 3.52476 4.69748C3.50058 4.99336 3.5 5.37757 3.5 5.95V10.05C3.5 10.6224 3.50058 11.0066 3.52476 11.3025C3.54822 11.5896 3.5901 11.7269 3.63624 11.8175C3.75608 12.0527 3.94731 12.2439 4.18251 12.3638C4.27307 12.4099 4.41036 12.4518 4.69748 12.4752C4.99336 12.4994 5.37757 12.5 5.95 12.5H10.05C10.6224 12.5 11.0066 12.4994 11.3025 12.4752C11.5896 12.4518 11.7269 12.4099 11.8175 12.3638C12.0527 12.2439 12.2439 12.0527 12.3638 11.8175C12.4099 11.7269 12.4518 11.5896 12.4752 11.3025C12.4994 11.0066 12.5 10.6224 12.5 10.05V5.95C12.5 5.37757 12.4994 4.99336 12.4752 4.69748C12.4518 4.41035 12.4099 4.27307 12.3638 4.18251C12.2439 3.94731 12.0527 3.75608 11.8175 3.63624C11.7269 3.5901 11.5896 3.54822 11.3025 3.52476C11.0066 3.50058 10.6224 3.5 10.05 3.5H5.95C5.37757 3.5 4.99336 3.50058 4.69748 3.52476Z" fill="#191919"/>
</svg>
