<svg width="16" height="16" viewBox="0 0 16 16" fill="none" xmlns="http://www.w3.org/2000/svg">
<path d="M11.0644 6.49388C11.3372 6.18215 11.3056 5.70833 10.9939 5.43557C10.6822 5.16281 10.2083 5.1944 9.93557 5.50612L6.96347 8.90281L6.03033 7.96967C5.73744 7.67678 5.26256 7.67678 4.96967 7.96967C4.67678 8.26257 4.67678 8.73744 4.96967 9.03033L6.46967 10.5303C6.61645 10.6771 6.8175 10.7565 7.02496 10.7496C7.23242 10.7427 7.42774 10.6501 7.56443 10.4939L11.0644 6.49388Z" fill="#191919"/>
<path d="M15 8C15 11.866 11.866 15 8 15C4.13401 15 1 11.866 1 8C1 4.13401 4.13401 1 8 1C11.866 1 15 4.13401 15 8ZM13.5 8C13.5 4.96243 11.0376 2.5 8 2.5C4.96243 2.5 2.5 4.96243 2.5 8C2.5 11.0376 4.96243 13.5 8 13.5C11.0376 13.5 13.5 11.0376 13.5 8Z" fill="#191919"/>
</svg>
