<svg width="16" height="16" viewBox="0 0 16 16" fill="none" xmlns="http://www.w3.org/2000/svg">
<path d="M10.7813 7.28033C11.0742 6.98744 11.0742 6.51256 10.7813 6.21967C10.4884 5.92678 10.0135 5.92678 9.72065 6.21967L7.50003 8.4403L6.53524 7.47553C6.24234 7.18264 5.76747 7.18264 5.47458 7.47554C5.18169 7.76844 5.18169 8.24331 5.47459 8.5362L6.9697 10.0313C7.2626 10.3242 7.73747 10.3242 8.03036 10.0313L10.7813 7.28033Z" fill="#191919"/>
<path d="M10.0804 2H5.91957C5.38542 1.99999 4.93956 1.99998 4.57533 2.02974C4.19545 2.06078 3.83879 2.12789 3.50153 2.29973C2.98408 2.56338 2.56338 2.98408 2.29973 3.50153C2.12789 3.83879 2.06078 4.19545 2.02974 4.57533C1.99998 4.93956 1.99999 5.38541 2 5.91956V10.0804C1.99999 10.6146 1.99998 11.0604 2.02974 11.4247C2.06078 11.8046 2.12789 12.1612 2.29973 12.4985C2.56338 13.0159 2.98408 13.4366 3.50153 13.7003C3.83879 13.8721 4.19545 13.9392 4.57533 13.9703C4.93955 14 5.38538 14 5.91951 14H10.0805C10.6146 14 11.0605 14 11.4247 13.9703C11.8046 13.9392 12.1612 13.8721 12.4985 13.7003C13.0159 13.4366 13.4366 13.0159 13.7003 12.4985C13.8721 12.1612 13.9392 11.8046 13.9703 11.4247C14 11.0605 14 10.6146 14 10.0805V5.91955C14 5.38542 14 4.93955 13.9703 4.57533C13.9392 4.19545 13.8721 3.83879 13.7003 3.50153C13.4366 2.98408 13.0159 2.56338 12.4985 2.29973C12.1612 2.12789 11.8046 2.06078 11.4247 2.02974C11.0604 1.99998 10.6146 1.99999 10.0804 2ZM4.18251 3.63624C4.27307 3.5901 4.41036 3.54822 4.69748 3.52476C4.99336 3.50058 5.37757 3.5 5.95 3.5H10.05C10.6224 3.5 11.0066 3.50058 11.3025 3.52476C11.5896 3.54822 11.7269 3.5901 11.8175 3.63624C12.0527 3.75608 12.2439 3.94731 12.3638 4.18251C12.4099 4.27307 12.4518 4.41036 12.4752 4.69748C12.4994 4.99336 12.5 5.37757 12.5 5.95V10.05C12.5 10.6224 12.4994 11.0066 12.4752 11.3025C12.4518 11.5896 12.4099 11.7269 12.3638 11.8175C12.2439 12.0527 12.0527 12.2439 11.8175 12.3638C11.7269 12.4099 11.5896 12.4518 11.3025 12.4752C11.0066 12.4994 10.6224 12.5 10.05 12.5H5.95C5.37757 12.5 4.99336 12.4994 4.69748 12.4752C4.41036 12.4518 4.27307 12.4099 4.18251 12.3638C3.94731 12.2439 3.75608 12.0527 3.63624 11.8175C3.5901 11.7269 3.54822 11.5896 3.52476 11.3025C3.50058 11.0066 3.5 10.6224 3.5 10.05V5.95C3.5 5.37757 3.50058 4.99336 3.52476 4.69748C3.54822 4.41036 3.5901 4.27307 3.63624 4.18251C3.75608 3.94731 3.94731 3.75608 4.18251 3.63624Z" fill="#191919"/>
</svg>
