<svg width="16" height="16" viewBox="0 0 16 16" fill="none" xmlns="http://www.w3.org/2000/svg">
<path fill-rule="evenodd" clip-rule="evenodd" d="M4.55375 1.00001C4.31551 0.999921 4.031 0.999813 3.78036 1.02029C3.48993 1.04402 3.07394 1.10491 2.63805 1.327C2.07357 1.61462 1.61462 2.07357 1.327 2.63805C1.10491 3.07394 1.04402 3.48993 1.02029 3.78036C0.999813 4.031 0.999921 4.31551 1.00001 4.55375V11.4463C0.999921 11.6845 0.999813 11.969 1.02029 12.2197C1.04402 12.5101 1.10491 12.9261 1.327 13.362C1.61463 13.9265 2.07357 14.3854 2.63805 14.673C3.07394 14.8951 3.48993 14.956 3.78036 14.9798C4.031 15.0002 4.31551 15.0001 4.55375 15H11.4463C11.6845 15.0001 11.969 15.0002 12.2197 14.9798C12.5101 14.956 12.9261 14.8951 13.362 14.673C13.9265 14.3854 14.3854 13.9265 14.673 13.362C14.8951 12.9261 14.956 12.5101 14.9798 12.2197C15.0002 11.969 15.0001 11.6845 15 11.4463V4.55375C15.0001 4.31551 15.0002 4.031 14.9798 3.78036C14.956 3.48993 14.8951 3.07394 14.673 2.63805C14.3854 2.07357 13.9265 1.61463 13.362 1.327C12.9261 1.10491 12.5101 1.04402 12.2197 1.02029C11.969 0.999813 11.6845 0.999921 11.4463 1.00001H4.55375ZM11.2071 7.20714C11.5976 6.81661 11.5976 6.18345 11.2071 5.79292C10.8166 5.4024 10.1834 5.4024 9.79289 5.79292L7 8.58582L6.20711 7.79292C5.81658 7.4024 5.18342 7.4024 4.79289 7.79292C4.40237 8.18345 4.40237 8.81661 4.79289 9.20714L6.29289 10.7071C6.68342 11.0977 7.31658 11.0977 7.70711 10.7071L11.2071 7.20714Z" fill="#191919"/>
</svg>
