<svg width="16" height="16" viewBox="0 0 16 16" fill="none" xmlns="http://www.w3.org/2000/svg">
<path fill-rule="evenodd" clip-rule="evenodd" d="M9.4233 4.47481C9.47305 4.32559 9.5 4.16594 9.5 4C9.5 3.17157 8.82843 2.5 8 2.5C7.17157 2.5 6.5 3.17157 6.5 4C6.5 4.16594 6.52695 4.32559 6.5767 4.47481C3.49743 5.11083 1.15758 7.76939 1.00764 11H1C0.447715 11 0 11.4477 0 12C0 12.5523 0.447715 13 1 13H15C15.5523 13 16 12.5523 16 12C16 11.4477 15.5523 11 15 11H14.9924C14.8424 7.76939 12.5026 5.11083 9.4233 4.47481ZM7.00005 8.33002C6.39684 8.33002 5.85686 8.59582 5.48866 9.0201C5.12668 9.43722 4.49509 9.48192 4.07797 9.11994C3.66085 8.75796 3.61616 8.12637 3.97814 7.70925C4.71004 6.86587 5.79304 6.33002 7.00005 6.33002C7.55234 6.33002 8.00005 6.77773 8.00005 7.33002C8.00005 7.8823 7.55234 8.33002 7.00005 8.33002Z" fill="#191919"/>
</svg>
