<svg width="16" height="16" viewBox="0 0 16 16" fill="none" xmlns="http://www.w3.org/2000/svg">
<path d="M12.293 2.29295C12.6835 1.90243 13.3165 1.90243 13.707 2.29295C14.0975 2.68348 14.0975 3.31649 13.707 3.70702L9.41405 7.99999L13.707 12.293C14.0975 12.6835 14.0975 13.3165 13.707 13.707C13.3165 14.0975 12.6835 14.0975 12.293 13.707L7.99999 9.41405L3.70702 13.707C3.31649 14.0975 2.68348 14.0975 2.29295 13.707C1.90243 13.3165 1.90243 12.6835 2.29295 12.293L6.58592 7.99999L2.29295 3.70702C1.90243 3.31649 1.90243 2.68348 2.29295 2.29295C2.68348 1.90243 3.31649 1.90243 3.70702 2.29295L7.99999 6.58592L12.293 2.29295Z" fill="#191919"/>
</svg>
