<svg width="16" height="16" viewBox="0 0 16 16" fill="none" xmlns="http://www.w3.org/2000/svg">
<path d="M5.5624 1C4.69227 1 3.83719 1.22708 3.08171 1.65878L0.504004 3.13176C0.0708483 3.37927 -0.113616 3.90819 0.0716664 4.37139L1.07167 6.87139C1.24738 7.31069 1.70692 7.56671 2.17294 7.48496L3.00014 7.33983V13.5C3.00014 14.3284 3.67172 15 4.50014 15H11.5001C12.3286 15 13.0001 14.3284 13.0001 13.5V7.33983L13.8273 7.48496C14.2934 7.56671 14.7529 7.31069 14.9286 6.87139L15.9286 4.37139C16.1139 3.90819 15.9294 3.37927 15.4963 3.13176L12.9186 1.65878C12.1631 1.22708 11.308 1 10.4379 1H10.4214C9.98709 1 9.60245 1.28031 9.46944 1.69373C9.3579 2.0404 8.84908 2.5 8.00014 2.5C7.1512 2.5 6.64238 2.0404 6.53085 1.69373C6.39784 1.28031 6.0132 1 5.57891 1H5.5624Z" fill="#191919"/>
</svg>
