<svg width="16" height="16" viewBox="0 0 16 16" fill="none" xmlns="http://www.w3.org/2000/svg">
<g clip-path="url(#clip0_10605_0)">
<path fill-rule="evenodd" clip-rule="evenodd" d="M1.75196 1.83635C1.94174 1.62243 2.21403 1.5 2.50001 1.5H13.5C14.8807 1.5 16 2.61929 16 4V5C16 6.38071 14.8807 7.5 13.5 7.5H11.9071C11.6555 9.4987 9.95542 11 7.93848 11H6.06153C4.03673 11 2.33127 9.48696 2.09002 7.47658L1.50713 2.61915C1.47306 2.33521 1.56217 2.05027 1.75196 1.83635ZM12.1472 5.5H13.5C13.7762 5.5 14 5.27614 14 5V4C14 3.72386 13.7762 3.5 13.5 3.5L12.3872 3.5L12.1472 5.5Z" fill="#191919"/>
<path d="M2.5 12.5C1.94772 12.5 1.5 12.9477 1.5 13.5C1.5 14.0523 1.94771 14.5 2.5 14.5H11.5C12.0523 14.5 12.5 14.0523 12.5 13.5C12.5 12.9477 12.0523 12.5 11.5 12.5H2.5Z" fill="#191919"/>
</g>
<defs>
<clipPath id="clip0_10605_0">
<rect width="16" height="16" fill="white"/>
</clipPath>
</defs>
</svg>
