<svg width="16" height="16" viewBox="0 0 16 16" fill="none" xmlns="http://www.w3.org/2000/svg">
<path d="M4.42557 5.61324C4.27247 5.58031 4.12475 5.54048 3.98161 5.49276C3.38308 5.29325 2.91131 4.97194 2.4697 4.53033C2.17681 4.23744 2.17681 3.76256 2.4697 3.46967C2.76259 3.17678 3.23747 3.17678 3.53036 3.46967C3.83875 3.77806 4.11698 3.95675 4.45595 4.06974C4.63173 4.12833 4.83465 4.17288 5.08071 4.20304L4.51999 2.70779C4.3976 2.38142 4.51619 2.01375 4.80621 1.82041L4.80828 1.81903C4.83393 1.8021 4.86013 1.786 4.88653 1.77028C4.92987 1.74446 4.98965 1.71041 5.0652 1.671C5.21618 1.59223 5.43089 1.49161 5.70378 1.39238C6.24964 1.19388 7.03105 1 8.00001 1C8.96898 1 9.75039 1.19388 10.2962 1.39238C10.5691 1.49161 10.7838 1.59223 10.9348 1.671C11.0103 1.71041 11.1135 1.77028 11.1135 1.77028L11.1938 1.82041C11.4838 2.01375 11.6024 2.38142 11.48 2.70779L10.6534 4.91219C10.6883 4.93585 10.7244 4.96069 10.7617 4.9867C11.1462 5.25463 11.6599 5.65138 12.1761 6.16759C13.1956 7.187 14.3055 8.7562 14.3055 10.7778C14.3055 11.6055 14.0987 12.3194 13.7052 12.9128C13.3145 13.5018 12.7695 13.9276 12.1598 14.232C10.9623 14.8297 9.43223 15 8.00001 15C6.56779 15 5.03769 14.8297 3.84024 14.232C3.23047 13.9276 2.68547 13.5018 2.29485 12.9128C1.90133 12.3194 1.69446 11.6055 1.69446 10.7778C1.69444 8.7562 2.80442 7.187 3.82384 6.16759C4.02739 5.96404 4.23056 5.77907 4.42557 5.61324ZM6.21639 2.80207C6.19873 2.80849 6.18145 2.8149 6.16455 2.82128L6.78365 4.47222H9.21637L9.83548 2.82128C9.81857 2.8149 9.80129 2.80849 9.78364 2.80207C9.37464 2.65334 8.76716 2.5 8.00001 2.5C7.23287 2.5 6.62539 2.65334 6.21639 2.80207ZM6.46847 5.97222C6.37652 6.02887 6.24854 6.11095 6.09595 6.2173C5.76423 6.44849 5.32315 6.78959 4.8845 7.22825C3.99419 8.11855 3.19445 9.32713 3.19446 10.7778C3.19446 11.3462 3.33303 11.7642 3.5449 12.0837C3.75967 12.4075 4.08004 12.6752 4.51013 12.8899C5.39242 13.3303 6.64008 13.5 8.00001 13.5C9.35994 13.5 10.6076 13.3303 11.4899 12.8899C11.92 12.6752 12.2403 12.4075 12.4551 12.0837C12.667 11.7642 12.8055 11.3462 12.8055 10.7778C12.8055 9.32713 12.0058 8.11855 11.1155 7.22825C10.6768 6.78959 10.2358 6.44849 9.90407 6.2173C9.75148 6.11094 9.62351 6.02887 9.53156 5.97222H6.46847Z" fill="#202125"/>
</svg>
