<svg width="16" height="16" viewBox="0 0 16 16" fill="none" xmlns="http://www.w3.org/2000/svg">
<path fill-rule="evenodd" clip-rule="evenodd" d="M14.0489 3.78946L14.4864 1.1644C14.5347 0.874446 14.453 0.577917 14.263 0.353625C14.073 0.129333 13.794 0 13.5 0H2.5C2.20605 0 1.92698 0.129333 1.73698 0.353625C1.54698 0.577917 1.46528 0.874446 1.51361 1.1644L1.95112 3.78946C1.5228 4.56449 1 5.93371 1 8C1 10.0663 1.5228 11.4355 1.95112 12.2105L1.51361 14.8356C1.46528 15.1256 1.54698 15.4221 1.73698 15.6464C1.92698 15.8707 2.20605 16 2.5 16H13.5C13.794 16 14.073 15.8707 14.263 15.6464C14.453 15.4221 14.5347 15.1256 14.4864 14.8356L14.0489 12.2105C14.4772 11.4355 15 10.0663 15 8C15 5.93371 14.4772 4.56449 14.0489 3.78946ZM12.1529 3L12.3195 2H3.68046L3.84713 3H12.1529ZM12.1529 13H3.84713L3.68046 14H12.3195L12.1529 13ZM8.647 6.05334C8.95161 6.13615 9.2014 6.30431 9.40001 6.50292C10.2 7.30293 10.2 8.6 9.40001 9.40001C8.6 10.2 7.30293 10.2 6.50292 9.40001C6.30431 9.2014 6.13615 8.95161 6.05333 8.647C5.96935 8.33806 5.9923 8.04297 6.06842 7.78848C6.20604 7.32835 6.52714 6.97296 6.75005 6.75005C6.97296 6.52714 7.32835 6.20604 7.78848 6.06842C8.04297 5.9923 8.33806 5.96935 8.647 6.05334Z" fill="#191919"/>
</svg>
