<svg width="17" height="16" viewBox="0 0 17 16" fill="none" xmlns="http://www.w3.org/2000/svg">
<path d="M6.50043 1.76342C6.04935 2.66558 6.34064 3.76245 7.17989 4.32195L7.94537 4.83227C8.4049 5.13862 9.02577 5.01445 9.33212 4.55492C9.63847 4.09539 9.5143 3.47452 9.05477 3.16817L8.28929 2.65785L8.8945 1.44743C9.14148 0.953454 8.94126 0.352781 8.44728 0.105792C7.9533 -0.141197 7.35263 0.059027 7.10564 0.553005L6.50043 1.76342Z" fill="#191919"/>
<path d="M3.44732 5.34186C2.45936 4.84788 2.05891 3.64654 2.55289 2.65858L3.10568 1.55301C3.35267 1.05903 3.95334 0.858803 4.44732 1.10579C4.9413 1.35278 5.14152 1.95345 4.89453 2.44743L4.34175 3.55301L4.55289 3.65858C5.42926 4.09676 5.84334 5.09154 5.58092 6.00024H11C11.0148 6.00024 11.0295 6.00057 11.0442 6.00122L14.6047 4.81442C15.2596 4.59611 15.9675 4.95007 16.1858 5.60499C16.4041 6.25992 16.0502 6.96782 15.3952 7.18613L11.6742 8.42645L11.3489 9.72785C11.015 11.0634 9.81506 12.0002 8.43846 12.0002H3.56156C2.18496 12.0002 0.98501 11.0634 0.651134 9.72785L0.0298666 7.24278C-0.0448188 6.94404 0.0222965 6.62755 0.211804 6.38483C0.401311 6.14212 0.692074 6.00024 1.00001 6.00024H3.38206L3.65847 5.44743L3.44732 5.34186Z" fill="#191919"/>
<path d="M2 13.0002C1.44772 13.0002 1 13.448 1 14.0002C1 14.5525 1.44772 15.0002 2 15.0002H10C10.5523 15.0002 11 14.5525 11 14.0002C11 13.448 10.5523 13.0002 10 13.0002H2Z" fill="#191919"/>
</svg>
