<svg width="16" height="16" viewBox="0 0 16 16" fill="none" xmlns="http://www.w3.org/2000/svg">
<g clip-path="url(#clip0_1470_23)">
<path d="M-6.10352e-05 12.9999V4.99988C-6.10352e-05 4.44759 0.447654 3.99988 0.999939 3.99988C1.55222 3.99988 1.99994 4.44759 1.99994 4.99988V12.9999C1.99994 13.5522 2.44765 13.9999 2.99994 13.9999H10.9999C11.5522 13.9999 11.9999 14.4476 11.9999 14.9999C11.9999 15.5522 11.5522 15.9999 10.9999 15.9999H2.99994C1.34308 15.9999 -6.10352e-05 14.6567 -6.10352e-05 12.9999ZM13.9999 2.99988C13.9999 2.44759 13.5522 1.99988 12.9999 1.99988H5.99994C5.44765 1.99988 4.99994 2.44759 4.99994 2.99988V9.99988C4.99994 10.5522 5.44765 10.9999 5.99994 10.9999H12.9999C13.5522 10.9999 13.9999 10.5522 13.9999 9.99988V2.99988ZM15.9999 9.99988C15.9999 11.6567 14.6568 12.9999 12.9999 12.9999H5.99994C4.34308 12.9999 2.99994 11.6567 2.99994 9.99988V2.99988C2.99994 1.34302 4.34308 -0.00012207 5.99994 -0.00012207H12.9999C14.6568 -0.00012207 15.9999 1.34302 15.9999 2.99988V9.99988Z" fill="#191919"/>
</g>
<defs>
<clipPath id="clip0_1470_23">
<rect width="16" height="16" fill="white"/>
</clipPath>
</defs>
</svg>
