<svg width="16" height="16" viewBox="0 0 16 16" fill="none" xmlns="http://www.w3.org/2000/svg">
<path fill-rule="evenodd" clip-rule="evenodd" d="M12 15C12 14.4477 11.5523 14 11 14H4.2C3.62345 14 3.25117 13.9992 2.96783 13.9761C2.69617 13.9539 2.59545 13.9162 2.54601 13.891C2.35785 13.7951 2.20487 13.6422 2.10899 13.454C2.0838 13.4045 2.04612 13.3038 2.02393 13.0322C2.00078 12.7488 2 12.3766 2 11.8L2 5C2 4.44771 1.55229 4 1 4C0.447715 4 1.20462e-06 4.44771 1.18048e-06 5L8.81561e-07 11.8385C-1.72613e-05 12.3657 -3.44478e-05 12.8205 0.0305689 13.195C0.0628699 13.5904 0.134187 13.9836 0.32698 14.362C0.6146 14.9265 1.07354 15.3854 1.63803 15.673C2.01641 15.8658 2.40963 15.9371 2.80497 15.9694C3.17954 16 3.63431 16 4.16145 16L11 16C11.5523 16 12 15.5523 12 15Z" fill="#191919"/>
<path fill-rule="evenodd" clip-rule="evenodd" d="M16 9.22773C16.0001 9.33932 16.0003 9.52243 15.9865 9.69131C15.9696 9.89837 15.9224 10.2526 15.7275 10.635C15.4878 11.1054 15.1054 11.4879 14.635 11.7276C14.2526 11.9224 13.8983 11.9697 13.6913 11.9866C13.5224 12.0004 13.3393 12.0002 13.2277 12.0001H6.77232C6.66072 12.0002 6.4776 12.0004 6.30874 11.9866C6.10168 11.9697 5.74744 11.9224 5.36502 11.7276C4.89462 11.4879 4.51217 11.1054 4.27248 10.635C4.07763 10.2526 4.03037 9.89837 4.01345 9.69131C3.99966 9.52244 3.99986 9.33935 3.99998 9.22775L3.99998 2.77236C3.99986 2.66077 3.99966 2.47765 4.01345 2.30878C4.03037 2.10173 4.07763 1.74748 4.27248 1.36507C4.51217 0.894664 4.89462 0.512213 5.36502 0.27253C5.74744 0.0776801 6.10168 0.0304175 6.30874 0.0135002C6.47762 -0.000297864 6.66072 -9.73457e-05 6.77232 2.49679e-05L13.2277 2.525e-05C13.3393 -9.70538e-05 13.5224 -0.000297557 13.6913 0.0135006C13.8983 0.0304178 14.2526 0.0776804 14.635 0.27253C15.1054 0.512213 15.4878 0.894665 15.7275 1.36507C15.9224 1.74748 15.9696 2.10173 15.9865 2.30878C16.0003 2.47766 16.0001 2.66077 16 2.77236L16 9.22773Z" fill="#191919"/>
</svg>
