<svg width="16" height="16" viewBox="0 0 16 16" fill="none" xmlns="http://www.w3.org/2000/svg">
<path fill-rule="evenodd" clip-rule="evenodd" d="M14.2998 1C15.2387 1 16 1.76131 16 2.7002V5.2998C16 5.98881 15.5893 6.58061 15 6.84766V14.2998C15 15.2387 14.2387 16 13.2998 16H2.7002C1.76131 16 1 15.2387 1 14.2998V6.84766C0.410706 6.58061 0 5.98881 0 5.2998V2.7002C0 1.76131 0.761311 1 1.7002 1H14.2998ZM3 7V14H5V10.7002C5 9.76131 5.76131 9 6.7002 9H9.2998C10.2387 9 11 9.76131 11 10.7002V14H13V7H3ZM7 14H9V11H7V14ZM2 5H14V3H2V5Z" fill="#191919"/>
</svg>
