<svg width="16" height="16" viewBox="0 0 16 16" fill="none" xmlns="http://www.w3.org/2000/svg">
<path fill-rule="evenodd" clip-rule="evenodd" d="M1 4C1 2.34315 2.34315 1 4 1H12C13.6569 1 15 2.34315 15 4V10.8385C15 11.3657 15 11.8205 14.9694 12.195C14.9371 12.5904 14.8658 12.9836 14.673 13.362C14.3854 13.9265 13.9265 14.3854 13.362 14.673C12.9836 14.8658 12.5904 14.9371 12.195 14.9694C11.8205 15 11.3657 15 10.8386 15H5.16148C4.63433 15 4.17954 15 3.80497 14.9694C3.40963 14.9371 3.01641 14.8658 2.63803 14.673C2.07354 14.3854 1.6146 13.9265 1.32698 13.362C1.13419 12.9836 1.06287 12.5904 1.03057 12.195C0.999969 11.8205 0.999984 11.3657 1 10.8386V4ZM10 3H9V5H10V3ZM12 5V3C12.5523 3 13 3.44772 13 4C13 4.55228 12.5523 5 12 5ZM6 3H7V5H6V3ZM4 3C3.44772 3 3 3.44772 3 4C3 4.55228 3.44772 5 4 5V3ZM10.9902 8.94867C10.6787 8.36106 10.0699 8 9.41149 8H4.39208C4.30005 8 4.22217 8.07788 4.22217 8.17699C4.22217 8.21947 4.24341 8.26195 4.27173 8.29735L5.36198 9.39469C5.46109 9.4938 5.58853 9.55044 5.72304 9.54336H9.25574C9.5106 9.54336 9.71591 9.74159 9.71591 9.99646C9.71591 10.2513 9.51768 10.4566 9.26282 10.4566H6.83453C6.7425 10.4566 6.66462 10.5345 6.66462 10.6336C6.66462 10.6761 6.68586 10.7186 6.71418 10.754L7.80443 11.8513C7.90354 11.9504 8.03098 12 8.17257 12H9.27698C10.7071 12 11.7902 10.4708 10.9902 8.94867Z" fill="#191919"/>
</svg>
