<svg width="16" height="16" viewBox="0 0 16 16" fill="none" xmlns="http://www.w3.org/2000/svg">
<path d="M8.75 2.75C8.75 1.7835 9.5335 1 10.5 1H11.75C12.7165 1 13.5 1.7835 13.5 2.75V12.5H14.25C14.6642 12.5 15 12.8358 15 13.25C15 13.6642 14.6642 14 14.25 14H1.75C1.33579 14 1 13.6642 1 13.25C1 12.8358 1.33579 12.5 1.75 12.5H2.5V10.25C2.5 9.2835 3.2835 8.5 4.25 8.5H5.5C5.58488 8.5 5.66835 8.50604 5.75 8.51772V6.75C5.75 5.7835 6.5335 5 7.5 5H8.5C8.58488 5 8.66835 5.00604 8.75 5.01772V2.75ZM10.25 12.5H12V2.75C12 2.61193 11.8881 2.5 11.75 2.5H10.5C10.3619 2.5 10.25 2.61193 10.25 2.75V12.5ZM8.75 12.5V6.75C8.75 6.61193 8.63807 6.5 8.5 6.5H7.5C7.36193 6.5 7.25 6.61193 7.25 6.75V12.5H8.75ZM5.75 12.5V10.25C5.75 10.1119 5.63807 10 5.5 10H4.25C4.11193 10 4 10.1119 4 10.25V12.5H5.75Z" fill="#191919"/>
</svg>
