<svg width="16" height="16" viewBox="0 0 16 16" fill="none" xmlns="http://www.w3.org/2000/svg">
<path d="M2.50015 3.50003C3.05243 3.50003 3.50015 3.05232 3.50015 2.50003C3.50015 2.22389 3.72401 2.00003 4.00015 2.00003C4.27629 2.00003 4.50015 2.22389 4.50015 2.50003C4.50015 3.05232 4.94786 3.50003 5.50015 3.50003C5.77629 3.50003 6.00015 3.72389 6.00015 4.00003C6.00015 4.27617 5.77629 4.50003 5.50015 4.50003C4.94786 4.50003 4.50015 4.94775 4.50015 5.50003C4.50015 5.77617 4.27629 6.00003 4.00015 6.00003C3.72401 6.00003 3.50015 5.77617 3.50015 5.50003C3.50015 4.94775 3.05243 4.50003 2.50015 4.50003C2.22401 4.50003 2.00015 4.27617 2.00015 4.00003C2.00015 3.72389 2.22401 3.50003 2.50015 3.50003Z" fill="#191919"/>
<path d="M14.0305 1.9697C13.1853 1.12452 11.815 1.12453 10.9699 1.9697L1.96982 10.9697C1.12464 11.8148 1.12464 13.1852 1.96982 14.0303C2.815 14.8755 4.1853 14.8755 5.03048 14.0303L14.0305 5.03036C14.8757 4.18518 14.8757 2.81488 14.0305 1.9697ZM12.0305 3.03036C12.2899 2.77097 12.7105 2.77097 12.9699 3.03036C13.2293 3.28975 13.2293 3.71031 12.9699 3.9697L11.5002 5.43937L10.5609 4.50003L12.0305 3.03036ZM9.50015 5.56069L10.4395 6.50003L3.96982 12.9697C3.71043 13.2291 3.28987 13.2291 3.03048 12.9697C2.77109 12.7103 2.77109 12.2897 3.03048 12.0303L9.50015 5.56069Z" fill="#191919"/>
<path d="M11.5002 10.5C11.5002 11.0523 11.0525 11.5 10.5002 11.5C10.2241 11.5 10.0002 11.7239 10.0002 12C10.0002 12.2761 10.2241 12.5 10.5002 12.5C11.0525 12.5 11.5002 12.9477 11.5002 13.5C11.5002 13.7761 11.7241 14 12.0002 14C12.2763 14 12.5002 13.7761 12.5002 13.5C12.5002 12.9477 12.9479 12.5 13.5002 12.5C13.7763 12.5 14.0002 12.2761 14.0002 12C14.0002 11.7239 13.7763 11.5 13.5002 11.5C12.9479 11.5 12.5002 11.0523 12.5002 10.5C12.5002 10.2239 12.2763 10 12.0002 10C11.7241 10 11.5002 10.2239 11.5002 10.5Z" fill="#191919"/>
</svg>
