<svg width="16" height="16" viewBox="0 0 16 16" fill="none" xmlns="http://www.w3.org/2000/svg">
<path d="M11.2373 4.5C10.685 4.5 10.2373 4.94772 10.2373 5.5C10.2373 6.05228 10.685 6.5 11.2373 6.5C11.7896 6.5 12.2373 6.05228 12.2373 5.5C12.2373 4.94772 11.7896 4.5 11.2373 4.5Z" fill="#191919"/>
<path fill-rule="evenodd" clip-rule="evenodd" d="M9.44629 1C8.50842 1.00006 7.60849 1.37295 6.94531 2.03613L1.47852 7.50293C0.84034 8.14111 0.840344 9.17628 1.47852 9.81445L6.92285 15.2588C7.56103 15.897 8.5962 15.897 9.23438 15.2588L14.7012 9.79199C15.3644 9.12881 15.7372 8.22889 15.7373 7.29102V3.90234C15.7373 2.29945 14.4379 1.00005 12.835 1H9.44629ZM12.835 3C13.3333 3.00005 13.7373 3.40402 13.7373 3.90234V7.29102C13.7372 7.69841 13.5752 8.08885 13.2871 8.37695L8.0791 13.585L3.15234 8.6582L8.36035 3.4502C8.64845 3.16215 9.0389 3.00006 9.44629 3H12.835Z" fill="#191919"/>
</svg>
