<svg width="16" height="16" viewBox="0 0 16 16" fill="none" xmlns="http://www.w3.org/2000/svg">
<path d="M10.372 3.5C10.0631 2.62611 9.2297 2 8.25004 2H3.75C2.23122 2 1 3.23122 1 4.75V9.36111C1 10.3205 1.63169 11.1324 2.50186 11.4035C2.50064 11.4355 2.50003 11.4677 2.50003 11.5C2.50003 12.8807 3.61932 14 5.00003 14C6.38074 14 7.50003 12.8807 7.50003 11.5H8.50003C8.50003 12.8807 9.61932 14 11 14C12.3807 14 13.5 12.8807 13.5 11.5C13.5 11.4677 13.4994 11.4355 13.4982 11.4035C14.3683 11.1324 15 10.3205 15 9.36112L15 7.14816C15 6.36264 14.6641 5.61461 14.077 5.09275L13.0666 4.19461C12.5632 3.74716 11.9131 3.5 11.2396 3.5H10.372ZM12.9903 9.98693C12.5337 9.38715 11.8121 9 11 9C10.8288 9 10.6616 9.01721 10.5 9.05001V5H11.2396C11.5457 5 11.8412 5.11235 12.0701 5.31573L13.0805 6.21387C13.3473 6.45108 13.5 6.79109 13.5 7.14815L13.5 9.36111C13.5 9.66969 13.2812 9.92718 12.9903 9.98693ZM9.00004 9.99975L7.00021 10C6.54411 9.39278 5.81794 9 5.00003 9C4.188 9 3.4664 9.38715 3.00973 9.98694C2.7188 9.92721 2.5 9.66971 2.5 9.36111V4.75C2.5 4.05964 3.05964 3.5 3.75 3.5H8.25004C8.66425 3.5 9.00004 3.83579 9.00004 4.25V9.99975ZM5.00003 10.5C5.55231 10.5 6.00003 10.9477 6.00003 11.5C6.00003 12.0523 5.55231 12.5 5.00003 12.5C4.44774 12.5 4.00003 12.0523 4.00003 11.5C4.00003 10.9477 4.44774 10.5 5.00003 10.5ZM10 11.5C10 10.9477 10.4477 10.5 11 10.5C11.5523 10.5 12 10.9477 12 11.5C12 12.0523 11.5523 12.5 11 12.5C10.4477 12.5 10 12.0523 10 11.5Z" fill="#191919"/>
</svg>
