<svg width="16" height="16" viewBox="0 0 16 16" fill="none" xmlns="http://www.w3.org/2000/svg">
<g clip-path="url(#clip0_21846_5458)">
<path d="M13 2H7C6.44772 2 6 2.44772 6 3V5H4V3C4 1.34315 5.34315 0 7 0H13C14.6569 0 16 1.34315 16 3V13C16 14.6569 14.6569 16 13 16H10.2361C10.7111 15.4692 11 14.7684 11 14H13C13.5523 14 14 13.5523 14 13V3C14 2.44772 13.5523 2 13 2Z" fill="#191919"/>
<path fill-rule="evenodd" clip-rule="evenodd" d="M4 6C2.89543 6 2 6.89543 2 8V9C0.895431 9 0 9.89543 0 11V13C0 14.6569 1.34315 16 3 16H7C8.65685 16 10 14.6569 10 13V11C10 9.89543 9.10457 9 8 9V8C8 6.89543 7.10457 6 6 6H4ZM6 9H4V8H6V9ZM8 11H2V13C2 13.5523 2.44772 14 3 14H7C7.55228 14 8 13.5523 8 13V11Z" fill="#191919"/>
<path d="M12 7C11.4477 7 11 7.44772 11 8C11 8.55228 11.4477 9 12 9C12.5523 9 13 8.55228 13 8C13 7.44772 12.5523 7 12 7Z" fill="#191919"/>
</g>
<defs>
<clipPath id="clip0_21846_5458">
<rect width="16" height="16" fill="white"/>
</clipPath>
</defs>
</svg>
