<svg width="16" height="16" viewBox="0 0 16 16" fill="none" xmlns="http://www.w3.org/2000/svg">
<path fill-rule="evenodd" clip-rule="evenodd" d="M1 12C1 11.4477 1.44772 11 2 11H14C14.5523 11 15 11.4477 15 12V12.6667C15 13.9553 13.9553 15 12.6667 15H3.33333C2.04467 15 1 13.9553 1 12.6667V12Z" fill="#191919"/>
<path d="M8.36648 1H9.08596L7.79306 2.29289C7.40254 2.68342 7.40254 3.31658 7.79306 3.70711C8.18359 4.09763 8.81675 4.09763 9.20728 3.70711L11.7073 1.20711C11.7607 1.15373 11.8067 1.09581 11.8455 1.03461C13.6277 1.28075 15.0002 2.8101 15.0002 4.66V5C15.0002 5.55228 14.5525 6 14.0002 6H2.00017C1.44789 6 1.00017 5.55228 1.00017 5V4.66C1.00017 2.63864 2.63881 1 4.66017 1H5.58596L4.29306 2.29289C3.90254 2.68342 3.90254 3.31658 4.29306 3.70711C4.68359 4.09763 5.31675 4.09763 5.70728 3.70711L8.20728 1.20711C8.27062 1.14376 8.32369 1.07404 8.36648 1Z" fill="#191919"/>
<path d="M2.70207 9.67924L3.62517 9.15175L4.54827 9.67924C5.06066 9.97203 5.68968 9.97203 6.20207 9.67924L7.12517 9.15175L8.04827 9.67924C8.56066 9.97203 9.18968 9.97203 9.70207 9.67924L10.6252 9.15175L11.5483 9.67924C12.0607 9.97203 12.6897 9.97203 13.2021 9.67924L14.1252 9.15175L14.504 9.36824C14.9835 9.64225 15.5944 9.47566 15.8684 8.99614C16.1424 8.51662 15.9758 7.90577 15.4963 7.63176L14.9521 7.32076C14.4397 7.02797 13.8107 7.02797 13.2983 7.32076L12.3752 7.84825L11.4521 7.32076C10.9397 7.02797 10.3107 7.02797 9.79827 7.32076L8.87517 7.84825L7.95207 7.32076C7.43968 7.02797 6.81066 7.02797 6.29827 7.32076L5.37517 7.84825L4.45207 7.32076C3.93968 7.02797 3.31066 7.02797 2.79827 7.32076L1.87517 7.84825L1.49631 7.63176C1.01679 7.35775 0.405938 7.52434 0.131928 8.00386C-0.142082 8.48338 0.0245147 9.09423 0.504032 9.36824L1.04827 9.67924C1.56066 9.97203 2.18968 9.97203 2.70207 9.67924Z" fill="#191919"/>
</svg>
