<svg width="16" height="16" viewBox="0 0 16 16" fill="none" xmlns="http://www.w3.org/2000/svg">
<path fill-rule="evenodd" clip-rule="evenodd" d="M0 7.99999V7.57383C0 6.86307 0.377216 6.20571 0.990864 5.84708L7.00556 2.332C7.09197 1.02963 8.17574 0 9.5 0C10.8543 0 11.9571 1.0769 11.9988 2.4211C12.3925 2.68872 12.8179 2.98217 13.244 3.28351C14.1592 3.93065 14.823 4.76464 15.2505 5.41052C15.4671 5.73768 15.6301 6.0274 15.7403 6.2382C15.7956 6.34385 15.8379 6.4304 15.8675 6.49279C15.8822 6.52401 15.8938 6.54924 15.9022 6.56785L15.9125 6.59077L15.9158 6.59837L15.917 6.60119L15.9175 6.60235L15.9125 6.59077L15.918 6.60334C15.9721 6.72858 16 6.86356 16 6.99999V9.88197L15.0315 10.3662L14.0769 9.82076C13.5645 9.52797 12.9355 9.52797 12.4231 9.82076L11.5 10.3482L10.5769 9.82076C10.0645 9.52797 9.43549 9.52797 8.9231 9.82076L8 10.3482L7.0769 9.82076C6.56451 9.52797 5.93549 9.52797 5.4231 9.82076L4.5 10.3482L3.5769 9.82076C3.06451 9.52797 2.43549 9.52797 1.9231 9.82076L0.968531 10.3662L0 9.88197V7.99999ZM2.98188 7L7.70477 4.23987C7.81388 4.35243 7.93348 4.45476 8.062 4.54529C8.46847 4.83173 8.96432 5.00002 9.5 5.00002C10.0081 5.00002 10.4802 4.84863 10.8743 4.58868C10.9983 4.50692 11.1146 4.41442 11.2219 4.31249C11.5043 4.50637 11.797 4.70976 12.0893 4.91648C12.7297 5.36933 13.2326 5.98534 13.5828 6.51446C13.7027 6.69557 13.8014 6.86153 13.8788 7H2.98188Z" fill="#191919"/>
<path d="M15.7663 12.2349L16 12.118V13C16 14.1046 15.1046 15 14 15H2C0.895431 15 0 14.1046 0 13V12.118L0.233664 12.2349C0.732089 12.4841 1.32209 12.4677 1.80592 12.1912L2.75 11.6518L3.6731 12.1792C4.18549 12.472 4.81451 12.472 5.3269 12.1792L6.25 11.6518L7.1731 12.1792C7.68549 12.472 8.31451 12.472 8.8269 12.1792L9.75 11.6518L10.6731 12.1792C11.1855 12.472 11.8145 12.472 12.3269 12.1792L13.25 11.6518L14.1941 12.1912C14.6779 12.4677 15.2679 12.4841 15.7663 12.2349Z" fill="#191919"/>
</svg>
