<svg width="16" height="16" viewBox="0 0 16 16" fill="none" xmlns="http://www.w3.org/2000/svg">
<path d="M6.75 10.5C6.33579 10.5 6 10.8358 6 11.25C6 11.6642 6.33579 12 6.75 12H9.25C9.66421 12 10 11.6642 10 11.25C10 10.8358 9.66421 10.5 9.25 10.5H6.75Z" fill="#191919"/>
<path d="M5.75 1C4.23122 1 3 2.23122 3 3.75V12.25C3 13.7688 4.23122 15 5.75 15H10.25C11.7688 15 13 13.7688 13 12.25V3.75C13 2.23122 11.7688 1 10.25 1H5.75ZM4.5 3.75C4.5 3.05964 5.05964 2.5 5.75 2.5H10.25C10.9404 2.5 11.5 3.05964 11.5 3.75V12.25C11.5 12.9404 10.9404 13.5 10.25 13.5H5.75C5.05964 13.5 4.5 12.9404 4.5 12.25V3.75Z" fill="#191919"/>
</svg>
