<svg width="16" height="16" viewBox="0 0 16 16" fill="none" xmlns="http://www.w3.org/2000/svg">
<path d="M5.75 9.5C5.33579 9.5 5 9.83579 5 10.25C5 10.6642 5.33579 11 5.75 11H10.25C10.6642 11 11 10.6642 11 10.25C11 9.83579 10.6642 9.5 10.25 9.5H5.75Z" fill="#191919"/>
<path d="M3.75 2C2.23122 2 1 3.23122 1 4.75V11.25C1 12.7688 2.23122 14 3.75 14H12.25C13.7688 14 15 12.7688 15 11.25V4.75C15 3.23122 13.7688 2 12.25 2H3.75ZM2.5 4.75C2.5 4.05964 3.05964 3.5 3.75 3.5H12.25C12.9404 3.5 13.5 4.05964 13.5 4.75V11.25C13.5 11.9404 12.9404 12.5 12.25 12.5H3.75C3.05964 12.5 2.5 11.9404 2.5 11.25V4.75Z" fill="#191919"/>
</svg>
