<svg width="16" height="16" viewBox="0 0 16 16" fill="none" xmlns="http://www.w3.org/2000/svg">
<path d="M5.99996 9.99996C5.99996 10.4142 6.33575 10.75 6.74996 10.75C7.16418 10.75 7.49996 10.4142 7.49996 9.99996V8.24996C7.49996 8.11125 7.61188 7.99996 7.74931 7.99996H8.49996V8.74996C8.49996 9.05721 8.68737 9.33339 8.97288 9.4469C9.2584 9.56041 9.58427 9.4883 9.79523 9.26492L11.2119 7.76492C11.4848 7.47588 11.4848 7.02404 11.2119 6.735L9.79523 5.235C9.58427 5.01162 9.2584 4.93951 8.97288 5.05302C8.68737 5.16653 8.49996 5.44271 8.49996 5.74996V6.49996H7.74931C6.78218 6.49996 5.99996 7.2841 5.99996 8.24996V9.99996Z" fill="#191919"/>
<path d="M6.05542 1.81278C7.12936 0.738838 8.87057 0.738838 9.94451 1.81278L14.1871 6.05542C15.2611 7.12936 15.2611 8.87056 14.1871 9.9445L9.94451 14.1872C8.87057 15.2611 7.12936 15.2611 6.05542 14.1872L1.81278 9.9445C0.738839 8.87056 0.738839 7.12936 1.81278 6.05542L6.05542 1.81278ZM8.88385 2.87344C8.39569 2.38528 7.60424 2.38528 7.11608 2.87344L2.87344 7.11608C2.38529 7.60423 2.38529 8.39569 2.87344 8.88384L7.11608 13.1265C7.60424 13.6147 8.39569 13.6147 8.88385 13.1265L13.1265 8.88384C13.6146 8.39569 13.6146 7.60423 13.1265 7.11608L8.88385 2.87344Z" fill="#191919"/>
</svg>
