<svg width="16" height="16" viewBox="0 0 16 16" fill="none" xmlns="http://www.w3.org/2000/svg">
<path fill-rule="evenodd" clip-rule="evenodd" d="M12.1543 1.00391C13.7394 1.08421 15 2.39489 15 4V12C15 13.6569 13.6569 15 12 15H4C2.39489 15 1.08421 13.7394 1.00391 12.1543L1 12V4C1 2.34315 2.34315 1 4 1H12L12.1543 1.00391ZM11 3C9.89543 3 9 3.89543 9 5V11C9 12.1046 9.89543 13 11 13H12C12.5523 13 13 12.5523 13 12V4C13 3.48232 12.6067 3.05621 12.1025 3.00488L12 3H11ZM4 3C3.44772 3 3 3.44772 3 4V12L3.00488 12.1025C3.05621 12.6067 3.48232 13 4 13H7.53613C7.19564 12.4116 7 11.7288 7 11V5C7 4.27125 7.19564 3.58845 7.53613 3H4Z" fill="#191919"/>
</svg>
