<svg width="16" height="16" viewBox="0 0 16 16" fill="none" xmlns="http://www.w3.org/2000/svg">
<path d="M14 13C14.5523 13 15 13.4477 15 14C15 14.5523 14.5523 15 14 15H2C1.44772 15 1 14.5523 1 14C1 13.4477 1.44772 13 2 13H14ZM7 1C7 0.447715 7.44772 0 8 0C8.5522 9.89445e-05 9 0.447776 9 1V8.83594L11.293 6.54297C11.6835 6.15244 12.3165 6.15244 12.707 6.54297C13.0976 6.93349 13.0976 7.56651 12.707 7.95703L9.18066 11.4834C8.94668 11.7173 8.66023 11.8656 8.35938 11.9316C8.24768 11.9748 8.1269 12 8 12C7.87142 12 7.74866 11.9749 7.63574 11.9307C7.33667 11.8641 7.05206 11.7161 6.81934 11.4834L3.29297 7.95703C2.90244 7.56651 2.90244 6.93349 3.29297 6.54297C3.68349 6.15244 4.31651 6.15244 4.70703 6.54297L7 8.83594V1Z" fill="#191919"/>
</svg>
