<svg width="16" height="16" viewBox="0 0 16 16" fill="none" xmlns="http://www.w3.org/2000/svg">
<path d="M3.5 11.25C3.5 11.9404 4.05964 12.5 4.75 12.5H11.25C11.9404 12.5 12.5 11.9404 12.5 11.25V9.75C12.5 9.33579 12.8358 9 13.25 9C13.6642 9 14 9.33579 14 9.75V11.25C14 12.7688 12.7688 14 11.25 14H4.75C3.23122 14 2 12.7688 2 11.25V9.75C2 9.33579 2.33579 9 2.75 9C3.16421 9 3.5 9.33579 3.5 9.75V11.25ZM4.46967 5.71967C4.76256 5.42678 5.23744 5.42678 5.53033 5.71967L7.25 7.43934V2.75C7.25 2.33579 7.58579 2 8 2C8.41421 2 8.75 2.33579 8.75 2.75V7.43934L10.4697 5.71967C10.7626 5.42678 11.2374 5.42678 11.5303 5.71967C11.8232 6.01256 11.8232 6.48744 11.5303 6.78033L8.53033 9.78033C8.38968 9.92098 8.19891 10 8 10C7.80109 10 7.61032 9.92098 7.46967 9.78033L4.46967 6.78033C4.17678 6.48744 4.17678 6.01256 4.46967 5.71967Z" fill="#202125"/>
</svg>
