<svg width="16" height="16" viewBox="0 0 16 16" fill="none" xmlns="http://www.w3.org/2000/svg">
<path fill-rule="evenodd" clip-rule="evenodd" d="M1.00002 11.4L1.00002 7.1L1.00001 7.05372C0.999922 6.81549 0.999813 6.53098 1.02029 6.28034C1.04402 5.9899 1.10491 5.57392 1.327 5.13803C1.61463 4.57354 2.07357 4.1146 2.63805 3.82698C3.07395 3.60488 3.48993 3.544 3.78036 3.52027C4.031 3.49979 4.31552 3.4999 4.55375 3.49999L4.60002 3.5H5.50003V5C4.86022 5 4.22041 5.24408 3.73226 5.73223C2.75595 6.70854 2.75595 8.29146 3.73226 9.26777L6.23226 11.7678C7.20857 12.7441 8.79148 12.7441 9.76779 11.7678L12.2678 9.26777C13.2441 8.29146 13.2441 6.70854 12.2678 5.73223C11.7796 5.24408 11.1398 5 10.5 5V3.5H11.4L11.4463 3.49999C11.6845 3.4999 11.969 3.49979 12.2197 3.52027C12.5101 3.544 12.9261 3.60488 13.362 3.82698C13.9265 4.1146 14.3854 4.57354 14.673 5.13803C14.8951 5.57392 14.956 5.98991 14.9798 6.28034C15.0002 6.53098 15.0001 6.81549 15 7.05372L15 7.1V11.4L15 11.4463C15.0001 11.6845 15.0002 11.969 14.9798 12.2197C14.956 12.5101 14.8951 12.9261 14.673 13.362C14.3854 13.9265 13.9265 14.3854 13.362 14.673C12.9261 14.8951 12.5101 14.956 12.2197 14.9797C11.969 15.0002 11.6845 15.0001 11.4463 15L11.4 15L4.60002 15L4.55375 15C4.31551 15.0001 4.031 15.0002 3.78036 14.9797C3.48993 14.956 3.07394 14.8951 2.63805 14.673C2.07357 14.3854 1.61462 13.9265 1.327 13.362C1.10491 12.9261 1.04402 12.5101 1.02029 12.2197C0.999812 11.969 0.999921 11.6845 1.00001 11.4463L1.00002 11.4Z" fill="#191919"/>
<path fill-rule="evenodd" clip-rule="evenodd" d="M8.70713 10.7071C8.31661 11.0976 7.68344 11.0976 7.29292 10.7071L4.79292 8.20711C4.40239 7.81658 4.40239 7.18342 4.79292 6.79289C5.18344 6.40237 5.81661 6.40237 6.20713 6.79289L7.00002 7.58579L7.00002 1C7.00002 0.447715 7.44774 -4.82823e-08 8.00003 0C8.55231 4.82823e-08 9.00002 0.447715 9.00002 1V7.58579L9.79292 6.79289C10.1834 6.40237 10.8166 6.40237 11.2071 6.79289C11.5977 7.18342 11.5977 7.81658 11.2071 8.20711L8.70713 10.7071Z" fill="#191919"/>
</svg>
