<svg width="16" height="16" viewBox="0 0 16 16" fill="none" xmlns="http://www.w3.org/2000/svg">
<path d="M7.91829 1.81038C8.01605 0.783909 8.87816 0 9.90928 0H12.5C13.0523 0 13.5 0.447715 13.5 1C13.5 1.55228 13.0523 2 12.5 2L9.90928 2L9.7188 4H12.75C13.3023 4 13.75 4.44772 13.75 5C13.75 5.55228 13.3023 6 12.75 6H3.25C2.69772 6 2.25 5.55228 2.25 5C2.25 4.44772 2.69772 4 3.25 4H7.70975L7.91829 1.81038Z" fill="#191919"/>
<path d="M3.33438 7.5L4.51162 15.1521C4.58667 15.6399 5.00642 16 5.49999 16H10.5C10.9936 16 11.4133 15.6399 11.4884 15.1521L12.6656 7.5H3.33438Z" fill="#191919"/>
</svg>
