<svg width="16" height="16" viewBox="0 0 16 16" fill="none" xmlns="http://www.w3.org/2000/svg">
<path d="M0.583496 3.25C0.583496 2.83579 0.919282 2.5 1.33349 2.5H5.33349C5.74771 2.5 6.08349 2.83579 6.08349 3.25C6.08349 3.66421 5.74771 4 5.33349 4H4.08349V4.17213L6.59144 5.24696C6.95292 4.88826 7.45066 4.66666 8.00015 4.66666C8.54965 4.66666 9.04738 4.88826 9.40887 5.24697L11.9168 4.17213V4H10.6668C10.2526 4 9.91683 3.66421 9.91683 3.25C9.91683 2.83579 10.2526 2.5 10.6668 2.5H14.6668C15.081 2.5 15.4168 2.83579 15.4168 3.25C15.4168 3.66421 15.081 4 14.6668 4H13.4168V4.22708C13.4168 4.79379 13.0791 5.30597 12.5582 5.5292L9.99974 6.62569C10 6.63931 10.0001 6.65297 10.0001 6.66666C10.0001 6.6761 10.0001 6.68553 9.99995 6.69495L11.8172 7.46013C12.8369 7.8895 13.5 8.88818 13.5 9.99461V11.3333C13.5 11.7476 13.1642 12.0833 12.75 12.0833H11.75C11.3358 12.0833 11 11.7476 11 11.3333C11 10.9191 11.3358 10.5833 11.75 10.5833H12V9.99461C12 9.49169 11.6986 9.03774 11.2351 8.84257L9.41784 8.07739C9.05564 8.44136 8.5542 8.66666 8.00015 8.66666C7.44608 8.66666 6.94464 8.44135 6.58244 8.07736L4.76494 8.8426C4.30142 9.03776 4 9.49171 4 9.99465V10.5833H4.25C4.66421 10.5833 5 10.9191 5 11.3333C5 11.7476 4.66421 12.0833 4.25 12.0833H3.25C2.83578 12.0833 2.5 11.7476 2.5 11.3333V9.99465C2.5 8.88819 3.16312 7.88949 4.18287 7.46013L6.00035 6.69491C6.00022 6.68551 6.00015 6.67609 6.00015 6.66666C6.00015 6.65297 6.00029 6.63931 6.00056 6.62568L3.44211 5.5292C2.92122 5.30596 2.58349 4.79379 2.58349 4.22708V4H1.33349C0.919282 4 0.583496 3.66421 0.583496 3.25Z" fill="#191919"/>
<path d="M7.2503 10H6.66697C6.29878 10 6.0003 10.2985 6.0003 10.6667V13.3333C6.0003 13.7015 6.29878 14 6.66697 14H9.33364C9.70183 14 10.0003 13.7015 10.0003 13.3333V10.6667C10.0003 10.2985 9.70183 10 9.33364 10H8.7503V10.5833C8.7503 10.9976 8.41452 11.3333 8.0003 11.3333C7.58609 11.3333 7.2503 10.9976 7.2503 10.5833V10Z" fill="#191919"/>
</svg>
