<svg width="16" height="16" viewBox="0 0 16 16" fill="none" xmlns="http://www.w3.org/2000/svg">
<path fill-rule="evenodd" clip-rule="evenodd" d="M12.25 5.5C12.6642 5.5 13 5.83579 13 6.25V13.6748C13 14.9589 11.9589 16 10.6748 16H5.3252C4.04113 16 3 14.9589 3 13.6748V6.25C3 5.83579 3.33579 5.5 3.75 5.5H12.25ZM5 12H11V8H5V12Z" fill="#191919"/>
<path d="M12.7002 0C13.418 0.000105701 13.9999 0.581988 14 1.2998V2.7002C13.9999 3.41801 13.418 3.99989 12.7002 4H3.2998C2.58199 3.99989 2.00011 3.41801 2 2.7002V1.2998C2.00011 0.581989 2.58199 0.00010554 3.2998 0H12.7002Z" fill="#191919"/>
</svg>
