<svg width="16" height="16" viewBox="0 0 16 16" fill="none" xmlns="http://www.w3.org/2000/svg">
<path fill-rule="evenodd" clip-rule="evenodd" d="M13.4142 0.999849C12.6332 0.218801 11.3668 0.2188 10.5858 0.999849L0.292893 11.2927C0.105357 11.4803 0 11.7346 0 11.9998V14.9998C0 15.5521 0.447715 15.9998 1 15.9998H4C4.26522 15.9998 4.51957 15.8945 4.70711 15.707L15 5.41406C15.781 4.63302 15.781 3.36668 15 2.58564L13.4142 0.999849ZM12 2.41406L13.5858 3.99985L12.0428 5.54282L10.457 3.95703L12 2.41406ZM3.45703 10.957L2 12.4141V13.9998H3.58579L5.04282 12.5428L3.45703 10.957Z" fill="#191919"/>
<path d="M13 10C13.5523 10 14 10.4477 14 11V12H15C15.5523 12 16 12.4477 16 13C16 13.5523 15.5523 14 15 14H14V15C14 15.5523 13.5523 16 13 16C12.4477 16 12 15.5523 12 15V14H11C10.4477 14 10 13.5523 10 13C10 12.4477 10.4477 12 11 12H12V11C12 10.4477 12.4477 10 13 10Z" fill="#191919"/>
</svg>
