<svg width="16" height="16" viewBox="0 0 16 16" fill="none" xmlns="http://www.w3.org/2000/svg">
<path d="M10.0928 1.69275C11.2565 0.52906 13.1429 0.529128 14.3066 1.69275C15.4704 2.85647 15.4704 4.74289 14.3066 5.90661L4.71191 15.5013C4.39311 15.8201 3.96064 15.9994 3.50977 15.9994H1.7002C0.761312 15.9994 0 15.2381 0 14.2992V12.4896C0 12.0388 0.179233 11.6063 0.498047 11.2875L10.0928 1.69275ZM12 14.9994V13.9945H11.0049C10.4527 13.9944 10.0049 13.5468 10.0049 12.9945C10.005 12.4423 10.4527 11.9946 11.0049 11.9945H12V10.9994C12.0002 10.4472 12.4478 9.99939 13 9.99939C13.5522 9.99939 13.9998 10.4472 14 10.9994V11.9945H15.0049C15.5571 11.9945 16.0048 12.4423 16.0049 12.9945C16.0049 13.5468 15.5572 13.9945 15.0049 13.9945H14V14.9994C14 15.5517 13.5523 15.9994 13 15.9994C12.4477 15.9994 12 15.5517 12 14.9994ZM2 12.6136V13.9994H3.38574L10.7852 6.599L9.39941 5.21325L2 12.6136ZM12.8926 3.10681C12.5099 2.72424 11.8895 2.72417 11.5068 3.10681L10.8135 3.79919L12.1992 5.18493L12.8926 4.49255C13.2753 4.10988 13.2753 3.48948 12.8926 3.10681Z" fill="#191919"/>
</svg>
