<svg width="16" height="16" viewBox="0 0 16 16" fill="none" xmlns="http://www.w3.org/2000/svg">
<g clip-path="url(#clip0_385_18228)">
<path fill-rule="evenodd" clip-rule="evenodd" d="M13.4142 0.999971C12.6332 0.218923 11.3668 0.218922 10.5858 0.999971L0.292893 11.2929C0.105357 11.4804 0 11.7348 0 12V15C0 15.5523 0.447715 16 1 16H4C4.26522 16 4.51957 15.8946 4.70711 15.7071L15 5.41419C15.781 4.63314 15.781 3.36681 15 2.58576L13.4142 0.999971ZM12 2.41418L13.5858 3.99997L12.0429 5.54288L10.4571 3.95709L12 2.41418ZM3.45709 10.9571L2 12.4142V14H3.58579L5.04288 12.5429L3.45709 10.9571Z" fill="#191919"/>
</g>
<defs>
<clipPath id="clip0_385_18228">
<rect width="16" height="16" fill="white"/>
</clipPath>
</defs>
</svg>
