<svg width="16" height="16" viewBox="0 0 16 16" fill="none" xmlns="http://www.w3.org/2000/svg">
<g clip-path="url(#clip0_385_18226)">
<path d="M10.0928 1.69275C11.2565 0.52906 13.1429 0.529128 14.3066 1.69275C15.4704 2.85647 15.4704 4.74289 14.3066 5.90661L4.71191 15.5013C4.39311 15.8201 3.96064 15.9994 3.50977 15.9994H1.7002C0.761312 15.9994 0 15.2381 0 14.2992V12.4896C0 12.0388 0.179233 11.6063 0.498047 11.2875L10.0928 1.69275ZM2 12.6136V13.9994H3.38574L10.7852 6.599L9.39941 5.21325L2 12.6136ZM12.8926 3.10681C12.5099 2.72424 11.8895 2.72417 11.5068 3.10681L10.8135 3.79919L12.1992 5.18493L12.8926 4.49255C13.2753 4.10988 13.2753 3.48948 12.8926 3.10681Z" fill="#191919"/>
</g>
<defs>
<clipPath id="clip0_385_18226">
<rect width="16" height="16" fill="white"/>
</clipPath>
</defs>
</svg>
