<svg width="16" height="16" viewBox="0 0 16 16" fill="none" xmlns="http://www.w3.org/2000/svg">
<path d="M11.0804 2H4.91957C4.38542 1.99999 3.93956 1.99998 3.57533 2.02974C3.19545 2.06078 2.83879 2.12789 2.50153 2.29973C1.98408 2.56338 1.56339 2.98408 1.29973 3.50153C1.12789 3.83879 1.06078 4.19545 1.02974 4.57533C0.999982 4.93956 0.99999 5.3854 1 5.91955V10.0804C0.99999 10.6146 0.999982 11.0604 1.02974 11.4247C1.06078 11.8046 1.12789 12.1612 1.29973 12.4985C1.56339 13.0159 1.98408 13.4366 2.50153 13.7003C2.83879 13.8721 3.19545 13.9392 3.57533 13.9703C3.93955 14 4.38538 14 4.91951 14H11.0805C11.6146 14 12.0605 14 12.4247 13.9703C12.8046 13.9392 13.1612 13.8721 13.4985 13.7003C14.0159 13.4366 14.4366 13.0159 14.7003 12.4985C14.8721 12.1612 14.9392 11.8046 14.9703 11.4247C15 11.0605 15 10.6146 15 10.0805V5.91955C15 5.38542 15 4.93955 14.9703 4.57533C14.9392 4.19545 14.8721 3.83879 14.7003 3.50153C14.4366 2.98408 14.0159 2.56338 13.4985 2.29973C13.1612 2.12789 12.8046 2.06078 12.4247 2.02974C12.0604 1.99998 11.6146 1.99999 11.0804 2ZM3.18251 3.63624C3.27307 3.5901 3.41036 3.54822 3.69748 3.52476C3.99336 3.50058 4.37757 3.5 4.95 3.5H11.05C11.6224 3.5 12.0066 3.50058 12.3025 3.52476C12.5896 3.54822 12.7269 3.5901 12.8175 3.63624C12.9222 3.68959 13.0182 3.75708 13.103 3.8363L8.17677 8.76256C8.07914 8.86019 7.92085 8.86019 7.82322 8.76256L2.89697 3.83631C2.98182 3.75709 3.07781 3.68959 3.18251 3.63624ZM2.50045 5.56111L5.43934 8.5L2.53455 11.4048C2.53101 11.373 2.52774 11.339 2.52476 11.3025C2.50058 11.0066 2.5 10.6224 2.5 10.05V5.95C2.5 5.80953 2.50004 5.68039 2.50045 5.56111ZM3.5952 12.4655L6.5 9.56066L6.76256 9.82322C7.44598 10.5066 8.55402 10.5066 9.23743 9.82322L9.5 9.56066L12.4048 12.4655C12.373 12.469 12.339 12.4723 12.3025 12.4752C12.0066 12.4994 11.6224 12.5 11.05 12.5H4.95C4.37757 12.5 3.99336 12.4994 3.69748 12.4752C3.66104 12.4723 3.62702 12.469 3.5952 12.4655ZM13.4655 11.4048L10.5607 8.5L13.4996 5.5611C13.5 5.68038 13.5 5.80952 13.5 5.95V10.05C13.5 10.6224 13.4994 11.0066 13.4752 11.3025C13.4723 11.339 13.469 11.373 13.4655 11.4048Z" fill="#191919"/>
</svg>
