<svg width="16" height="16" viewBox="0 0 16 16" fill="none" xmlns="http://www.w3.org/2000/svg">
<path d="M9.10215 4.3L8.77215 9.58H7.23215L6.90215 4.3H9.10215Z" fill="#191919"/>
<path d="M8.00215 12.11C7.39715 12.11 6.95715 11.67 6.95715 11.12C6.95715 10.57 7.39715 10.13 8.00215 10.13C8.60715 10.13 9.04715 10.57 9.04715 11.12C9.04715 11.67 8.60715 12.11 8.00215 12.11Z" fill="#191919"/>
<path fill-rule="evenodd" clip-rule="evenodd" d="M16 8C16 12.4183 12.4183 16 8 16C3.58172 16 0 12.4183 0 8C0 3.58172 3.58172 0 8 0C12.4183 0 16 3.58172 16 8ZM14 8C14 11.3137 11.3137 14 8 14C4.68629 14 2 11.3137 2 8C2 4.68629 4.68629 2 8 2C11.3137 2 14 4.68629 14 8Z" fill="#191919"/>
</svg>
