<svg width="16" height="16" viewBox="0 0 16 16" fill="none" xmlns="http://www.w3.org/2000/svg">
<path d="M8 5.5C9.39313 5.5 10.5225 6.61929 10.5225 8C10.5225 9.38071 9.39313 10.5 8 10.5C6.60687 10.5 5.47752 9.38071 5.47752 8C5.47752 6.61929 6.60687 5.5 8 5.5Z" fill="#191919"/>
<path fill-rule="evenodd" clip-rule="evenodd" d="M8 1.5C11.8592 1.5 15.0748 4.1819 15.9438 7.76855L16 8.00195L15.9438 8.23633C15.1003 11.7087 12.057 14.3316 8.36064 14.4922L8.00099 14.5C4.14192 14.5 0.925214 11.8184 0.0561646 8.23145L0 7.99805L0.0561646 7.76367C0.926846 4.17904 4.14266 1.50006 8 1.5ZM7.731 3.50586C5.04892 3.62253 2.7977 5.47471 2.08006 7.99805C2.82034 10.6073 5.19995 12.5 8.00099 12.5L8.26998 12.4941C10.952 12.3774 13.2015 10.5247 13.919 8.00098C13.1782 5.39221 10.8004 3.5 8 3.5L7.731 3.50586Z" fill="#191919"/>
</svg>
