<svg width="16" height="16" viewBox="0 0 16 16" fill="none" xmlns="http://www.w3.org/2000/svg">
<path fill-rule="evenodd" clip-rule="evenodd" d="M15.7071 15.7071C15.3166 16.0976 14.6834 16.0976 14.2929 15.7071L11.3366 12.7508L10.032 11.4463L8.51816 9.93238L6.06776 7.48206L4.55388 5.96809L2.91259 4.32689L0.292893 1.70711C-0.0976308 1.31658 -0.0976312 0.683417 0.292893 0.292893C0.683417 -0.0976312 1.31658 -0.0976308 1.70711 0.292893L4.66365 3.24943C5.69845 2.76744 6.81889 2.50015 8 2.50015C11.2504 2.50015 14.0413 4.52443 15.8524 7.47732C16.0492 7.79811 16.0492 8.20219 15.8524 8.52298C15.0911 9.76434 14.1566 10.8416 13.0875 11.6733L15.7071 14.2929C16.0976 14.6834 16.0976 15.3166 15.7071 15.7071ZM12 8.00015C12 8.74192 11.7981 9.43653 11.4462 10.032L9.93229 8.51808C9.97645 8.35289 10 8.17927 10 8.00015C10 6.89558 9.10457 6.00015 8 6.00015C7.82088 6.00015 7.64727 6.0237 7.48208 6.06786L5.96813 4.55391C6.56362 4.20206 7.25823 4.00015 8 4.00015C10.2091 4.00015 12 5.79101 12 8.00015Z" fill="#191919"/>
<path d="M1.5145 5.6359C1.01311 6.19425 0.555483 6.81223 0.147562 7.47732C-0.0491873 7.79811 -0.0491873 8.20219 0.147562 8.52298C1.95867 11.4759 4.74958 13.5002 8 13.5002C8.43308 13.5002 8.858 13.4642 9.27353 13.3949L7.87689 11.9983C5.76559 11.9345 4.06568 10.2346 4.00186 8.12326L1.5145 5.6359Z" fill="#191919"/>
</svg>
