<svg width="16" height="16" viewBox="0 0 16 16" fill="none" xmlns="http://www.w3.org/2000/svg">
<path d="M10 8C10 9.10457 9.10457 10 8 10C6.89543 10 6 9.10457 6 8C6 6.89543 6.89543 6 8 6C9.10457 6 10 6.89543 10 8Z" fill="#191919"/>
<path fill-rule="evenodd" clip-rule="evenodd" d="M0.147562 7.47717C1.95867 4.52428 4.74958 2.5 8 2.5C11.2504 2.5 14.0413 4.52428 15.8524 7.47717C16.0492 7.79796 16.0492 8.20204 15.8524 8.52283C14.0413 11.4757 11.2504 13.5 8 13.5C4.74958 13.5 1.95867 11.4757 0.147562 8.52283C-0.0491873 8.20204 -0.0491873 7.79796 0.147562 7.47717ZM12 8C12 10.2091 10.2091 12 8 12C5.79086 12 4 10.2091 4 8C4 5.79086 5.79086 4 8 4C10.2091 4 12 5.79086 12 8Z" fill="#191919"/>
</svg>
