<svg width="16" height="16" viewBox="0 0 16 16" fill="none" xmlns="http://www.w3.org/2000/svg">
<path fill-rule="evenodd" clip-rule="evenodd" d="M14.3496 1.24116C14.7689 0.881776 15.3993 0.930356 15.7588 1.34956C16.1182 1.76888 16.0697 2.39932 15.6504 2.75874L1.65038 14.7587C1.23106 15.1181 0.60062 15.0697 0.241204 14.6503C-0.118088 14.231 -0.0696606 13.6005 0.349602 13.2412L2.01171 11.8154C1.11288 10.8152 0.453106 9.58971 0.126946 8.23139L0.0712819 7.998L0.126946 7.76362C0.989897 4.17911 4.17716 1.5001 7.99999 1.49995C9.6488 1.49995 11.1824 2.00164 12.4609 2.85835L14.3496 1.24116ZM7.99999 3.49995C5.22477 3.50008 2.86715 5.39187 2.13281 7.99995C2.40066 8.95109 2.88659 9.80835 3.53027 10.5136L5.61034 8.73139C5.34943 7.87607 5.55598 6.90881 6.23241 6.23237C7.00487 5.45992 8.15588 5.30105 9.08691 5.75093L10.8652 4.22749C10.0106 3.76325 9.03586 3.49995 7.99999 3.49995Z" fill="#191919"/>
<path d="M13.9189 5.60249C14.3837 5.37455 14.939 5.54048 15.207 5.97065L15.2568 6.05952C15.5213 6.59819 15.7295 7.17079 15.873 7.7685L15.9287 8.0019L15.873 8.23628C15.5792 9.45691 15.0151 10.572 14.249 11.5126C13.9935 11.8264 13.7162 12.1213 13.418 12.3935C13.3386 12.466 13.258 12.5371 13.1758 12.6064C13.0112 12.7451 12.8412 12.8775 12.666 13.0029C12.5785 13.0655 12.4895 13.1263 12.3994 13.1855C11.9487 13.4817 11.4669 13.7337 10.96 13.9355C10.8584 13.9759 10.7559 14.0144 10.6523 14.0507C10.3425 14.1595 10.0241 14.2499 9.69824 14.3203C9.37222 14.3907 9.0387 14.4403 8.69921 14.4697C8.58594 14.4795 8.47201 14.4871 8.35742 14.4921L8.00097 14.4999C7.37562 14.4999 6.76518 14.4277 6.1787 14.291C5.64163 14.1651 5.30758 13.6281 5.43261 13.0908C5.55023 12.5867 6.02965 12.2616 6.53222 12.3261L6.63281 12.3437C7.07157 12.446 7.52964 12.4999 8.00097 12.4999L8.26757 12.4941C9.98743 12.4186 11.5269 11.6155 12.5928 10.3749C12.7507 10.191 12.899 9.99809 13.0351 9.79585C13.1286 9.657 13.2164 9.51388 13.2988 9.36714C13.5376 8.94207 13.7284 8.48517 13.8643 8.00386C13.7604 7.63456 13.6267 7.27803 13.4609 6.94038C13.2186 6.44489 13.4236 5.84565 13.9189 5.60249Z" fill="#191919"/>
</svg>
