<svg width="16" height="16" viewBox="0 0 16 16" fill="none" xmlns="http://www.w3.org/2000/svg">
<path d="M10.0928 1.6927C11.2565 0.529006 13.1429 0.52905 14.3066 1.6927C15.4704 2.85642 15.4704 4.74285 14.3066 5.90657L12.8135 7.39876L13.707 8.29231C14.0975 8.68279 14.0974 9.31584 13.707 9.70637C13.3165 10.0969 12.6835 10.0969 12.293 9.70637L11.3994 8.81282L6.8125 13.4017C6.49377 13.7204 6.0611 13.8996 5.61035 13.8997H5.41992C5.1276 15.1044 4.04456 15.9993 2.75 15.9993C1.23121 15.9993 0 14.7681 0 13.2493C9.48814e-05 11.9549 0.895081 10.8718 2.09961 10.5794V10.389C2.09973 9.93845 2.27917 9.50649 2.59766 9.18782L7.18555 4.59895L6.29297 3.70637C5.90256 3.31584 5.90248 2.6828 6.29297 2.29231C6.68347 1.90197 7.31654 1.90195 7.70703 2.29231L8.59961 3.18489L10.0928 1.6927ZM4.09961 10.514V11.0853L4.91406 11.8997H5.48535L9.98535 7.39876L8.59961 6.01301L4.09961 10.514ZM12.8926 3.10676C12.5099 2.72416 11.8895 2.72412 11.5068 3.10676L10.0137 4.59895L11.3994 5.98469L12.8926 4.49251C13.2752 4.10984 13.2752 3.48943 12.8926 3.10676ZM2 13.2493C2 13.6636 2.33581 13.9993 2.75 13.9993C3.14386 13.9993 3.46532 13.6958 3.49609 13.3099L2.68848 12.5023C2.30313 12.5336 2.00011 12.8559 2 13.2493Z" fill="#191919"/>
</svg>
