<svg width="16" height="16" viewBox="0 0 16 16" fill="none" xmlns="http://www.w3.org/2000/svg">
<path fill-rule="evenodd" clip-rule="evenodd" d="M14.9569 1.04282C13.7385 -0.175582 11.7677 -0.190417 10.5311 1.00951L8.92742 2.56562C8.2425 1.9029 7.15001 1.90976 6.47353 2.58621L5.56044 3.49928C4.87699 4.1827 4.87699 5.29077 5.56044 5.97419L5.90169 6.31543L2.39026 9.82674C2.04364 10.1733 1.86894 10.6268 1.86614 11.081C0.792388 11.3616 0 12.3382 0 13.4999C0 14.8806 1.11932 15.9999 2.5 15.9999C3.66177 15.9999 4.63848 15.2074 4.919 14.1335C5.37315 14.1307 5.82642 13.956 6.17293 13.6095L9.68446 10.0981L10.0263 10.4399C10.7097 11.1233 11.8177 11.1233 12.5012 10.4399L13.4142 9.52686C14.091 8.85013 14.0976 7.75704 13.4341 7.07216L14.9901 5.46876C16.1902 4.23217 16.1754 2.26128 14.9569 1.04282ZM7.3156 7.72995L3.9533 11.0921L4.90759 12.0464L8.26988 8.68421L7.3156 7.72995ZM2 13.4999C2 13.2238 2.22382 13 2.5 13C2.77618 13 3 13.2238 3 13.4999C3 13.776 2.77618 13.9999 2.5 13.9999C2.22382 13.9999 2 13.776 2 13.4999Z" fill="#191919"/>
</svg>
