<svg width="16" height="16" viewBox="0 0 16 16" fill="none" xmlns="http://www.w3.org/2000/svg">
<path d="M11.2748 3.56215C10.436 3.37446 9.4352 3.59171 8.53504 4.50809C8.39402 4.65165 8.20123 4.73251 7.99999 4.73251C7.79876 4.73251 7.60597 4.65165 7.46495 4.50809C6.56478 3.59171 5.56393 3.37446 4.72519 3.56216C3.86756 3.75408 3.10629 4.38484 2.73625 5.3109C2.04602 7.03823 2.65743 10.2545 8.00002 13.3852C13.3426 10.2545 13.954 7.03822 13.2637 5.31089C12.8937 4.38484 12.1324 3.75407 11.2748 3.56215ZM14.6566 4.75429C15.7848 7.5775 14.3003 11.5664 8.36774 14.9037C8.13942 15.0321 7.86063 15.0321 7.63232 14.9037C1.69969 11.5664 0.215196 7.57752 1.34334 4.7543C1.89024 3.38565 3.03928 2.40233 4.39762 2.09836C5.58236 1.83324 6.8733 2.09592 7.99999 2.97769C9.12667 2.09592 10.4176 1.83324 11.6024 2.09836C12.9607 2.40232 14.1097 3.38564 14.6566 4.75429Z" fill="#191919"/>
</svg>
