<svg width="16" height="16" viewBox="0 0 16 16" fill="none" xmlns="http://www.w3.org/2000/svg">
<path d="M12.6624 1C12.0383 1.48276 11.6713 2.26793 11.7598 3.11023C11.8484 3.95284 12.371 4.64474 13.0822 4.98707C13.7062 4.50431 14.0733 3.71914 13.9848 2.87684C13.8962 2.03423 13.3736 1.34233 12.6624 1Z" fill="#191919"/>
<path d="M13.7508 5.98778C14.1221 5.22651 14.8495 4.75515 15.6346 4.67649C16.056 5.34359 16.1325 6.20704 15.7612 6.96832C15.3899 7.72959 14.6624 8.20095 13.8773 8.27961C13.4559 7.61251 13.3795 6.74906 13.7508 5.98778Z" fill="#191919"/>
<path d="M15.4322 9.50605C14.7247 9.15673 13.8581 9.17097 13.1398 9.61979C12.4212 10.0688 12.0285 10.8421 12.0327 11.6314C12.7401 11.9808 13.6068 11.9665 14.3251 11.5177C15.0437 11.0687 15.4364 10.2954 15.4322 9.50605Z" fill="#191919"/>
<path d="M13.1855 13.6626C12.7706 12.9913 12.028 12.544 11.181 12.544C10.3339 12.544 9.59128 12.9913 9.17644 13.6626C9.59128 14.3339 10.3339 14.7811 11.181 14.7811C12.028 14.7811 12.7706 14.3339 13.1855 13.6626Z" fill="#191919"/>
<path d="M4.8197 12.5442C3.97263 12.5442 3.23002 12.9915 2.81518 13.6628C3.23002 14.334 3.97263 14.7813 4.8197 14.7813C5.66677 14.7813 6.40938 14.334 6.82422 13.6628C6.40938 12.9915 5.66677 12.5442 4.8197 12.5442Z" fill="#191919"/>
<path d="M0.567806 9.50618C1.27526 9.15685 2.14192 9.17109 2.86018 9.61991C3.57879 10.0689 3.97153 10.8422 3.96731 11.6316C3.25985 11.9809 2.3932 11.9666 1.67493 11.5178C0.956327 11.0688 0.563579 10.2956 0.567806 9.50618Z" fill="#191919"/>
<path d="M2.24921 5.9879C1.87791 5.22663 1.15046 4.75527 0.365362 4.67661C-0.0560242 5.34371 -0.132458 6.20716 0.238844 6.96844C0.610141 7.72971 1.33759 8.20107 2.12269 8.27973C2.54408 7.61263 2.62051 6.74919 2.24921 5.9879Z" fill="#191919"/>
<path d="M3.33761 1.00014C3.96166 1.4829 4.32873 2.26808 4.2402 3.11037C4.15164 3.95299 3.62898 4.64489 2.9178 4.98722C2.29376 4.50446 1.92668 3.71928 2.01521 2.87699C2.10377 2.03437 2.62643 1.34247 3.33761 1.00014Z" fill="#191919"/>
<path d="M6.08595 9.65886C6.03051 9.89851 6.29036 10.087 6.50099 9.95999L8.00065 9.05533L9.50031 9.95999C9.71094 10.087 9.97079 9.89851 9.91536 9.65886L9.52073 7.95286L10.8445 6.80515C11.0304 6.64403 10.9313 6.33871 10.6862 6.31744L8.93608 6.16551L8.25709 4.55897C8.16128 4.33227 7.84002 4.33227 7.74421 4.55897L7.06522 6.16551L5.31506 6.31744C5.07002 6.33871 4.97092 6.64403 5.15676 6.80515L6.48057 7.95286L6.08595 9.65886Z" fill="#191919"/>
</svg>
