<svg width="16" height="16" viewBox="0 0 16 16" fill="none" xmlns="http://www.w3.org/2000/svg">
<path fill-rule="evenodd" clip-rule="evenodd" d="M8.61423 1.09435C9.59017 1.63738 10.4894 2.36978 11.2784 3.15305C12.5869 4.45204 14 6.42086 14 8.89938C14 12.2597 11.2737 15 7.99995 15C4.72621 15 2 12.2597 2 8.89938C2 7.30657 2.69625 5.25685 4.21728 3.72204C4.4872 3.44968 4.91909 3.42478 5.21852 3.66432L5.81895 4.14466L7.61912 1.3444C7.833 1.0117 8.26848 0.902272 8.61423 1.09435ZM5.29416 12.5593C5.26504 12.3779 5.25 12.191 5.25 12C5.25 10.7682 5.88045 9.7849 6.43631 9.15162C6.72004 8.82835 7.0021 8.57569 7.21347 8.40332C7.74849 7.96703 8.22311 7.94398 8.78642 8.4033C8.99781 8.57567 9.27987 8.82834 9.56363 9.1516C10.1195 9.78488 10.75 10.7682 10.75 12C10.75 12.1909 10.735 12.3779 10.7058 12.5592C11.7863 11.7202 12.5 10.3957 12.5 8.89938C12.5 7.00627 11.4131 5.40038 10.2216 4.21758C9.63423 3.63448 9.04427 3.17748 8.60063 2.86636C8.55844 2.83678 8.51763 2.80855 8.47835 2.78171L6.63088 5.65554C6.51604 5.83419 6.33083 5.95578 6.12123 5.99011C5.91164 6.02444 5.69732 5.9683 5.53148 5.83562L4.83775 5.28064C3.91735 6.44503 3.5 7.8436 3.5 8.89938C3.5 10.3957 4.21375 11.7203 5.29416 12.5593ZM7.99996 9.70329C7.34275 10.2869 6.75 11.0866 6.75 12C6.75 12.9776 7.34821 13.5 7.99995 13.5C8.65173 13.5 9.25 12.9775 9.25 12C9.25 11.0866 8.6572 10.2869 7.99996 9.70329Z" fill="#191919"/>
</svg>
