<svg width="16" height="16" viewBox="0 0 16 16" fill="none" xmlns="http://www.w3.org/2000/svg">
<path fill-rule="evenodd" clip-rule="evenodd" d="M4.5 1C3.1638 1 2.01809 1.49718 1.21115 2.35998C0.411805 3.21465 0 4.36783 0 5.59673C0 6.85335 0.484797 7.96123 1.23986 9H5.38197L6.60557 6.55279C6.77496 6.214 7.12123 6 7.5 6C7.87877 6 8.22503 6.214 8.39443 6.55279L9.61803 9H14.7604C15.5153 7.96101 16 6.85324 16 5.59673C16 4.36783 15.5882 3.21465 14.7889 2.35998C13.9819 1.49718 12.8362 1 11.5 1C10.2866 1 9.34203 1.85037 8.73678 2.51005C8.46634 2.8048 8.21769 3.11431 8 3.3941C7.78231 3.11431 7.53366 2.8048 7.26322 2.51005C6.65797 1.85037 5.71345 1 4.5 1ZM12.9629 11H9C8.62123 11 8.27497 10.786 8.10557 10.4472L7.5 9.23607L6.89443 10.4472C6.72504 10.786 6.37877 11 6 11H3.03898C3.9668 11.8906 5.07149 12.8264 6.27809 13.8485L6.33862 13.8998L7.35215 14.7618C7.72457 15.0785 8.27139 15.0795 8.64499 14.7642L9.65999 13.9075L9.66219 13.9057L9.73966 13.8399C10.9401 12.8208 12.0393 11.8877 12.9629 11Z" fill="#191919"/>
</svg>
