<svg width="16" height="16" viewBox="0 0 16 16" fill="none" xmlns="http://www.w3.org/2000/svg">
<path fill-rule="evenodd" clip-rule="evenodd" d="M3 0C3.55228 0 4 0.447715 4 1H14L14.1289 1.00781C14.4251 1.04626 14.6912 1.21672 14.8506 1.47461C15.0327 1.76939 15.0495 2.13735 14.8945 2.44727L12.6182 7L14.8945 11.5527C15.0495 11.8626 15.0327 12.2306 14.8506 12.5254C14.6684 12.8202 14.3466 13 14 13H4V15C4 15.5523 3.55228 16 3 16C2.44772 16 2 15.5523 2 15V1C2 0.447715 2.44772 0 3 0ZM4 11H12.3818L10.6055 7.44727C10.4647 7.16574 10.4647 6.83426 10.6055 6.55273L12.3818 3H4V11Z" fill="#191919"/>
</svg>
