<svg width="16" height="16" viewBox="0 0 16 16" fill="none" xmlns="http://www.w3.org/2000/svg">
<path d="M2 15C2 15.5523 2.44772 16 3 16C3.55228 16 4 15.5523 4 15L4 1C4 0.447715 3.55229 0 3 0C2.44772 0 2 0.447715 2 1V15Z" fill="#191919"/>
<path d="M9.28532 9.31495C8.1918 8.48292 6.86919 8.0111 5.5 7.961V1.00397C6.8661 1.05085 8.18715 1.51539 9.28361 2.33774L9.40168 2.42629C10.7452 3.43394 12.434 3.8666 14.0965 3.6291C14.5734 3.56098 15 3.93099 15 4.41267V9.77228C15 10.1899 14.6878 10.5446 14.2745 10.6037C12.5118 10.8555 10.7023 10.3931 9.28532 9.31495Z" fill="#191919"/>
</svg>
