<svg width="16" height="16" viewBox="0 0 16 16" fill="none" xmlns="http://www.w3.org/2000/svg">
<path d="M8.2336 0.356321C8.50395 0.0348243 8.94634 -0.083277 9.34102 0.060423C9.73581 0.204351 9.99922 0.579673 9.99922 0.999876V5.99988H13.7258C14.1146 5.99988 14.4689 6.22552 14.633 6.578C14.797 6.93041 14.7416 7.34593 14.4914 7.64343L7.76387 15.6434C7.49341 15.9649 7.05115 16.0832 6.65645 15.9393C6.26168 15.7954 5.99922 15.4201 5.99922 14.9999V9.99988H2.27169C1.88286 9.99988 1.52957 9.77423 1.36544 9.42175C1.20138 9.06936 1.25596 8.65388 1.50606 8.35632L8.2336 0.356321ZM4.41915 7.99988H7.99922V12.2567L11.5793 7.99988H7.99922V3.74206L4.41915 7.99988Z" fill="#191919"/>
</svg>
