<svg width="16" height="16" viewBox="0 0 16 16" fill="none" xmlns="http://www.w3.org/2000/svg">
<path d="M6.96175 0.356321C7.2321 0.0348243 7.67449 -0.083277 8.06917 0.060423C8.46396 0.204351 8.72737 0.579673 8.72737 0.999876V5.99988H12.4539C12.8428 5.99988 13.197 6.22552 13.3612 6.578C13.5251 6.93041 13.4697 7.34593 13.2196 7.64343L6.49202 15.6434C6.22156 15.9649 5.7793 16.0832 5.3846 15.9393C4.98983 15.7954 4.72737 15.4201 4.72737 14.9999V9.99988H0.999835C0.611011 9.99988 0.257721 9.77423 0.0935848 9.42175C-0.0704702 9.06936 -0.015894 8.65388 0.23421 8.35632L6.96175 0.356321ZM3.1473 7.99988H6.72737V12.2567L10.3075 7.99988H6.72737V3.74206L3.1473 7.99988Z" fill="#191919"/>
<path d="M12.4878 13.8699L12.0263 12.4144L11.5648 13.8699H12.4878ZM12.8428 14.9349H11.2098L10.8548 15.9999H9.3993L11.2808 11.0299H12.7718L14.6533 15.9999H13.1978L12.8428 14.9349Z" fill="#191919"/>
</svg>
