<svg width="16" height="16" viewBox="0 0 16 16" fill="none" xmlns="http://www.w3.org/2000/svg">
<g clip-path="url(#clip0_20355_23085)">
<path d="M12.963 6.35637C13.3184 5.93367 13.9495 5.87885 14.3722 6.2343C14.7948 6.58975 14.8487 7.22079 14.4933 7.64348L7.76669 15.6435C7.41126 16.0659 6.78015 16.1208 6.35751 15.7655C5.93493 15.4102 5.8803 14.7791 6.23544 14.3564L12.963 6.35637Z" fill="#191919"/>
<path fill-rule="evenodd" clip-rule="evenodd" d="M8.23544 0.356369C8.50574 0.0349409 8.94825 -0.0830862 9.34287 0.0604706C9.73765 0.204399 10.0011 0.57972 10.0011 0.999924V4.96867L14.3507 1.24113C14.77 0.881713 15.4004 0.930207 15.7599 1.34953C16.1192 1.76886 16.0707 2.39932 15.6515 2.75871L1.65146 14.7587C1.23217 15.1179 0.601653 15.0695 0.24228 14.6503C-0.117077 14.2311 -0.0684371 13.6006 0.350678 13.2411L4.13193 9.99992H2.27353C1.88488 9.99978 1.53138 9.77413 1.36728 9.4218C1.20329 9.06954 1.25804 8.6539 1.50791 8.35637L8.23544 0.356369ZM4.42099 7.99992H6.46591L8.00107 6.68352V3.74211L4.42099 7.99992Z" fill="#191919"/>
</g>
<defs>
<clipPath id="clip0_20355_23085">
<rect width="16" height="16" fill="white"/>
</clipPath>
</defs>
</svg>
