<svg width="16" height="16" viewBox="0 0 16 16" fill="none" xmlns="http://www.w3.org/2000/svg">
<path d="M1.61719 0.576643C1.99086 0.421862 2.42103 0.507442 2.70703 0.79344L12.6924 10.7788C12.887 10.9735 12.9934 11.24 12.9854 11.5151C12.9772 11.7902 12.8551 12.05 12.6494 12.2329C11.6489 13.1224 10.3898 13.7291 9 13.9282V15.0005C8.9998 15.5526 8.55216 16.0005 8 16.0005C7.44784 16.0005 7.0002 15.5526 7 15.0005V13.9272C3.60797 13.4419 1.0002 10.5267 1 7.00047V1.50047C1 1.09611 1.24367 0.731488 1.61719 0.576643Z" fill="#191919"/>
<path d="M13.293 0.79344C13.5789 0.507638 14.0093 0.422045 14.3828 0.576643C14.7562 0.731563 15 1.09622 15 1.50047V7.00047C14.9999 8.18952 14.701 9.30888 14.1777 10.2895C14.1049 10.156 14.0215 10.0276 13.9248 9.90867L13.7529 9.71824L9.06055 5.02586L13.293 0.79344Z" fill="#191919"/>
<path d="M7.36914 0.225081C7.76191 -0.0952189 8.34093 -0.0726574 8.70703 0.29344L10.1895 1.77586L8 3.96532L5.81055 1.77586L7.29297 0.29344L7.36914 0.225081Z" fill="#191919"/>
</svg>
