<svg width="16" height="16" viewBox="0 0 16 16" fill="none" xmlns="http://www.w3.org/2000/svg">
<path fill-rule="evenodd" clip-rule="evenodd" d="M9.5 4C9.5 2.34315 10.8431 1 12.5 1H13.5C14.0523 1 14.5 1.44772 14.5 2V14C14.5 14.5523 14.0523 15 13.5 15H12.5C11.9477 15 11.5 14.5523 11.5 14V11H10.5C9.94771 11 9.5 10.5523 9.5 10V4Z" fill="#191919"/>
<path fill-rule="evenodd" clip-rule="evenodd" d="M2.5 2C3.05228 2 3.5 2.44772 3.5 3V6.5C3.5 7.32843 4.17157 8 5 8C5.82843 8 6.5 7.32843 6.5 6.5V3C6.5 2.44772 6.94772 2 7.5 2C8.05228 2 8.5 2.44772 8.5 3V6.5C8.5 7.8962 7.68247 9.10145 6.5 9.66319V14C6.5 14.5523 6.05228 15 5.5 15H4.5C3.94772 15 3.5 14.5523 3.5 14V9.66318C2.31753 9.10145 1.5 7.8962 1.5 6.5V3C1.5 2.44772 1.94772 2 2.5 2ZM5 2C5.55228 2 6 2.44772 6 3V6.5C6 7.05228 5.55228 7.5 5 7.5C4.44772 7.5 4 7.05228 4 6.5V3C4 2.44772 4.44772 2 5 2Z" fill="#191919"/>
</svg>
