<svg width="16" height="16" viewBox="0 0 16 16" fill="none" xmlns="http://www.w3.org/2000/svg">
<path d="M2.55071 7.25C2.79432 5.46338 3.8959 3.94974 5.4267 3.13788C5.40497 3.18465 5.38367 3.23187 5.36279 3.2795C4.89279 4.35181 4.59319 5.73652 4.51841 7.25H2.55071ZM8 1C4.13401 1 1 4.13401 1 8C1 11.866 4.13401 15 8 15C11.866 15 15 11.866 15 8C15 4.13401 11.866 1 8 1ZM8 2.5C8.13876 2.5 8.32566 2.55982 8.55773 2.78242C8.79412 3.00916 9.04055 3.37326 9.26338 3.88166C9.6394 4.73956 9.90608 5.91213 9.97957 7.25H6.02043C6.09392 5.91213 6.3606 4.73956 6.73662 3.88166C6.95945 3.37326 7.20588 3.00916 7.44227 2.78242C7.67434 2.55982 7.86124 2.5 8 2.5ZM11.4816 7.25C11.4068 5.73652 11.1072 4.35181 10.6372 3.2795C10.6163 3.23187 10.595 3.18465 10.5733 3.13788C12.1041 3.94974 13.2057 5.46338 13.4493 7.25H11.4816ZM9.97957 8.75C9.90608 10.0879 9.6394 11.2604 9.26338 12.1183C9.04055 12.6267 8.79412 12.9908 8.55773 13.2176C8.32566 13.4402 8.13876 13.5 8 13.5C7.86124 13.5 7.67434 13.4402 7.44227 13.2176C7.20588 12.9908 6.95945 12.6267 6.73662 12.1183C6.3606 11.2604 6.09392 10.0879 6.02043 8.75H9.97957ZM10.5733 12.8621C10.595 12.8154 10.6163 12.7681 10.6372 12.7205C11.1072 11.6482 11.4068 10.2635 11.4816 8.75H13.4493C13.2057 10.5366 12.1041 12.0503 10.5733 12.8621ZM5.4267 12.8621C3.89591 12.0503 2.79432 10.5366 2.55071 8.75H4.51841C4.59319 10.2635 4.89279 11.6482 5.36279 12.7205C5.38367 12.7681 5.40498 12.8154 5.4267 12.8621Z" fill="#191919"/>
</svg>
