<svg width="16" height="16" viewBox="0 0 16 16" fill="none" xmlns="http://www.w3.org/2000/svg">
<path d="M9.00006 13H13.0001V11H9.00006V13ZM3.00006 13H7.00006V11H3.00006V13ZM9.00006 9H13.0001V7H9.00006V9ZM3.00006 9H7.00006V7H3.00006V9ZM9.00006 5H13.0001V3H9.00006V5ZM3.00006 5H7.00006V3H3.00006V5ZM15.0001 13.333C15.0001 14.2535 14.2535 15 13.3331 15H2.66705C1.74658 15 1.00006 14.2535 1.00006 13.333V2.66699C1.00006 1.74652 1.74658 1 2.66705 1H13.3331L13.504 1.00879C14.3443 1.09422 15.0001 1.80411 15.0001 2.66699V13.333Z" fill="#191919"/>
</svg>
