<svg width="16" height="16" viewBox="0 0 16 16" fill="none" xmlns="http://www.w3.org/2000/svg">
<path d="M4.5 8C4.5 9.933 6.067 11.5 8 11.5L8 4.5C6.067 4.5 4.5 6.067 4.5 8Z" fill="#191919"/>
<path fill-rule="evenodd" clip-rule="evenodd" d="M8 16C3.58172 16 -5.4282e-07 12.4183 -3.49691e-07 8C-1.56562e-07 3.58172 3.58172 -5.4282e-07 8 -3.49691e-07C12.4183 -1.56562e-07 16 3.58172 16 8C16 12.4183 12.4183 16 8 16ZM8 14C4.68629 14 2 11.3137 2 8C2 4.68629 4.68629 2 8 2C11.3137 2 14 4.68629 14 8C14 11.3137 11.3137 14 8 14Z" fill="#191919"/>
</svg>
