<svg width="16" height="16" viewBox="0 0 16 16" fill="none" xmlns="http://www.w3.org/2000/svg">
<path d="M11.5 8C11.5 6.067 9.933 4.5 8 4.5L8 11.5C9.933 11.5 11.5 9.933 11.5 8Z" fill="#191919"/>
<path fill-rule="evenodd" clip-rule="evenodd" d="M8 9.5399e-08C12.4183 1.48086e-07 16 3.58172 16 8C16 12.4183 12.4183 16 8 16C3.58172 16 4.27116e-08 12.4183 9.5399e-08 8C1.48086e-07 3.58172 3.58172 4.27116e-08 8 9.5399e-08ZM8 2C11.3137 2 14 4.68629 14 8C14 11.3137 11.3137 14 8 14C4.68629 14 2 11.3137 2 8C2 4.68629 4.68629 2 8 2Z" fill="#191919"/>
</svg>
