<svg width="16" height="16" viewBox="0 0 16 16" fill="none" xmlns="http://www.w3.org/2000/svg">
<path d="M15 8C15 11.866 11.866 15 8 15C4.13401 15 1 11.866 1 8C1 4.13401 4.13401 1 8 1C11.866 1 15 4.13401 15 8ZM7.60686 5.56175C7.62218 5.55148 7.70282 5.5 8 5.5C8.30376 5.5 8.5 5.69624 8.5 6C8.5 6.1766 8.4597 6.26871 8.41959 6.33257C8.36725 6.4159 8.28853 6.49475 8.13226 6.63096C8.11535 6.6457 8.0972 6.66126 8.0781 6.67765C7.78255 6.93116 7.25007 7.38792 7.25007 8.25C7.25007 8.66421 7.58586 9 8.00007 9C8.41429 9 8.75007 8.66421 8.75007 8.25C8.75007 8.10237 8.77145 8.06362 9.11782 7.76174C9.27402 7.6256 9.50779 7.4202 9.68981 7.13041C9.88405 6.82116 10 6.45126 10 6C10 4.86782 9.13218 4 8 4C7.54718 4 7.12978 4.07548 6.77107 4.31618C6.41991 4.55181 6.22347 4.88259 6.08236 5.1583C5.89365 5.52702 6.03957 5.97892 6.4083 6.16764C6.77702 6.35635 7.22892 6.21043 7.41764 5.8417C7.53043 5.62132 7.584 5.57709 7.60686 5.56175ZM8 12C8.55228 12 9 11.5523 9 11C9 10.4477 8.55228 10 8 10C7.44772 10 7 10.4477 7 11C7 11.5523 7.44772 12 8 12Z" fill="#191919"/>
</svg>
