<svg width="16" height="16" viewBox="0 0 16 16" fill="none" xmlns="http://www.w3.org/2000/svg">
<path d="M7.60684 5.56175C7.58397 5.57709 7.53041 5.62132 7.41761 5.8417C7.22889 6.21043 6.777 6.35635 6.40827 6.16764C6.03955 5.97892 5.89362 5.52702 6.08234 5.1583C6.22345 4.88259 6.41988 4.55181 6.77104 4.31618C7.12975 4.07548 7.54715 4 7.99998 4C9.13216 4 9.99998 4.86782 9.99998 6C9.99998 6.45126 9.88403 6.82116 9.68978 7.13041C9.50776 7.4202 9.274 7.6256 9.11779 7.76174C8.77143 8.06362 8.75005 8.10237 8.75005 8.25C8.75005 8.66421 8.41426 9 8.00005 9C7.58583 9 7.25005 8.66421 7.25005 8.25C7.25005 7.38792 7.78253 6.93116 8.07807 6.67765C8.09717 6.66126 8.11532 6.6457 8.13223 6.63096C8.28851 6.49475 8.36723 6.4159 8.41957 6.33257C8.45968 6.26871 8.49998 6.1766 8.49998 6C8.49998 5.69624 8.30373 5.5 7.99998 5.5C7.7028 5.5 7.62215 5.55148 7.60684 5.56175Z" fill="#191919"/>
<path d="M8 12C8.55228 12 9 11.5523 9 11C9 10.4477 8.55228 10 8 10C7.44772 10 7 10.4477 7 11C7 11.5523 7.44772 12 8 12Z" fill="#191919"/>
<path d="M8 15C11.866 15 15 11.866 15 8C15 4.13401 11.866 1 8 1C4.13401 1 1 4.13401 1 8C1 11.866 4.13401 15 8 15ZM8 13.5C4.96243 13.5 2.5 11.0376 2.5 8C2.5 4.96243 4.96243 2.5 8 2.5C11.0376 2.5 13.5 4.96243 13.5 8C13.5 11.0376 11.0376 13.5 8 13.5Z" fill="#191919"/>
</svg>
