<svg width="16" height="16" viewBox="0 0 16 16" fill="none" xmlns="http://www.w3.org/2000/svg">
<path d="M5.00063 1C5.00063 0.447715 4.55292 0 4.00063 0C3.44835 0 3.00063 0.447715 3.00063 1V3.52786C3.00063 3.92221 3.23239 4.27974 3.59239 4.44073C3.95238 4.60173 4.37338 4.53611 4.66731 4.27321C5.33257 3.67817 6.14646 3.27086 7.02518 3.09607C7.99508 2.90315 9.00042 3.00216 9.91405 3.3806C10.8277 3.75904 11.6086 4.3999 12.158 5.22215C12.7074 6.04439 13.0006 7.01109 13.0006 8C13.0006 8.9889 12.7074 9.9556 12.158 10.7779C11.6086 11.6001 10.8277 12.241 9.91405 12.6194C9.4038 12.8307 9.1615 13.4157 9.37285 13.926C9.5842 14.4362 10.1692 14.6785 10.6794 14.4672C11.9585 13.9373 13.0517 13.0401 13.8209 11.889C14.5901 10.7378 15.0006 9.38447 15.0006 8C15.0006 6.61553 14.5901 5.26215 13.8209 4.11101C13.0517 2.95986 11.9585 2.06266 10.6794 1.53284C9.40033 1.00303 7.99287 0.864406 6.635 1.1345C6.06701 1.24748 5.51838 1.42985 5.00063 1.67544V1Z" fill="#191919"/>
<path d="M8.00014 4.5C8.55243 4.5 9.00014 4.94772 9.00014 5.5V7.58579L10.2073 8.79289C10.5978 9.18342 10.5978 9.81658 10.2073 10.2071C9.81673 10.5976 9.18356 10.5976 8.79304 10.2071L7.29304 8.70711C7.1055 8.51957 7.00014 8.26522 7.00014 8V5.5C7.00014 4.94772 7.44786 4.5 8.00014 4.5Z" fill="#191919"/>
<path d="M2.98014 11.4649C3.40971 11.0353 4.1062 11.0353 4.53577 11.4649C4.96539 11.8944 4.9658 12.5912 4.53627 13.0208C4.10673 13.4505 3.41025 13.4505 2.98063 13.021C2.55106 12.5914 2.55056 11.8944 2.98014 11.4649Z" fill="#191919"/>
<path d="M5.75064 13.6699C5.86922 13.0741 6.44836 12.6872 7.04418 12.8058C7.64002 12.9243 8.02744 13.5035 7.90892 14.0993C7.7904 14.6952 7.2113 15.0821 6.61546 14.9636C6.01963 14.845 5.63206 14.2658 5.75064 13.6699Z" fill="#191919"/>
</svg>
