<svg width="16" height="16" viewBox="0 0 16 16" fill="none" xmlns="http://www.w3.org/2000/svg">
<path d="M4.75012 14C3.23134 14 2.00012 12.7688 2.00012 11.25V6.95875C1.66326 7.07592 1.28069 6.9386 1.10026 6.61662C0.897764 6.25528 1.02653 5.79819 1.38788 5.5957L6.65575 2.64361C7.4909 2.1756 8.50935 2.1756 9.34451 2.64361L14.6124 5.5957C14.9737 5.79819 15.1025 6.25528 14.9 6.61662C14.7195 6.9386 14.337 7.07592 14.0001 6.95875V11.25C14.0001 12.7688 12.7689 14 11.2501 14H4.75012ZM8.61121 3.95215C8.2316 3.73942 7.76866 3.73942 7.38905 3.95215L3.50012 6.13149V11.25C3.50012 11.9404 4.05976 12.5 4.75012 12.5H5.50012V9.49997C5.50012 8.11926 6.61941 6.99997 8.00012 6.99997C9.38083 6.99997 10.5001 8.11926 10.5001 9.49997V12.5H11.2501C11.9405 12.5 12.5001 11.9404 12.5001 11.25V6.13148L8.61121 3.95215ZM9.00012 12.5V9.49997C9.00012 8.94769 8.5524 8.49997 8.00012 8.49997C7.44784 8.49997 7.00012 8.94769 7.00012 9.49997V12.5H9.00012Z" fill="#191919"/>
</svg>
