<svg width="16" height="16" viewBox="0 0 16 16" fill="none" xmlns="http://www.w3.org/2000/svg">
<path d="M2.00012 11.25C2.00012 12.7688 3.23134 14 4.75012 14H11.2501C12.7689 14 14.0001 12.7688 14.0001 11.25V6.95875C14.337 7.07592 14.7195 6.9386 14.9 6.61662C15.1025 6.25528 14.9737 5.79819 14.6124 5.5957L9.34451 2.64361C8.50935 2.1756 7.4909 2.1756 6.65575 2.64361L1.38788 5.5957C1.02653 5.79819 0.897764 6.25528 1.10026 6.61662C1.28069 6.9386 1.66326 7.07592 2.00012 6.95875V11.25ZM8.00012 7.99997C9.10469 7.99997 10.0001 8.8954 10.0001 9.99997V12.5H6.00012V9.99997C6.00012 8.8954 6.89555 7.99997 8.00012 7.99997Z" fill="#191919"/>
</svg>
