<svg width="16" height="16" viewBox="0 0 16 16" fill="none" xmlns="http://www.w3.org/2000/svg">
<path d="M8 7C8.55229 6.99999 8.99999 7.44772 9 8V11.5C8.99999 12.0523 8.55227 12.5 8 12.5C7.44776 12.5 7.00001 12.0523 7 11.5V8C6.99999 7.44772 7.44772 7.00001 8 7Z" fill="#191919"/>
<path d="M8 3.5C8.69036 3.5 9.25 4.05964 9.25 4.75C9.25 5.44036 8.69036 6 8 6C7.30964 6 6.75 5.44036 6.75 4.75C6.75 4.05964 7.30964 3.5 8 3.5Z" fill="#191919"/>
<path fill-rule="evenodd" clip-rule="evenodd" d="M8 0C12.4183 0 16 3.58172 16 8C16 12.4183 12.4183 16 8 16C3.58174 16 3.29867e-05 12.4183 0 8C0 3.58172 3.58172 0 8 0ZM8 2C4.68629 2 2 4.68629 2 8C2.00003 11.3137 4.68631 14 8 14C11.3137 14 14 11.3137 14 8C14 4.68629 11.3137 2 8 2Z" fill="#191919"/>
</svg>
