<svg width="16" height="16" viewBox="0 0 16 16" fill="none" xmlns="http://www.w3.org/2000/svg">
<path d="M8 3C8.55228 3 9 2.55228 9 2C9 1.44772 8.55228 1 8 1C7.44772 1 7 1.44772 7 2C7 2.55228 7.44772 3 8 3Z" fill="#191919"/>
<path d="M11.5355 4.46447C11.9261 4.85499 12.5592 4.85499 12.9498 4.46447C13.3403 4.07394 13.3403 3.44078 12.9498 3.05025C12.5592 2.65973 11.9261 2.65973 11.5355 3.05025C11.145 3.44078 11.145 4.07394 11.5355 4.46447Z" fill="#191919"/>
<path d="M14.0001 9.00002C13.4478 9.00002 13.0001 8.5523 13.0001 8.00002C13.0001 7.44773 13.4478 7.00002 14.0001 7.00002C14.5523 7.00002 15.0001 7.44773 15.0001 8.00002C15.0001 8.5523 14.5523 9.00002 14.0001 9.00002Z" fill="#191919"/>
<path d="M1 7.99997C1 8.55225 1.44772 8.99997 2 8.99997C2.55228 8.99997 3 8.55225 3 7.99997C3 7.44768 2.55228 6.99997 2 6.99997C1.44772 6.99997 1 7.44768 1 7.99997Z" fill="#191919"/>
<path d="M3.05028 4.46446C2.65976 4.07394 2.65976 3.44077 3.05028 3.05025C3.4408 2.65972 4.07397 2.65972 4.46449 3.05025C4.85502 3.44077 4.85502 4.07394 4.46449 4.46446C4.07397 4.85499 3.4408 4.85499 3.05028 4.46446Z" fill="#191919"/>
<path d="M8 4C5.79086 4 4 5.79086 4 8C4 9.17443 4.4951 10.2385 5.30797 10.974C5.45994 11.1115 5.5 11.2348 5.5 11.3023V13.25C5.5 14.2165 6.2835 15 7.25 15H8.75C9.7165 15 10.5 14.2165 10.5 13.25V11.3023C10.5 11.2348 10.5401 11.1115 10.692 10.974C11.5049 10.2385 12 9.17443 12 8C12 5.79086 10.2091 4 8 4ZM5.5 8C5.5 6.61929 6.61929 5.5 8 5.5C9.38071 5.5 10.5 6.61929 10.5 8C10.5 8.74566 10.1879 9.40724 9.68565 9.86167C9.38864 10.1304 9.11149 10.5203 9.02653 11H6.97347C6.88851 10.5203 6.61136 10.1304 6.31435 9.86167C5.81211 9.40724 5.5 8.74566 5.5 8ZM7 13.25V12.5H9V13.25C9 13.3881 8.88807 13.5 8.75 13.5H7.25C7.11193 13.5 7 13.3881 7 13.25Z" fill="#191919"/>
</svg>
