<svg width="16" height="16" viewBox="0 0 16 16" fill="none" xmlns="http://www.w3.org/2000/svg">
<path d="M5 7C4.44772 7 4 7.44772 4 8C4 8.55228 4.44772 9 5 9C5.55228 9 6 8.55228 6 8C6 7.44772 5.55228 7 5 7Z" fill="#191919"/>
<path d="M5.00134 3.99994C2.79146 3.99994 1 5.7914 1 8.00128C1 10.2112 2.79146 12.0026 5.00134 12.0026C6.26668 12.0026 7.39435 11.4148 8.12674 10.5H8.99995C9.14801 10.5 9.29277 10.4561 9.41597 10.374L10.4999 9.65134L11.5839 10.374C11.7071 10.4561 11.8519 10.5 11.9999 10.5H12.2501C12.4318 10.5 12.6072 10.434 12.744 10.3144L14.744 8.56431C14.9068 8.4219 15.0001 8.21615 15.0001 7.99988C15.0001 7.7836 14.9068 7.57786 14.744 7.43544L12.744 5.68551C12.6073 5.56589 12.4318 5.49995 12.2501 5.49995H8.12461C7.39216 4.58658 6.26545 3.99994 5.00134 3.99994ZM2.5 8.00128C2.5 6.61983 3.61989 5.49994 5.00134 5.49994C5.88591 5.49994 6.66384 5.95853 7.10963 6.65448C7.24751 6.86974 7.48554 6.99995 7.74118 6.99995H11.9683L13.1112 7.9999L12.0802 8.90205L10.916 8.12591C10.664 7.95796 10.3358 7.95796 10.0839 8.12591L8.77286 8.99995H7.74288C7.48699 8.99995 7.24875 9.13042 7.11094 9.34603C6.66538 10.0431 5.88677 10.5026 5.00134 10.5026C3.61989 10.5026 2.5 9.38274 2.5 8.00128Z" fill="#191919"/>
</svg>
