<svg width="16" height="16" viewBox="0 0 16 16" fill="none" xmlns="http://www.w3.org/2000/svg">
<path fill-rule="evenodd" clip-rule="evenodd" d="M6.33374 1C6.33374 0.447715 5.88602 0 5.33374 0C4.78146 0 4.33374 0.447715 4.33374 1V2.00019H3.02052C3.00777 1.99994 2.99497 1.99994 2.98214 2.00019H1.00023C0.447947 2.00019 0.000231321 2.4479 0.000231321 3.00019C0.000231321 3.55247 0.447947 4.00019 1.00023 4.00019H2.23493C2.56948 5.00707 3.20523 6.26439 4.17588 7.53011C3.23513 8.48097 2.04269 9.39128 0.567852 10.0985C0.0698612 10.3373 -0.140257 10.9346 0.0985396 11.4326C0.337336 11.9306 0.93462 12.1407 1.43261 11.9019C3.07178 11.1159 4.41913 10.1071 5.50031 9.0343C5.82479 9.35631 6.17299 9.67231 6.54551 9.978C6.97245 10.3283 7.60257 10.2662 7.95291 9.83931C8.30325 9.41236 8.24116 8.78225 7.81422 8.43191C7.45718 8.13893 7.12769 7.83659 6.82459 7.53029C7.7986 6.25993 8.43225 5.00137 8.76526 4.00019H10.0002C10.5525 4.00019 11.0002 3.55247 11.0002 3.00019C11.0002 2.4479 10.5525 2.00019 10.0002 2.00019H8.01832C8.00549 1.99994 7.9927 1.99994 7.97994 2.00019H6.33374V1ZM4.37643 4.00019H6.62453C6.37034 4.58209 5.99973 5.2567 5.50021 5.95793C4.99969 5.25501 4.6298 4.58016 4.37643 4.00019Z" fill="#191919"/>
<path fill-rule="evenodd" clip-rule="evenodd" d="M12.4164 6.59937C12.2571 6.23538 11.8975 6.00019 11.5002 6.00019C11.1029 6.00019 10.7433 6.23538 10.5841 6.59937L7.08407 14.5994C6.86271 15.1053 7.09343 15.695 7.59941 15.9163C8.10539 16.1377 8.69502 15.907 8.91639 15.401L9.52925 14.0002H13.4712L14.0841 15.401C14.3054 15.907 14.8951 16.1377 15.4011 15.9163C15.907 15.695 16.1378 15.1053 15.9164 14.5994L12.4164 6.59937ZM11.5002 9.49508L12.5962 12.0002H10.4042L11.5002 9.49508Z" fill="#191919"/>
</svg>
