<svg width="16" height="16" viewBox="0 0 16 16" fill="none" xmlns="http://www.w3.org/2000/svg">
<g clip-path="url(#clip0_28915_27)">
<path fill-rule="evenodd" clip-rule="evenodd" d="M6.92454 2.099C7.16791 2.58738 7.17291 3.24673 6.79184 3.77882C6.29325 4.47499 6 5.3268 6 6.25006C6 8.59727 7.90279 10.5001 10.25 10.5001C10.8708 10.5001 11.458 10.3676 11.987 10.1303C12.5834 9.86285 13.2285 9.99743 13.6594 10.3329C13.8827 10.5068 14.0903 10.7667 14.1821 11.1088C14.2787 11.4687 14.2255 11.8434 14.0426 12.1689C12.7593 14.453 10.3109 15.9998 7.5 15.9998C3.35786 15.9998 0 12.642 0 8.49982C0 5.15781 2.18519 2.32879 5.20213 1.35867C5.55784 1.24428 5.93547 1.2671 6.26849 1.43323C6.58507 1.59115 6.79842 1.84591 6.92454 2.099ZM4.44767 3.92353C2.97138 4.91029 2 6.59241 2 8.49982C2 11.5374 4.46243 13.9998 7.5 13.9998C9.01348 13.9998 10.385 13.3887 11.3802 12.398C11.0133 12.4651 10.6355 12.5001 10.25 12.5001C6.79822 12.5001 4 9.70184 4 6.25006C4 5.42855 4.15892 4.64306 4.44767 3.92353Z" fill="#191919"/>
<path fill-rule="evenodd" clip-rule="evenodd" d="M12.6666 0C13.1517 0 13.5668 0.348159 13.6513 0.825845L13.7592 1.43577C13.8916 2.1847 14.4374 2.79368 15.1674 3.0071L15.2805 3.04018C15.7069 3.16483 15.9999 3.55579 15.9999 4C15.9999 4.44421 15.7069 4.83517 15.2805 4.95982L15.1674 4.9929C14.4374 5.20632 13.8916 5.81531 13.7592 6.56423L13.6513 7.17416C13.5668 7.65184 13.1517 8 12.6666 8C12.1815 8 11.7663 7.65184 11.6819 7.17416L11.574 6.56423C11.4415 5.81531 10.8958 5.20632 10.1658 4.9929L10.0526 4.95982C9.62628 4.83517 9.33325 4.44421 9.33325 4C9.33325 3.55579 9.62628 3.16483 10.0526 3.04018L10.1658 3.0071C10.8958 2.79368 11.4415 2.18469 11.574 1.43577L11.6819 0.825845C11.7663 0.348159 12.1815 0 12.6666 0Z" fill="#191919"/>
</g>
<defs>
<clipPath id="clip0_28915_27">
<rect width="16" height="16" fill="white"/>
</clipPath>
</defs>
</svg>
