<svg width="16" height="16" viewBox="0 0 16 16" fill="none" xmlns="http://www.w3.org/2000/svg">
<path d="M2 2C2.55228 2 3 2.44772 3 3V11C3 11.5523 3.44772 12 4 12H14C14.5523 12 15 12.4477 15 13C15 13.5523 14.5523 14 14 14H4C2.34315 14 1 12.6569 1 11V3C1 2.44772 1.44772 2 2 2Z" fill="#6C6C6C"/>
<path d="M9.96387 3.0459C10.3315 2.00298 11.6808 1.70774 12.4502 2.50195L12.5254 2.58594L14.2656 4.65625L14.3271 4.73828C14.6124 5.15721 14.5398 5.73228 14.1436 6.06543C13.7471 6.39856 13.1673 6.37175 12.8037 6.01855L12.7344 5.94336L11.6055 4.59961L10.8887 7.21094C10.63 8.15135 9.56939 8.58289 8.73828 8.1377L8.5752 8.03711L7.08789 6.9834L6.47559 9.71875C6.35477 10.2576 5.82013 10.5963 5.28125 10.4756C4.7424 10.3548 4.40366 9.82013 4.52441 9.28125L5.30078 5.81445L5.35645 5.625C5.66484 4.77528 6.66561 4.39042 7.46387 4.81445L7.63184 4.91797L9.14844 5.99219L9.93066 3.15234L9.96387 3.0459Z" fill="#6C6C6C"/>
</svg>
