<svg width="16" height="16" viewBox="0 0 16 16" fill="none" xmlns="http://www.w3.org/2000/svg">
<path d="M3.94949 1.05656C4.33248 0.898773 4.77086 1.08132 4.92865 1.46431L5.44365 2.71431C5.60144 3.09729 5.41888 3.53567 5.0359 3.69346C4.65291 3.85125 4.21453 3.66869 4.05674 3.28571L3.54174 2.03571C3.38396 1.65273 3.56651 1.21435 3.94949 1.05656ZM1.05384 3.97147C1.20767 3.58688 1.64415 3.39982 2.02874 3.55365L3.27874 4.05365C3.66333 4.20749 3.85039 4.64396 3.69655 5.02855C3.54272 5.41314 3.10624 5.6002 2.72165 5.44637L1.47165 4.94637C1.08706 4.79253 0.900007 4.35605 1.05384 3.97147ZM12.3038 10.9715C12.4576 10.5869 12.8941 10.3998 13.2787 10.5536L14.5287 11.0536C14.9133 11.2075 15.1003 11.644 14.9465 12.0285C14.7927 12.4131 14.3562 12.6002 13.9716 12.4464L12.7216 11.9464C12.337 11.7925 12.15 11.356 12.3038 10.9715ZM10.9716 12.3036C11.3562 12.1498 11.7927 12.3369 11.9465 12.7215L12.4465 13.9715C12.6003 14.356 12.4133 14.7925 12.0287 14.9464C11.6441 15.1002 11.2076 14.9131 11.0538 14.5285L10.5538 13.2785C10.4 12.894 10.587 12.4575 10.9716 12.3036Z" fill="#191919"/>
<path d="M12.4698 3.53034C11.1361 2.19659 8.86428 2.19659 7.53053 3.53034C7.23764 3.82323 6.76277 3.82323 6.46987 3.53034C6.17698 3.23745 6.17698 2.76257 6.46987 2.46968C8.3894 0.550148 11.611 0.550148 13.5305 2.46968C15.45 4.38922 15.45 7.61081 13.5305 9.53034C13.2376 9.82323 12.7627 9.82323 12.4698 9.53034C12.1769 9.23746 12.1769 8.76257 12.4698 8.46968C13.8036 7.13593 13.8036 4.86409 12.4698 3.53034ZM10.0305 5.96968C10.3234 6.26257 10.3234 6.73745 10.0305 7.03034L7.03057 10.0303C6.73767 10.3232 6.2628 10.3232 5.96991 10.0303C5.67701 9.73746 5.67701 9.26257 5.96991 8.96968L8.96991 5.96968C9.2628 5.67679 9.73767 5.67679 10.0305 5.96968ZM3.53057 6.46968C3.82346 6.76257 3.82346 7.23744 3.53057 7.53034C2.19681 8.8641 2.19678 11.1359 3.53051 12.4697C4.86426 13.8034 7.13611 13.8034 8.46985 12.4697C8.76275 12.1768 9.23762 12.1768 9.53051 12.4697C9.82341 12.7626 9.82341 13.2374 9.53051 13.5303C7.61098 15.4499 4.38938 15.4499 2.46985 13.5303C0.550314 11.6108 0.550394 8.3892 2.46991 6.46968C2.7628 6.17679 3.23767 6.17679 3.53057 6.46968Z" fill="#191919"/>
</svg>
