<svg width="16" height="16" viewBox="0 0 16 16" fill="none" xmlns="http://www.w3.org/2000/svg">
<path d="M4.74901 3.5C4.0592 3.5 3.5 4.0592 3.5 4.74901V11.251C3.5 11.9408 4.0592 12.5 4.74901 12.5H11.251C11.9408 12.5 12.5 11.9408 12.5 11.251V9.75C12.5 9.33579 12.8358 9 13.25 9C13.6642 9 14 9.33579 14 9.75V11.251C14 12.7692 12.7692 14 11.251 14H4.74901C3.23077 14 2 12.7692 2 11.251V4.74901C2 3.23077 3.23077 2 4.74901 2H6.25C6.66421 2 7 2.33579 7 2.75C7 3.16421 6.66421 3.5 6.25 3.5H4.74901ZM9 2.75C9 2.33579 9.33579 2 9.75 2H13.25C13.6642 2 14 2.33579 14 2.75V6.25C14 6.66421 13.6642 7 13.25 7C12.8358 7 12.5 6.66421 12.5 6.25V4.56155L7.53485 9.53015C7.24206 9.82314 6.76718 9.82331 6.47419 9.53051C6.18119 9.23772 6.18103 8.76285 6.47382 8.46985L11.4402 3.5H9.75C9.33579 3.5 9 3.16421 9 2.75Z" fill="#191919"/>
</svg>
