<svg width="16" height="16" viewBox="0 0 16 16" fill="none" xmlns="http://www.w3.org/2000/svg">
<path d="M12.4695 3.53034C11.1357 2.19659 8.86384 2.19659 7.53009 3.53034L7.03009 4.03034C6.7372 4.32323 6.26232 4.32323 5.96943 4.03034C5.67654 3.73745 5.67654 3.26257 5.96943 2.96968L6.46943 2.46968C8.38896 0.550146 11.6106 0.550146 13.5301 2.46968C15.4497 4.38922 15.4497 7.6108 13.5301 9.53034L13.0301 10.0303C12.7372 10.3232 12.2624 10.3232 11.9695 10.0303C11.6766 9.73745 11.6766 9.26257 11.9695 8.96968L12.4695 8.46968C13.8032 7.13593 13.8032 4.86409 12.4695 3.53034ZM2.96947 5.96968C3.26236 5.67679 3.73723 5.67679 4.03013 5.96968C4.32302 6.26257 4.32302 6.73745 4.03013 7.03034L3.53013 7.53034C2.19637 8.8641 2.19634 11.1359 3.53007 12.4697C4.86382 13.8034 7.13566 13.8034 8.46941 12.4697L8.96941 11.9697C9.2623 11.6768 9.73718 11.6768 10.0301 11.9697C10.323 12.2626 10.323 12.7374 10.0301 13.0303L9.53007 13.5303C7.61054 15.4499 4.38894 15.4499 2.46941 13.5303C0.549863 11.6108 0.549943 8.3892 2.46946 6.46968L2.96947 5.96968ZM8.96947 5.96968C9.26236 5.67679 9.73723 5.67679 10.0302 5.96968C10.3231 6.26257 10.3231 6.73745 10.0302 7.03034L7.03013 10.0303C6.73723 10.3232 6.26236 10.3232 5.96947 10.0303C5.67657 9.73745 5.67657 9.26257 5.96947 8.96968L8.96947 5.96968Z" fill="#191919"/>
</svg>
