<svg width="16" height="16" viewBox="0 0 16 16" fill="none" xmlns="http://www.w3.org/2000/svg">
<path d="M3.5 7C4.88071 7 6 5.88071 6 4.5C6 3.11929 4.88071 2 3.5 2C2.11929 2 1 3.11929 1 4.5C1 5.88071 2.11929 7 3.5 7ZM3.5 5.5C2.94772 5.5 2.5 5.05228 2.5 4.5C2.5 3.94772 2.94772 3.5 3.5 3.5C4.05228 3.5 4.5 3.94772 4.5 4.5C4.5 5.05228 4.05228 5.5 3.5 5.5Z" fill="#191919"/>
<path d="M8 4.5C8 4.08579 8.33579 3.75 8.75 3.75H14.25C14.6642 3.75 15 4.08579 15 4.5C15 4.91421 14.6642 5.25 14.25 5.25H8.75C8.33579 5.25 8 4.91421 8 4.5Z" fill="#191919"/>
<path d="M8 11.5C8 11.0858 8.33579 10.75 8.75 10.75H14.25C14.6642 10.75 15 11.0858 15 11.5C15 11.9142 14.6642 12.25 14.25 12.25H8.75C8.33579 12.25 8 11.9142 8 11.5Z" fill="#191919"/>
<path d="M6 11.5C6 12.8807 4.88071 14 3.5 14C2.11929 14 1 12.8807 1 11.5C1 10.1193 2.11929 9 3.5 9C4.88071 9 6 10.1193 6 11.5ZM4.5 11.5C4.5 10.9477 4.05228 10.5 3.5 10.5C2.94772 10.5 2.5 10.9477 2.5 11.5C2.5 12.0523 2.94772 12.5 3.5 12.5C4.05228 12.5 4.5 12.0523 4.5 11.5Z" fill="#191919"/>
</svg>
