<svg width="16" height="16" viewBox="0 0 16 16" fill="none" xmlns="http://www.w3.org/2000/svg">
<path d="M7.64977 14.9131C7.64977 14.9131 7.65023 14.9134 8.00014 14.25L8.34688 14.915C8.12848 15.0289 7.86763 15.028 7.64977 14.9131Z" fill="#191919"/>
<path d="M8.00014 4.5C6.61943 4.5 5.50014 5.61929 5.50014 7C5.50014 8.38071 6.61943 9.5 8.00014 9.5C9.38085 9.5 10.5001 8.38071 10.5001 7C10.5001 5.61929 9.38085 4.5 8.00014 4.5ZM7.00014 7C7.00014 6.44772 7.44786 6 8.00014 6C8.55242 6 9.00014 6.44772 9.00014 7C9.00014 7.55228 8.55242 8 8.00014 8C7.44786 8 7.00014 7.55228 7.00014 7Z" fill="#191919"/>
<path d="M7.64977 14.9131L8.00014 14.25C8.34688 14.915 8.34793 14.9145 8.34793 14.9145L8.34949 14.9137L8.35406 14.9113L8.369 14.9033C8.38149 14.8967 8.39898 14.8872 8.42115 14.8751C8.46547 14.8508 8.52853 14.8156 8.60766 14.7699C8.76583 14.6785 8.98875 14.5446 9.2549 14.3707C9.78573 14.024 10.4961 13.5134 11.2097 12.8591C12.6112 11.574 14.1555 9.61295 14.1555 7.15541C14.1555 3.64341 11.3902 1 8.00014 1C4.61001 1 1.84473 3.64341 1.84473 7.15541C1.84473 9.59727 3.39018 11.5584 4.78965 12.8459C5.50277 13.502 6.21269 14.0154 6.74315 14.3646C7.00912 14.5397 7.23186 14.6748 7.38987 14.767C7.46892 14.8131 7.53191 14.8486 7.57616 14.8731C7.5983 14.8853 7.61575 14.8949 7.6282 14.9016L7.64309 14.9096L7.64765 14.912L7.64977 14.9131ZM3.34473 7.15541C3.34473 4.49053 5.41962 2.5 8.00014 2.5C10.5806 2.5 12.6555 4.49053 12.6555 7.15541C12.6555 8.97418 11.4972 10.5604 10.1959 11.7535C9.55821 12.3383 8.91725 12.7996 8.43457 13.1149C8.26844 13.2234 8.12197 13.3141 8.00197 13.3859C7.88166 13.3132 7.73468 13.2215 7.56794 13.1118C7.08488 12.7938 6.44345 12.3292 5.80522 11.742C4.50199 10.5431 3.34473 8.95696 3.34473 7.15541Z" fill="#191919"/>
</svg>
