<svg width="16" height="16" viewBox="0 0 16 16" fill="none" xmlns="http://www.w3.org/2000/svg">
<path d="M7.00098 15V14.4229C4.21179 13.9923 2.00794 11.7891 1.57715 9H1C0.447802 9 0.000140182 8.55217 0 8C-8.77498e-07 7.44772 0.447715 7 1 7H1.57715C2.00771 4.2109 4.21099 2.00603 7 1.5752V1C7 0.44789 7.44784 0.000209791 8 0C8.55211 -4.49017e-06 8.99979 0.447842 9 1V1.5752C11.7895 2.00561 13.9932 4.21054 14.4238 7H15C15.5523 7 16 7.44772 16 8C15.9999 8.55217 15.5522 9 15 9H14.4238C13.9931 11.7888 11.7898 13.992 9.00098 14.4229V15C9.00097 15.5521 8.55306 15.9998 8.00098 16C7.4487 16 7.00098 15.5523 7.00098 15ZM8.00098 3.5C5.5157 3.5 3.50098 5.51472 3.50098 8C3.50112 10.4852 5.51578 12.5 8.00098 12.5C10.486 12.4998 12.5008 10.485 12.501 8C12.501 5.51485 10.4861 3.50022 8.00098 3.5ZM9.00098 8C9.00098 7.44786 8.55307 7.00023 8.00098 7C7.44869 7 7.00098 7.44772 7.00098 8C7.00112 8.55217 7.44878 9 8.00098 9C8.55298 8.99977 9.00084 8.55202 9.00098 8ZM11.001 8C11.0008 9.65659 9.65755 10.9998 8.00098 11C6.34421 11 5.00112 9.65674 5.00098 8C5.00098 6.34315 6.34412 5 8.00098 5C9.65763 5.00023 11.001 6.34329 11.001 8Z" fill="#191919"/>
</svg>
