<svg width="16" height="16" viewBox="0 0 16 16" fill="none" xmlns="http://www.w3.org/2000/svg">
<path d="M13.7804 2.21973C13.9824 2.42178 14.0521 2.72106 13.9601 2.99156L9.7079 15.4915C9.6104 15.778 9.3504 15.9778 9.0486 15.9983C8.74673 16.0188 8.46213 15.8558 8.32691 15.5852L5.69089 10.309L0.4146 7.67084C0.14401 7.53555 -0.0188033 7.25092 0.00173973 6.94909C0.0222797 6.64726 0.22215 6.38732 0.50858 6.28994L13.0086 2.03994C13.2791 1.94797 13.5784 2.01768 13.7804 2.21973ZM2.69131 7.13214L6.58544 9.0792C6.73066 9.15181 6.84839 9.26958 6.92096 9.41482L8.86615 13.3083L12.0495 3.95037L2.69131 7.13214Z" fill="#191919"/>
</svg>
