<svg width="16" height="16" viewBox="0 0 16 16" fill="none" xmlns="http://www.w3.org/2000/svg">
<path d="M10.7497 5.375C11.371 5.375 11.8747 4.87132 11.8747 4.25C11.8747 3.62868 11.371 3.125 10.7497 3.125C10.1284 3.125 9.62473 3.62868 9.62473 4.25C9.62473 4.87132 10.1284 5.375 10.7497 5.375Z" fill="#191919"/>
<path fill-rule="evenodd" clip-rule="evenodd" d="M12.2448 10.0787C11.8653 10.5057 11.3213 10.75 10.75 10.75C10.1787 10.75 9.63472 10.5057 9.25518 10.0787L9.25282 10.0761L9.24964 10.0725L9.24081 10.0625L9.21373 10.0314C9.19163 10.0059 9.16155 9.9709 9.12464 9.92715C9.05091 9.83975 8.9493 9.71677 8.82906 9.56455C8.59025 9.26226 8.26947 8.83398 7.94518 8.33212C7.36824 7.43925 6.5 5.89959 6.5 4.31712C6.5 1.98866 8.34778 0 10.75 0C13.1522 0 15 1.98866 15 4.31712C15 5.89959 14.1318 7.43925 13.5548 8.33212C13.2305 8.83398 12.9098 9.26226 12.6709 9.56455C12.5507 9.71677 12.4491 9.83975 12.3754 9.92715C12.3384 9.9709 12.3084 10.0059 12.2863 10.0314L12.2592 10.0625L12.2504 10.0725L12.2472 10.0761L12.2448 10.0787ZM11.9733 7.09197C11.38 8.0412 10.75 8.75 10.75 8.75C10.75 8.75 10.12 8.0412 9.52667 7.09197C8.99879 6.24739 8.5 5.21247 8.5 4.31712C8.5 3.03741 9.50736 2 10.75 2C11.9926 2 13 3.03741 13 4.31712C13 5.21247 12.5012 6.24739 11.9733 7.09197Z" fill="#191919"/>
<path d="M3.25 11.25C3.25 10.1454 4.14543 9.25 5.25 9.25H7C7.41421 9.25 7.75 9.58579 7.75 10C7.75 10.4142 7.41421 10.75 7 10.75H5.25C4.97386 10.75 4.75 10.9739 4.75 11.25C4.75 11.5261 4.97386 11.75 5.25 11.75H10.75C11.8546 11.75 12.75 12.6454 12.75 13.75C12.75 14.8546 11.8546 15.75 10.75 15.75H9C8.58579 15.75 8.25 15.4142 8.25 15C8.25 14.5858 8.58579 14.25 9 14.25H10.75C11.0261 14.25 11.25 14.0261 11.25 13.75C11.25 13.4739 11.0261 13.25 10.75 13.25H5.25C4.14543 13.25 3.25 12.3546 3.25 11.25Z" fill="#191919"/>
<path d="M0.25 15C0.25 14.5858 0.585786 14.25 1 14.25H2.5C2.91421 14.25 3.25 14.5858 3.25 15C3.25 15.4142 2.91421 15.75 2.5 15.75H1C0.585786 15.75 0.25 15.4142 0.25 15Z" fill="#191919"/>
<path d="M5 14.25C4.58579 14.25 4.25 14.5858 4.25 15C4.25 15.4142 4.58579 15.75 5 15.75H6.5C6.91421 15.75 7.25 15.4142 7.25 15C7.25 14.5858 6.91421 14.25 6.5 14.25H5Z" fill="#191919"/>
</svg>
