<svg width="40" height="40" viewBox="0 0 40 40" fill="none" xmlns="http://www.w3.org/2000/svg">
<path d="M34.9176 15.1107C33.4639 12.3685 30.6227 10.6836 27.5501 10.6836H4.12622C3.69673 10.6836 3.33331 11.047 3.33331 11.5096C3.33331 11.7078 3.43243 11.906 3.56458 12.0712L8.65242 17.1921C9.11496 17.6547 9.70964 17.919 10.3374 17.886H26.8233C28.0127 17.886 28.9708 18.811 28.9708 20.0004C28.9708 21.1898 28.0457 22.1479 26.8563 22.1479H15.5243C15.0948 22.1479 14.7314 22.5113 14.7314 22.9739C14.7314 23.1721 14.8305 23.3703 14.9627 23.5355L20.0505 28.6565C20.5131 29.119 21.1077 29.3503 21.7685 29.3503H26.9224C33.5961 29.3503 38.6509 22.214 34.9176 15.1107Z" fill="#FFFFFF"/>
</svg>
