<svg width="16" height="16" viewBox="0 0 16 16" fill="none" xmlns="http://www.w3.org/2000/svg">
<path fill-rule="evenodd" clip-rule="evenodd" d="M15.7071 7.29289C16.0976 7.68342 16.0976 8.31658 15.7071 8.70711L12.7071 11.7071C12.3166 12.0976 11.6834 12.0976 11.2929 11.7071C10.9024 11.3166 10.9024 10.6834 11.2929 10.2929L12.5858 9H6.5C5.94771 9 5.5 8.55228 5.5 8C5.5 7.44772 5.94771 7 6.5 7L12.5858 7L11.2929 5.70711C10.9024 5.31658 10.9024 4.68342 11.2929 4.29289C11.6834 3.90237 12.3166 3.90237 12.7071 4.29289L15.7071 7.29289Z" fill="#191919"/>
<path d="M1 5.5L1 10.5C1 11.8978 0.999971 12.5967 1.22833 13.1481C1.53281 13.8831 2.11684 14.4672 2.85193 14.7716C3.40324 15 4.10218 15 5.5 15C6.89782 15 7.59676 15 8.14807 14.7716C8.88316 14.4672 9.46719 13.8831 9.77167 13.1481C10 12.5967 10 11.8978 10 10.5H6.5C5.11929 10.5 4 9.38071 4 8C4 6.61929 5.11929 5.5 6.5 5.5H10C10 4.10218 10 3.40326 9.77167 2.85194C9.46719 2.11686 8.88316 1.53285 8.14807 1.22836C7.59676 1 6.89782 1 5.5 1C4.10218 1 3.40324 1 2.85193 1.22836C2.11685 1.53284 1.53282 2.11686 1.22833 2.85194C0.999972 3.40326 1 4.10217 1 5.5Z" fill="#191919"/>
</svg>
