<svg width="16" height="16" viewBox="0 0 16 16" fill="none" xmlns="http://www.w3.org/2000/svg">
<path d="M8 1C8.55228 1 9 1.44772 9 2C9 2.55228 8.55228 3 8 3H3V13H8C8.55228 13 9 13.4477 9 14C9 14.5523 8.55228 15 8 15H2.66699C1.74652 15 1 14.2535 1 13.333V2.66699C1 1.74652 1.74652 1 2.66699 1H8ZM10.792 3.79297C11.1825 3.40244 11.8165 3.40244 12.207 3.79297L15.2119 6.79785C15.8756 7.46171 15.8756 8.53829 15.2119 9.20215L12.207 12.207C11.8165 12.5976 11.1825 12.5976 10.792 12.207C10.4018 11.8166 10.4018 11.1834 10.792 10.793L12.5859 9H5.99902C5.44694 8.99977 4.99902 8.55214 4.99902 8C4.99902 7.44786 5.44694 7.00023 5.99902 7H12.5859L10.792 5.20703C10.4018 4.81656 10.4018 4.18344 10.792 3.79297Z" fill="#191919"/>
</svg>
