<svg width="16" height="16" viewBox="0 0 16 16" fill="none" xmlns="http://www.w3.org/2000/svg">
<path d="M6.5 3.79057V11.2147C6.55331 11.229 6.60629 11.2449 6.65889 11.2624L9.5 12.2094V4.7853C9.4467 4.77104 9.39371 4.75514 9.34111 4.7376L6.5 3.79057ZM11 4.76303V12.1678L12.6889 11.5344C13.1768 11.3515 13.5 10.8851 13.5 10.364V5.636C13.5 4.76324 12.6283 4.15914 11.8111 4.46559L11.1763 4.70363C11.1181 4.72547 11.0593 4.74527 11 4.76303ZM5 11.237V3.83225L3.3111 4.46559C2.82322 4.64854 2.5 5.11495 2.5 5.636V10.364C2.5 11.2368 3.37172 11.8409 4.1889 11.5344L4.82368 11.2964C4.88192 11.2745 4.94073 11.2547 5 11.237ZM4.82368 2.29637C5.41347 2.0752 6.06132 2.0632 6.6589 2.2624L9.81545 3.31458C10.0871 3.40512 10.3815 3.39967 10.6496 3.29914L11.2844 3.0611C13.0822 2.38691 15 3.71593 15 5.636V10.364C15 11.5103 14.2889 12.5364 13.2156 12.9389L11.1763 13.7036C10.5865 13.9248 9.93868 13.9368 9.3411 13.7376L6.18455 12.6854C5.91293 12.5949 5.61845 12.6003 5.35037 12.7009L4.71559 12.9389C2.91777 13.6131 1 12.2841 1 10.364V5.636C1 4.48968 1.71108 3.4636 2.78441 3.0611L4.82368 2.29637Z" fill="#191919"/>
</svg>
