<svg width="16" height="16" viewBox="0 0 16 16" fill="none" xmlns="http://www.w3.org/2000/svg">
<path d="M9.99951 9C10.5518 9 10.9995 9.44771 10.9995 10C10.9995 10.5523 10.5518 11 9.99951 11H5.99951C5.44723 11 4.99951 10.5523 4.99951 10C4.99951 9.44772 5.44723 9 5.99951 9H9.99951Z" fill="#191919"/>
<path fill-rule="evenodd" clip-rule="evenodd" d="M8.78369 1.00391C9.54992 1.04187 10.2767 1.36319 10.8218 1.9082L13.0923 4.17773C13.6736 4.75909 14.0005 5.54798 14.0005 6.37012V13.2998C14.0005 14.2386 13.2391 14.9999 12.3003 15H3.69971C2.76082 15 1.99951 14.2387 1.99951 13.2998V2.7002C1.99951 1.76131 2.76082 1 3.69971 1H8.63037L8.78369 1.00391ZM3.99951 13H12.0005V7H9.6665C8.74603 7 7.99951 6.25348 7.99951 5.33301V3H3.99951V13Z" fill="#191919"/>
</svg>
