<svg width="16" height="16" viewBox="0 0 16 16" fill="none" xmlns="http://www.w3.org/2000/svg">
<path fill-rule="evenodd" clip-rule="evenodd" d="M1 4.00005C1.55229 4.00005 2 4.44776 2 5.00005V11.8C2 12.3766 2.00078 12.7489 2.02393 13.0322C2.04613 13.3039 2.0838 13.4046 2.109 13.454C2.20487 13.6422 2.35785 13.7952 2.54601 13.8911C2.59546 13.9162 2.69618 13.9539 2.96784 13.9761C3.25118 13.9993 3.62345 14 4.2 14H11C11.5523 14 12 14.4478 12 15C12 15.5523 11.5523 16 11 16H4.16148C3.63432 16.0001 3.17955 16.0001 2.80497 15.9695C2.40963 15.9372 2.01641 15.8659 1.63803 15.6731C1.07354 15.3854 0.614604 14.9265 0.326983 14.362C0.134189 13.9836 0.0628728 13.5904 0.0305718 13.1951C-3.19239e-05 12.8205 -1.70223e-05 12.3657 8.5909e-07 11.8386L2.76644e-06 5.00005C2.76644e-06 4.44776 0.447718 4.00005 1 4.00005Z" fill="#191919"/>
<path fill-rule="evenodd" clip-rule="evenodd" d="M13.2277 2.49663e-05C13.3393 -9.73424e-05 13.5224 -0.000297853 13.6913 0.0135003C13.8984 0.0304175 14.2526 0.0776801 14.635 0.27253C15.1054 0.512213 15.4879 0.894664 15.7276 1.36507C15.9224 1.74748 15.9697 2.10173 15.9866 2.30878C16.0004 2.47765 16.0002 2.66074 16.0001 2.77234V9.22773C16.0002 9.33932 16.0004 9.52244 15.9866 9.69131C15.9697 9.89837 15.9224 10.2526 15.7276 10.635C15.4879 11.1054 15.1054 11.4879 14.635 11.7276C14.2526 11.9224 13.8984 11.9697 13.6913 11.9866C13.5224 12.0004 13.3393 12.0002 13.2278 12.0001H6.77236C6.66077 12.0002 6.47765 12.0004 6.30878 11.9866C6.10173 11.9697 5.74748 11.9224 5.36507 11.7276C4.89466 11.4879 4.51221 11.1054 4.27253 10.635C4.07768 10.2526 4.03042 9.89837 4.0135 9.69131C3.9997 9.52243 3.9999 9.33932 4.00003 9.22773V2.77236C3.9999 2.66077 3.9997 2.47766 4.0135 2.30878C4.03042 2.10173 4.07768 1.74748 4.27253 1.36507C4.51221 0.894664 4.89466 0.512213 5.36507 0.27253C5.74748 0.0776802 6.10173 0.0304175 6.30878 0.0135003C6.47766 -0.000297853 6.66077 -9.73424e-05 6.77236 2.49663e-05H13.2277ZM7 4.00005C7 3.44776 7.44772 3.00005 8 3.00005H12C12.5523 3.00005 13 3.44776 13 4.00005C13 4.55233 12.5523 5.00005 12 5.00005H8C7.44772 5.00005 7 4.55233 7 4.00005ZM8 7.00005C7.44772 7.00005 7 7.44776 7 8.00005C7 8.55233 7.44772 9.00005 8 9.00005H10C10.5523 9.00005 11 8.55233 11 8.00005C11 7.44776 10.5523 7.00005 10 7.00005H8Z" fill="#191919"/>
</svg>
