<svg width="16" height="16" viewBox="0 0 16 16" fill="none" xmlns="http://www.w3.org/2000/svg">
<path d="M4.27912 2C3.19672 2 2.2287 2.67375 1.85277 3.68878L1.57063 4.45059C1.22584 5.38154 1.44022 6.34415 2.00024 7.03164V11.25C2.00024 12.7688 3.23146 14 4.75024 14H11.2502C12.769 14 14.0002 12.7688 14.0002 11.25V7.03164C14.5602 6.34415 14.7746 5.38154 14.4298 4.45059L14.1477 3.68878C13.7717 2.67375 12.8037 2 11.7213 2H4.27912ZM5.46422 3.5L5.26689 4.83195C5.26594 4.83837 5.26501 4.84478 5.26411 4.8512L5.16328 5.53181C5.08087 6.08806 4.60341 6.5 4.04108 6.5C3.25097 6.5 2.70284 5.71248 2.97725 4.97155L3.2594 4.20974C3.41739 3.78316 3.82422 3.5 4.27912 3.5H5.46422ZM5.99257 7.13542C6.49297 7.66501 7.20255 8 8.00018 8C8.79784 8 9.50745 7.66498 10.0078 7.13536C10.4929 7.66977 11.1921 8 11.9594 8C12.1459 8 12.3267 7.98109 12.5002 7.94532V11.25C12.5002 11.9404 11.9406 12.5 11.2502 12.5H4.75024C4.05988 12.5 3.50024 11.9404 3.50024 11.25V7.94532C3.67377 7.98109 3.85452 8 4.04108 8C4.8083 8 5.50749 7.66979 5.99257 7.13542ZM6.74884 5.0648L6.98066 3.5H9.01977L9.24967 5.05177C9.3627 5.81475 8.77149 6.5 8.00018 6.5C7.23327 6.5 6.6444 5.82253 6.74884 5.0648ZM11.7213 3.5C12.1762 3.5 12.583 3.78316 12.741 4.20974L13.0232 4.97155C13.2976 5.71248 12.7495 6.5 11.9594 6.5C11.397 6.5 10.9196 6.08806 10.8372 5.53181L10.5362 3.5H11.7213Z" fill="#191919"/>
</svg>
