<svg width="16" height="16" viewBox="0 0 16 16" fill="none" xmlns="http://www.w3.org/2000/svg">
<path fill-rule="evenodd" clip-rule="evenodd" d="M4 7.5C5.933 7.5 7.5 5.933 7.5 4C7.5 2.067 5.933 0.5 4 0.5C2.067 0.5 0.5 2.067 0.5 4C0.5 5.933 2.067 7.5 4 7.5ZM5.5 4C5.5 4.82843 4.82843 5.5 4 5.5C3.17157 5.5 2.5 4.82843 2.5 4C2.5 3.17157 3.17157 2.5 4 2.5C4.82843 2.5 5.5 3.17157 5.5 4Z" fill="#191919"/>
<path fill-rule="evenodd" clip-rule="evenodd" d="M4.86602 8.80373C4.68739 8.49432 4.35727 8.30373 4 8.30373C3.64273 8.30373 3.31261 8.49432 3.13397 8.80373L0.133975 13.9999C-0.0446582 14.3093 -0.0446582 14.6905 0.133975 14.9999C0.312607 15.3093 0.642734 15.4999 1 15.4999H7C7.35727 15.4999 7.68739 15.3093 7.86603 14.9999C8.04466 14.6905 8.04466 14.3093 7.86603 13.9999L4.86602 8.80373ZM2.73205 13.4999L4 11.3037L5.26795 13.4999H2.73205Z" fill="#191919"/>
<path fill-rule="evenodd" clip-rule="evenodd" d="M8.5 9.5C8.5 8.94771 8.94771 8.5 9.5 8.5H14.5C15.0523 8.5 15.5 8.94771 15.5 9.5V14.5C15.5 15.0523 15.0523 15.5 14.5 15.5H9.5C8.94771 15.5 8.5 15.0523 8.5 14.5V9.5ZM10.5 10.5V13.5H13.5V10.5H10.5Z" fill="#191919"/>
<path fill-rule="evenodd" clip-rule="evenodd" d="M12.8363 0.951739C12.6515 0.669829 12.3371 0.5 12 0.5C11.6629 0.5 11.3485 0.669829 11.1637 0.951739L10.2878 2.2878L8.95174 3.16369C8.66983 3.34851 8.5 3.66291 8.5 4C8.5 4.33709 8.66983 4.65149 8.95174 4.83631L10.2878 5.7122L11.1637 7.04826C11.3485 7.33017 11.6629 7.5 12 7.5C12.3371 7.5 12.6515 7.33017 12.8363 7.04826L13.7122 5.7122L15.0483 4.83631C15.3302 4.65149 15.5 4.33709 15.5 4C15.5 3.66291 15.3302 3.34851 15.0483 3.16369L13.7122 2.2878L12.8363 0.951739ZM11.8464 3.55831L12 3.32395L12.1536 3.55831C12.2289 3.67307 12.3269 3.77112 12.4417 3.84636L12.6761 4L12.4417 4.15364C12.3269 4.22888 12.2289 4.32693 12.1536 4.44169L12 4.67605L11.8464 4.44169C11.7711 4.32693 11.6731 4.22888 11.5583 4.15364L11.3239 4L11.5583 3.84636C11.6731 3.77112 11.7711 3.67307 11.8464 3.55831Z" fill="#191919"/>
</svg>
