<svg width="16" height="16" viewBox="0 0 16 16" fill="none" xmlns="http://www.w3.org/2000/svg">
<path d="M4.42545 5.61324C4.27235 5.58031 4.12463 5.54048 3.98149 5.49276C3.38296 5.29325 2.91119 4.97194 2.46958 4.53033C2.17669 4.23744 2.17669 3.76256 2.46958 3.46967C2.76247 3.17678 3.23735 3.17678 3.53024 3.46967C3.83863 3.77806 4.11686 3.95675 4.45583 4.06974C4.63161 4.12833 4.83453 4.17288 5.08059 4.20304L4.51987 2.70779C4.39748 2.38142 4.51607 2.01375 4.80609 1.82041L4.80816 1.81903C4.83381 1.8021 4.86001 1.786 4.88641 1.77028C4.92975 1.74446 4.98953 1.71041 5.06508 1.671C5.21606 1.59223 5.43077 1.49161 5.70366 1.39238C6.24952 1.19388 7.03093 1 7.99989 1C8.96886 1 9.75027 1.19388 10.2961 1.39238C10.569 1.49161 10.7837 1.59223 10.9347 1.671C11.0102 1.71041 11.1134 1.77028 11.1134 1.77028L11.1937 1.82041C11.4837 2.01375 11.6023 2.38142 11.4799 2.70779L10.6533 4.91219C10.6882 4.93585 10.7243 4.96069 10.7616 4.9867C11.1461 5.25463 11.6598 5.65138 12.176 6.16759C13.1955 7.187 14.3054 8.7562 14.3054 10.7778C14.3054 11.6055 14.0986 12.3194 13.7051 12.9128C13.3144 13.5018 12.7694 13.9276 12.1597 14.232C10.9622 14.8297 9.43211 15 7.99989 15C6.56767 15 5.03757 14.8297 3.84012 14.232C3.23035 13.9276 2.68535 13.5018 2.29473 12.9128C1.90121 12.3194 1.69434 11.6055 1.69434 10.7778C1.69432 8.7562 2.8043 7.187 3.82372 6.16759C4.02727 5.96404 4.23044 5.77907 4.42545 5.61324ZM6.21627 2.80207C6.19861 2.80849 6.18133 2.8149 6.16443 2.82128L6.78353 4.47222H9.21625L9.83536 2.82128C9.81845 2.8149 9.80117 2.80849 9.78352 2.80207C9.37452 2.65334 8.76704 2.5 7.99989 2.5C7.23275 2.5 6.62527 2.65334 6.21627 2.80207ZM6.46835 5.97222C6.3764 6.02887 6.24842 6.11095 6.09583 6.2173C5.76411 6.44849 5.32303 6.78959 4.88438 7.22825C3.99407 8.11855 3.19433 9.32713 3.19434 10.7778C3.19434 11.3462 3.33291 11.7642 3.54478 12.0837C3.75955 12.4075 4.07992 12.6752 4.51001 12.8899C5.3923 13.3303 6.63996 13.5 7.99989 13.5C9.35982 13.5 10.6075 13.3303 11.4898 12.8899C11.9199 12.6752 12.2402 12.4075 12.455 12.0837C12.6669 11.7642 12.8054 11.3462 12.8054 10.7778C12.8054 9.32713 12.0057 8.11855 11.1154 7.22825C10.6767 6.78959 10.2357 6.44849 9.90395 6.2173C9.75136 6.11094 9.62339 6.02887 9.53144 5.97222H6.46835Z" fill="#191919"/>
</svg>
