<svg width="16" height="16" viewBox="0 0 16 16" fill="none" xmlns="http://www.w3.org/2000/svg">
<path d="M9.75024 2.75C9.75024 3.7165 8.96673 4.5 8.00024 4.5C7.03374 4.5 6.25024 3.7165 6.25024 2.75C6.25024 1.7835 7.03374 1 8.00024 1C8.96673 1 9.75024 1.7835 9.75024 2.75Z" fill="#191919"/>
<path d="M9.74988 8C9.74988 8.9665 8.96638 9.75 7.99988 9.75C7.03338 9.75 6.24988 8.9665 6.24988 8C6.24988 7.0335 7.03338 6.25 7.99988 6.25C8.96638 6.25 9.74988 7.0335 9.74988 8Z" fill="#191919"/>
<path d="M9.75024 13.25C9.75024 14.2165 8.96673 15 8.00024 15C7.03374 15 6.25024 14.2165 6.25024 13.25C6.25024 12.2835 7.03374 11.5 8.00024 11.5C8.96673 11.5 9.75024 12.2835 9.75024 13.25Z" fill="#191919"/>
</svg>
