<svg width="16" height="16" viewBox="0 0 16 16" fill="none" xmlns="http://www.w3.org/2000/svg">
<path d="M4.5 8C4.5 8.9665 3.7165 9.75 2.75 9.75C1.7835 9.75 1 8.9665 1 8C1 7.0335 1.7835 6.25 2.75 6.25C3.7165 6.25 4.5 7.0335 4.5 8Z" fill="#191919"/>
<path d="M9.74964 8C9.74964 8.9665 8.96614 9.75 7.99964 9.75C7.03314 9.75 6.24964 8.9665 6.24964 8C6.24964 7.0335 7.03314 6.25 7.99964 6.25C8.96614 6.25 9.74964 7.0335 9.74964 8Z" fill="#191919"/>
<path d="M15 8C15 8.9665 14.2165 9.75 13.25 9.75C12.2835 9.75 11.5 8.9665 11.5 8C11.5 7.0335 12.2835 6.25 13.25 6.25C14.2165 6.25 15 7.0335 15 8Z" fill="#191919"/>
</svg>
