<svg width="16" height="16" viewBox="0 0 16 16" fill="none" xmlns="http://www.w3.org/2000/svg">
<path d="M5.75 3.5C5.19772 3.5 4.75 3.94772 4.75 4.5C4.75 5.05228 5.19772 5.5 5.75 5.5C6.30228 5.5 6.75 5.05228 6.75 4.5C6.75 3.94772 6.30228 3.5 5.75 3.5Z" fill="#191919"/>
<path d="M4.75 7.25C4.75 6.83579 5.08579 6.5 5.5 6.5H10.5C10.9142 6.5 11.25 6.83579 11.25 7.25C11.25 7.66421 10.9142 8 10.5 8H5.5C5.08579 8 4.75 7.66421 4.75 7.25Z" fill="#191919"/>
<path d="M5.5 8.99524C5.08579 8.99524 4.75 9.33103 4.75 9.74524V11.75C4.75 12.1642 5.08579 12.5 5.5 12.5C5.91421 12.5 6.25 12.1642 6.25 11.75V9.74524C6.25 9.33103 5.91421 8.99524 5.5 8.99524Z" fill="#191919"/>
<path d="M7.25 9.74524C7.25 9.33103 7.58579 8.99524 8 8.99524C8.41421 8.99524 8.75 9.33103 8.75 9.74524V11.75C8.75 12.1642 8.41421 12.5 8 12.5C7.58579 12.5 7.25 12.1642 7.25 11.75V9.74524Z" fill="#191919"/>
<path d="M10.5 8.99524C10.0858 8.99524 9.75 9.33103 9.75 9.74524V11.75C9.75 12.1642 10.0858 12.5 10.5 12.5C10.9142 12.5 11.25 12.1642 11.25 11.75V9.74524C11.25 9.33103 10.9142 8.99524 10.5 8.99524Z" fill="#191919"/>
<path d="M4.75 1C3.23122 1 2 2.23122 2 3.75V12.25C2 13.7688 3.23122 15 4.75 15H11.25C12.7688 15 14 13.7688 14 12.25V3.75C14 2.23122 12.7688 1 11.25 1H4.75ZM3.5 3.75C3.5 3.05964 4.05964 2.5 4.75 2.5H11.25C11.9404 2.5 12.5 3.05964 12.5 3.75V12.25C12.5 12.9404 11.9404 13.5 11.25 13.5H4.75C4.05964 13.5 3.5 12.9404 3.5 12.25V3.75Z" fill="#191919"/>
</svg>
