<svg width="16" height="16" viewBox="0 0 16 16" fill="none" xmlns="http://www.w3.org/2000/svg">
<path d="M7.99992 1C6.58656 1 5.55911 2.0533 5.30567 3.29798C4.0461 4.13194 2.99991 5.5001 2.99991 7.25V8.18912C2.99991 8.61165 2.79067 9.02026 2.44238 9.27356C1.31427 10.094 1.79609 12 3.3063 12H4.53536C4.77797 13.6961 6.23668 15 7.99991 15C9.76315 15 11.2219 13.6961 11.4645 12H12.6935C14.2037 12 14.6856 10.094 13.5575 9.27356C13.2092 9.02026 12.9999 8.61165 12.9999 8.18912V7.25C12.9999 5.5001 11.9537 4.13194 10.6942 3.29798C10.4407 2.0533 9.41327 1 7.99992 1ZM6.74828 3.79954C6.79857 3.03988 7.35624 2.5 7.99992 2.5C8.64359 2.5 9.20126 3.03987 9.25155 3.79954C9.26809 4.04942 9.40827 4.27456 9.6252 4.39968C10.724 5.03346 11.4999 6.05771 11.4999 7.25V8.18912C11.4999 9.09965 11.9454 9.9559 12.6752 10.4867H3.32464C4.05444 9.9559 4.49991 9.09965 4.49991 8.18912V7.25C4.49991 6.05771 5.27578 5.03346 6.37463 4.39968C6.59156 4.27456 6.73173 4.04942 6.74828 3.79954ZM9.93691 12C9.71488 12.8626 8.93183 13.5 7.99991 13.5C7.06799 13.5 6.28494 12.8626 6.06292 12H9.93691Z" fill="#191919"/>
</svg>
