<svg width="16" height="16" viewBox="0 0 16 16" fill="none" xmlns="http://www.w3.org/2000/svg">
<path d="M7.99994 10.5007C6.34322 10.5007 5.00018 9.15767 5.00018 7.50095V7C5.00018 6.58579 5.33597 6.25 5.75018 6.25C6.1644 6.25 6.50018 6.58579 6.50018 7V7.50095C6.50018 8.32924 7.17165 9.00071 7.99994 9.00071C8.82823 9.00071 9.4997 8.32924 9.4997 7.50095V7C9.4997 6.58579 9.83548 6.25 10.2497 6.25C10.6639 6.25 10.9997 6.58579 10.9997 7V7.50095C10.9997 9.15767 9.65666 10.5007 7.99994 10.5007Z" fill="#191919"/>
<path d="M13.7499 4H11.4639C11.2196 2.30576 9.76182 1.00391 7.99994 1.00391C6.23806 1.00391 4.78024 2.30576 4.53595 4H2.2499C1.86124 4 1.53698 4.2969 1.5028 4.68405L1.21083 7.99156C1.13336 8.869 1.07106 9.57466 1.06891 10.1468C1.06669 10.7342 1.12572 11.2538 1.3366 11.7395C1.66998 12.5074 2.2507 13.1416 2.98627 13.5412C3.45156 13.794 3.96397 13.8985 4.5493 13.9479C5.11939 13.9961 5.82778 13.9961 6.70862 13.9961H9.29114C10.1719 13.9961 10.8804 13.9961 11.4505 13.9479C12.0358 13.8985 12.5482 13.794 13.0135 13.5412C13.7491 13.1416 14.3298 12.5074 14.6632 11.7395C14.874 11.2538 14.9331 10.7342 14.9308 10.1468C14.9287 9.57466 14.8664 8.869 14.7889 7.99156L14.497 4.68405C14.4628 4.2969 14.1385 4 13.7499 4ZM7.99994 2.50391C8.93045 2.50391 9.71254 3.13937 9.93592 4H6.06396C6.28734 3.13937 7.06943 2.50391 7.99994 2.50391ZM2.93661 5.5H13.0631L13.2918 8.08996C13.3729 9.00869 13.429 9.65116 13.4309 10.1524C13.4327 10.6457 13.3799 10.9286 13.2872 11.1421C13.0872 11.6029 12.7388 11.9834 12.2974 12.2232C12.0929 12.3343 11.8157 12.4117 11.3242 12.4533C10.8247 12.4955 10.1798 12.4961 9.25751 12.4961H6.74229C5.81998 12.4961 5.17507 12.4955 4.67556 12.4533C4.18405 12.4117 3.90685 12.3343 3.70232 12.2232C3.26097 11.9834 2.91254 11.6029 2.71251 11.1421C2.61982 10.9286 2.56704 10.6457 2.5689 10.1524C2.57079 9.65116 2.62687 9.00869 2.70797 8.08996L2.93661 5.5Z" fill="#191919"/>
</svg>
