<svg width="16" height="16" viewBox="0 0 16 16" fill="none" xmlns="http://www.w3.org/2000/svg">
<path d="M11 13H13V3H11V13ZM3 13H5V3H3V13ZM7 13.333C7 14.2535 6.25348 15 5.33301 15H2.66699C1.74652 15 1 14.2535 1 13.333V2.66699C1 1.74652 1.74652 1 2.66699 1H5.33301L5.50391 1.00879C6.34425 1.09422 7 1.80411 7 2.66699V13.333ZM15 13.333C15 14.2535 14.2535 15 13.333 15H10.667C9.74652 15 9 14.2535 9 13.333V2.66699C9 1.74652 9.74652 1 10.667 1H13.333C14.2535 1 15 1.74652 15 2.66699V13.333Z" fill="#191919"/>
</svg>
