<svg width="16" height="16" viewBox="0 0 16 16" fill="none" xmlns="http://www.w3.org/2000/svg">
<path d="M8 6C6.89543 6 6 6.89543 6 8C6 9.10457 6.89543 10 8 10C9.10457 10 10 9.10457 10 8C10 6.89543 9.10457 6 8 6ZM7.5 8C7.5 7.72386 7.72386 7.5 8 7.5C8.27614 7.5 8.5 7.72386 8.5 8C8.5 8.27614 8.27614 8.5 8 8.5C7.72386 8.5 7.5 8.27614 7.5 8Z" fill="#191919"/>
<path d="M2.75 3C1.7835 3 1 3.7835 1 4.75V11.25C1 12.2165 1.7835 13 2.75 13H13.25C14.2165 13 15 12.2165 15 11.25V4.75C15 3.7835 14.2165 3 13.25 3H2.75ZM2.5 4.75C2.5 4.61193 2.61193 4.5 2.75 4.5H3.5V5.5H2.5V4.75ZM5 6.25V4.5H11V6.25C11 6.66421 11.3358 7 11.75 7H13.5V9H11.75C11.3358 9 11 9.33579 11 9.75V11.5H5V9.75C5 9.33579 4.66421 9 4.25 9H2.5V7H4.25C4.66421 7 5 6.66421 5 6.25ZM12.5 5.5V4.5H13.25C13.3881 4.5 13.5 4.61193 13.5 4.75V5.5H12.5ZM12.5 10.5H13.5V11.25C13.5 11.3881 13.3881 11.5 13.25 11.5H12.5V10.5ZM3.5 10.5V11.5H2.75C2.61193 11.5 2.5 11.3881 2.5 11.25V10.5H3.5Z" fill="#191919"/>
</svg>
