<svg width="16" height="16" viewBox="0 0 16 16" fill="none" xmlns="http://www.w3.org/2000/svg">
<path d="M5 4C5 2.34315 6.34313 1 7.99999 1C9.65685 1 11 2.34314 11 4C11 5.65686 9.65685 7 7.99999 7C6.34313 7 5 5.65685 5 4ZM7.99999 2.5C7.17156 2.5 6.5 3.17157 6.5 4C6.5 4.82843 7.17156 5.5 7.99999 5.5C8.82843 5.5 9.5 4.82843 9.5 4C9.5 3.17157 8.82843 2.5 7.99999 2.5Z" fill="#191919"/>
<path d="M11.9993 8.99863C12.4136 8.99863 12.7493 9.33441 12.7493 9.74863V11.2493H14.25C14.6642 11.2493 15 11.5851 15 11.9993C15 12.4135 14.6642 12.7493 14.25 12.7493H12.7493V14.25C12.7493 14.6642 12.4136 15 11.9993 15C11.5851 15 11.2493 14.6642 11.2493 14.25V12.7493H9.74866C9.33444 12.7493 8.99866 12.4135 8.99866 11.9993C8.99866 11.5851 9.33444 11.2493 9.74866 11.2493H11.2493V9.74863C11.2493 9.33441 11.5851 8.99863 11.9993 8.99863Z" fill="#191919"/>
<path d="M3.5 12.3333C3.5 11.5426 3.88009 10.9297 4.56733 10.483C5.27813 10.021 6.3116 9.75 7.50016 9.75C7.96617 9.75 8.41256 9.79181 8.82686 9.87218C9.23349 9.95106 9.62708 9.68537 9.70597 9.27874C9.78485 8.87211 9.51916 8.47852 9.11252 8.39963C8.59717 8.29966 8.05472 8.25 7.50016 8.25C6.11139 8.25 4.76978 8.56236 3.74984 9.22534C2.70633 9.90362 2 10.9574 2 12.3333C2 13.2538 2.74619 14 3.66667 14H7.25C7.66421 14 8 13.6642 8 13.25C8 12.8358 7.66421 12.5 7.25 12.5H3.66667C3.57462 12.5 3.5 12.4254 3.5 12.3333Z" fill="#191919"/>
</svg>
