<svg width="16" height="16" viewBox="0 0 16 16" fill="none" xmlns="http://www.w3.org/2000/svg">
<path d="M5.25 3.5C4.69771 3.5 4.25 3.94771 4.25 4.5C4.25 5.05229 4.69771 5.5 5.25 5.5C5.80229 5.5 6.25 5.05228 6.25 4.5C6.25 3.94772 5.80229 3.5 5.25 3.5ZM2.75 4.5C2.75 3.11929 3.86928 2 5.25 2C6.63071 2 7.75 3.11928 7.75 4.5C7.75 5.88072 6.63071 7 5.25 7C3.86928 7 2.75 5.88071 2.75 4.5Z" fill="#191919"/>
<path d="M11 3.5C10.4477 3.5 10 3.94771 10 4.5C10 5.05229 10.4477 5.5 11 5.5C11.5523 5.5 12 5.05228 12 4.5C12 3.94772 11.5523 3.5 11 3.5ZM8.5 4.5C8.5 3.11929 9.61928 2 11 2C12.3807 2 13.5 3.11928 13.5 4.5C13.5 5.88072 12.3807 7 11 7C9.61928 7 8.5 5.88071 8.5 4.5Z" fill="#191919"/>
<path d="M3.28803 10.1961C2.82659 10.6305 2.5 11.3094 2.5 12.3C2.5 12.4105 2.58954 12.5 2.7 12.5H7.8C7.91046 12.5 8 12.4105 8 12.3C8 11.3094 7.67341 10.6305 7.21197 10.1961C6.7426 9.7543 6.06349 9.5 5.25 9.5C4.43651 9.5 3.7574 9.7543 3.28803 10.1961ZM2.25991 9.10388C3.05652 8.35404 4.12741 8 5.25 8C6.37259 8 7.44348 8.35404 8.24009 9.10388C9.04463 9.8612 9.5 10.9572 9.5 12.3C9.5 13.2389 8.73888 14 7.8 14H2.7C1.76112 14 1 13.2389 1 12.3C1 10.9572 1.45537 9.8612 2.25991 9.10388Z" fill="#191919"/>
<path d="M9.7537 8.75391C9.7537 8.33969 10.0895 8.00391 10.5037 8.00391C11.6533 8.00391 12.7756 8.33555 13.6235 9.05996C14.4873 9.79807 15 10.889 15 12.2564C15 13.2194 14.2194 14.0001 13.2564 14.0001H11.75C11.3358 14.0001 11 13.6643 11 13.2501C11 12.8358 11.3358 12.5001 11.75 12.5001H13.2564C13.3909 12.5001 13.5 12.391 13.5 12.2564C13.5 11.2905 13.1521 10.6302 12.649 10.2004C12.13 9.75685 11.3791 9.50391 10.5037 9.50391C10.0895 9.50391 9.7537 9.16812 9.7537 8.75391Z" fill="#191919"/>
</svg>
