<svg width="16" height="16" viewBox="0 0 16 16" fill="none" xmlns="http://www.w3.org/2000/svg">
<path d="M7.99999 1C6.34313 1 5 2.34315 5 4C5 5.65685 6.34313 7 7.99999 7C9.65685 7 11 5.65686 11 4C11 2.34314 9.65685 1 7.99999 1Z" fill="#191919"/>
<path d="M8.00016 8.25C6.61139 8.25 5.26978 8.56236 4.24984 9.22534C3.20633 9.90362 2.5 10.9574 2.5 12.3333C2.5 13.2538 3.24619 14 4.16667 14H11.8333C12.7538 14 13.5 13.2538 13.5 12.3333C13.5 10.9574 12.7938 9.90367 11.7504 9.22535C10.7305 8.56236 9.38893 8.25 8.00016 8.25Z" fill="#191919"/>
</svg>
