<svg width="16" height="16" viewBox="0 0 16 16" fill="none" xmlns="http://www.w3.org/2000/svg">
<path d="M7.99999 1C6.34313 1 5 2.34315 5 4C5 5.65685 6.34313 7 7.99999 7C9.65685 7 11 5.65686 11 4C11 2.34314 9.65685 1 7.99999 1ZM6.5 4C6.5 3.17157 7.17156 2.5 7.99999 2.5C8.82843 2.5 9.5 3.17157 9.5 4C9.5 4.82843 8.82843 5.5 7.99999 5.5C7.17156 5.5 6.5 4.82843 6.5 4Z" fill="#191919"/>
<path d="M8.00016 8.25C6.61139 8.25 5.26978 8.56236 4.24984 9.22534C3.20633 9.90362 2.5 10.9574 2.5 12.3333C2.5 13.2538 3.24619 14 4.16667 14H11.8333C12.7538 14 13.5 13.2538 13.5 12.3333C13.5 10.9574 12.7938 9.90367 11.7504 9.22535C10.7305 8.56237 9.38893 8.25 8.00016 8.25ZM4 12.3333C4 11.5426 4.38009 10.9297 5.06733 10.483C5.77813 10.021 6.8116 9.75 8.00016 9.75C9.18872 9.75 10.2221 10.021 10.9328 10.483C11.6199 10.9297 12 11.5426 12 12.3333C12 12.4254 11.9254 12.5 11.8333 12.5H4.16667C4.07462 12.5 4 12.4254 4 12.3333Z" fill="#191919"/>
</svg>
