<svg width="16" height="16" viewBox="0 0 16 16" fill="none" xmlns="http://www.w3.org/2000/svg">
<path d="M11.3506 1.94816C11.8842 2.60278 11.8454 3.56856 11.2354 4.17863L9.70703 5.70695C9.31652 6.09746 8.6835 6.09743 8.29297 5.70695C7.90245 5.31643 7.90245 4.68341 8.29297 4.29289L8.58594 3.99992H4.66699C3.74652 3.99992 3 4.74644 3 5.66691V8.99992L2.99512 9.10246C2.94379 9.60659 2.51768 9.99992 2 9.99992C1.48232 9.99992 1.05621 9.60659 1.00488 9.10246L1 8.99992V5.66691C1 3.64187 2.64195 1.99992 4.66699 1.99992H8.58594L8.29297 1.70695C7.90244 1.31643 7.90244 0.683415 8.29297 0.292891C8.68349 -0.0976287 9.31651 -0.0976317 9.70703 0.292891L11.2354 1.82121L11.3506 1.94816Z" fill="#191919"/>
<path fill-rule="evenodd" clip-rule="evenodd" d="M14 13.6669C13.9998 14.9553 12.9554 15.9997 11.667 15.9999H7.33301C6.0446 15.9997 5.00018 14.9553 5 13.6669V9.33293C5.00018 8.04452 6.0446 7.0001 7.33301 6.99992H11.667C12.9554 7.0001 13.9998 8.04452 14 9.33293V13.6669ZM12 9.33293C11.9998 9.14909 11.8508 9.0001 11.667 8.99992H7.33301C7.14917 9.0001 7.00018 9.14909 7 9.33293V13.6669C7.00018 13.8507 7.14917 13.9997 7.33301 13.9999H11.667C11.8508 13.9997 11.9998 13.8508 12 13.6669V9.33293Z" fill="#191919"/>
</svg>
