<svg width="16" height="16" viewBox="0 0 16 16" fill="none" xmlns="http://www.w3.org/2000/svg">
<path d="M13 10C13.5523 10 14 10.4477 14 11V11.9951H15.0049C15.5572 11.9951 16.0049 12.4428 16.0049 12.9951C16.0048 13.5473 15.5571 13.9951 15.0049 13.9951H14V15C14 15.5523 13.5523 16 13 16C12.4477 16 12 15.5523 12 15V13.9951H11.0049C10.4527 13.9951 10.0049 13.5473 10.0049 12.9951C10.0049 12.4429 10.4527 11.9952 11.0049 11.9951H12V11C12 10.4477 12.4477 10 13 10Z" fill="#191919"/>
<path d="M11 1C12.6569 1 14 2.34315 14 4V7.5C14 8.05228 13.5523 8.5 13 8.5C12.4477 8.5 12 8.05228 12 7.5V4C12 3.44772 11.5523 3 11 3H4C3.44772 3 3 3.44772 3 4V10.8359L6.37402 7.46191L6.49512 7.35254C7.07902 6.87657 7.92214 6.87625 8.50586 7.35254L8.62598 7.46191L9.65137 8.4873C10.0416 8.87777 10.0416 9.51089 9.65137 9.90137C9.2609 10.2917 8.62781 10.2917 8.2373 9.90137L7.5 9.16406L4.66406 12H7.5C8.05228 12 8.5 12.4477 8.5 13C8.5 13.5523 8.05228 14 7.5 14H4C2.34315 14 1 12.6569 1 11V4C1 2.34315 2.34315 1 4 1H11Z" fill="#191919"/>
<path d="M9.75 4.25C10.3023 4.25 10.75 4.69772 10.75 5.25C10.75 5.80228 10.3023 6.25 9.75 6.25C9.19771 6.25 8.75 5.80228 8.75 5.25C8.75 4.69772 9.19771 4.25 9.75 4.25Z" fill="#191919"/>
</svg>
