<svg width="16" height="16" viewBox="0 0 16 16" fill="none" xmlns="http://www.w3.org/2000/svg">
<path d="M6.29285 1.70712C5.90232 1.3166 5.90231 0.683432 6.29283 0.292902C6.68335 -0.0976269 7.31652 -0.0976352 7.70705 0.292884L9.7071 2.29288C9.89464 2.48042 10 2.73478 10 3C10 3.26522 9.89464 3.51958 9.7071 3.70712L7.70705 5.70712C7.31652 6.09764 6.68335 6.09763 6.29283 5.7071C5.90231 5.31657 5.90232 4.6834 6.29285 4.29288L6.58558 4.00016C5.8561 4.00098 5.31641 4.00593 4.87945 4.03574C4.37254 4.07033 4.07733 4.135 3.85195 4.22836C3.11687 4.53284 2.53284 5.11687 2.22836 5.85195C2.135 6.07733 2.07033 6.37254 2.03574 6.87945C2.00054 7.39534 2 8.05443 2 9C2 9.55229 1.55229 10 1 10C0.447716 10 1.66688e-07 9.55229 1.66688e-07 9V8.96449C-6.39628e-06 8.06273 -1.169e-05 7.33531 0.0403805 6.74331C0.0819147 6.13456 0.169479 5.59628 0.380603 5.08658C0.888073 3.86144 1.86144 2.88807 3.08658 2.3806C3.59628 2.16948 4.13456 2.08191 4.74331 2.04038C5.25011 2.0058 5.85615 2.00083 6.58586 2.00012L6.29285 1.70712Z" fill="#191919"/>
<path d="M14 7C15.1046 7 16 7.89543 16 9V14C16 15.1046 15.1046 16 14 16H6C4.89543 16 4 15.1046 4 14V9C4 7.89543 4.89543 7 6 7L14 7Z" fill="#191919"/>
</svg>
