<svg width="16" height="16" viewBox="0 0 16 16" fill="none" xmlns="http://www.w3.org/2000/svg">
<path fill-rule="evenodd" clip-rule="evenodd" d="M16 8.22773C16.0001 8.33933 16.0003 8.52245 15.9865 8.69131C15.9696 8.89837 15.9224 9.25261 15.7275 9.63502C15.4886 10.1039 15.1078 10.4854 14.6395 10.7253L8.20711 4.29289C7.81658 3.90237 7.18342 3.90237 6.79289 4.29289L3.99998 7.08581L3.99998 3.77236C3.99986 3.66077 3.99966 3.47765 4.01345 3.30878C4.03037 3.10173 4.07763 2.74748 4.27248 2.36507C4.51217 1.89466 4.89462 1.51221 5.36502 1.27253C5.74744 1.07768 6.10168 1.03042 6.30874 1.0135C6.47762 0.999702 6.66072 0.999903 6.77232 1.00002L13.2277 1.00003C13.3393 0.999903 13.5224 0.999702 13.6913 1.0135C13.8983 1.03042 14.2526 1.07768 14.635 1.27253C15.1054 1.51221 15.4878 1.89466 15.7275 2.36507C15.9224 2.74748 15.9696 3.10173 15.9865 3.30878C16.0003 3.47766 16.0001 3.66077 16 3.77236L16 8.22773ZM12.75 5.5C13.4404 5.5 14 4.94036 14 4.25C14 3.55964 13.4404 3 12.75 3C12.0596 3 11.5 3.55964 11.5 4.25C11.5 4.94036 12.0596 5.5 12.75 5.5Z" fill="#191919"/>
<path d="M7.5 6.41421L12.0859 11.0001H6.77232C6.66072 11.0002 6.47761 11.0004 6.30874 10.9866C6.10168 10.9697 5.74744 10.9224 5.36502 10.7276C4.8961 10.4886 4.51458 10.1078 4.27475 9.63946L7.5 6.41421Z" fill="#191919"/>
<path d="M12 14C12 13.4477 11.5523 13 11 13H4.2C3.62345 13 3.25117 12.9992 2.96783 12.9761C2.69617 12.9539 2.59545 12.9162 2.54601 12.891C2.35785 12.7951 2.20487 12.6422 2.10899 12.454C2.0838 12.4045 2.04612 12.3038 2.02393 12.0322C2.00078 11.7488 2 11.3766 2 10.8L2 6C2 5.44771 1.55229 5 1 5C0.447716 5 8.21318e-07 5.44771 8.21318e-07 6V10.8385C-1.65186e-05 11.3656 -3.1475e-05 11.8205 0.0305697 12.195C0.0628706 12.5904 0.134187 12.9836 0.326981 13.362C0.614601 13.9265 1.07354 14.3854 1.63803 14.673C2.01641 14.8658 2.40963 14.9371 2.80497 14.9694C3.17954 15 3.63431 15 4.16145 15L11 15C11.5523 15 12 14.5523 12 14Z" fill="#191919"/>
</svg>
