<svg width="16" height="16" viewBox="0 0 16 16" fill="none" xmlns="http://www.w3.org/2000/svg">
<path d="M6.99072 5.69518C7.53809 5.12346 8.46083 5.12361 9.0083 5.69518L9.11963 5.82702L14.3198 12.7596C15.012 13.6826 14.3534 14.9999 13.1997 14.9999H2.79931C1.64591 14.9995 0.988057 13.6825 1.68017 12.7596L6.87939 5.82702L6.99072 5.69518ZM8.99951 12.9999H12.0005L8.99951 8.99889V12.9999ZM3.99951 12.9999H6.99951V8.99987L3.99951 12.9999ZM11.2925 0.292837C11.683 -0.0976498 12.316 -0.0975748 12.7065 0.292837L14.2358 1.82116C14.8866 2.47201 14.8866 3.52773 14.2358 4.17858L12.7065 5.7069C12.316 6.09731 11.683 6.09739 11.2925 5.7069C10.9021 5.3164 10.9021 4.68333 11.2925 4.29284L11.5854 3.99987H4.41357L4.70654 4.29284C5.09706 4.68336 5.09706 5.31638 4.70654 5.7069C4.31601 6.09731 3.68296 6.09739 3.29248 5.7069L1.76416 4.17858C1.11328 3.52771 1.11328 2.47203 1.76416 1.82116L3.29248 0.292837C3.68296 -0.0976498 4.31601 -0.0975748 4.70654 0.292837C5.09706 0.683361 5.09706 1.31638 4.70654 1.7069L4.41357 1.99987H11.5854L11.2925 1.7069C10.9021 1.3164 10.9021 0.683333 11.2925 0.292837Z" fill="#191919"/>
</svg>
