<svg width="16" height="16" viewBox="0 0 16 16" fill="none" xmlns="http://www.w3.org/2000/svg">
<path fill-rule="evenodd" clip-rule="evenodd" d="M16 10.4463C16.0001 10.6845 16.0002 10.969 15.9798 11.2197C15.956 11.5101 15.8951 11.9261 15.673 12.362C15.4656 12.7691 15.1691 13.1213 14.8081 13.3939L9.20711 7.79292C8.81658 7.4024 8.18342 7.4024 7.79289 7.79292L7 8.58582L4.70711 6.29292C4.31658 5.9024 3.68342 5.9024 3.29289 6.29292L2.40702e-05 9.58579L1.23473e-05 5.55375C-7.87286e-05 5.31551 -0.000187447 5.031 0.0202907 4.78036C0.04402 4.48993 0.104907 4.07394 0.327005 3.63805C0.614625 3.07357 1.07357 2.61462 1.63805 2.327C2.07394 2.10491 2.48993 2.04402 2.78036 2.02029C3.031 1.99981 3.31551 1.99992 3.55375 2.00001L12.4463 2.00001C12.6845 1.99992 12.969 1.99981 13.2197 2.02029C13.5101 2.04402 13.9261 2.10491 14.362 2.32701C14.9265 2.61463 15.3854 3.07357 15.673 3.63805C15.8951 4.07394 15.956 4.48993 15.9798 4.78036C16.0002 5.031 16.0001 5.31551 16 5.55375V10.4463ZM12.5 7.00003C13.3284 7.00003 14 6.32846 14 5.50003C14 4.6716 13.3284 4.00003 12.5 4.00003C11.6716 4.00003 11 4.6716 11 5.50003C11 6.32846 11.6716 7.00003 12.5 7.00003Z" fill="#191919"/>
<path d="M8.5 9.91424L12.5857 14L3.55375 14C3.31551 14.0001 3.031 14.0002 2.78036 13.9798C2.48993 13.956 2.07394 13.8951 1.63805 13.673C1.07357 13.3854 0.614624 12.9265 0.327004 12.362C0.294813 12.2988 0.266008 12.2361 0.240212 12.174L4 8.41424L6.29289 10.7071C6.68342 11.0977 7.31658 11.0977 7.70711 10.7071L8.5 9.91424Z" fill="#191919"/>
</svg>
