<svg width="16" height="16" viewBox="0 0 16 16" fill="none" xmlns="http://www.w3.org/2000/svg">
<path d="M1 4C1.55228 4 2 4.44772 2 5V13C2 13.5523 2.44772 14 3 14H11C11.5523 14 12 14.4477 12 15C12 15.5523 11.5523 16 11 16H3C1.34316 16 0 14.6568 0 13V5C0 4.44772 0.447725 4.00001 1 4Z" fill="#191919"/>
<path d="M11.75 3.25C12.3023 3.25 12.75 3.69772 12.75 4.25C12.75 4.80228 12.3023 5.25 11.75 5.25C11.1977 5.24999 10.75 4.80228 10.75 4.25C10.75 3.69772 11.1977 3.25001 11.75 3.25Z" fill="#191919"/>
<path fill-rule="evenodd" clip-rule="evenodd" d="M13 0C14.6569 3.22133e-08 16 1.34315 16 3V10C16 11.6569 14.6569 13 13 13H6C4.34316 13 3 11.6568 3 10V3C3 1.34315 4.34316 1.13712e-05 6 0H13ZM6.66406 11H12.3359L9.5 8.16406L6.66406 11ZM6 2C5.44772 2.00001 5 2.44772 5 3V9.83594L8.37402 6.46191L8.49512 6.35254C9.07902 5.87656 9.92213 5.87625 10.5059 6.35254L10.626 6.46191L14 9.83496V3C14 2.44772 13.5523 2 13 2H6Z" fill="#191919"/>
</svg>
