<svg width="16" height="16" viewBox="0 0 16 16" fill="none" xmlns="http://www.w3.org/2000/svg">
<path d="M8.00003 9.41421L9.19008 10.6043C8.75294 11.298 8.50003 12.1195 8.50003 13C8.50003 13.3437 8.53856 13.6784 8.61155 14H3.55375C3.31551 14.0001 3.031 14.0002 2.78036 13.9798C2.48993 13.956 2.07394 13.8951 1.63805 13.673C1.07357 13.3854 0.614624 12.9265 0.327004 12.362C0.142633 12.0001 0.069356 11.652 0.0362069 11.378L3.50003 7.91421L5.79292 10.2071C6.18345 10.5976 6.81661 10.5976 7.20714 10.2071L8.00003 9.41421Z" fill="#191919"/>
<path fill-rule="evenodd" clip-rule="evenodd" d="M16 5.55375V9.64585C15.2039 8.93328 14.1526 8.5 13 8.5C12.1195 8.5 11.298 8.75291 10.6043 9.19005L8.70714 7.29289C8.31661 6.90237 7.68345 6.90237 7.29292 7.29289L6.50003 8.08579L4.20714 5.79289C3.81661 5.40237 3.18345 5.40237 2.79292 5.79289L1.21995e-05 8.5858L1.23473e-05 5.55375C-7.87286e-05 5.31551 -0.000187447 5.031 0.0202907 4.78036C0.04402 4.48993 0.104907 4.07394 0.327005 3.63805C0.614625 3.07357 1.07357 2.61462 1.63805 2.327C2.07394 2.10491 2.48993 2.04402 2.78036 2.02029C3.031 1.99981 3.31551 1.99992 3.55375 2.00001L12.4463 2.00001C12.6845 1.99992 12.969 1.99981 13.2197 2.02029C13.5101 2.04402 13.9261 2.10491 14.362 2.32701C14.9265 2.61463 15.3854 3.07357 15.673 3.63805C15.8951 4.07394 15.956 4.48993 15.9798 4.78036C16.0002 5.031 16.0001 5.31551 16 5.55375ZM12.5 7C13.3285 7 14 6.32843 14 5.5C14 4.67157 13.3285 4 12.5 4C11.6716 4 11 4.67157 11 5.5C11 6.32843 11.6716 7 12.5 7Z" fill="#191919"/>
<path d="M14 11C14 10.4477 13.5523 10 13 10C12.4477 10 12 10.4477 12 11V12H11C10.4477 12 10 12.4477 10 13C10 13.5523 10.4477 14 11 14H12V15C12 15.5523 12.4477 16 13 16C13.5523 16 14 15.5523 14 15V14H15C15.5523 14 16 13.5523 16 13C16 12.4477 15.5523 12 15 12H14V11Z" fill="#191919"/>
</svg>
