<svg width="16" height="16" viewBox="0 0 16 16" fill="none" xmlns="http://www.w3.org/2000/svg">
<path d="M4.70715 4.29288C5.09768 4.6834 5.09769 5.31657 4.70717 5.7071C4.31665 6.09763 3.68348 6.09764 3.29295 5.70712L1.2929 3.70712C1.10536 3.51958 1 3.26522 1 3C1 2.73478 1.10536 2.48042 1.2929 2.29288L3.29295 0.292884C3.68348 -0.0976352 4.31665 -0.097627 4.70717 0.292902C5.09769 0.683432 5.09768 1.3166 4.70715 1.70712L4.41426 2H11.5857L11.2929 1.70712C10.9023 1.3166 10.9023 0.683432 11.2928 0.292903C11.6834 -0.0976265 12.3165 -0.0976348 12.707 0.292884L14.7071 2.29288C14.8946 2.48042 15 2.73478 15 3C15 3.26522 14.8946 3.51958 14.7071 3.70712L12.707 5.70712C12.3165 6.09764 11.6834 6.09763 11.2928 5.7071C10.9023 5.31657 10.9023 4.6834 11.2929 4.29288L11.5857 4H4.41426L4.70715 4.29288Z" fill="#191919"/>
<path d="M2.11799 16C1.37461 16 0.891112 15.2177 1.22356 14.5528L5.10553 6.78884C5.57744 5.84502 6.99996 6.18083 6.99996 7.23606V15C6.99996 15.5523 6.55224 16 5.99996 16L2.11799 16Z" fill="#191919"/>
<path d="M14.7764 14.5528C15.1089 15.2177 14.6254 16 13.882 16L10 16C9.44776 16 9.00004 15.5523 9.00004 15L9.00004 7.23606C9.00004 6.18083 10.4226 5.84502 10.8945 6.78884L14.7764 14.5528Z" fill="#191919"/>
</svg>
