<svg width="16" height="16" viewBox="0 0 16 16" fill="none" xmlns="http://www.w3.org/2000/svg">
<path d="M10.5 4.25C11.1904 4.25 11.75 4.80964 11.75 5.5C11.7499 6.1903 11.1903 6.75 10.5 6.75C9.80968 6.75 9.25007 6.1903 9.25 5.5C9.25 4.80964 9.80964 4.25 10.5 4.25Z" fill="#191919"/>
<path fill-rule="evenodd" clip-rule="evenodd" d="M12.1543 1.00391C13.7394 1.08421 15 2.39489 15 4V12C15 13.6569 13.6569 15 12 15H4C2.39489 15 1.08421 13.7394 1.00391 12.1543L1 12V4C1 2.34315 2.34315 1 4 1H12L12.1543 1.00391ZM4.41406 13H11.5869L8 9.41406L4.41406 13ZM4 3C3.44772 3 3 3.44772 3 4V11.5859L6.82227 7.76465L6.94824 7.64941C7.60286 7.11587 8.56865 7.15459 9.17871 7.76465L13 11.585V4C13 3.48232 12.6067 3.05621 12.1025 3.00488L12 3H4Z" fill="#191919"/>
</svg>
