<svg width="16" height="16" viewBox="0 0 16 16" fill="none" xmlns="http://www.w3.org/2000/svg">
<path d="M8 5C7.58579 5 7.25 5.33579 7.25 5.75V7.25H5.75C5.33579 7.25 5 7.58579 5 8C5 8.41421 5.33579 8.75 5.75 8.75H7.25V10.25C7.25 10.6642 7.58579 11 8 11C8.41421 11 8.75 10.6642 8.75 10.25V8.75H10.25C10.6642 8.75 11 8.41421 11 8C11 7.58579 10.6642 7.25 10.25 7.25H8.75V5.75C8.75 5.33579 8.41421 5 8 5Z" fill="#202125"/>
<path d="M8 13.5C4.96243 13.5 2.5 11.0376 2.5 8C2.5 4.96243 4.96243 2.5 8 2.5C11.0376 2.5 13.5 4.96243 13.5 8C13.5 11.0376 11.0376 13.5 8 13.5ZM8 15C11.866 15 15 11.866 15 8C15 4.13401 11.866 1 8 1C4.13401 1 1 4.13401 1 8C1 11.866 4.13401 15 8 15Z" fill="#202125"/>
</svg>
