<svg width="16" height="16" viewBox="0 0 16 16" fill="none" xmlns="http://www.w3.org/2000/svg">
<path d="M5 14H11V10H5V14ZM5 4H11V2H5V4ZM13 11H14V7C14 6.44772 13.5523 6 13 6H3C2.44772 6 2 6.44772 2 7V11H3V9.66699C3 8.74652 3.74652 8 4.66699 8H11.333C12.2535 8 13 8.74652 13 9.66699V11ZM13 4C14.6569 4 16 5.34315 16 7V11.333C16 12.2535 15.2535 13 14.333 13H13V14.333C13 15.2535 12.2535 16 11.333 16H4.66699C3.74652 16 3 15.2535 3 14.333V13H1.66699C0.746518 13 0 12.2535 0 11.333V7C0 5.34315 1.34315 4 3 4V1.66699C3 0.746518 3.74652 0 4.66699 0H11.333C12.2535 0 13 0.746519 13 1.66699V4Z" fill="#191919"/>
</svg>
