<svg width="16" height="16" viewBox="0 0 16 16" fill="none" xmlns="http://www.w3.org/2000/svg">
<path d="M5 12C5 11.4477 5.44772 11 6 11H8C8.55228 11 9 11.4477 9 12C9 12.5523 8.55228 13 8 13H6C5.44772 13 5 12.5523 5 12Z" fill="#191919"/>
<path fill-rule="evenodd" clip-rule="evenodd" d="M14 4.17071C15.1652 4.58254 16 5.69378 16 7V11C16 12.1046 15.1046 13 14 13C14 14.6569 12.6569 16 11 16H5C3.34315 16 2 14.6569 2 13C0.89543 13 0 12.1046 0 11V7C0 5.69378 0.834807 4.58254 2 4.1707V3C2 1.34315 3.34315 0 5 0H11C12.6569 0 14 1.34315 14 3V4.17071ZM12 4V3C12 2.44772 11.5523 2 11 2H5C4.44772 2 4 2.44772 4 3V4L12 4ZM11 14C11.5523 14 12 13.5523 12 13V9H4V13C4 13.5523 4.44772 14 5 14H11Z" fill="#191919"/>
</svg>
