<svg width="16" height="16" viewBox="0 0 16 16" fill="none" xmlns="http://www.w3.org/2000/svg">
<path fill-rule="evenodd" clip-rule="evenodd" d="M8 0C12.4181 0.000263875 16 3.58188 16 8C16 12.4181 12.4181 15.9997 8 16C3.58172 16 0 12.4183 0 8C0 3.58172 3.58172 0 8 0ZM4.52344 12.8896C5.5043 13.5882 6.70408 14 8 14C11.3135 13.9997 14 11.3135 14 8C14 6.70412 13.5872 5.50526 12.8887 4.52441L4.52344 12.8896ZM8 2C4.68629 2 2 4.68629 2 8C2 9.29568 2.41106 10.4948 3.10938 11.4756L11.4746 3.11035C10.494 2.41217 9.29545 2.0001 8 2Z" fill="#191919"/>
</svg>
