<svg width="16" height="16" viewBox="0 0 16 16" fill="none" xmlns="http://www.w3.org/2000/svg">
<path d="M8.25098 2.25C8.63214 2.25049 8.95221 2.53725 8.99512 2.91602C9.16549 4.41966 9.61792 5.47995 10.3213 6.19629C11.0203 6.90812 12.0542 7.3686 13.5664 7.50293C13.9537 7.53735 14.2504 7.86217 14.25 8.25098C14.2495 8.63974 13.9518 8.96354 13.5645 8.99707C12.0782 9.12576 11.0209 9.58656 10.3037 10.3037C9.58656 11.0209 9.12576 12.0782 8.99707 13.5645C8.96354 13.9518 8.63974 14.2495 8.25098 14.25C7.86217 14.2504 7.53735 13.9537 7.50293 13.5664C7.3686 12.0542 6.90812 11.0203 6.19629 10.3213C5.47995 9.61792 4.41966 9.16549 2.91602 8.99512C2.53725 8.95221 2.25049 8.63214 2.25 8.25098C2.24961 7.86972 2.53532 7.54857 2.91406 7.50488C4.44413 7.32841 5.47973 6.87573 6.17773 6.17773C6.87574 5.47973 7.32841 4.44413 7.50488 2.91406L7.53418 2.77637C7.63022 2.46819 7.91754 2.24966 8.25098 2.25ZM8.24805 5.8125C7.9833 6.34855 7.65102 6.82554 7.23828 7.23828C6.82554 7.65102 6.34856 7.9833 5.8125 8.24805C6.34927 8.5111 6.83016 8.84163 7.24707 9.25098C7.65309 9.64966 7.98442 10.1092 8.24805 10.625C8.51004 10.1082 8.84044 9.64589 9.24316 9.24316C9.64589 8.84044 10.1082 8.51004 10.625 8.24805C10.1092 7.98442 9.64966 7.65309 9.25098 7.24707C8.84163 6.83016 8.5111 6.34927 8.24805 5.8125ZM12 2C12.1578 2 12.2861 2.12834 12.2861 2.28613V2.34277C12.2861 3.10019 12.8998 3.71387 13.6572 3.71387H13.7139C13.8717 3.71387 14 3.8422 14 4C14 4.1578 13.8717 4.28613 13.7139 4.28613H13.6572C12.8998 4.28613 12.2861 4.89981 12.2861 5.65723V5.71387C12.2861 5.87166 12.1578 6 12 6C11.8422 6 11.7139 5.87166 11.7139 5.71387V5.65723C11.7139 4.89981 11.1002 4.28613 10.3428 4.28613H10.2861C10.1283 4.28613 10 4.1578 10 4C10 3.8422 10.1283 3.71387 10.2861 3.71387H10.3428C11.1002 3.71387 11.7139 3.10019 11.7139 2.34277V2.28613C11.7139 2.12834 11.8422 2 12 2Z" fill="#191919"/>
</svg>
