<svg width="16" height="16" viewBox="0 0 16 16" fill="none" xmlns="http://www.w3.org/2000/svg">
<path d="M12.6264 1.10132C12.8577 1.23551 13 1.48265 13 1.75V4.33682C14.1825 4.89855 15 6.1038 15 7.5C15 8.8962 14.1825 10.1015 13 10.6632V13.25C13 13.5174 12.8577 13.7645 12.6264 13.8987C12.3952 14.0329 12.11 14.0338 11.8779 13.9012L8 11.6852V12.5C8 13.8807 6.88071 15 5.5 15C4.11929 15 3 13.8807 3 12.5V10.6632C1.81753 10.1015 1 8.8962 1 7.5C1 5.567 2.567 4 4.5 4H6.20331C6.59487 4 6.97965 3.89782 7.31962 3.70355L11.8779 1.09882C12.11 0.966173 12.3952 0.967125 12.6264 1.10132ZM4.5 11V12.5C4.5 13.0523 4.94772 13.5 5.5 13.5C6.05228 13.5 6.5 13.0523 6.5 12.5V11.0196C6.40196 11.0066 6.30285 11 6.20331 11H4.5ZM11.5 11.9576V3.04239L8.06383 5.00591C7.49721 5.32969 6.85591 5.5 6.20331 5.5H4.5C3.39543 5.5 2.5 6.39543 2.5 7.5C2.5 8.60457 3.39543 9.5 4.5 9.5H6.20331C6.85591 9.5 7.49721 9.67031 8.06383 9.99409L11.5 11.9576ZM13.5 7.5C13.5 6.99278 13.3112 6.52965 13 6.17709V8.82291C13.3112 8.47035 13.5 8.00722 13.5 7.5Z" fill="#191919"/>
</svg>
