<svg width="16" height="16" viewBox="0 0 16 16" fill="none" xmlns="http://www.w3.org/2000/svg">
<path d="M7.25 3.5C7.25 4.32843 6.57843 5 5.75 5C4.92157 5 4.25 4.32843 4.25 3.5C4.25 2.67157 4.92157 2 5.75 2C6.57843 2 7.25 2.67157 7.25 3.5Z" fill="#191919"/>
<path d="M7.25 8C7.25 8.82843 6.57843 9.5 5.75 9.5C4.92157 9.5 4.25 8.82843 4.25 8C4.25 7.17157 4.92157 6.5 5.75 6.5C6.57843 6.5 7.25 7.17157 7.25 8Z" fill="#191919"/>
<path d="M7.25 12.5C7.25 13.3284 6.57843 14 5.75 14C4.92157 14 4.25 13.3284 4.25 12.5C4.25 11.6716 4.92157 11 5.75 11C6.57843 11 7.25 11.6716 7.25 12.5Z" fill="#191919"/>
<path d="M11.75 3.5C11.75 4.32843 11.0784 5 10.25 5C9.42157 5 8.75 4.32843 8.75 3.5C8.75 2.67157 9.42157 2 10.25 2C11.0784 2 11.75 2.67157 11.75 3.5Z" fill="#191919"/>
<path d="M11.75 8C11.75 8.82843 11.0784 9.5 10.25 9.5C9.42157 9.5 8.75 8.82843 8.75 8C8.75 7.17157 9.42157 6.5 10.25 6.5C11.0784 6.5 11.75 7.17157 11.75 8Z" fill="#191919"/>
<path d="M11.75 12.5C11.75 13.3284 11.0784 14 10.25 14C9.42157 14 8.75 13.3284 8.75 12.5C8.75 11.6716 9.42157 11 10.25 11C11.0784 11 11.75 11.6716 11.75 12.5Z" fill="#191919"/>
</svg>
