<svg width="16" height="16" viewBox="0 0 16 16" fill="none" xmlns="http://www.w3.org/2000/svg">
<path d="M5.75 2.5C5.05964 2.5 4.5 3.05964 4.5 3.75V12.8486L5.58397 12.126C5.84856 11.9496 6.19561 11.9592 6.45 12.15L8.00001 13.3125L9.55 12.15C9.80439 11.9592 10.1514 11.9496 10.416 12.126L11.5 12.8486V3.75C11.5 3.05964 10.9404 2.5 10.25 2.5H5.75ZM3 3.75C3 2.23122 4.23122 1 5.75 1H10.25C11.7688 1 13 2.23122 13 3.75V14.25C13 14.5266 12.8478 14.7807 12.6039 14.9113C12.36 15.0418 12.0641 15.0275 11.834 14.874L10.0255 13.6684L8.45001 14.85C8.18335 15.05 7.81668 15.05 7.55001 14.85L5.97451 13.6684L4.16603 14.874C3.93588 15.0275 3.63997 15.0418 3.39611 14.9113C3.15224 14.7807 3 14.5266 3 14.25V3.75ZM5.5 6.25C5.5 5.83579 5.83579 5.5 6.25 5.5H9.75C10.1642 5.5 10.5 5.83579 10.5 6.25C10.5 6.66421 10.1642 7 9.75 7H6.25C5.83579 7 5.5 6.66421 5.5 6.25ZM5.5 8.75C5.5 8.33579 5.83579 8 6.25 8H9.75C10.1642 8 10.5 8.33579 10.5 8.75C10.5 9.16421 10.1642 9.5 9.75 9.5H6.25C5.83579 9.5 5.5 9.16421 5.5 8.75Z" fill="#191919"/>
</svg>
