<svg width="16" height="16" viewBox="0 0 16 16" fill="none" xmlns="http://www.w3.org/2000/svg">
<path d="M3 1.75C3 1.33579 3.33579 1 3.75 1H12.25C12.6642 1 13 1.33579 13 1.75V2.58333H13.25C14.2165 2.58333 15 3.36684 15 4.33333V4.66667C15 6.10691 13.8928 7.28856 12.4832 7.40692C11.7692 8.80535 10.3827 9.8032 8.75 9.974V11H9.91667C11.0673 11 12 11.9327 12 13.0833V14.25C12 14.6642 11.6642 15 11.25 15H4.75C4.33579 15 4 14.6642 4 14.25V13.0833C4 11.9327 4.93274 11 6.08333 11H7.25V9.974C5.61734 9.8032 4.23079 8.80535 3.51682 7.40692C2.10717 7.28856 1 6.10691 1 4.66667V4.33333C1 3.36684 1.7835 2.58333 2.75 2.58333H3V1.75ZM3 4.08333H2.75C2.61193 4.08333 2.5 4.19526 2.5 4.33333V4.66667C2.5 5.08422 2.70473 5.45395 3.01929 5.68096C3.00652 5.53901 3 5.39527 3 5.25V4.08333ZM12.9807 5.68096C13.2953 5.45395 13.5 5.08422 13.5 4.66667V4.33333C13.5 4.19526 13.3881 4.08333 13.25 4.08333H13V5.25C13 5.39527 12.9935 5.53902 12.9807 5.68096ZM4.5 2.5V5.25C4.5 7.04493 5.95507 8.5 7.75 8.5H8.25C10.0449 8.5 11.5 7.04492 11.5 5.25V2.5H4.5ZM6.08333 12.5C5.76117 12.5 5.5 12.7612 5.5 13.0833V13.5H10.5V13.0833C10.5 12.7612 10.2388 12.5 9.91667 12.5H6.08333Z" fill="#191919"/>
</svg>
