<svg width="16" height="16" viewBox="0 0 16 16" fill="none" xmlns="http://www.w3.org/2000/svg">
<path d="M1 8C1 4.13401 4.13401 1 8 1C9.96056 1 11.7301 1.80848 13 3.10547V2C13 1.44772 13.4477 1 14 1C14.5523 1 15 1.44772 15 2V5.33301C15 6.19589 14.3442 6.90578 13.5039 6.99121L13.333 7H10C9.44772 7 9 6.55228 9 6C9 5.44772 9.44772 5 10 5H11.9971C11.0836 3.78493 9.63398 3 8 3C5.23858 3 3 5.23858 3 8C3 10.7614 5.23858 13 8 13C10.1754 13 12.0289 11.6102 12.7158 9.66699C12.8999 9.14628 13.4715 8.87357 13.9922 9.05762C14.5125 9.24181 14.7854 9.81251 14.6016 10.333C13.6411 13.0504 11.0494 15 8 15C4.13401 15 1 11.866 1 8Z" fill="#191919"/>
</svg>
