<svg width="16" height="16" viewBox="0 0 16 16" fill="none" xmlns="http://www.w3.org/2000/svg">
<path d="M6.49792 1.46013C7.47293 1.13512 8.52706 1.13512 9.50208 1.46012L12.8034 2.56056C13.518 2.79876 14 3.46751 14 4.22076V6.54355C14 9.57382 12.4321 12.3884 9.8556 13.9834L8.39477 14.8877C8.15289 15.0374 7.84711 15.0374 7.60523 14.8877L6.1444 13.9834C3.56786 12.3884 2 9.57382 2 6.54355V4.22076C2 3.46751 2.482 2.79876 3.1966 2.56056L6.49792 1.46013ZM9.02774 2.88315C8.36062 2.66078 7.63938 2.66078 6.97226 2.88315L3.67094 3.98359C3.56886 4.01762 3.5 4.11315 3.5 4.22076V6.54355C3.5 9.05435 4.79909 11.3864 6.93393 12.708L8 13.3679L9.06607 12.708C11.2009 11.3864 12.5 9.05435 12.5 6.54355V4.22076C12.5 4.11315 12.4311 4.01762 12.3291 3.98359L9.02774 2.88315Z" fill="#191919"/>
</svg>
