<svg width="16" height="16" viewBox="0 0 16 16" fill="none" xmlns="http://www.w3.org/2000/svg">
<path d="M1.00003 5V4C1.00003 2.34315 2.34318 1 4.00003 1H5.00003C5.55232 1 6.00003 1.44772 6.00003 2C6.00003 2.55228 5.55232 3 5.00003 3H4.00003C3.44775 3 3.00003 3.44772 3.00003 4V5C3.00003 5.55228 2.55232 6 2.00003 6C1.44775 6 1.00003 5.55228 1.00003 5Z" fill="#191919"/>
<path d="M1.00003 11V12C1.00003 13.6569 2.34318 15 4.00003 15H5.00003C5.55232 15 6.00003 14.5523 6.00003 14C6.00003 13.4478 5.55232 13 5.00003 13H4.00003C3.44775 13 3.00003 12.5523 3.00003 12V11C3.00003 10.4478 2.55232 10 2.00003 10C1.44775 10 1.00003 10.4478 1.00003 11Z" fill="#191919"/>
<path d="M15 5.00005V4.00005C15 2.34319 13.6569 1.00005 12 1.00005H11C10.4477 1.00005 10 1.44776 10 2.00005C10 2.55233 10.4477 3.00005 11 3.00005H12C12.5523 3.00005 13 3.44776 13 4.00005V5.00005C13 5.55233 13.4477 6.00005 14 6.00005C14.5523 6.00005 15 5.55233 15 5.00005Z" fill="#191919"/>
<path d="M15 11V12C15 13.6569 13.6569 15 12 15H11C10.4477 15 10 14.5523 10 14C10 13.4478 10.4477 13 11 13H12C12.5523 13 13 12.5523 13 12V11C13 10.4478 13.4477 10 14 10C14.5523 10 15 10.4478 15 11Z" fill="#191919"/>
<path d="M6.00003 6.00005V10H10V6.00005H6.00003ZM12 10C12 11.1046 11.1046 12 10 12H6.00003C4.96438 12 4.11304 11.2128 4.01077 10.2041L4.00003 10V6.00005C4.00003 4.89548 4.89546 4.00005 6.00003 4.00005H10L10.2041 4.01079C11.2128 4.11305 12 4.9644 12 6.00005V10Z" fill="#191919"/>
<path d="M7.00003 7.00005H9.00003V9.00005H7.00003V7.00005Z" fill="#191919"/>
</svg>
