<svg width="16" height="16" viewBox="0 0 16 16" fill="none" xmlns="http://www.w3.org/2000/svg">
<path d="M13.9398 3.34177C14.0726 2.97664 13.9818 2.56765 13.7071 2.29292C13.4324 2.01819 13.0234 1.92746 12.6583 2.06023L1.65826 6.06024C1.26853 6.20196 1.00671 6.56952 1.00013 6.98416C0.993547 7.39881 1.24357 7.77449 1.62861 7.92851L5.23855 9.37248C5.25961 9.35077 5.28187 9.32983 5.30531 9.30973L11.2316 4.23009C11.383 4.10026 11.6089 4.10893 11.75 4.25C11.8911 4.39107 11.8997 4.61697 11.7699 4.76844L6.69027 10.6947C6.67017 10.7181 6.64923 10.7404 6.62753 10.7614L8.07152 14.3714C8.22554 14.7565 8.60122 15.0065 9.01587 14.9999C9.43051 14.9933 9.79807 14.7315 9.93979 14.3418L13.9398 3.34177Z" fill="#191919"/>
</svg>
