<svg width="16" height="16" viewBox="0 0 16 16" fill="none" xmlns="http://www.w3.org/2000/svg">
<path d="M8 10.5C9.38071 10.5 10.5 9.38071 10.5 8C10.5 6.61929 9.38071 5.5 8 5.5C6.61929 5.5 5.5 6.61929 5.5 8C5.5 9.38071 6.61929 10.5 8 10.5ZM9 8C9 8.55228 8.55228 9 8 9C7.44772 9 7 8.55228 7 8C7 7.44772 7.44772 7 8 7C8.55228 7 9 7.44772 9 8Z" fill="#191919"/>
<path d="M7.48262 1.25C6.90588 1.25 6.404 1.6446 6.26792 2.20507L6.01293 3.25528L5.03359 2.70115C4.5447 2.42453 3.93134 2.508 3.53414 2.9052L2.90519 3.53415C2.508 3.93134 2.42453 4.54471 2.70115 5.0336L3.25528 6.01292L2.20507 6.26792C1.6446 6.404 1.25 6.90587 1.25 7.48262V8.51738C1.25 9.09413 1.6446 9.596 2.20507 9.73208L3.25528 9.98708L2.70115 10.9664C2.42453 11.4553 2.508 12.0687 2.90519 12.4659L3.53414 13.0948C3.93134 13.492 4.5447 13.5755 5.03359 13.2988L6.01293 12.7447L6.26792 13.7949C6.404 14.3554 6.90588 14.75 7.48262 14.75H8.51738C9.09413 14.75 9.596 14.3554 9.73209 13.7949L9.98708 12.7447L10.9664 13.2988C11.4553 13.5755 12.0687 13.492 12.4659 13.0948L13.0948 12.4659C13.492 12.0687 13.5755 11.4553 13.2988 10.9664L12.7447 9.98708L13.7949 9.73209C14.3554 9.596 14.75 9.09413 14.75 8.51738V7.48262C14.75 6.90587 14.3554 6.404 13.7949 6.26791L12.7447 6.01292L13.2988 5.0336C13.5755 4.54471 13.492 3.93134 13.0948 3.53414L12.4659 2.90519C12.0687 2.508 11.4553 2.42453 10.9664 2.70115L9.98708 3.25528L9.73209 2.20507C9.596 1.6446 9.09413 1.25 8.51738 1.25H7.48262ZM7.3925 3.93074L7.67919 2.75H8.32081L8.6075 3.93074C8.80325 4.73696 9.7157 5.1323 10.4378 4.72373L11.5396 4.10028L11.8997 4.46038L11.2763 5.56223C10.8677 6.2843 11.263 7.19675 12.0693 7.3925L13.25 7.67919V8.32081L12.0693 8.6075C11.263 8.80325 10.8677 9.7157 11.2763 10.4378L11.8997 11.5396L11.5396 11.8997L10.4378 11.2763C9.7157 10.8677 8.80325 11.263 8.6075 12.0693L8.32081 13.25H7.67919L7.3925 12.0693C7.19675 11.263 6.28431 10.8677 5.56223 11.2763L4.46037 11.8997L4.10028 11.5396L4.72373 10.4378C5.13229 9.7157 4.73697 8.80325 3.93074 8.6075L2.75 8.32081V7.67919L3.93074 7.3925C4.73696 7.19675 5.1323 6.2843 4.72373 5.56223L4.10028 4.46038L4.46037 4.10028L5.56223 4.72373C6.28431 5.1323 7.19675 4.73696 7.3925 3.93074Z" fill="#191919"/>
</svg>
