<svg width="16" height="16" viewBox="0 0 16 16" fill="none" xmlns="http://www.w3.org/2000/svg">
<path fill-rule="evenodd" clip-rule="evenodd" d="M7.29289 0.292893C7.68342 -0.0976311 8.31658 -0.0976311 8.70711 0.292893L11.7071 3.29289C12.0976 3.68342 12.0976 4.31655 11.7071 4.70708C11.3166 5.0976 10.6834 5.0976 10.2929 4.70708L9 3.41417V9.49999C9 10.0523 8.55228 10.5 8 10.5C7.44772 10.5 7 10.0523 7 9.49999V3.41417L5.70711 4.70708C5.31658 5.0976 4.68342 5.0976 4.29289 4.70708C3.90237 4.31655 3.90237 3.68342 4.29289 3.29289L7.29289 0.292893Z" fill="#191919"/>
<path d="M5.5 15H10.5C11.8978 15 12.5967 15 13.1481 14.7717C13.8831 14.4672 14.4672 13.8831 14.7716 13.1481C15 12.5967 15 11.8978 15 10.5C15 9.10216 15 8.40323 14.7716 7.85191C14.4672 7.11683 13.8831 6.5328 13.1481 6.22832C12.5967 5.99996 11.8978 5.99999 10.5 5.99999V9.49999C10.5 10.8807 9.38071 12 8 12C6.61929 12 5.5 10.8807 5.5 9.49999V5.99999C4.10218 5.99999 3.40326 5.99996 2.85194 6.22832C2.11686 6.5328 1.53284 7.11683 1.22836 7.85191C1 8.40323 1 9.10216 1 10.5C1 11.8978 1 12.5967 1.22836 13.1481C1.53284 13.8831 2.11686 14.4672 2.85194 14.7717C3.40326 15 4.10217 15 5.5 15Z" fill="#191919"/>
</svg>
