<svg width="16" height="16" viewBox="0 0 16 16" fill="none" xmlns="http://www.w3.org/2000/svg">
<path d="M1 12.0027V9.00268C1 8.4504 1.44772 8.00268 2 8.00268C2.55228 8.00268 3 8.4504 3 9.00268V12.0027C3.00001 12.555 3.44772 13.0027 4 13.0027H12C12.5523 13.0027 13 12.555 13 12.0027V9.00268C13 8.4504 13.4477 8.00268 14 8.00268C14.5523 8.00268 15 8.4504 15 9.00268V12.0027C15 13.6595 13.6568 15.0027 12 15.0027H4C2.34315 15.0027 1.00001 13.6595 1 12.0027ZM7 10.0027V3.41674L5.20703 5.20971C4.81652 5.6001 4.18346 5.60014 3.79297 5.20971C3.40248 4.81923 3.40256 4.18618 3.79297 3.79565L6.81934 0.769283L6.94629 0.654049C7.60219 0.119411 8.56937 0.158056 9.18066 0.769283L12.207 3.79565C12.5975 4.18618 12.5975 4.81921 12.207 5.20971C11.8165 5.6001 11.1835 5.60014 10.793 5.20971L9 3.41674V10.0027C8.99991 10.5548 8.55213 11.0026 8 11.0027C7.44777 11.0027 7.00009 10.5549 7 10.0027Z" fill="#191919"/>
</svg>
