<svg width="16" height="16" viewBox="0 0 16 16" fill="none" xmlns="http://www.w3.org/2000/svg">
<path d="M10.7813 6.28033C11.0742 5.98744 11.0742 5.51256 10.7813 5.21967C10.4884 4.92678 10.0135 4.92678 9.72061 5.21967L7.49999 7.4403L6.5352 6.47553C6.24231 6.18264 5.76743 6.18264 5.47454 6.47554C5.18165 6.76844 5.18165 7.24331 5.47455 7.5362L6.96966 9.03129C7.26256 9.32418 7.73743 9.32418 8.03032 9.03129L10.7813 6.28033Z" fill="#191919"/>
<path d="M9.50208 1.46012C8.52706 1.13512 7.47293 1.13512 6.49792 1.46013L3.1966 2.56056C2.482 2.79876 2 3.46751 2 4.22076V6.54355C2 9.57382 3.56786 12.3884 6.1444 13.9834L7.60523 14.8877C7.84711 15.0374 8.15289 15.0374 8.39477 14.8877L9.8556 13.9834C12.4321 12.3884 14 9.57382 14 6.54355V4.22076C14 3.46751 13.518 2.79876 12.8034 2.56056L9.50208 1.46012ZM6.97226 2.88315C7.63938 2.66078 8.36062 2.66078 9.02774 2.88315L12.3291 3.98359C12.4311 4.01762 12.5 4.11315 12.5 4.22076V6.54355C12.5 9.05435 11.2009 11.3864 9.06607 12.708L8 13.3679L6.93393 12.708C4.79909 11.3864 3.5 9.05435 3.5 6.54355V4.22076C3.5 4.11315 3.56886 4.01762 3.67094 3.98359L6.97226 2.88315Z" fill="#191919"/>
</svg>
