<svg width="16" height="16" viewBox="0 0 16 16" fill="none" xmlns="http://www.w3.org/2000/svg">
<path d="M5.24997 10.2991C5.7131 9.24004 6.77011 8.49998 7.99997 8.49998C9.22984 8.49998 10.2868 9.24004 10.75 10.2991C11.2131 9.24004 12.2701 8.49998 13.5 8.49998L14 8.5L14.2727 7H5.70708C5.05542 7 4.43044 6.74113 3.96964 6.28033C3.79015 6.10084 3.54671 6 3.29287 6H1.54543L1.99997 8.49998H2.49997C3.72983 8.49998 4.78684 9.24004 5.24997 10.2991Z" fill="#191919"/>
<path d="M5.70708 5.5H14.5454L14.5713 5.35777C14.7945 4.13009 13.8514 3 12.6035 3H3.3964C2.44991 3 1.67871 3.6502 1.45886 4.5H3.29287C3.94453 4.5 4.56951 4.75887 5.0303 5.21967C5.2098 5.39916 5.45324 5.5 5.70708 5.5Z" fill="#191919"/>
<path d="M2.5 13C3.32843 13 4 12.3284 4 11.5C4 10.6716 3.32843 10 2.5 10C1.67157 10 1 10.6716 1 11.5C1 12.3284 1.67157 13 2.5 13Z" fill="#191919"/>
<path d="M9.5 11.5C9.5 12.3284 8.82843 13 8 13C7.17157 13 6.5 12.3284 6.5 11.5C6.5 10.6716 7.17157 10 8 10C8.82843 10 9.5 10.6716 9.5 11.5Z" fill="#191919"/>
<path d="M15 11.5C15 12.3284 14.3284 13 13.5 13C12.6716 13 12 12.3284 12 11.5C12 10.6716 12.6716 10 13.5 10C14.3284 10 15 10.6716 15 11.5Z" fill="#191919"/>
</svg>
