<svg width="16" height="16" viewBox="0 0 16 16" fill="none" xmlns="http://www.w3.org/2000/svg">
<g opacity="0.2">
<path d="M3 9C3.55228 9 4 9.44771 4 10V14C4 14.5523 3.55228 15 3 15C2.44772 15 2 14.5523 2 14V10C2 9.44771 2.44772 9 3 9Z" fill="#191919"/>
<path d="M8 5C8.55228 5 9 5.44772 9 6V14C9 14.5523 8.55228 15 8 15C7.44772 15 7 14.5523 7 14V6C7 5.44772 7.44772 5 8 5Z" fill="#191919"/>
<path d="M13 1C13.5523 1 14 1.44772 14 2V8C14 8.55228 13.5523 9 13 9C12.4477 9 12 8.55228 12 8V2C12 1.44772 12.4477 1 13 1Z" fill="#191919"/>
</g>
<path d="M13.7931 10.793C14.1837 10.4025 14.8167 10.4025 15.2072 10.793C15.5977 11.1835 15.5977 11.8166 15.2072 12.2071L14.4142 13L15.2072 13.793C15.5977 14.1835 15.5977 14.8166 15.2072 15.2071C14.8167 15.5976 14.1837 15.5975 13.7931 15.2071L13.0002 14.4141L12.2072 15.2071C11.8167 15.5976 11.1837 15.5975 10.7931 15.2071C10.4026 14.8166 10.4026 14.1835 10.7931 13.793L11.5861 13L10.7931 12.2071C10.4026 11.8166 10.4026 11.1835 10.7931 10.793C11.1837 10.4025 11.8167 10.4025 12.2072 10.793L13.0002 11.586L13.7931 10.793Z" fill="#191919"/>
</svg>
