<svg width="16" height="16" viewBox="0 0 16 16" fill="none" xmlns="http://www.w3.org/2000/svg">
<path d="M2 14V10C2 9.44772 2.44772 9 3 9C3.55228 9 4 9.44772 4 10V14C4 14.5523 3.55228 15 3 15C2.44772 15 2 14.5523 2 14Z" fill="#191919"/>
<g opacity="0.2">
<path d="M8 5C8.55228 5 9 5.44772 9 6V14C9 14.5523 8.55228 15 8 15C7.44772 15 7 14.5523 7 14V6C7 5.44772 7.44772 5 8 5Z" fill="#191919"/>
<path d="M13 1C13.5523 1 14 1.44772 14 2V14C14 14.5523 13.5523 15 13 15C12.4477 15 12 14.5523 12 14V2C12 1.44772 12.4477 1 13 1Z" fill="#191919"/>
</g>
</svg>
