<svg width="16" height="16" viewBox="0 0 16 16" fill="none" xmlns="http://www.w3.org/2000/svg">
<path d="M7 15V14H2.81348C1.76187 14 0.972743 13.038 1.17871 12.0068L2.91211 3.33984L2.94726 3.19629C3.15369 2.49275 3.80205 2 4.54687 2H7V1C7 0.447774 7.44779 9.50796e-05 8 0C8.55228 1.88107e-08 9 0.447715 9 1V2H11.4541C12.1987 2.0002 12.8463 2.49295 13.0527 3.19629L13.0879 3.33984L14.8213 12.0068C15.0273 13.038 14.2382 14 13.1865 14H9V15C9 15.5523 8.55228 16 8 16C7.44779 15.9999 7 15.5522 7 15ZM9 12H12.7803L11.1807 4H9V12ZM3.2207 12H7V4H4.82031L3.2207 12Z" fill="#191919"/>
</svg>
