<svg width="16" height="16" viewBox="0 0 16 16" fill="none" xmlns="http://www.w3.org/2000/svg">
<path d="M4 11.1791L12 12.7796V8.99936H4V11.1791ZM4 4.81968V6.99936H12V3.21909L4 4.81968ZM14 13.1859C14 14.2375 13.038 15.0267 12.0068 14.8207L3.33984 13.0873C2.56095 12.9315 2.00022 12.2477 2 11.4535V8.99936H1C0.447715 8.99936 0 8.55165 0 7.99936C9.43071e-05 7.44716 0.447773 6.99936 1 6.99936H2V4.54624C2 3.75177 2.5608 3.06728 3.33984 2.91147L12.0068 1.17808L12.1992 1.15171C13.1546 1.07249 14 1.82695 14 2.81284V6.99936H15C15.5522 6.99936 15.9999 7.44716 16 7.99936C16 8.55165 15.5523 8.99936 15 8.99936H14V13.1859Z" fill="#191919"/>
</svg>
