<svg width="16" height="16" viewBox="0 0 16 16" fill="none" xmlns="http://www.w3.org/2000/svg">
<path d="M8.00002 16C7.44773 16 7.00002 15.5523 7.00002 15V13.5L9 13.5L9 2.5H7L7.00002 13.5H5.18962C3.76522 13.5 3.05302 13.5 2.57125 13.2039C2.14914 12.9444 1.83836 12.5375 1.69912 12.062C1.5402 11.5193 1.72759 10.8322 2.10238 9.45802L3.35692 4.85802C3.58724 4.01353 3.70239 3.59129 3.94471 3.27753C4.15856 3.00063 4.4413 2.78467 4.76471 2.65121C5.13117 2.49999 5.56884 2.49999 6.44416 2.49999L7 2.5L7.00002 1C7.00002 0.447715 7.44773 0 8.00002 0C8.5523 0 9.00002 0.447715 9.00002 1L9 2.5L9.55587 2.49999C10.4312 2.49999 10.8689 2.49999 11.2353 2.65122C11.5587 2.78467 11.8415 3.00063 12.0553 3.27753C12.2976 3.59129 12.4128 4.01354 12.6431 4.85802L13.8977 9.45803C14.2724 10.8322 14.4598 11.5193 14.3009 12.0621C14.1617 12.5375 13.8509 12.9444 13.4288 13.2039C12.947 13.5 12.2348 13.5 10.8104 13.5H9L9.00002 15C9.00002 15.5523 8.5523 16 8.00002 16Z" fill="#191919"/>
</svg>
