<svg width="16" height="16" viewBox="0 0 16 16" fill="none" xmlns="http://www.w3.org/2000/svg">
<path d="M9.45803 2.10262C10.8322 1.72783 11.5193 1.54044 12.0621 1.69936C12.5375 1.8386 12.9444 2.14938 13.2039 2.57149C13.5 3.05326 13.5 3.76546 13.5 5.18986V7.00024H2.5V9.00024H13.5V7.00024L15 7.00026C15.5523 7.00026 16 7.44798 16 8.00026C16 8.55255 15.5523 9.00026 15 9.00026L13.5 9.00024V10.8107C13.5 12.2351 13.5 12.9473 13.2039 13.429C12.9444 13.8511 12.5375 14.1619 12.0621 14.3012C11.5193 14.4601 10.8322 14.2727 9.45802 13.8979L4.85802 12.6434C4.01353 12.413 3.59129 12.2979 3.27753 12.0556C3.00063 11.8417 2.78467 11.559 2.65122 11.2356C2.49999 10.8691 2.49999 10.4314 2.49999 9.55612L2.5 9.00024L1 9.00026C0.447715 9.00026 0 8.55255 0 8.00026C0 7.44798 0.447715 7.00026 1 7.00026L2.5 7.00024L2.49999 6.44441C2.49999 5.56908 2.49999 5.13142 2.65122 4.76496C2.78467 4.44154 3.00063 4.1588 3.27753 3.94495C3.59129 3.70264 4.01354 3.58748 4.85802 3.35717L9.45803 2.10262Z" fill="#191919"/>
</svg>
