<svg width="16" height="16" viewBox="0 0 16 16" fill="none" xmlns="http://www.w3.org/2000/svg">
<path d="M14 8C14 4.68629 11.3137 2 8 2C4.68629 2 2 4.68629 2 8C2 11.3137 4.68629 14 8 14C11.3137 14 14 11.3137 14 8ZM16 8C16 12.4183 12.4183 16 8 16C3.58172 16 0 12.4183 0 8C0 3.58172 3.58172 0 8 0C12.4183 0 16 3.58172 16 8Z" fill="#191919"/>
<path d="M4.73224 11.6331C5.17382 11.9647 5.80097 11.8755 6.13263 11.4339C6.56002 10.865 7.23713 10.5003 7.99982 10.5003C8.76251 10.5003 9.43963 10.865 9.867 11.4339C10.1987 11.8755 10.8258 11.9648 11.2674 11.6331C11.7089 11.3015 11.7981 10.6743 11.4666 10.2327C10.6777 9.1825 9.41814 8.50035 7.99982 8.50032C6.58146 8.50032 5.3219 9.18248 4.53302 10.2327C4.20143 10.6743 4.29069 11.3015 4.73224 11.6331Z" fill="#191919"/>
<path d="M7 6.25C7 6.94036 6.44036 7.5 5.75 7.5C5.05964 7.5 4.5 6.94036 4.5 6.25C4.5 5.55964 5.05964 5 5.75 5C6.44036 5 7 5.55964 7 6.25Z" fill="#191919"/>
<path d="M11.4995 6.25C11.4995 6.94036 10.9398 7.5 10.2495 7.5C9.55909 7.5 8.99945 6.94036 8.99945 6.25C8.99945 5.55964 9.55909 5 10.2495 5C10.9398 5 11.4995 5.55964 11.4995 6.25Z" fill="#191919"/>
</svg>
