<svg width="16" height="16" viewBox="0 0 16 16" fill="none" xmlns="http://www.w3.org/2000/svg">
<path d="M14 8C14 4.68629 11.3137 2 8 2C4.68629 2 2 4.68629 2 8C2 11.3137 4.68629 14 8 14C11.3137 14 14 11.3137 14 8ZM16 8C16 12.4183 12.4183 16 8 16C3.58172 16 0 12.4183 0 8C0 3.58172 3.58172 0 8 0C12.4183 0 16 3.58172 16 8Z" fill="#191919"/>
<path d="M4.73224 8.8669C5.17382 8.5353 5.80097 8.62456 6.13263 9.06611C6.56002 9.63505 7.23713 9.99971 7.99982 9.99971C8.76251 9.99968 9.43963 9.63507 9.867 9.06611C10.1987 8.62453 10.8258 8.53521 11.2674 8.8669C11.7089 9.19854 11.7981 9.82571 11.4666 10.2673C10.6777 11.3175 9.41814 11.9997 7.99982 11.9997C6.58146 11.9997 5.3219 11.3176 4.53302 10.2673C4.20143 9.8257 4.29069 9.19856 4.73224 8.8669Z" fill="#191919"/>
<path d="M7 6.25C7 6.94036 6.44036 7.5 5.75 7.5C5.05964 7.5 4.5 6.94036 4.5 6.25C4.5 5.55964 5.05964 5 5.75 5C6.44036 5 7 5.55964 7 6.25Z" fill="#191919"/>
<path d="M11.4995 6.25C11.4995 6.94036 10.9398 7.5 10.2495 7.5C9.55909 7.5 8.99945 6.94036 8.99945 6.25C8.99945 5.55964 9.55909 5 10.2495 5C10.9398 5 11.4995 5.55964 11.4995 6.25Z" fill="#191919"/>
</svg>
