<svg width="16" height="16" viewBox="0 0 16 16" fill="none" xmlns="http://www.w3.org/2000/svg">
<path fill-rule="evenodd" clip-rule="evenodd" d="M8 16C12.4183 16 16 12.4183 16 8C16 3.58172 12.4183 0 8 0C3.58172 0 0 3.58172 0 8C0 12.4183 3.58172 16 8 16ZM7 5.875C7 6.63439 6.38439 7.25 5.625 7.25C4.86561 7.25 4.25 6.63439 4.25 5.875C4.25 5.11561 4.86561 4.5 5.625 4.5C6.38439 4.5 7 5.11561 7 5.875ZM11.75 5.875C11.75 6.63439 11.1344 7.25 10.375 7.25C9.61561 7.25 9 6.63439 9 5.875C9 5.11561 9.61561 4.5 10.375 4.5C11.1344 4.5 11.75 5.11561 11.75 5.875ZM4.5498 9.25C3.99752 9.25 3.5498 9.69771 3.5498 10.25C3.5498 10.8023 3.99752 11.25 4.5498 11.25H11.5498C12.1021 11.25 12.5498 10.8023 12.5498 10.25C12.5498 9.69771 12.1021 9.25 11.5498 9.25H4.5498Z" fill="#191919"/>
</svg>
