<svg width="16" height="16" viewBox="0 0 16 16" fill="none" xmlns="http://www.w3.org/2000/svg">
<path d="M14 8C14 4.68629 11.3137 2 8 2C4.68629 2 2 4.68629 2 8C2 11.3137 4.68629 14 8 14C11.3137 14 14 11.3137 14 8ZM16 8C16 12.4183 12.4183 16 8 16C3.58172 16 0 12.4183 0 8C0 3.58172 3.58172 0 8 0C12.4183 0 16 3.58172 16 8Z" fill="#191919"/>
<path d="M10.5 9C11.0523 9 11.5 9.44772 11.5 10C11.5 10.5523 11.0523 11 10.5 11H5.5C4.94772 11 4.5 10.5523 4.5 10C4.5 9.44771 4.94772 9 5.5 9H10.5Z" fill="#191919"/>
<path d="M7 6.25C7 6.94036 6.44036 7.5 5.75 7.5C5.05964 7.5 4.5 6.94036 4.5 6.25C4.5 5.55964 5.05964 5 5.75 5C6.44036 5 7 5.55964 7 6.25Z" fill="#191919"/>
<path d="M11.4995 6.25C11.4995 6.94036 10.9398 7.5 10.2495 7.5C9.55909 7.5 8.99945 6.94036 8.99945 6.25C8.99945 5.55964 9.55909 5 10.2495 5C10.9398 5 11.4995 5.55964 11.4995 6.25Z" fill="#191919"/>
</svg>
