<svg width="16" height="16" viewBox="0 0 16 16" fill="none" xmlns="http://www.w3.org/2000/svg">
<path fill-rule="evenodd" clip-rule="evenodd" d="M8 16C12.4183 16 16 12.4183 16 8C16 3.58172 12.4183 0 8 0C3.58172 0 0 3.58172 0 8C0 12.4183 3.58172 16 8 16ZM7 5.875C7 6.63439 6.38439 7.25 5.625 7.25C4.86561 7.25 4.25 6.63439 4.25 5.875C4.25 5.11561 4.86561 4.5 5.625 4.5C6.38439 4.5 7 5.11561 7 5.875ZM11.75 5.875C11.75 6.63439 11.1344 7.25 10.375 7.25C9.61561 7.25 9 6.63439 9 5.875C9 5.11561 9.61561 4.5 10.375 4.5C11.1344 4.5 11.75 5.11561 11.75 5.875ZM5.74742 11.6644C5.3805 12.0771 4.74843 12.1143 4.33565 11.7474C3.92286 11.3805 3.88568 10.7484 4.2526 10.3356C5.11832 9.36169 6.39532 8.74999 8.00001 8.74999C9.6047 8.74999 10.8817 9.36169 11.7474 10.3356C12.1143 10.7484 12.0772 11.3805 11.6644 11.7474C11.2516 12.1143 10.6195 12.0771 10.2526 11.6644C9.78499 11.1383 9.06199 10.75 8.00001 10.75C6.93803 10.75 6.21503 11.1383 5.74742 11.6644Z" fill="#191919"/>
</svg>
