<svg width="16" height="16" viewBox="0 0 16 16" fill="none" xmlns="http://www.w3.org/2000/svg">
<path fill-rule="evenodd" clip-rule="evenodd" d="M8 16C12.4183 16 16 12.4183 16 8C16 3.58172 12.4183 0 8 0C3.58172 0 0 3.58172 0 8C0 12.4183 3.58172 16 8 16ZM5.625 7.25C6.38439 7.25 7 6.63439 7 5.875C7 5.11561 6.38439 4.5 5.625 4.5C4.86561 4.5 4.25 5.11561 4.25 5.875C4.25 6.63439 4.86561 7.25 5.625 7.25ZM11.75 5.875C11.75 6.63439 11.1344 7.25 10.375 7.25C9.61561 7.25 9 6.63439 9 5.875C9 5.11561 9.61561 4.5 10.375 4.5C11.1344 4.5 11.75 5.11561 11.75 5.875ZM5.30362 9.40471C4.97489 8.96092 4.34863 8.86765 3.90484 9.19638C3.46104 9.52512 3.36777 10.1514 3.69651 10.5952C4.64769 11.8793 6.10296 12.7499 8.00006 12.7499C9.89717 12.7499 11.3524 11.8793 12.3036 10.5952C12.6324 10.1514 12.5391 9.52512 12.0953 9.19638C11.6515 8.86765 11.0252 8.96092 10.6965 9.40471C10.0921 10.2206 9.21407 10.7499 8.00006 10.7499C6.78606 10.7499 5.908 10.2206 5.30362 9.40471Z" fill="#191919"/>
</svg>
