<svg width="16" height="16" viewBox="0 0 16 16" fill="none" xmlns="http://www.w3.org/2000/svg">
<path d="M10.6265 9.96101C11.017 9.57068 11.6501 9.57055 12.0406 9.96101C12.431 10.3515 12.4309 10.9845 12.0406 11.3751L8.70657 14.7091C8.31603 15.0991 7.68289 15.0994 7.29251 14.7091L3.9595 11.3751C3.56901 10.9845 3.56899 10.3515 3.9595 9.96101C4.35001 9.57053 4.98305 9.57053 5.37356 9.96101L7.99954 12.587L10.6265 9.96101ZM7.29251 1.29109C7.68297 0.900627 8.31603 0.900759 8.70657 1.29109L12.0406 4.62409C12.431 5.01452 12.4308 5.64761 12.0406 6.03816C11.65 6.42868 11.017 6.42868 10.6265 6.03816L7.99954 3.4112L5.37356 6.03816C4.98304 6.42868 4.35002 6.42868 3.9595 6.03816C3.56917 5.64762 3.56904 5.01455 3.9595 4.62409L7.29251 1.29109Z" fill="#191919"/>
</svg>
