<svg width="16" height="16" viewBox="0 0 16 16" fill="none" xmlns="http://www.w3.org/2000/svg">
<path d="M11 3.00012C11.0001 2.4479 11.4478 2.00012 12 2.00012C12.5522 2.00012 12.9999 2.4479 13 3.00012V10.9191L14.293 9.62609C14.6834 9.23588 15.3166 9.23588 15.707 9.62609C16.0976 10.0166 16.0976 10.6506 15.707 11.0411L13.1807 13.5665C12.5285 14.2187 11.4715 14.2187 10.8193 13.5665L8.29297 11.0411C7.90245 10.6506 7.90245 10.0166 8.29297 9.62609C8.68343 9.23588 9.31657 9.23588 9.70703 9.62609L11 10.9191V3.00012ZM3 13.0001V5.08117L1.70703 6.37414C1.31653 6.76454 0.683472 6.76454 0.29297 6.37414C-0.097524 5.98364 -0.0974641 5.35061 0.29297 4.96008L2.81934 2.43371L2.94629 2.31847C3.6022 1.78386 4.56938 1.82246 5.18067 2.43371L7.70703 4.96008C8.09747 5.35061 8.09753 5.98364 7.70703 6.37414C7.31653 6.76454 6.68347 6.76454 6.29297 6.37414L5 5.08117V13.0001C5 13.5524 4.55229 14.0001 4 14.0001C3.44772 14.0001 3 13.5524 3 13.0001Z" fill="#191919"/>
</svg>
