<svg width="16" height="16" viewBox="0 0 16 16" fill="none" xmlns="http://www.w3.org/2000/svg">
<path d="M5.67174 7.67392C5.89088 7.98697 6.306 8.08219 6.66894 7.9626C7.08764 7.82465 7.5351 7.75 8 7.75C8.4649 7.75 8.91236 7.82465 9.33106 7.9626C9.694 8.08219 10.1091 7.98697 10.3283 7.67392C10.5872 7.30401 10.4708 6.78674 10.049 6.6258C9.41249 6.38299 8.72178 6.25 8 6.25C7.27822 6.25 6.58751 6.38299 5.95102 6.6258C5.52915 6.78674 5.41281 7.30401 5.67174 7.67392Z" fill="#191919"/>
<path d="M10.77 5.84274C11.1282 6.00413 11.5609 5.91298 11.7862 5.59112C12.0373 5.23238 11.933 4.73279 11.5375 4.54479C10.4655 4.03517 9.26603 3.75 8 3.75C6.73397 3.75 5.53454 4.03517 4.46246 4.54479C4.06696 4.73279 3.96267 5.23238 4.21379 5.59112C4.43909 5.91298 4.87177 6.00413 5.22996 5.84274C6.07514 5.46192 7.01282 5.25 8 5.25C8.98718 5.25 9.92486 5.46192 10.77 5.84274Z" fill="#191919"/>
<path d="M12.2074 3.76006C12.5619 3.94143 13.0033 3.85238 13.2317 3.52615C13.4792 3.17259 13.3806 2.68139 12.9987 2.48043C11.5054 1.69467 9.80463 1.25 8 1.25C6.19537 1.25 4.49461 1.69467 3.0013 2.48043C2.61937 2.68139 2.52082 3.17259 2.76831 3.52615C2.99667 3.85238 3.43811 3.94143 3.79261 3.76006C5.05479 3.11429 6.48485 2.75 8 2.75C9.51515 2.75 10.9452 3.11429 12.2074 3.76006Z" fill="#191919"/>
<path d="M2.28361 14.872C3.60961 14.872 4.42861 14.053 4.42861 13.117C4.42861 11.206 1.85461 11.518 1.85461 10.777C1.85461 10.582 2.04961 10.387 2.47861 10.387C3.02461 10.387 3.37561 10.816 3.37561 10.816L4.23361 9.88C4.23361 9.88 3.64861 9.1 2.32261 9.1C1.03561 9.1 0.255609 9.919 0.255609 10.777C0.255609 12.688 2.82961 12.376 2.82961 13.117C2.82961 13.351 2.59561 13.585 2.12761 13.585C1.42561 13.585 0.957609 13 0.957609 13L0.0996094 13.936C0.0996094 13.936 0.80161 14.872 2.28361 14.872Z" fill="#191919"/>
<path d="M8.01935 14.872C9.77435 14.872 11.0614 13.585 11.0614 11.986C11.0614 10.387 9.77435 9.1 8.01935 9.1C6.26435 9.1 4.97735 10.387 4.97735 11.986C4.97735 13.585 6.26435 14.872 8.01935 14.872ZM8.01935 13.507C7.16135 13.507 6.49835 12.844 6.49835 11.986C6.49835 11.128 7.16135 10.465 8.01935 10.465C8.87735 10.465 9.54035 11.128 9.54035 11.986C9.54035 12.844 8.87735 13.507 8.01935 13.507Z" fill="#191919"/>
<path d="M13.7551 14.872C15.0811 14.872 15.9001 14.053 15.9001 13.117C15.9001 11.206 13.3261 11.518 13.3261 10.777C13.3261 10.582 13.5211 10.387 13.9501 10.387C14.4961 10.387 14.8471 10.816 14.8471 10.816L15.7051 9.88C15.7051 9.88 15.1201 9.1 13.7941 9.1C12.5071 9.1 11.7271 9.919 11.7271 10.777C11.7271 12.688 14.3011 12.376 14.3011 13.117C14.3011 13.351 14.0671 13.585 13.5991 13.585C12.8971 13.585 12.4291 13 12.4291 13L11.5711 13.936C11.5711 13.936 12.2731 14.872 13.7551 14.872Z" fill="#191919"/>
</svg>
