<svg width="16" height="16" viewBox="0 0 16 16" fill="none" xmlns="http://www.w3.org/2000/svg">
<path d="M2 14C2.55228 14 3 14.4477 3 15C3 15.5523 2.55228 16 2 16C1.44772 16 1 15.5523 1 15C1 14.4477 1.44772 14 2 14Z" fill="#191919"/>
<path d="M6 14C6.55228 14 7 14.4477 7 15C7 15.5523 6.55228 16 6 16C5.44772 16 5 15.5523 5 15C5 14.4477 5.44772 14 6 14Z" fill="#191919"/>
<path d="M10 14C10.5523 14 11 14.4477 11 15C11 15.5523 10.5523 16 10 16C9.44771 16 9 15.5523 9 15C9 14.4477 9.44771 14 10 14Z" fill="#191919"/>
<path d="M14 14C14.5523 14 15 14.4477 15 15C15 15.5523 14.5523 16 14 16C13.4477 16 13 15.5523 13 15C13 14.4477 13.4477 14 14 14Z" fill="#191919"/>
<path fill-rule="evenodd" clip-rule="evenodd" d="M8 1.5C8.40765 1.50015 8.77518 1.74792 8.92773 2.12598L12.7607 11.626C12.9672 12.138 12.7199 12.721 12.208 12.9277C11.6959 13.1344 11.113 12.8861 10.9062 12.374L9.94824 10H6.05273L5.09473 12.374C4.88815 12.886 4.30498 13.134 3.79297 12.9277C3.2809 12.7211 3.0328 12.1381 3.23926 11.626L7.07324 2.12598L7.13965 1.99023C7.31765 1.68966 7.64335 1.50012 8 1.5ZM6.85938 8H9.1416L8 5.17188L6.85938 8Z" fill="#191919"/>
</svg>
