<svg width="16" height="16" viewBox="0 0 16 16" fill="none" xmlns="http://www.w3.org/2000/svg">
<path d="M7.99979 1.5C8.27426 1.5 8.52682 1.64993 8.65823 1.8909L10.4349 5.14848L14.082 5.83146C14.3518 5.88198 14.5724 6.07584 14.6572 6.33688C14.742 6.59792 14.6775 6.88445 14.4889 7.0839L11.9398 9.78017L12.4173 13.4598C12.4526 13.732 12.3364 14.0018 12.1143 14.1631C11.8923 14.3245 11.5998 14.3516 11.3519 14.2339L7.99979 12.6427L4.64775 14.2339C4.39979 14.3516 4.10735 14.3245 3.88529 14.1631C3.66324 14.0018 3.54705 13.732 3.58237 13.4598L4.05984 9.78017L1.51069 7.0839C1.32213 6.88445 1.25757 6.59792 1.34239 6.33688C1.42721 6.07584 1.64785 5.88198 1.91764 5.83146L5.56476 5.14848L7.34134 1.8909C7.47276 1.64993 7.72531 1.5 7.99979 1.5ZM7.99979 3.81643L6.71119 6.17923C6.60332 6.37702 6.41225 6.51585 6.1908 6.55732L3.54545 7.0527L5.3944 9.00837C5.54919 9.17208 5.62217 9.3967 5.59318 9.62013L5.24686 12.2891L7.67817 11.135C7.8817 11.0383 8.11788 11.0383 8.32141 11.135L10.7528 12.2891L10.4064 9.62013C10.3774 9.3967 10.4504 9.17208 10.6052 9.00837L12.4542 7.0527L9.80878 6.55732C9.58733 6.51585 9.39625 6.37702 9.28838 6.17923L7.99979 3.81643Z" fill="#191919"/>
</svg>
