<svg width="16" height="16" viewBox="0 0 16 16" fill="none" xmlns="http://www.w3.org/2000/svg">
<path d="M8.65823 1.8909C8.52682 1.64993 8.27426 1.5 7.99979 1.5C7.72531 1.5 7.47276 1.64993 7.34134 1.8909L5.56476 5.14848L1.91764 5.83146C1.64785 5.88198 1.42721 6.07584 1.34239 6.33688C1.25757 6.59792 1.32213 6.88445 1.51069 7.0839L4.05984 9.78017L3.58237 13.4598C3.54705 13.732 3.66324 14.0018 3.88529 14.1631C4.10735 14.3245 4.39979 14.3516 4.64775 14.2339L7.99979 12.6427L11.3519 14.2339C11.5998 14.3516 11.8923 14.3245 12.1143 14.1631C12.3364 14.0018 12.4526 13.732 12.4173 13.4598L11.9398 9.78017L14.4889 7.0839C14.6775 6.88445 14.742 6.59792 14.6572 6.33688C14.5724 6.07584 14.3518 5.88198 14.082 5.83146L10.4349 5.14848L8.65823 1.8909ZM7.99979 3.81643L9.28838 6.17923C9.39625 6.37702 9.58733 6.51585 9.80878 6.55732L12.4542 7.0527L10.6052 9.00837C10.4504 9.17208 10.3774 9.3967 10.4064 9.62013L10.7528 12.2891L8.32141 11.135C8.21964 11.0866 8.1097 11.0625 7.99976 11.0625L7.99979 3.81643Z" fill="#191919"/>
</svg>
