<svg width="16" height="16" viewBox="0 0 16 16" fill="none" xmlns="http://www.w3.org/2000/svg">
<path fill-rule="evenodd" clip-rule="evenodd" d="M9.29289 9.29289C9.68342 8.90237 10.3166 8.90237 10.7071 9.29289L12 10.5858L13.2929 9.29289C13.6834 8.90237 14.3166 8.90237 14.7071 9.29289C15.0976 9.68342 15.0976 10.3166 14.7071 10.7071L13.4142 12L14.7071 13.2929C15.0976 13.6834 15.0976 14.3166 14.7071 14.7071C14.3166 15.0976 13.6834 15.0976 13.2929 14.7071L12 13.4142L10.7071 14.7071C10.3166 15.0976 9.68342 15.0976 9.29289 14.7071C8.90237 14.3166 8.90237 13.6834 9.29289 13.2929L10.5858 12L9.29289 10.7071C8.90237 10.3166 8.90237 9.68342 9.29289 9.29289Z" fill="#191919"/>
<g opacity="0.6">
<path d="M8.44049 11.976C8.29584 11.9919 8.14887 12 8 12C5.79086 12 4 10.2091 4 8C4 5.79086 5.79086 4 8 4C10.2091 4 12 5.79086 12 8C12 8.14887 11.9919 8.29584 11.976 8.44049L12 8.46447L12.2322 8.23223C12.7152 7.7493 13.3465 7.50525 13.9795 7.50009C13.7254 4.42028 11.1454 2 8 2C4.68629 2 2 4.68629 2 8C2 11.1454 4.42028 13.7254 7.50009 13.9795C7.50525 13.3465 7.7493 12.7152 8.23223 12.2322L8.46447 12L8.44049 11.976Z" fill="#191919"/>
</g>
</svg>
