<svg width="16" height="16" viewBox="0 0 16 16" fill="none" xmlns="http://www.w3.org/2000/svg">
<path fill-rule="evenodd" clip-rule="evenodd" d="M14.8633 8.79669C15.0195 8.64048 15.0448 8.39616 14.9239 8.21128C14.803 8.02641 14.569 7.95164 14.3633 8.03213L8.99662 10.1321C8.84996 10.1895 8.74214 10.317 8.70989 10.4711C8.67765 10.6253 8.72533 10.7853 8.83669 10.8967L10.14 12.2L8.13669 14.2033C7.98049 14.3595 7.95521 14.6038 8.07612 14.7887C8.19703 14.9736 8.43101 15.0484 8.63673 14.9679L14.0034 12.8679C14.15 12.8105 14.2579 12.683 14.2901 12.5289C14.3224 12.3747 14.2747 12.2147 14.1633 12.1033L12.86 10.8L14.8633 8.79669Z" fill="#004C1B"/>
<path fill-rule="evenodd" clip-rule="evenodd" d="M6.62541 13.8418C6.72155 13.5855 6.87239 13.3463 7.07603 13.1426L8.0187 12.2L7.81449 11.9958C5.69147 11.8989 4 10.147 4 8C4 5.79086 5.79086 4 8 4C9.99329 4 11.646 5.45799 11.95 7.3657L13.8167 6.63527L13.8419 6.62561C13.2205 3.97428 10.8408 2 8 2C4.68629 2 2 4.68629 2 8C2 10.8407 3.97418 13.2204 6.62541 13.8418Z" fill="#00832D"/>
</svg>
