<svg width="16" height="16" viewBox="0 0 16 16" fill="none" xmlns="http://www.w3.org/2000/svg">
<path fill-rule="evenodd" clip-rule="evenodd" d="M9.25 14C9.25 14.5523 9.69772 15 10.25 15C10.8023 15 11.25 14.5523 11.25 14L11.25 10C11.25 9.44772 10.8023 9 10.25 9C9.69772 9 9.25 9.44772 9.25 10V14ZM12.75 14C12.75 14.5523 13.1977 15 13.75 15C14.3023 15 14.75 14.5523 14.75 14V10C14.75 9.44772 14.3023 9 13.75 9C13.1977 9 12.75 9.44772 12.75 10L12.75 14Z" fill="#835200"/>
<path d="M11.9946 8.20938C11.9982 8.14004 12 8.07023 12 8C12 5.79086 10.2091 4 8 4C5.79086 4 4 5.79086 4 8C4 10.1252 5.65732 11.8633 7.75 11.9923V13.9949C4.55223 13.8638 2 11.23 2 8C2 4.68629 4.68629 2 8 2C11.1489 2 13.7312 4.42572 13.9803 7.51047C13.9045 7.50354 13.8277 7.5 13.75 7.5C13.0686 7.5 12.4509 7.77258 12 8.21464C11.9982 8.21288 11.9964 8.21113 11.9946 8.20938Z" fill="#A36500"/>
</svg>
