<svg width="16" height="16" viewBox="0 0 16 16" fill="none" xmlns="http://www.w3.org/2000/svg">
<path d="M9.42871 15.0001H14.6962V13.4688H11.6337L14.5737 10.5288V8.99756H9.55121V10.5288H12.3687L9.42871 13.4688V15.0001Z" fill="#606060"/>
<path d="M8.87139 11.9048C8.59088 11.9671 8.29928 12 8 12C5.79086 12 4 10.2091 4 8C4 5.79086 5.79086 4 8 4C10.039 4 11.7216 5.52558 11.9687 7.49756H13.9793C13.724 4.41896 11.1445 2 8 2C4.68629 2 2 4.68629 2 8C2 11.2899 4.64785 13.9614 7.92871 13.9996V13.4688C7.92871 13.071 8.08675 12.6895 8.36805 12.4081L8.87139 11.9048Z" fill="#606060"/>
</svg>
