<svg width="16" height="16" viewBox="0 0 16 16" fill="none" xmlns="http://www.w3.org/2000/svg">
<path d="M4.34466 2C3.25643 2 2.28569 2.68411 1.91968 3.70893L1.60992 4.57631C1.29692 5.4527 1.4896 6.35301 1.99984 7.01033V11.3333C1.99984 12.8061 3.19374 14 4.6665 14H11.3332C12.8059 14 13.9998 12.8061 13.9998 11.3333V7.01033C14.5101 6.35301 14.7028 5.4527 14.3898 4.57631L14.08 3.70893C13.714 2.68411 12.7432 2 11.655 2H4.34466ZM5.56448 3.33333L5.3365 4.92917C5.33632 4.93051 5.33612 4.93184 5.33594 4.93318L5.239 5.61175C5.15252 6.21706 4.63412 6.66667 4.02267 6.66667C3.173 6.66667 2.5798 5.82492 2.86558 5.02475L3.17534 4.15737C3.35183 3.66321 3.81992 3.33333 4.34466 3.33333H5.56448ZM5.98192 7.089C6.47176 7.6446 7.1893 8 7.99984 8C8.81037 8 9.5279 7.6446 10.0177 7.089C10.4907 7.64967 11.1976 8 11.977 8C12.2178 8 12.4487 7.9676 12.6665 7.90733V11.3333C12.6665 12.0697 12.0696 12.6667 11.3332 12.6667H4.6665C3.93012 12.6667 3.33317 12.0697 3.33317 11.3333V7.90733C3.55095 7.9676 3.78187 8 4.02267 8C4.80206 8 5.50895 7.64967 5.98192 7.089ZM6.91137 3.33333H9.0883L9.34324 5.11773C9.45997 5.93525 8.82564 6.66667 7.99984 6.66667C7.17497 6.66667 6.54111 5.93693 6.65604 5.12056L6.91137 3.33333ZM11.655 3.33333C12.1798 3.33333 12.6478 3.66321 12.8243 4.15737L13.1341 5.02475C13.4198 5.82492 12.8266 6.66667 11.977 6.66667C11.3656 6.66667 10.8472 6.21706 10.7607 5.61175L10.4352 3.33333H11.655Z" fill="#202125"/>
</svg>
