<svg width="16" height="16" viewBox="0 0 16 16" fill="none" xmlns="http://www.w3.org/2000/svg">
<path d="M8 1C8.41421 1 8.75 1.33579 8.75 1.75V3C8.75 3.41421 8.41421 3.75 8 3.75C7.58579 3.75 7.25 3.41421 7.25 3V1.75C7.25 1.33579 7.58579 1 8 1Z" fill="#191919"/>
<path d="M2.96967 2.96967C3.26256 2.67678 3.73744 2.67678 4.03033 2.96967L5.03033 3.96967C5.32322 4.26256 5.32322 4.73744 5.03033 5.03033C4.73744 5.32322 4.26256 5.32322 3.96967 5.03033L2.96967 4.03033C2.67678 3.73744 2.67678 3.26256 2.96967 2.96967Z" fill="#191919"/>
<path d="M13.0303 2.96967C13.3232 3.26256 13.3232 3.73744 13.0303 4.03033L12.0303 5.03033C11.7374 5.32322 11.2626 5.32322 10.9697 5.03033C10.6768 4.73744 10.6768 4.26256 10.9697 3.96967L11.9697 2.96967C12.2626 2.67678 12.7374 2.67678 13.0303 2.96967Z" fill="#191919"/>
<path d="M1 8.00001C1 7.58579 1.33579 7.25001 1.75 7.25001H3C3.41421 7.25001 3.75 7.58579 3.75 8.00001C3.75 8.41422 3.41421 8.75001 3 8.75001H1.75C1.33579 8.75001 1 8.41422 1 8.00001Z" fill="#191919"/>
<path d="M12.25 8.00001C12.25 7.58579 12.5858 7.25001 13 7.25001H14.25C14.6642 7.25001 15 7.58579 15 8.00001C15 8.41422 14.6642 8.75001 14.25 8.75001H13C12.5858 8.75001 12.25 8.41422 12.25 8.00001Z" fill="#191919"/>
<path d="M5.03033 10.9697C5.32322 11.2626 5.32322 11.7374 5.03033 12.0303L4.03033 13.0303C3.73744 13.3232 3.26256 13.3232 2.96967 13.0303C2.67678 12.7374 2.67678 12.2626 2.96967 11.9697L3.96967 10.9697C4.26256 10.6768 4.73744 10.6768 5.03033 10.9697Z" fill="#191919"/>
<path d="M10.9697 10.9697C11.2626 10.6768 11.7374 10.6768 12.0303 10.9697L13.0303 11.9697C13.3232 12.2626 13.3232 12.7374 13.0303 13.0303C12.7374 13.3232 12.2626 13.3232 11.9697 13.0303L10.9697 12.0303C10.6768 11.7374 10.6768 11.2626 10.9697 10.9697Z" fill="#191919"/>
<path d="M8 12.25C8.41421 12.25 8.75 12.5858 8.75 13V14.25C8.75 14.6642 8.41421 15 8 15C7.58579 15 7.25 14.6642 7.25 14.25V13C7.25 12.5858 7.58579 12.25 8 12.25Z" fill="#191919"/>
<path d="M8.00002 6.5C7.1716 6.5 6.50002 7.17157 6.50002 8C6.50002 8.82843 7.1716 9.5 8.00002 9.5C8.82845 9.5 9.50002 8.82843 9.50002 8C9.50002 7.17157 8.82845 6.5 8.00002 6.5ZM5.00002 8C5.00002 6.34315 6.34317 5 8.00002 5C9.65688 5 11 6.34315 11 8C11 9.65685 9.65688 11 8.00002 11C6.34317 11 5.00002 9.65685 5.00002 8Z" fill="#191919"/>
</svg>
