<svg width="16" height="16" viewBox="0 0 16 16" fill="none" xmlns="http://www.w3.org/2000/svg">
<path d="M4.95992 8.29302C5.35045 7.90258 5.98349 7.90252 6.37398 8.29302C6.76439 8.68352 6.76438 9.31658 6.37398 9.70708L5.08101 11H13C13.5522 11 14 11.4478 14 12C14 12.5523 13.5522 13 13 13H5.08101L6.37398 14.293C6.76438 14.6835 6.76438 15.3166 6.37398 15.7071C5.98349 16.0976 5.35045 16.0975 4.95992 15.7071L2.43355 13.1807C1.78143 12.5285 1.78143 11.4715 2.43355 10.8194L4.95992 8.29302ZM9.62593 0.293015C10.0165 -0.097509 10.6504 -0.097509 11.041 0.293015L13.5664 2.81938C14.2185 3.47156 14.2185 4.52854 13.5664 5.18071L11.041 7.70708C10.6504 8.0976 10.0165 8.0976 9.62593 7.70708C9.23573 7.31661 9.23573 6.68348 9.62593 6.29302L10.9189 5.00005H2.99996C2.44775 4.99996 1.99996 4.55228 1.99996 4.00005C1.99996 3.44782 2.44775 3.00014 2.99996 3.00005H10.9189L9.62593 1.70708C9.23573 1.31661 9.23573 0.683479 9.62593 0.293015Z" fill="#191919"/>
</svg>
