<svg width="16" height="16" viewBox="0 0 16 16" fill="none" xmlns="http://www.w3.org/2000/svg">
<path d="M1.00031 14V10.667C1.00031 9.74652 1.74682 9 2.6673 9H6.00031C6.55259 9 7.0003 9.44772 7.00031 10C7.00031 10.5523 6.55259 11 6.00031 11H4.00128C4.91493 12.2158 6.36584 13 8.00031 13C10.1757 13 12.0292 11.6102 12.7161 9.66699C12.9002 9.14628 13.4718 8.87357 13.9925 9.05762C14.5128 9.2418 14.7857 9.81251 14.6019 10.333C13.6414 13.0504 11.0497 15 8.00031 15C6.04033 15 4.27007 14.1928 3.00031 12.8965V14C3.00031 14.5523 2.55259 15 2.00031 15C1.44802 15 1.00031 14.5523 1.00031 14ZM8.00031 1C9.96087 1 11.7304 1.80848 13.0003 3.10547V2C13.0003 1.44772 13.448 1 14.0003 1C14.5526 1 15.0003 1.44772 15.0003 2V5.33301C15.0003 6.19589 14.3445 6.90578 13.5042 6.99121L13.3333 7H10.0003C9.44802 7 9.00031 6.55228 9.00031 6C9.00031 5.44772 9.44802 5 10.0003 5H11.9974C11.0839 3.78493 9.63429 3 8.00031 3C5.82491 3 3.97141 4.38977 3.28448 6.33301C3.10044 6.85372 2.52883 7.12643 2.00812 6.94238C1.48779 6.75819 1.21493 6.18748 1.39874 5.66699C2.35922 2.94956 4.9509 1 8.00031 1Z" fill="#191919"/>
</svg>
