<svg width="16" height="16" viewBox="0 0 16 16" fill="none" xmlns="http://www.w3.org/2000/svg">
<path d="M5.25 6.5C5.94036 6.5 6.5 5.94036 6.5 5.25C6.5 4.55964 5.94036 4 5.25 4C4.55964 4 4 4.55964 4 5.25C4 5.94036 4.55964 6.5 5.25 6.5Z" fill="#202125"/>
<path d="M3.75 1C2.23122 1 1 2.23122 1 3.75V7.07861C1 7.81933 1.29882 8.52874 1.82881 9.04622L7.06202 14.156C8.13955 15.2081 9.86287 15.1978 10.9278 14.1329L14.1329 10.9278C15.1978 9.86287 15.2081 8.13955 14.156 7.06202L9.04622 1.82881C8.52874 1.29882 7.81933 1 7.07861 1H3.75ZM2.5 3.75C2.5 3.05964 3.05964 2.5 3.75 2.5H7.07861C7.4153 2.5 7.73776 2.63583 7.97298 2.87673L13.0827 8.10995C13.561 8.59973 13.5563 9.38306 13.0722 9.8671L9.8671 13.0722C9.38306 13.5563 8.59973 13.561 8.10995 13.0827L2.87673 7.97298C2.63583 7.73776 2.5 7.4153 2.5 7.07861V3.75Z" fill="#202125"/>
</svg>
