<svg width="16" height="16" viewBox="0 0 16 16" fill="none" xmlns="http://www.w3.org/2000/svg">
<path d="M9 9H12.1055C12.7558 8.99978 13.2327 8.38873 13.0752 7.75781L12.0752 3.75781C11.9639 3.31276 11.5642 3.00016 11.1055 3H6V8.79492L7.95703 13.4092C8.56399 13.1954 8.99993 12.6195 9 11.9395V9ZM3 8H4V3H3V8ZM11 11.9395C10.9999 13.9058 9.40585 15.4999 7.43945 15.5C6.97386 15.5 6.55293 15.2216 6.37109 14.793L4.33789 10H2.66699C1.74652 10 1 9.25348 1 8.33301V2.66699C1 1.74652 1.74652 1 2.66699 1H11.1055C12.4819 1.00016 13.6818 1.93707 14.0156 3.27246L15.0156 7.27246C15.4889 9.16576 14.057 10.9998 12.1055 11H11V11.9395Z" fill="#191919"/>
</svg>
