<svg width="16" height="16" viewBox="0 0 16 16" fill="none" xmlns="http://www.w3.org/2000/svg">
<path d="M2.18046 11H3.90034C3.59838 11.7344 3.28099 12.7031 3.20871 13.6856C3.12685 14.7983 4.07207 15.5 4.95646 15.5C5.69765 15.5 6.32732 15.0559 6.62603 14.4414C7.22944 13.2001 7.8735 12.5409 8.63665 12.1491C9.34241 11.7867 10.2405 11.6045 11.5 11.5351V4.33059C10.3827 4.09006 9.30739 3.62774 8.29736 3.15949C8.16641 3.09878 8.03482 3.03715 7.90361 2.9757C7.45676 2.76643 7.01415 2.55914 6.61721 2.39769C6.12139 2.19603 5.54749 2 5 2C3.69318 2 2.46342 2.58978 1.89197 2.90264C1.34867 3.20008 1.03201 3.72517 0.942383 4.26294L0.207672 8.6712C0.00449562 9.89027 0.944582 11 2.18046 11Z" fill="#191919"/>
<path fill-rule="evenodd" clip-rule="evenodd" d="M16 11.5C16 12.0523 15.5523 12.5 15 12.5H14C13.4477 12.5 13 12.0523 13 11.5V4.5C13 3.94772 13.4477 3.5 14 3.5H15C15.5523 3.5 16 3.94772 16 4.5V11.5Z" fill="#191919"/>
</svg>
