<svg width="16" height="16" viewBox="0 0 16 16" fill="none" xmlns="http://www.w3.org/2000/svg">
<path d="M13.8195 5H12.0997C12.4016 4.26557 12.719 3.29692 12.7913 2.31443C12.8732 1.20167 11.9279 0.5 11.0435 0.5C10.3023 0.5 9.67268 0.944116 9.37397 1.55861C8.77056 2.79991 8.1265 3.45905 7.36335 3.85091C6.65759 4.2133 5.75954 4.39547 4.5 4.46495V11.6694C5.61735 11.9099 6.69261 12.3723 7.70264 12.8405C7.83359 12.9012 7.96518 12.9629 8.09639 13.0243C8.54324 13.2336 8.98585 13.4409 9.38279 13.6023C9.87861 13.804 10.4525 14 11 14C12.3068 14 13.5366 13.4102 14.108 13.0974C14.6513 12.7999 14.968 12.2748 15.0576 11.7371L15.7923 7.3288C15.9955 6.10973 15.0554 5 13.8195 5Z" fill="#191919"/>
<path fill-rule="evenodd" clip-rule="evenodd" d="M0 4.5C0 3.94772 0.447715 3.5 1 3.5H2C2.55228 3.5 3 3.94772 3 4.5V11.5C3 12.0523 2.55228 12.5 2 12.5H1C0.447715 12.5 0 12.0523 0 11.5V4.5Z" fill="#191919"/>
</svg>
