<svg width="16" height="16" viewBox="0 0 16 16" fill="none" xmlns="http://www.w3.org/2000/svg">
<path d="M9 4.06055C8.99993 3.38037 8.56415 2.80354 7.95703 2.58984L6 7.2041V13H11.1055C11.5642 12.9998 11.9639 12.6872 12.0752 12.2422L13.0752 8.24219C13.2327 7.61127 12.7558 7.00022 12.1055 7H9V4.06055ZM3 13H4V8H3V13ZM11 5H12.1055C14.057 5.00022 15.4889 6.83424 15.0156 8.72754L14.0156 12.7275C13.6818 14.0629 12.4819 14.9998 11.1055 15H2.66699C1.74652 15 1 14.2535 1 13.333V7.66699C1 6.74652 1.74652 6 2.66699 6H4.33789L6.37109 1.20703C6.55293 0.778416 6.97386 0.5 7.43945 0.5L7.62207 0.504883C9.50359 0.600028 10.9999 2.1554 11 4.06055V5Z" fill="#191919"/>
</svg>
