<svg width="16" height="16" viewBox="0 0 16 16" fill="none" xmlns="http://www.w3.org/2000/svg">
<path d="M13.333 5.33344C13.333 4.59706 12.7364 4.00043 12 4.00043H4C3.26362 4.00043 2.66699 4.59706 2.66699 5.33344V5.75726C4.3327 6.77032 4.33231 9.22824 2.66699 10.2416V10.6664C2.66699 11.4028 3.26362 12.0004 4 12.0004H12C12.7364 12.0004 13.333 11.4028 13.333 10.6664V10.2416C11.6677 9.22824 11.6673 6.77032 13.333 5.75726V5.33344ZM9.33301 10.3403V10.3334C9.33301 9.96525 9.63181 9.66644 10 9.66644C10.3682 9.66644 10.667 9.96525 10.667 10.3334V10.3403C10.6669 10.7084 10.3681 11.0063 10 11.0063C9.63187 11.0063 9.3331 10.7084 9.33301 10.3403ZM9.33301 8.00629V8.00043C9.33301 7.63224 9.63181 7.33344 10 7.33344C10.3682 7.33344 10.667 7.63224 10.667 8.00043V8.00629C10.667 8.37448 10.3682 8.67328 10 8.67328C9.63181 8.67328 9.33301 8.37448 9.33301 8.00629ZM9.33301 5.67328V5.66644C9.33318 5.2984 9.63192 5.00043 10 5.00043C10.3681 5.00043 10.6668 5.2984 10.667 5.66644V5.67328C10.667 6.04147 10.3682 6.34027 10 6.34027C9.63181 6.34027 9.33301 6.04147 9.33301 5.67328ZM14.667 6.16644C14.667 6.43888 14.5009 6.68423 14.248 6.78558C13.1401 7.22874 13.1401 8.77113 14.248 9.21429C14.501 9.31562 14.667 9.56095 14.667 9.83344V10.6664C14.667 12.1392 13.4728 13.3334 12 13.3334H4C2.52724 13.3334 1.33301 12.1392 1.33301 10.6664V9.83344C1.33301 9.56095 1.49904 9.31562 1.75195 9.21429C2.85986 8.77113 2.85986 7.22874 1.75195 6.78558C1.4991 6.68423 1.33301 6.43888 1.33301 6.16644V5.33344C1.33301 3.86068 2.52724 2.66644 4 2.66644H12C13.4728 2.66644 14.667 3.86068 14.667 5.33344V6.16644Z" fill="#191919"/>
</svg>
