<svg width="16" height="16" viewBox="0 0 16 16" fill="none" xmlns="http://www.w3.org/2000/svg">
<path d="M8 4C8.55225 4 8.99996 4.44774 9 5V7.58594L10.707 9.29297C11.0975 9.68351 11.0975 10.3165 10.707 10.707C10.3165 11.0975 9.68345 11.0975 9.29297 10.707L7.49805 8.91211C7.17936 8.59334 7.00004 8.16071 7 7.70996V5C7 4.44775 7.44774 4.00004 8 4Z" fill="#191919"/>
<path fill-rule="evenodd" clip-rule="evenodd" d="M8 0C12.4183 0 16 3.58172 16 8C15.9999 12.4182 12.4182 16 8 16C3.5818 16 0.000131944 12.4182 0 8C0 3.58172 3.58172 0 8 0ZM8 2C4.68629 2 2 4.68629 2 8C2.00013 11.3136 4.68637 14 8 14C11.3136 14 13.9999 11.3136 14 8C14 4.68629 11.3137 2 8 2Z" fill="#191919"/>
</svg>
