<svg width="16" height="16" viewBox="0 0 16 16" fill="none" xmlns="http://www.w3.org/2000/svg">
<path fill-rule="evenodd" clip-rule="evenodd" d="M11.9287 6.88867C13.1641 6.17411 14.7429 6.54465 15.5312 7.73438C16.3319 8.94316 16.034 10.5688 14.8574 11.416L9.27637 15.4355C8.40011 16.0665 7.25323 16.1823 6.26855 15.7393L0.987305 13.3623C0.386491 13.0919 0 12.4938 0 11.835V8.67383C0.00030856 7.74934 0.750238 7 1.6748 7H9.33105C9.83188 7 10.2575 7.31597 10.4238 7.75879L11.9287 6.88867ZM13.8633 8.83887C13.6589 8.53097 13.2497 8.43503 12.9297 8.62012L10.2549 10.168C9.79234 11.2451 8.72304 12 7.47656 12H6C5.44772 12 5 11.5523 5 11C5 10.4477 5.44772 10 6 10H7.47656C8.03391 10 8.48665 9.55438 8.49902 9H2V11.624L7.08984 13.915C7.42304 14.0649 7.8109 14.0259 8.10742 13.8125L13.6895 9.79297C13.9941 9.57334 14.0707 9.15199 13.8633 8.83887Z" fill="#191919"/>
<path fill-rule="evenodd" clip-rule="evenodd" d="M8 0C9.65685 0 11 1.34315 11 3C11 4.65685 9.65685 6 8 6C6.34315 6 5 4.65685 5 3C5 1.34315 6.34315 0 8 0ZM8 2C7.44772 2 7 2.44772 7 3C7 3.55228 7.44772 4 8 4C8.55229 4 9 3.55228 9 3C9 2.44772 8.55229 2 8 2Z" fill="#191919"/>
</svg>
