<svg width="16" height="16" viewBox="0 0 16 16" fill="none" xmlns="http://www.w3.org/2000/svg">
<path d="M10.4502 5.5C10.6419 5.12497 10.75 4.70011 10.75 4.25C10.75 2.73122 9.51882 1.5 8.00004 1.5C6.48126 1.5 5.25004 2.73122 5.25004 4.25C5.25004 4.70011 5.35818 5.12497 5.5499 5.5H4.75434C3.973 5.5 3.28633 6.01796 3.07168 6.76924L1.6431 11.7692C1.3237 12.8872 2.16311 14 3.32577 14H12.6743C13.837 14 14.6764 12.8872 14.357 11.7692L12.9284 6.76924C12.7138 6.01796 12.0271 5.5 11.2457 5.5H10.4502ZM6.75004 4.25C6.75004 3.55964 7.30969 3 8.00004 3C8.6904 3 9.25004 3.55964 9.25004 4.25C9.25004 4.94036 8.6904 5.5 8.00004 5.5C7.30969 5.5 6.75004 4.94036 6.75004 4.25ZM4.75434 7H11.2457C11.3574 7 11.4555 7.07399 11.4861 7.18132L12.9147 12.1813C12.9603 12.341 12.8404 12.5 12.6743 12.5H3.32577C3.15968 12.5 3.03976 12.341 3.08539 12.1813L4.51396 7.18132C4.54463 7.07399 4.64272 7 4.75434 7Z" fill="#191919"/>
</svg>
