<svg width="16" height="16" viewBox="0 0 16 16" fill="none" xmlns="http://www.w3.org/2000/svg">
<path d="M6.75 2.5H9.25C9.94036 2.5 10.5 3.05964 10.5 3.75V4H5.5V3.75C5.5 3.05964 6.05964 2.5 6.75 2.5ZM12 4V3.75C12 2.23122 10.7688 1 9.25 1H6.75C5.23122 1 4 2.23122 4 3.75V4H1.75C1.33579 4 1 4.33579 1 4.75C1 5.16421 1.33579 5.5 1.75 5.5H2.5748L3.31563 12.5379C3.46296 13.9375 4.64319 15 6.05052 15H9.94948C11.3568 15 12.537 13.9375 12.6844 12.5379L13.4252 5.5H14.25C14.6642 5.5 15 5.16421 15 4.75C15 4.33579 14.6642 4 14.25 4H12ZM11.9169 5.5L11.1926 12.3809C11.1256 13.017 10.5892 13.5 9.94948 13.5H6.05052C5.41082 13.5 4.87436 13.017 4.80739 12.3809L4.08309 5.5H11.9169ZM6.75 7C7.16421 7 7.5 7.33579 7.5 7.75V11.25C7.5 11.6642 7.16421 12 6.75 12C6.33579 12 6 11.6642 6 11.25V7.75C6 7.33579 6.33579 7 6.75 7ZM9.25 7C9.66421 7 10 7.33579 10 7.75V11.25C10 11.6642 9.66421 12 9.25 12C8.83579 12 8.5 11.6642 8.5 11.25V7.75C8.5 7.33579 8.83579 7 9.25 7Z" fill="#191919"/>
</svg>
