<svg width="16" height="16" viewBox="0 0 16 16" fill="none" xmlns="http://www.w3.org/2000/svg">
<path d="M2 2C0.895431 2 0 2.89543 0 4V11C0 12.1046 0.895431 13 2 13H2.38217L2.10579 13.5528C1.8588 14.0467 2.05903 14.6474 2.55301 14.8944C3.04698 15.1414 3.64766 14.9412 3.89465 14.4472L4.61824 13H11.3818L12.1054 14.4472C12.3523 14.9412 12.953 15.1414 13.447 14.8944C13.941 14.6474 14.1412 14.0467 13.8942 13.5528L13.6178 13H14C15.1046 13 16 12.1046 16 11V4C16 2.89543 15.1046 2 14 2H2Z" fill="#191919"/>
</svg>
