<svg width="16" height="16" viewBox="0 0 16 16" fill="none" xmlns="http://www.w3.org/2000/svg">
<path d="M1 3.75C1 2.23122 2.23122 1 3.75 1H12.25C13.7688 1 15 2.23122 15 3.75V9.25C15 10.7688 13.7688 12 12.25 12H9.5V13.5H11.25C11.6642 13.5 12 13.8358 12 14.25C12 14.6642 11.6642 15 11.25 15H4.75C4.33579 15 4 14.6642 4 14.25C4 13.8358 4.33579 13.5 4.75 13.5H6.5V12H3.75C2.23122 12 1 10.7688 1 9.25V3.75ZM3.75 2.5C3.05964 2.5 2.5 3.05964 2.5 3.75V9.25C2.5 9.94036 3.05964 10.5 3.75 10.5H12.25C12.9404 10.5 13.5 9.94036 13.5 9.25V3.75C13.5 3.05964 12.9404 2.5 12.25 2.5H3.75Z" fill="#191919"/>
</svg>
