<svg width="16" height="16" viewBox="0 0 16 16" fill="none" xmlns="http://www.w3.org/2000/svg">
<path d="M4.5 4.50238C4.5 2.56938 6.067 1.00238 8 1.00238C9.22816 1.00238 10.308 1.63555 10.9316 2.58976C11.1582 2.9365 11.0607 3.40128 10.714 3.62787C10.3673 3.85445 9.90248 3.75704 9.6759 3.4103C9.31762 2.86203 8.70061 2.50238 8 2.50238C6.89543 2.50238 6 3.39781 6 4.50238V5.50003H11.25C12.7688 5.50003 14 6.73124 14 8.25003V12.2476C14 13.7664 12.7688 14.9976 11.25 14.9976H4.75C3.23122 14.9976 2 13.7664 2 12.2476V8.25003C2 6.81552 3.09838 5.63755 4.5 5.51124V4.50238ZM4.75 7.00003C4.05964 7.00003 3.5 7.55967 3.5 8.25003V12.2476C3.5 12.938 4.05964 13.4976 4.75 13.4976H11.25C11.9404 13.4976 12.5 12.938 12.5 12.2476V8.25003C12.5 7.55967 11.9404 7.00003 11.25 7.00003H4.75ZM8 8.99921C8.41422 8.99921 8.75 9.33499 8.75 9.74921V10.75C8.75 11.1642 8.41422 11.5 8 11.5C7.58579 11.5 7.25 11.1642 7.25 10.75V9.74921C7.25 9.33499 7.58579 8.99921 8 8.99921Z" fill="#191919"/>
</svg>
