<svg width="16" height="16" viewBox="0 0 16 16" fill="none" xmlns="http://www.w3.org/2000/svg">
<path fill-rule="evenodd" clip-rule="evenodd" d="M15 4.60002V8.90002L15 8.9463C15.0001 9.18454 15.0002 9.46905 14.9798 9.71969C14.956 10.0101 14.8951 10.4261 14.673 10.862C14.3854 11.4265 13.9265 11.8854 13.362 12.173C12.9261 12.3951 12.5101 12.456 12.2197 12.4798C11.969 12.5002 11.6845 12.5001 11.4463 12.5L11.4 12.5H10.5V11C11.1398 11 11.7796 10.7559 12.2678 10.2678C13.2441 9.29148 13.2441 7.70857 12.2678 6.73226L9.76779 4.23226C8.79148 3.25595 7.20857 3.25595 6.23226 4.23226L3.73226 6.73226C2.75595 7.70857 2.75595 9.29148 3.73226 10.2678C4.22041 10.7559 4.86022 11 5.50002 11V12.5H4.60002L4.55375 12.5C4.31551 12.5001 4.031 12.5002 3.78036 12.4798C3.48993 12.456 3.07394 12.3951 2.63805 12.173C2.07357 11.8854 1.61462 11.4265 1.327 10.862C1.10491 10.4261 1.04402 10.0101 1.02029 9.71969C0.999812 9.46905 0.999921 9.18454 1.00001 8.9463L1.00002 8.90002L1.00002 4.60002L1.00001 4.55375C0.999921 4.31551 0.999812 4.031 1.02029 3.78036C1.04402 3.48993 1.10491 3.07394 1.327 2.63805C1.61462 2.07357 2.07357 1.61462 2.63805 1.327C3.07394 1.10491 3.48993 1.04402 3.78036 1.02029C4.031 0.999813 4.31551 0.999921 4.55375 1.00001L4.60002 1.00002L11.4 1.00002L11.4463 1.00001C11.6845 0.999922 11.969 0.999813 12.2197 1.02029C12.5101 1.04402 12.9261 1.10491 13.362 1.32701C13.9265 1.61463 14.3854 2.07357 14.673 2.63805C14.8951 3.07394 14.956 3.48993 14.9798 3.78036C15.0002 4.031 15.0001 4.31551 15 4.55375L15 4.60002Z" fill="#191919"/>
<path fill-rule="evenodd" clip-rule="evenodd" d="M7.29292 5.29292C7.68344 4.90239 8.31661 4.90239 8.70713 5.29292L11.2071 7.79292C11.5977 8.18344 11.5977 8.81661 11.2071 9.20713C10.8166 9.59766 10.1834 9.59766 9.79292 9.20713L9.00002 8.41424V15C9.00002 15.5523 8.55231 16 8.00002 16C7.44774 16 7.00002 15.5523 7.00002 15V8.41424L6.20713 9.20713C5.81661 9.59766 5.18344 9.59766 4.79292 9.20713C4.40239 8.81661 4.40239 8.18344 4.79292 7.79292L7.29292 5.29292Z" fill="#191919"/>
</svg>
