<svg width="16" height="16" viewBox="0 0 16 16" fill="none" xmlns="http://www.w3.org/2000/svg">
<path d="M7 15V7.16406L4.70703 9.45703C4.31651 9.84756 3.68349 9.84756 3.29297 9.45703C2.90244 9.06651 2.90244 8.43349 3.29297 8.04297L6.81934 4.5166L6.94629 4.40234C7.1523 4.23432 7.38894 4.1233 7.63574 4.06836C7.74857 4.02424 7.87154 4 8 4C8.12678 4.00002 8.24777 4.02433 8.35938 4.06738C8.6603 4.13343 8.94663 4.28262 9.18066 4.5166L12.707 8.04297C13.0976 8.43349 13.0976 9.06651 12.707 9.45703C12.3165 9.84756 11.6835 9.84756 11.293 9.45703L9 7.16406V15C9 15.5522 8.5522 15.9999 8 16C7.44772 16 7 15.5523 7 15ZM14 1C14.5523 1 15 1.44772 15 2C15 2.55228 14.5523 3 14 3H2C1.44772 3 1 2.55228 1 2C1 1.44772 1.44772 1 2 1H14Z" fill="#191919"/>
</svg>
