<svg width="16" height="16" viewBox="0 0 16 16" fill="none" xmlns="http://www.w3.org/2000/svg">
<path fill-rule="evenodd" clip-rule="evenodd" d="M4 8.58332C5.5187 8.58332 6.74987 9.81464 6.75 11.3333C6.75 12.8521 5.51878 14.0833 4 14.0833C2.48122 14.0833 1.25 12.8521 1.25 11.3333C1.25013 9.81464 2.4813 8.58332 4 8.58332ZM4 10.0833C3.30972 10.0833 2.75013 10.6431 2.75 11.3333C2.75 12.0237 3.30964 12.5833 4 12.5833C4.69036 12.5833 5.25 12.0237 5.25 11.3333C5.24987 10.6431 4.69028 10.0833 4 10.0833Z" fill="#191919"/>
<path fill-rule="evenodd" clip-rule="evenodd" d="M12 8.58332C13.5187 8.58332 14.7499 9.81464 14.75 11.3333C14.75 12.8521 13.5188 14.0833 12 14.0833C10.4812 14.0833 9.25 12.8521 9.25 11.3333C9.25013 9.81464 10.4813 8.58332 12 8.58332ZM12 10.0833C11.3097 10.0833 10.7501 10.6431 10.75 11.3333C10.75 12.0237 11.3096 12.5833 12 12.5833C12.6904 12.5833 13.25 12.0237 13.25 11.3333C13.2499 10.6431 12.6903 10.0833 12 10.0833Z" fill="#191919"/>
<path d="M7.46973 5.13703C7.72252 4.88423 8.11855 4.84497 8.41602 5.04328C8.49816 5.09804 8.57395 5.14878 8.64355 5.19562C9.03446 5.4587 9.25038 5.60404 9.54785 5.71222C9.88439 5.8346 10.3652 5.91728 11.333 5.9173C11.7472 5.9173 12.083 6.25309 12.083 6.6673C12.0828 7.08133 11.7471 7.4173 11.333 7.4173C10.3012 7.41728 9.61518 7.33232 9.03516 7.1214C8.89078 7.06889 8.75528 7.00897 8.62598 6.94367C8.3465 7.33105 7.95667 7.74119 7.55664 8.02863C8.3063 8.93454 8.74994 10.1388 8.75 11.3333V11.9993C8.75 12.4136 8.41421 12.7503 8 12.7503C7.58582 12.7503 7.25005 12.4145 7.25 12.0003V11.3333C7.24992 10.2278 6.70322 9.11523 5.9043 8.50324C5.42274 8.13422 5.25624 7.34954 5.77637 6.82941L7.46973 5.13703Z" fill="#191919"/>
<path d="M5.07715 2.9798C5.40254 2.65441 5.93041 2.6545 6.25586 2.9798L6.85352 3.57746C7.17895 3.9029 7.17895 4.43073 6.85352 4.75617L4.92285 6.68683C4.59741 7.01227 4.06958 7.01227 3.74414 6.68683L3.14648 6.08918C2.82125 5.7638 2.82131 5.23685 3.14648 4.91144L5.07715 2.9798Z" fill="#191919"/>
<path d="M13.1709 1.8343C13.2751 1.69851 13.4923 1.78976 13.4688 1.9593L13.2773 3.33332H14.6621C14.8002 3.33332 14.8789 3.49223 14.7949 3.60187L12.8291 6.16535C12.7249 6.3012 12.5077 6.21088 12.5312 6.04133L12.7227 4.6673H11.3379C11.1998 4.6673 11.1212 4.50838 11.2051 4.39875L13.1709 1.8343Z" fill="#191919"/>
<path d="M9.33301 2.00031C10.0693 2.00031 10.6669 2.59705 10.667 3.33332C10.667 4.0697 10.0694 4.6673 9.33301 4.6673C8.59678 4.66713 8 4.06959 8 3.33332C8.00013 2.59716 8.59686 2.00049 9.33301 2.00031Z" fill="#191919"/>
</svg>
