<svg width="16" height="16" viewBox="0 0 16 16" fill="none" xmlns="http://www.w3.org/2000/svg">
<path fill-rule="evenodd" clip-rule="evenodd" d="M7.36523 3.9629C7.64046 3.9629 7.94028 3.95481 8.22168 4.04298C8.44754 4.11385 8.65716 4.22977 8.83691 4.3838C9.06045 4.57546 9.21175 4.83332 9.35742 5.06642L10.6436 7.12501L12.7803 7.45118L12.9072 7.48243C13.1932 7.57913 13.3989 7.84141 13.416 8.15138L13.4248 8.31837C14.2182 8.80077 14.75 9.67057 14.75 10.667C14.7499 12.1857 13.5187 13.417 12 13.417C11.0003 13.417 10.1279 12.8818 9.64648 12.084H5.68652C5.2051 12.8817 4.33267 13.417 3.33301 13.417C1.81442 13.4168 0.583075 12.1856 0.583008 10.667C0.583008 9.14833 1.81437 7.91718 3.33301 7.917C3.37252 7.917 3.41206 7.92024 3.45117 7.92189L3.13574 7.417H2.66699C2.25282 7.417 1.91706 7.08116 1.91699 6.667C1.91699 6.25279 2.25278 5.917 2.66699 5.917H4.66699C5.08106 5.91718 5.41699 6.2529 5.41699 6.667C5.41694 7.00591 5.19048 7.28799 4.88184 7.38087L6.45605 9.90138L6.92871 7.29591L6.96973 7.15236C7.09604 6.83428 7.42927 6.63504 7.78027 6.68849L8.68848 6.82618L8.08594 5.86232C7.996 5.71841 7.94434 5.63648 7.90234 5.57716C7.86602 5.52588 7.85585 5.51851 7.86035 5.52247C7.8348 5.50066 7.80451 5.48373 7.77246 5.47365C7.76646 5.47239 7.74669 5.46927 7.7041 5.46681C7.63151 5.46264 7.53505 5.46193 7.36523 5.46193L6.66602 5.4629C6.25216 5.46255 5.91709 5.12682 5.91699 4.7129C5.91699 4.29891 6.2521 3.96325 6.66602 3.9629H7.36523ZM3.33301 9.417C2.6428 9.41718 2.08301 9.97676 2.08301 10.667C2.08308 11.3572 2.64284 11.9168 3.33301 11.917C4.02332 11.917 4.58294 11.3573 4.58301 10.667C4.58301 9.97665 4.02336 9.417 3.33301 9.417ZM12 9.417C11.3096 9.417 10.75 9.97665 10.75 10.667C10.7501 11.3573 11.3097 11.917 12 11.917C12.6903 11.917 13.2499 11.3573 13.25 10.667C13.25 9.97665 12.6904 9.417 12 9.417Z" fill="#191919"/>
</svg>
