<svg width="16" height="16" viewBox="0 0 16 16" fill="none" xmlns="http://www.w3.org/2000/svg">
<path d="M12 10.0833C11.3096 10.0833 10.75 10.643 10.75 11.3333C10.75 12.0237 11.3096 12.5833 12 12.5833C12.6904 12.5833 13.25 12.0237 13.25 11.3333C13.25 10.643 12.6904 10.0833 12 10.0833ZM9.25 11.3333C9.25 9.81455 10.4812 8.58333 12 8.58333C13.5188 8.58333 14.75 9.81455 14.75 11.3333C14.75 12.8521 13.5188 14.0833 12 14.0833C10.4812 14.0833 9.25 12.8521 9.25 11.3333Z" fill="#191919"/>
<path d="M4 10.0833C3.30964 10.0833 2.75 10.643 2.75 11.3333C2.75 12.0237 3.30964 12.5833 4 12.5833C4.69036 12.5833 5.25 12.0237 5.25 11.3333C5.25 10.643 4.69036 10.0833 4 10.0833ZM1.25 11.3333C1.25 9.81455 2.48122 8.58333 4 8.58333C5.51878 8.58333 6.75 9.81455 6.75 11.3333C6.75 12.8521 5.51878 14.0833 4 14.0833C2.48122 14.0833 1.25 12.8521 1.25 11.3333Z" fill="#191919"/>
<path d="M7.46967 5.13634C7.72247 4.88354 8.11856 4.84432 8.41603 5.04263C8.49824 5.09744 8.57345 5.14805 8.6431 5.19493C9.03437 5.45825 9.25034 5.60359 9.54797 5.71182C9.88455 5.83421 10.3653 5.91667 11.3333 5.91667C11.7475 5.91667 12.0833 6.25245 12.0833 6.66667C12.0833 7.08088 11.7475 7.41667 11.3333 7.41667C10.3014 7.41667 9.61545 7.33245 9.03536 7.12151C8.89075 7.06893 8.75507 7.00883 8.62558 6.94342C8.34603 7.3309 7.9566 7.74137 7.55646 8.02883C8.30617 8.93479 8.75 10.1387 8.75 11.3333V11.9993C8.75 12.4135 8.41421 12.75 8 12.75C7.58579 12.75 7.25 12.4142 7.25 12V11.3333C7.25 10.2277 6.70327 9.11539 5.90429 8.50336C5.42262 8.13439 5.25639 7.34961 5.77658 6.82943L7.46967 5.13634Z" fill="#191919"/>
<path d="M10.6667 3.33333C10.6667 4.06971 10.0697 4.66667 9.33333 4.66667C8.59695 4.66667 8 4.06971 8 3.33333C8 2.59695 8.59695 2 9.33333 2C10.0697 2 10.6667 2.59695 10.6667 3.33333Z" fill="#191919"/>
<path d="M6.25592 2.97978C5.93049 2.65434 5.40285 2.65434 5.07741 2.97978L3.14645 4.91074C2.82101 5.23618 2.82101 5.76382 3.14645 6.08926L3.74408 6.68689C4.06951 7.01232 4.59715 7.01232 4.92259 6.68689L6.85355 4.75592C7.17899 4.43049 7.17899 3.90285 6.85355 3.57741L6.25592 2.97978Z" fill="#191919"/>
</svg>
