<svg width="16" height="16" viewBox="0 0 16 16" fill="none" xmlns="http://www.w3.org/2000/svg">
<path fill-rule="evenodd" clip-rule="evenodd" d="M16 8C16 7.80535 15.9716 7.61174 15.9157 7.4253L14.7363 3.49428C14.2922 2.01384 12.9296 1 11.384 1H4.61605C3.07042 1 1.70779 2.01384 1.26365 3.49428L0.0843474 7.4253C0.0284154 7.61174 0 7.80535 0 8V14.2C0 14.48 0 14.62 0.0544967 14.727C0.102433 14.8211 0.178924 14.8976 0.273005 14.9455C0.379961 15 0.519974 15 0.8 15H1.7C1.98003 15 2.12004 15 2.227 14.9455C2.32108 14.8976 2.39757 14.8211 2.4455 14.727C2.5 14.62 2.5 14.48 2.5 14.2V13H13.5V14.2C13.5 14.48 13.5 14.62 13.5545 14.727C13.6024 14.8211 13.6789 14.8976 13.773 14.9455C13.88 15 14.02 15 14.3 15H15.2C15.48 15 15.62 15 15.727 14.9455C15.8211 14.8976 15.8976 14.8211 15.9455 14.727C16 14.62 16 14.48 16 14.2V8ZM13.55 6.5L12.8207 4.06898C12.6304 3.4345 12.0464 3 11.384 3H4.61605C3.95363 3 3.36965 3.4345 3.17931 4.06898L2.45 6.5H13.55ZM14 9.75C14 10.4404 13.4404 11 12.75 11C12.0596 11 11.5 10.4404 11.5 9.75C11.5 9.05964 12.0596 8.5 12.75 8.5C13.4404 8.5 14 9.05964 14 9.75ZM3.25 11C3.94036 11 4.5 10.4404 4.5 9.75C4.5 9.05964 3.94036 8.5 3.25 8.5C2.55964 8.5 2 9.05964 2 9.75C2 10.4404 2.55964 11 3.25 11Z" fill="#181818"/>
</svg>
