<svg width="16" height="16" viewBox="0 0 16 16" fill="none" xmlns="http://www.w3.org/2000/svg">
<path d="M1 9.74419C1 10.5238 1.45666 11.1967 2.11706 11.5101C2.43809 12.3798 3.27453 13 4.25581 13C5.16497 13 5.94978 12.4677 6.31556 11.6977H9.35886C9.72464 12.4677 10.5095 13 11.4186 13C12.3487 13 13.1487 12.4428 13.503 11.6441C14.3617 11.4385 15 10.6659 15 9.74419V8.50845C15 7.57726 14.3427 6.77552 13.4296 6.5929L12.442 6.39537C11.9913 6.30523 11.5868 6.05906 11.2997 5.70015L9.72606 3.73315C9.35534 3.26976 8.79408 3 8.20064 3H5.68744C5.00125 3 4.36538 3.36003 4.01234 3.94843L2.87917 5.83704C2.7142 6.11199 2.48408 6.34211 2.20913 6.50708L1.94843 6.6635C1.36003 7.01654 1 7.65242 1 8.3386V9.74419ZM12.3953 10.7209C12.3953 11.2604 11.958 11.6977 11.4186 11.6977C10.8792 11.6977 10.4419 11.2604 10.4419 10.7209C10.4419 10.1815 10.8792 9.74419 11.4186 9.74419C11.958 9.74419 12.3953 10.1815 12.3953 10.7209ZM4.25581 11.6977C3.71637 11.6977 3.27907 11.2604 3.27907 10.7209C3.27907 10.1815 3.71637 9.74419 4.25581 9.74419C4.79526 9.74419 5.23256 10.1815 5.23256 10.7209C5.23256 11.2604 4.79526 11.6977 4.25581 11.6977ZM10.1128 6.90698H8.16279C7.98298 6.90698 7.83721 6.76121 7.83721 6.5814V4.56279C7.83721 4.41894 7.95382 4.30233 8.09767 4.30233H8.20064C8.39845 4.30233 8.58554 4.39224 8.70911 4.54671L10.2827 6.51371C10.4014 6.66213 10.3029 6.90698 10.1128 6.90698ZM6.2093 6.90698H4.20331C4.00806 6.90698 3.89545 6.6745 3.99591 6.50708L5.12907 4.61847C5.24675 4.42233 5.45871 4.30233 5.68744 4.30233H6.27442C6.41827 4.30233 6.53488 4.41894 6.53488 4.56279V6.5814C6.53488 6.76121 6.38912 6.90698 6.2093 6.90698Z" fill="#191919"/>
</svg>
