<svg width="16" height="16" viewBox="0 0 16 16" fill="none" xmlns="http://www.w3.org/2000/svg">
<path d="M4 8.66702C5.47261 8.66703 6.66677 9.86047 6.66699 11.333C6.66699 12.8058 5.47275 14 4 14C2.52724 14 1.33301 12.8058 1.33301 11.333C1.33323 9.86046 2.52738 8.66702 4 8.66702ZM12.2725 8.68069C13.6171 8.81731 14.666 9.95334 14.666 11.334L14.6523 11.6065C14.5156 12.9509 13.3804 13.9999 12 14L11.7266 13.9864C10.472 13.8586 9.47424 12.8611 9.34668 11.6065L9.33301 11.334C9.33301 9.86135 10.5274 8.66718 12 8.66702L12.2725 8.68069ZM6.65137 5.12698C6.83677 5.0333 7.05518 5.03166 7.24219 5.1221C7.33001 5.16459 7.41123 5.2035 7.48633 5.24026C7.90969 5.4475 8.15431 5.56702 8.47461 5.63577C8.83883 5.7139 9.33758 5.72871 10.2998 5.59573C10.6645 5.54534 11.0014 5.80035 11.0518 6.16507C11.1019 6.5296 10.8469 6.86557 10.4824 6.91604C9.4637 7.05684 8.78377 7.066 8.19434 6.93948C8.1614 6.93241 8.12887 6.92491 8.09668 6.91702C8.09738 6.96507 8.09648 7.01389 8.09473 7.06253C8.08365 7.36979 8.02713 7.67345 7.91992 7.92971C8.75576 8.21663 9.37856 9.04534 9.24121 10.0078C9.12928 10.7915 8.93138 11.4813 8.62988 12.252L8.56445 12.378C8.38757 12.6513 8.03771 12.7715 7.72266 12.6485C7.36271 12.5076 7.18446 12.1022 7.3252 11.7422L7.50879 11.2403C7.67383 10.7533 7.78424 10.3014 7.85449 9.8096C7.88519 9.59321 7.74471 9.33817 7.45117 9.24612L6.40527 8.91995L6.27539 8.86331C6.1145 8.77443 5.99993 8.62652 5.94727 8.45706C5.88858 8.34416 5.88025 8.05902 5.95996 7.40432L6.29688 5.59964C6.33496 5.39546 6.46603 5.22071 6.65137 5.12698ZM4 10C3.26376 10 2.66721 10.5968 2.66699 11.333C2.66699 12.0694 3.26362 12.667 4 12.667C4.73637 12.667 5.33301 12.0694 5.33301 11.333C5.33279 10.5968 4.73623 10 4 10ZM12 10C11.2638 10.0002 10.666 10.5977 10.666 11.334C10.6663 12.07 11.2639 12.6669 12 12.667C12.736 12.6668 13.3327 12.07 13.333 11.334C13.333 10.5977 12.7362 10.0002 12 10ZM4.66699 5.67874C5.03496 5.67892 5.33291 5.97677 5.33301 6.34475V7.33303C5.33301 7.70111 5.03502 7.99984 4.66699 8.00003H2.27832C1.91029 7.99984 1.6123 7.70111 1.6123 7.33303V6.34475C1.61241 5.97677 1.91036 5.67893 2.27832 5.67874H4.66699ZM7.7959 2.08889C8.52524 1.98809 9.19885 2.49731 9.2998 3.22659C9.40062 3.95604 8.89058 4.62968 8.16113 4.7305C7.43171 4.83128 6.75902 4.32125 6.6582 3.59182C6.55749 2.8625 7.06661 2.18979 7.7959 2.08889Z" fill="#191919"/>
</svg>
