<svg width="16" height="16" viewBox="0 0 16 16" fill="none" xmlns="http://www.w3.org/2000/svg">
<path d="M9.66652 2.66665C9.66652 3.40303 9.06957 3.99998 8.33319 3.99998C7.59681 3.99998 6.99986 3.40303 6.99986 2.66665C6.99986 1.93027 7.59681 1.33331 8.33319 1.33331C9.06957 1.33331 9.66652 1.93027 9.66652 2.66665Z" fill="#191919"/>
<path d="M9.59488 6.38056C9.62866 6.09772 9.62141 5.79359 9.55744 5.49691L10.0824 6.02194C10.4419 6.38138 10.9294 6.58332 11.4377 6.58332H11.9998C12.414 6.58332 12.7498 6.9191 12.7498 7.33332C12.7498 7.74753 12.414 8.08332 11.9998 8.08332H11.4377C10.7207 8.08332 10.027 7.85796 9.45124 7.44648C9.5111 7.05604 9.56024 6.67069 9.59488 6.38056Z" fill="#191919"/>
<path d="M6.49578 10.3833C6.43328 10.3215 6.37014 10.259 6.30674 10.1958L6.18553 10.6201C6.05697 11.07 5.83273 11.487 5.52817 11.8423L4.09708 13.5119C3.82751 13.8264 3.86393 14.2999 4.17843 14.5694C4.49292 14.839 4.9664 14.8026 5.23596 14.4881L6.66705 12.8185C7.01033 12.418 7.28378 11.964 7.47713 11.4755C7.25655 11.1816 7.00996 10.8958 6.7236 10.6095C6.64875 10.5346 6.57503 10.4617 6.50052 10.388L6.49578 10.3833Z" fill="#191919"/>
<path d="M8.93386 6.26476C9.00519 5.66746 8.83756 4.98943 8.34702 4.66249C8.27061 4.61156 8.14419 4.57661 7.9892 4.55645C7.94756 4.54692 7.90453 4.54083 7.8604 4.5385C6.3793 4.46055 5.37071 5.16355 4.7601 6.0488C4.17514 6.89687 3.94783 7.91073 3.91725 8.60335C3.89898 9.01716 4.21963 9.36743 4.63344 9.3857C5.04725 9.40397 5.39752 9.08332 5.41579 8.66951C5.4371 8.18695 5.60605 7.46417 5.99486 6.90048C6.16359 6.65586 6.37108 6.44202 6.63322 6.28782L6.32318 9.00231C6.29185 9.25308 6.388 9.51371 6.60014 9.68268C8.02611 10.8185 9.11201 12.9139 9.67321 14.2841C9.83021 14.6674 10.2682 14.8508 10.6515 14.6938C11.0348 14.5368 11.2182 14.0988 11.0612 13.7155C10.5847 12.552 9.68285 10.7138 8.40431 9.32569L8.4466 9.12311C8.5162 8.77181 8.59884 8.35867 8.65311 8.10027C8.77366 7.52633 8.8741 6.7652 8.93386 6.26476Z" fill="#191919"/>
</svg>
