<svg width="16" height="16" viewBox="0 0 16 16" fill="none" xmlns="http://www.w3.org/2000/svg">
<path d="M5.99995 9.5C6.55211 9.50015 6.99995 9.94781 6.99995 10.5C6.99995 11.0522 6.55211 11.4999 5.99995 11.5C5.44766 11.5 4.99995 11.0523 4.99995 10.5C4.99995 9.94772 5.44766 9.5 5.99995 9.5Z" fill="#181818"/>
<path fill-rule="evenodd" clip-rule="evenodd" d="M12.9833 1.00586C13.6718 1.06317 14.2601 1.54236 14.4492 2.2168L15.4755 5.88379C15.7614 6.90467 15.0358 7.914 13.9999 7.99219V13.333C13.9999 14.2535 13.2534 15 12.333 15H3.66694C2.74656 14.9999 1.99995 14.2534 1.99995 13.333V7.99219C0.964319 7.91376 0.238592 6.90452 0.524361 5.88379L1.55073 2.2168L1.5937 2.08496C1.8345 1.43747 2.45478 1.00024 3.15522 1H12.8447L12.9833 1.00586ZM3.99995 13H7.99995V8H3.99995V13ZM9.99995 13H11.9999V8H9.99995V13ZM2.56831 6H13.4316L12.5917 3H3.40815L2.56831 6Z" fill="#181818"/>
</svg>
