<svg width="16" height="16" viewBox="0 0 16 16" fill="none" xmlns="http://www.w3.org/2000/svg">
<path d="M4.91957 3H11.0804C11.6146 2.99999 12.0604 2.99998 12.4247 3.02974C12.8046 3.06078 13.1612 3.12789 13.4985 3.29973C14.0159 3.56338 14.4366 3.98408 14.7003 4.50153C14.8721 4.83879 14.9392 5.19544 14.9703 5.57533C15 5.93956 15 6.3854 15 6.91955V9.08045C15 9.6146 15 10.0604 14.9703 10.4247C14.9392 10.8046 14.8721 11.1612 14.7003 11.4985C14.4366 12.0159 14.0159 12.4366 13.4985 12.7003C13.1612 12.8721 12.8046 12.9392 12.4247 12.9703C12.0604 13 11.6146 13 11.0805 13H4.91955C4.3854 13 3.93956 13 3.57533 12.9703C3.19545 12.9392 2.83879 12.8721 2.50153 12.7003C1.98408 12.4366 1.56338 12.0159 1.29973 11.4985C1.12789 11.1612 1.06078 10.8046 1.02974 10.4247C0.999981 10.0604 0.99999 9.61459 1 9.08043V6.91956C0.99999 6.38541 0.999981 5.93956 1.02974 5.57533C1.06078 5.19545 1.12789 4.83879 1.29973 4.50153C1.56338 3.98408 1.98408 3.56338 2.50153 3.29973C2.83879 3.12789 3.19545 3.06078 3.57533 3.02974C3.93956 2.99998 4.38541 2.99999 4.91957 3ZM3.69748 4.52476C3.41036 4.54822 3.27307 4.5901 3.18251 4.63624C2.94731 4.75608 2.75608 4.94731 2.63624 5.18251C2.5901 5.27307 2.54822 5.41035 2.52476 5.69748C2.50058 5.99336 2.5 6.37757 2.5 6.95V9.05C2.5 9.62243 2.50058 10.0066 2.52476 10.3025C2.54822 10.5896 2.5901 10.7269 2.63624 10.8175C2.75608 11.0527 2.94731 11.2439 3.18251 11.3638C3.27307 11.4099 3.41036 11.4518 3.69748 11.4752C3.99336 11.4994 4.37757 11.5 4.95 11.5H11.05C11.6224 11.5 12.0066 11.4994 12.3025 11.4752C12.5896 11.4518 12.7269 11.4099 12.8175 11.3638C13.0527 11.2439 13.2439 11.0527 13.3638 10.8175C13.4099 10.7269 13.4518 10.5896 13.4752 10.3025C13.4994 10.0066 13.5 9.62243 13.5 9.05V6.95C13.5 6.37757 13.4994 5.99336 13.4752 5.69748C13.4518 5.41035 13.4099 5.27307 13.3638 5.18251C13.2439 4.94731 13.0527 4.75608 12.8175 4.63624C12.7269 4.5901 12.5896 4.54822 12.3025 4.52476C12.0066 4.50058 11.6224 4.5 11.05 4.5H4.95C4.37757 4.5 3.99336 4.50058 3.69748 4.52476Z" fill="#191919"/>
<path d="M6.88642 6.09402C7.12489 5.96185 7.4163 5.9695 7.6475 6.114L9.6475 7.364C9.86679 7.50105 10 7.74141 10 8C10 8.25859 9.86679 8.49894 9.6475 8.636L7.6475 9.886C7.4163 10.0305 7.12489 10.0382 6.88642 9.90598C6.64796 9.77381 6.5 9.52264 6.5 9.25V6.75C6.5 6.47736 6.64796 6.22619 6.88642 6.09402Z" fill="#191919"/>
</svg>
