<svg width="16" height="16" viewBox="0 0 16 16" fill="none" xmlns="http://www.w3.org/2000/svg">
<path d="M10 14V11.667C10 10.7465 10.7465 10 11.667 10H14C14.5523 10 15 10.4477 15 11C15 11.5523 14.5523 12 14 12H12V14C12 14.5523 11.5523 15 11 15C10.4477 15 10 14.5523 10 14ZM10 2C10 1.44772 10.4477 1 11 1C11.5523 1 12 1.44772 12 2V4H14C14.5523 4 15 4.44772 15 5C15 5.55228 14.5523 6 14 6H11.667C10.7465 6 10 5.25348 10 4.33301V2ZM6 14C6 14.5523 5.55228 15 5 15C4.44772 15 4 14.5523 4 14V12H2C1.44772 12 1 11.5523 1 11C1 10.4477 1.44772 10 2 10H4.33301C5.25348 10 6 10.7465 6 11.667V14ZM6 4.33301C6 5.25348 5.25348 6 4.33301 6H2C1.44772 6 1 5.55228 1 5C1 4.44772 1.44772 4 2 4H4V2C4 1.44772 4.44772 1 5 1C5.55228 1 6 1.44772 6 2V4.33301Z" fill="#191919"/>
</svg>
