<svg width="16" height="16" viewBox="0 0 16 16" fill="none" xmlns="http://www.w3.org/2000/svg">
<path d="M1 12V11C1.00002 10.4477 1.44773 10 2 10C2.55227 10 2.99998 10.4477 3 11V12C3 12.5523 3.44772 13 4 13H5C5.55227 13 5.99998 13.4477 6 14C6 14.5523 5.55228 15 5 15H4C2.34315 15 1 13.6569 1 12ZM13 12V11C13 10.4477 13.4477 10 14 10C14.5523 10 15 10.4477 15 11V12C15 13.6569 13.6569 15 12 15H11C10.4477 15 10 14.5523 10 14C10 13.4477 10.4477 13 11 13H12C12.5523 13 13 12.5523 13 12ZM1 5V4C1 2.34315 2.34315 1 4 1H5C5.55228 1 6 1.44772 6 2C6 2.55228 5.55228 3 5 3H4C3.44772 3 3 3.44772 3 4V5C3 5.55228 2.55228 6 2 6C1.44772 6 1 5.55228 1 5ZM13 5V4C13 3.44774 12.5523 3 12 3H11C10.4477 3 10 2.55228 10 2C10 1.44774 10.4477 1 11 1H12C13.6568 1 15 2.34317 15 4V5C15 5.55228 14.5523 6 14 6C13.4477 6 13 5.55228 13 5Z" fill="#191919"/>
</svg>
