<svg width="16" height="16" viewBox="0 0 16 16" fill="none" xmlns="http://www.w3.org/2000/svg">
<path d="M8 2.75001C8 2.459 7.83166 2.19425 7.56812 2.07082C7.30458 1.94738 6.99342 1.98754 6.76986 2.17384L3.97846 4.50001H2.75C1.7835 4.50001 1 5.28351 1 6.25001V9.75001C1 10.7165 1.7835 11.5 2.75 11.5H3.97846L6.76986 13.8262C6.99342 14.0125 7.30458 14.0526 7.56812 13.9292C7.83166 13.8058 8 13.541 8 13.25V2.75001ZM4.73014 5.82617L6.5 4.35129V11.6487L4.73014 10.1738C4.59535 10.0615 4.42545 10 4.25 10H2.75C2.61193 10 2.5 9.88808 2.5 9.75001V6.25001C2.5 6.11194 2.61193 6.00001 2.75 6.00001H4.25C4.42545 6.00001 4.59535 5.9385 4.73014 5.82617Z" fill="#191919"/>
<path d="M11.2829 5.71967C10.99 5.42678 10.5151 5.42678 10.2222 5.71967C9.92934 6.01256 9.92934 6.48744 10.2222 6.78033L11.4419 8L10.2222 9.21967C9.92934 9.51256 9.92934 9.98744 10.2222 10.2803C10.5151 10.5732 10.99 10.5732 11.2829 10.2803L12.5026 9.06066L13.7222 10.2803C14.0151 10.5732 14.49 10.5732 14.7829 10.2803C15.0758 9.98744 15.0758 9.51256 14.7829 9.21967L13.5632 8L14.7829 6.78033C15.0758 6.48744 15.0758 6.01256 14.7829 5.71967C14.49 5.42678 14.0151 5.42678 13.7222 5.71967L12.5026 6.93934L11.2829 5.71967Z" fill="#191919"/>
</svg>
