<svg width="16" height="16" viewBox="0 0 16 16" fill="none" xmlns="http://www.w3.org/2000/svg">
<path d="M9.5 2.75001C9.5 2.459 9.33166 2.19425 9.06812 2.07082C8.80458 1.94738 8.49342 1.98754 8.26986 2.17384L5.47846 4.50001H4.25C3.2835 4.50001 2.5 5.28351 2.5 6.25001V9.75001C2.5 10.7165 3.2835 11.5 4.25 11.5H5.47846L8.26986 13.8262C8.49342 14.0125 8.80458 14.0526 9.06812 13.9292C9.33166 13.8058 9.5 13.541 9.5 13.25V2.75001ZM6.23014 5.82617L8 4.35129V11.6487L6.23014 10.1738C6.09535 10.0615 5.92545 10 5.75 10H4.25C4.11193 10 4 9.88808 4 9.75001V6.25001C4 6.11194 4.11193 6.00001 4.25 6.00001H5.75C5.92545 6.00001 6.09535 5.9385 6.23014 5.82617Z" fill="#191919"/>
<path d="M12.3284 5.17157C12.0355 4.87868 11.5607 4.87868 11.2678 5.17157C10.9749 5.46447 10.9749 5.93934 11.2678 6.23223C11.4999 6.46438 11.6841 6.73998 11.8097 7.04329C11.9353 7.34661 12 7.6717 12 8C12 8.32831 11.9353 8.6534 11.8097 8.95671C11.6841 9.26002 11.4999 9.53562 11.2678 9.76777C10.9749 10.0607 10.9749 10.5355 11.2678 10.8284C11.5607 11.1213 12.0355 11.1213 12.3284 10.8284C12.6999 10.457 12.9945 10.016 13.1955 9.53074C13.3965 9.04543 13.5 8.52529 13.5 8C13.5 7.47471 13.3965 6.95457 13.1955 6.46927C12.9945 5.98397 12.6999 5.54301 12.3284 5.17157Z" fill="#191919"/>
</svg>
