<svg width="16" height="16" viewBox="0 0 16 16" fill="none" xmlns="http://www.w3.org/2000/svg">
<path d="M8 2.75001C8 2.459 7.83166 2.19425 7.56812 2.07082C7.30458 1.94738 6.99342 1.98754 6.76986 2.17384L3.97846 4.50001H2.75C1.7835 4.50001 1 5.28351 1 6.25001V9.75001C1 10.7165 1.7835 11.5 2.75 11.5H3.97846L6.76986 13.8262C6.99342 14.0125 7.30458 14.0526 7.56812 13.9292C7.83166 13.8058 8 13.541 8 13.25V2.75001ZM4.73014 5.82618L6.5 4.35129V11.6487L4.73014 10.1738C4.59535 10.0615 4.42545 10 4.25 10H2.75C2.61193 10 2.5 9.88808 2.5 9.75001V6.25001C2.5 6.11194 2.61193 6.00001 2.75 6.00001H4.25C4.42545 6.00001 4.59535 5.9385 4.73014 5.82618Z" fill="#191919"/>
<path d="M11.8891 3.05026C12.182 2.75737 12.6569 2.75737 12.9498 3.05026C13.5998 3.70027 14.1154 4.47195 14.4672 5.32123C14.819 6.17051 15 7.08076 15 8.00001C15 8.91926 14.819 9.82951 14.4672 10.6788C14.1154 11.5281 13.5998 12.2997 12.9498 12.9497C12.6569 13.2426 12.182 13.2426 11.8891 12.9497C11.5962 12.6569 11.5962 12.182 11.8891 11.8891C12.3998 11.3784 12.805 10.772 13.0814 10.1048C13.3578 9.43748 13.5 8.72228 13.5 8.00001C13.5 7.27774 13.3578 6.56254 13.0814 5.89525C12.805 5.22796 12.3998 4.62164 11.8891 4.11092C11.5962 3.81803 11.5962 3.34316 11.8891 3.05026Z" fill="#191919"/>
<path d="M9.76777 5.17158C10.0607 4.87869 10.5355 4.87869 10.8284 5.17158C11.1999 5.54302 11.4945 5.98397 11.6955 6.46928C11.8965 6.95458 12 7.47472 12 8.00001C12 8.5253 11.8965 9.04544 11.6955 9.53074C11.4945 10.016 11.1999 10.457 10.8284 10.8284C10.5355 11.1213 10.0607 11.1213 9.76777 10.8284C9.47487 10.5355 9.47487 10.0607 9.76777 9.76778C9.99991 9.53563 10.1841 9.26003 10.3097 8.95672C10.4353 8.6534 10.5 8.32831 10.5 8.00001C10.5 7.6717 10.4353 7.34661 10.3097 7.0433C10.1841 6.73999 9.99991 6.46439 9.76777 6.23224C9.47487 5.93935 9.47487 5.46448 9.76777 5.17158Z" fill="#191919"/>
</svg>
