<svg width="16" height="16" viewBox="0 0 16 16" fill="none" xmlns="http://www.w3.org/2000/svg">
<path d="M3.21387 0C2.93772 0 2.71387 0.223858 2.71387 0.5V5.08889C1.70054 5.57046 1 6.60341 1 7.79999V15C1 15.5523 1.44772 16 2 16H6C6.55228 16 7 15.5523 7 15V7.79999C7 6.60308 6.29907 5.56989 5.2853 5.08849V0.5C5.2853 0.223858 5.06144 0 4.7853 0H3.21387Z" fill="#191919"/>
<path fill-rule="evenodd" clip-rule="evenodd" d="M11 12.5969C9.8479 11.6458 9 9.13809 9 6.43749C9 3.93749 9.75 3.3125 10.5 3.00003L13.5 3C14.25 3.3125 15 3.93749 15 6.43749C15 9.13809 14.1521 11.6458 13 12.5969V14H14C14.5523 14 15 14.4477 15 15C15 15.5523 14.5523 16 14 16H10C9.44772 16 9 15.5523 9 15C9 14.4477 9.44772 14 10 14H11V12.5969ZM13.5 6.4375C13.5 5.26715 13.3197 4.69372 13.1693 4.42227C13.1267 4.34542 13.0868 4.29102 13.0459 4.25H10.9541C10.9132 4.29102 10.8732 4.34543 10.8307 4.42227C10.6803 4.69372 10.5 5.26714 10.5 6.4375C10.5 6.70363 10.5089 6.9667 10.526 7.22523C10.7487 7.13228 10.9993 7.0625 11.25 7.0625C11.625 7.0625 11.8125 7.21875 12 7.375C12.1875 7.53125 12.375 7.6875 12.75 7.6875C12.9915 7.6875 13.233 7.62271 13.4495 7.53484C13.4824 7.17785 13.5 6.81065 13.5 6.4375Z" fill="#191919"/>
</svg>
