<svg width="16" height="16" viewBox="0 0 16 16" fill="none" xmlns="http://www.w3.org/2000/svg">
<path d="M11.3922 2.10785C11.6644 1.83569 11.5399 1.37094 11.1681 1.27132L9.82687 0.911944C9.13669 0.727009 8.40027 0.924333 7.89502 1.42958L5.67384 3.65077C5.16859 4.15601 4.97127 4.89243 5.1562 5.58262L5.66498 7.48142C5.71122 7.65396 5.66189 7.83807 5.53557 7.96438L1.51777 11.9822C1.18625 12.3137 1 12.7633 1 13.2322C1 14.2085 1.79146 15 2.76777 15C3.23661 15 3.68625 14.8137 4.01777 14.4822L8.03541 10.4645C8.16172 10.3382 8.34583 10.2889 8.51837 10.3351L10.4176 10.844C11.1078 11.029 11.8442 10.8316 12.3495 10.3264L14.5707 8.10521C15.0759 7.59996 15.2732 6.86354 15.0883 6.17336L14.7288 4.83167C14.6292 4.45989 14.1644 4.33536 13.8923 4.60753L11.2 7.29979C11.0758 7.42398 10.8956 7.4739 10.7252 7.43131L9.29087 7.07273C9.11173 7.02794 8.97185 6.88807 8.92707 6.70892L8.56849 5.27462C8.5259 5.10423 8.57583 4.92398 8.70003 4.79979L11.3922 2.10785Z" fill="#191919"/>
</svg>
