<svg width="16" height="16" viewBox="0 0 16 16" fill="none" xmlns="http://www.w3.org/2000/svg">
<path d="M11 7C11 4.79086 9.20914 3 7 3C4.79086 3 3 4.79086 3 7C3 9.20914 4.79086 11 7 11C9.20914 11 11 9.20914 11 7ZM13 7C13 8.2957 12.587 9.49384 11.8887 10.4746L15.207 13.793C15.5976 14.1835 15.5976 14.8165 15.207 15.207C14.8165 15.5976 14.1835 15.5976 13.793 15.207L10.4746 11.8887C9.49384 12.587 8.2957 13 7 13C3.68629 13 1 10.3137 1 7C1 3.68629 3.68629 1 7 1C10.3137 1 13 3.68629 13 7Z" fill="#191919"/>
<path d="M5.99998 9V5C5.99998 4.44772 6.44769 4 6.99998 4C7.55226 4 7.99998 4.44772 7.99998 5V9C7.99998 9.55229 7.55226 10 6.99998 10C6.44769 10 5.99998 9.55229 5.99998 9Z" fill="#191919"/>
<path d="M5.00498 5.995H9.00498C9.55727 5.995 10.005 6.44272 10.005 6.995C10.005 7.54729 9.55726 7.995 9.00498 7.995H5.00498C4.45269 7.995 4.00498 7.54729 4.00498 6.995C4.00498 6.44272 4.45269 5.995 5.00498 5.995Z" fill="#191919"/>
</svg>
