<svg width="16" height="16" viewBox="0 0 16 16" fill="none" xmlns="http://www.w3.org/2000/svg">
<path d="M11 7C11 4.79086 9.20914 3 7 3C4.79086 3 3 4.79086 3 7C3 9.20914 4.79086 11 7 11C9.20914 11 11 9.20914 11 7ZM9.00488 5.99512C9.55717 5.99512 10.0049 6.44283 10.0049 6.99512C10.0048 7.54735 9.55713 7.99512 9.00488 7.99512H5.00488C4.45268 7.99506 4.00494 7.54732 4.00488 6.99512C4.00488 6.44286 4.45264 5.99517 5.00488 5.99512H9.00488ZM13 7C13 8.2957 12.587 9.49384 11.8887 10.4746L15.207 13.793C15.5976 14.1835 15.5976 14.8165 15.207 15.207C14.8165 15.5976 14.1835 15.5976 13.793 15.207L10.4746 11.8887C9.49384 12.587 8.2957 13 7 13C3.68629 13 1 10.3137 1 7C1 3.68629 3.68629 1 7 1C10.3137 1 13 3.68629 13 7Z" fill="#191919"/>
</svg>
