<svg width="16" height="16" viewBox="0 0 16 16" fill="none" xmlns="http://www.w3.org/2000/svg">
<path fill-rule="evenodd" clip-rule="evenodd" d="M12 6.5C12 7.6575 11.6424 8.73148 11.0317 9.61752L14.7071 13.2929C15.0976 13.6834 15.0976 14.3166 14.7071 14.7071C14.3166 15.0976 13.6834 15.0976 13.2929 14.7071L9.61752 11.0317C8.73148 11.6424 7.6575 12 6.5 12C3.46243 12 1 9.53757 1 6.5C1 3.46243 3.46243 1 6.5 1C9.53757 1 12 3.46243 12 6.5ZM4.5 5.5C3.94772 5.5 3.5 5.94772 3.5 6.5C3.5 7.05228 3.94772 7.5 4.5 7.5H8.5C9.05228 7.5 9.5 7.05228 9.5 6.5C9.5 5.94772 9.05228 5.5 8.5 5.5H4.5Z" fill="#191919"/>
</svg>
