<svg width="288" height="76" viewBox="0 0 288 76" fill="none" xmlns="http://www.w3.org/2000/svg">
<g clip-path="url(#clip0_1_480)">
<rect width="288" height="76" rx="16" fill="#212121" fill-opacity="0.36"/>
<path d="M12.21 25L16.2 15.2H17.46L21.45 25H20.12L19.07 22.34H14.604L13.54 25H12.21ZM15.08 21.15H18.58L16.83 16.81L15.08 21.15ZM24.596 25.14C22.916 25.14 22.076 23.95 22.076 23.95L22.846 23.11C22.846 23.11 23.476 24.02 24.596 24.02C25.506 24.02 25.926 23.6 25.926 23.11C25.926 21.78 22.356 22.34 22.356 20.03C22.356 19.05 23.266 18.14 24.666 18.14C26.206 18.14 26.976 19.05 26.976 19.05L26.136 19.89C26.136 19.89 25.646 19.26 24.666 19.26C23.896 19.26 23.546 19.61 23.546 20.03C23.546 21.29 27.116 20.73 27.116 23.11C27.116 24.23 26.206 25.14 24.596 25.14ZM28.85 25V15.2H30.04V21.57L33.12 18.28H34.59L32 21.01L34.87 25H33.47L31.23 21.85L30.04 23.11V25H28.85ZM41.3331 25.14C39.7511 25.14 38.6311 24.02 38.6311 22.2V18.28H39.8211V22.2C39.8211 23.32 40.5211 24.02 41.5011 24.02C42.6211 24.02 43.4611 23.18 43.4611 21.92V18.28H44.6511V25H43.4611V24.02C43.4611 24.02 42.7611 25.14 41.3331 25.14ZM48.6322 25.14C46.9522 25.14 46.1122 23.95 46.1122 23.95L46.8822 23.11C46.8822 23.11 47.5122 24.02 48.6322 24.02C49.5422 24.02 49.9622 23.6 49.9622 23.11C49.9622 21.78 46.3922 22.34 46.3922 20.03C46.3922 19.05 47.3022 18.14 48.7022 18.14C50.2422 18.14 51.0122 19.05 51.0122 19.05L50.1722 19.89C50.1722 19.89 49.6822 19.26 48.7022 19.26C47.9322 19.26 47.5822 19.61 47.5822 20.03C47.5822 21.29 51.1522 20.73 51.1522 23.11C51.1522 24.23 50.2422 25.14 48.6322 25.14ZM57.5656 25.14C56.1656 25.14 55.2556 24.23 55.2556 23.18C55.2556 22.06 55.9556 21.36 57.2156 21.15L59.7356 20.73C59.7356 19.89 59.1056 19.26 58.1956 19.26C57.0756 19.26 56.3756 20.17 56.3756 20.17L55.6056 19.4C55.6056 19.4 56.5156 18.14 58.1956 18.14C59.8056 18.14 60.9256 19.26 60.9256 20.73V25H59.7356V24.09C59.7356 24.09 59.0356 25.14 57.5656 25.14ZM57.7056 24.09C58.8256 24.09 59.7356 23.18 59.7356 21.99V21.71L57.5656 22.06C56.8656 22.172 56.4456 22.62 56.4456 23.11C56.4456 23.642 56.8936 24.09 57.7056 24.09ZM63.0091 25V18.28H64.1991V19.26C64.1991 19.26 64.8991 18.14 66.3271 18.14C67.9091 18.14 69.0291 19.26 69.0291 21.08V25H67.8391V21.08C67.8391 19.96 67.1391 19.26 66.1591 19.26C65.0391 19.26 64.1991 20.1 64.1991 21.36V25H63.0091ZM71.4734 27.94C70.9134 27.94 70.4934 27.8 70.4934 27.8V26.68C70.4934 26.68 70.8434 26.82 71.2634 26.82C71.8934 26.82 72.2574 26.47 72.5234 25.84L72.8734 25L70.1434 18.28H71.4034L73.4334 23.46L75.4634 18.28H76.7234L73.7134 25.91C73.1534 27.31 72.5234 27.94 71.4734 27.94ZM80.6334 25.14C79.3034 25.14 78.6034 24.44 78.6034 23.04V19.4H77.3434V18.28H78.1134C78.4634 18.28 78.6734 18.084 78.6734 17.58V16.04H79.7934V18.28H81.3334V19.4H79.7934V22.97C79.7934 23.67 80.1434 24.02 80.7314 24.02C81.1934 24.02 81.6134 23.81 81.6134 23.81V24.93C81.6134 24.93 81.1934 25.14 80.6334 25.14ZM83.3518 25V15.2H84.5418V19.26C84.5418 19.26 85.2418 18.14 86.6418 18.14C88.2518 18.14 89.3718 19.26 89.3718 21.08V25H88.1818V21.08C88.1818 19.96 87.4818 19.26 86.5018 19.26C85.3818 19.26 84.5418 20.1 84.5418 21.29V25H83.3518ZM91.5312 25V18.28H92.7212V25H91.5312ZM92.0912 16.88C91.6712 16.88 91.3212 16.53 91.3212 16.11C91.3212 15.69 91.6712 15.34 92.0912 15.34C92.5112 15.34 92.8612 15.69 92.8612 16.11C92.8612 16.53 92.5112 16.88 92.0912 16.88ZM94.8829 25V18.28H96.0729V19.26C96.0729 19.26 96.7729 18.14 98.2009 18.14C99.7829 18.14 100.903 19.26 100.903 21.08V25H99.7129V21.08C99.7129 19.96 99.0129 19.26 98.0329 19.26C96.9129 19.26 96.0729 20.1 96.0729 21.36V25H94.8829ZM105.654 27.94C103.764 27.94 102.784 26.54 102.784 26.54L103.554 25.77C103.554 25.77 104.324 26.82 105.654 26.82C106.914 26.82 107.824 25.91 107.824 24.51V23.81C107.824 23.81 107.194 24.86 105.654 24.86C103.974 24.86 102.574 23.46 102.574 21.5C102.574 19.54 103.974 18.14 105.654 18.14C107.194 18.14 107.824 19.19 107.824 19.19V18.28H109.014V24.51C109.014 26.47 107.544 27.94 105.654 27.94ZM105.794 23.74C106.956 23.74 107.824 22.802 107.824 21.5C107.824 20.17 107.054 19.26 105.794 19.26C104.674 19.26 103.764 20.17 103.764 21.5C103.764 22.83 104.674 23.74 105.794 23.74Z" fill="white"/>
<path d="M19.3333 59V53.6666H14C13.6318 53.6666 13.3333 53.3682 13.3333 53C13.3333 52.6318 13.6318 52.3333 14 52.3333H19.3333V47C19.3333 46.6318 19.6318 46.3333 20 46.3333C20.3682 46.3333 20.6667 46.6318 20.6667 47V52.3333H26C26.3682 52.3333 26.6667 52.6318 26.6667 53C26.6667 53.3682 26.3682 53.6666 26 53.6666H20.6667V59C20.6667 59.3682 20.3682 59.6666 20 59.6666C19.6318 59.6666 19.3333 59.3682 19.3333 59Z" fill="white"/>
<path d="M54.1251 50.4999C54.1251 49.8095 53.5654 49.2499 52.8751 49.2499H51.2912L50.0412 47.3749H46.9602L45.7102 49.2499H44.1251C43.4347 49.2499 42.8751 49.8095 42.8751 50.4999V57.3749C42.8751 58.0652 43.4347 58.6249 44.1251 58.6249H52.8751C53.5654 58.6249 54.1251 58.0652 54.1251 57.3749V50.4999ZM50.3757 53.6249C50.3757 52.5893 49.5362 51.7499 48.5007 51.7499C47.4652 51.7499 46.6257 52.5893 46.6257 53.6249C46.6257 54.6604 47.4652 55.4999 48.5007 55.4999C49.5362 55.4999 50.3757 54.6604 50.3757 53.6249ZM51.6257 53.6249C51.6257 55.3508 50.2266 56.7499 48.5007 56.7499C46.7748 56.7499 45.3757 55.3508 45.3757 53.6249C45.3757 51.899 46.7748 50.4999 48.5007 50.4999C50.2266 50.4999 51.6257 51.899 51.6257 53.6249ZM55.3751 57.3749C55.3751 58.7556 54.2558 59.8749 52.8751 59.8749H44.1251C42.7444 59.8749 41.6251 58.7556 41.6251 57.3749V50.4999C41.6251 49.1192 42.7444 47.9999 44.1251 47.9999H45.0412L45.9201 46.6815C46.152 46.3338 46.5422 46.1249 46.9602 46.1249H50.0412C50.4591 46.1249 50.8495 46.3338 51.0813 46.6815L51.9602 47.9999H52.8751C54.2558 47.9999 55.3751 49.1192 55.3751 50.4999V57.3749Z" fill="white"/>
<path fill-rule="evenodd" clip-rule="evenodd" d="M75.0001 48.3336C75.0001 47.229 75.8955 46.3336 77.0001 46.3336C78.1046 46.3336 79.0001 47.229 79.0001 48.3336V52.3336C79.0001 53.4382 78.1046 54.3336 77.0001 54.3336C75.8955 54.3336 75.0001 53.4382 75.0001 52.3336V48.3336ZM77.6667 48.3336V52.3336C77.6667 52.7018 77.3683 53.0003 77.0001 53.0003C76.6319 53.0003 76.3334 52.7018 76.3334 52.3336V48.3336C76.3334 47.9654 76.6319 47.667 77.0001 47.667C77.3683 47.667 77.6667 47.9654 77.6667 48.3336Z" fill="white"/>
<path d="M73.6667 51.667C73.6667 51.2988 73.3683 51.0003 73.0001 51.0003C72.6319 51.0003 72.3334 51.2988 72.3334 51.667V52.3336C72.3334 54.6846 74.0719 56.6295 76.3334 56.953V58.3336H75.0001C74.6319 58.3336 74.3334 58.6321 74.3334 59.0003C74.3334 59.3685 74.6319 59.667 75.0001 59.667L79.0001 59.667C79.3683 59.667 79.6667 59.3685 79.6667 59.0003C79.6667 58.6321 79.3683 58.3336 79.0001 58.3336H77.6667V56.953C79.9283 56.6295 81.6667 54.6846 81.6667 52.3336V51.667C81.6667 51.2988 81.3683 51.0003 81.0001 51.0003C80.6319 51.0003 80.3334 51.2988 80.3334 51.667V52.3336C80.3334 54.1746 78.841 55.667 77.0001 55.667C75.1591 55.667 73.6667 54.1746 73.6667 52.3336V51.667Z" fill="white"/>
<g filter="url(#filter1_iiii_1_480)">
<rect x="248" y="38" width="28" height="28" rx="14" fill="url(#paint0_linear_1_480)" fill-opacity="0.66"/>
<path d="M262 46C262.199 46 262.39 46.079 262.53 46.2197L266.53 50.2197C266.823 50.5126 266.823 50.9874 266.53 51.2803C266.237 51.5732 265.763 51.5732 265.47 51.2803L262.75 48.5607V57.25C262.75 57.6642 262.414 58 262 58C261.586 58 261.25 57.6642 261.25 57.25V48.5607L258.53 51.2803C258.237 51.5732 257.763 51.5732 257.47 51.2803C257.177 50.9874 257.177 50.5126 257.47 50.2197L261.47 46.2197C261.61 46.079 261.801 46 262 46Z" fill="white"/>
</g>
</g>
<defs>
<filter id="filter1_iiii_1_480" x="248" y="38" width="28" height="28" filterUnits="userSpaceOnUse" color-interpolation-filters="sRGB">
<feFlood flood-opacity="0" result="BackgroundImageFix"/>
<feBlend mode="normal" in="SourceGraphic" in2="BackgroundImageFix" result="shape"/>
<feColorMatrix in="SourceAlpha" type="matrix" values="0 0 0 0 0 0 0 0 0 0 0 0 0 0 0 0 0 0 127 0" result="hardAlpha"/>
<feOffset/>
<feGaussianBlur stdDeviation="4"/>
<feComposite in2="hardAlpha" operator="arithmetic" k2="-1" k3="1"/>
<feColorMatrix type="matrix" values="0 0 0 0 1 0 0 0 0 1 0 0 0 0 1 0 0 0 1 0"/>
<feBlend mode="plus-darker" in2="shape" result="effect1_innerShadow_1_480"/>
<feColorMatrix in="SourceAlpha" type="matrix" values="0 0 0 0 0 0 0 0 0 0 0 0 0 0 0 0 0 0 127 0" result="hardAlpha"/>
<feMorphology radius="2" operator="dilate" in="SourceAlpha" result="effect2_innerShadow_1_480"/>
<feOffset dx="-2" dy="-2"/>
<feGaussianBlur stdDeviation="0.25"/>
<feComposite in2="hardAlpha" operator="arithmetic" k2="-1" k3="1"/>
<feColorMatrix type="matrix" values="0 0 0 0 0.14902 0 0 0 0 0.14902 0 0 0 0 0.14902 0 0 0 1 0"/>
<feBlend mode="plus-lighter" in2="effect1_innerShadow_1_480" result="effect2_innerShadow_1_480"/>
<feColorMatrix in="SourceAlpha" type="matrix" values="0 0 0 0 0 0 0 0 0 0 0 0 0 0 0 0 0 0 127 0" result="hardAlpha"/>
<feMorphology radius="3.5" operator="dilate" in="SourceAlpha" result="effect3_innerShadow_1_480"/>
<feOffset dx="3" dy="3"/>
<feGaussianBlur stdDeviation="0.25"/>
<feComposite in2="hardAlpha" operator="arithmetic" k2="-1" k3="1"/>
<feColorMatrix type="matrix" values="0 0 0 0 1 0 0 0 0 1 0 0 0 0 1 0 0 0 1 0"/>
<feBlend mode="normal" in2="effect2_innerShadow_1_480" result="effect3_innerShadow_1_480"/>
<feColorMatrix in="SourceAlpha" type="matrix" values="0 0 0 0 0 0 0 0 0 0 0 0 0 0 0 0 0 0 127 0" result="hardAlpha"/>
<feMorphology radius="1" operator="erode" in="SourceAlpha" result="effect4_innerShadow_1_480"/>
<feOffset/>
<feComposite in2="hardAlpha" operator="arithmetic" k2="-1" k3="1"/>
<feColorMatrix type="matrix" values="0 0 0 0 0.65098 0 0 0 0 0.65098 0 0 0 0 0.65098 0 0 0 1 0"/>
<feBlend mode="overlay" in2="effect3_innerShadow_1_480" result="effect4_innerShadow_1_480"/>
</filter>
<linearGradient id="paint0_linear_1_480" x1="248" y1="38" x2="262" y2="66" gradientUnits="userSpaceOnUse">
<stop stop-color="#5221CF"/>
<stop offset="1" stop-color="#C71AB5"/>
</linearGradient>
<clipPath id="clip0_1_480">
<rect width="288" height="76" rx="16" fill="white"/>
</clipPath>
</defs>
</svg>
